%
M48
M72
T01C0.0160
T02C0.0354
T03C0.0400
T04C0.1181
%
T01
X13400Y11050
X16180Y11070
X16150Y12650
X8600Y10850
X16040Y6930
X15680Y8240
X16000Y10300
X10700Y10450
X6500Y10420
X4350Y10330
X4310Y8360
X1150Y8350
X1000Y12100
X5106Y5754
X4870Y12780
X10100Y15750
X10050Y15000
X450Y9250
X14860Y18460
X16400Y18100
X13640Y17340
X14050Y18250
X13400Y10050
X4710Y16940
X6200Y16850
X2960Y16550
X11550Y16900
X7850Y16900
X3400Y8760
X2160Y9660
X4120Y15870
X6980Y13810
X9150Y14000
X8500Y14700
X8710Y11800
X7150Y12800
X3960Y4210
X12280Y8230
X6950Y3560
X8350Y4530
X4907Y18910
X10940Y14020
X11630Y13110
X10380Y7740
X9550Y7360
X11360Y6840
X11710Y8610
X8660Y9210
X11020Y7570
X14220Y7560
X10870Y6890
X8860Y7940
X15050Y500
X16550Y4660
X16270Y3910
X13250Y8920
X12583Y9587
X9540Y9480
X10170Y9380
X14000Y9940
X12970Y12510
X16070Y9620
X17230Y3970
X17560Y12990
X8890Y17300
X11860Y14100
X9600Y10480
X10740Y11470
X16120Y13280
X12700Y3350
X7630Y7820
X8310Y10260
X10600Y9390
X14340Y8770
X13950Y10660
X11320Y11780
X12760Y18910
X10810Y18640
X9740Y12300
X8460Y16140
X10200Y14300
X9650Y16080
X16690Y18900
X12780Y5460
X6090Y17320
X6850Y17530
X9870Y17160
X10520Y17450
X5307Y14203
X12930Y4950
X10640Y5060
X9260Y4920
X8830Y18900
X12160Y5610
X12720Y6100
X11020Y4590
X12760Y4440
X11940Y4060
X14050Y5240
X9120Y10770
X10990Y14600
X9590Y14960
X17500Y17680
X8830Y12380
X8550Y13950
X7740Y14510
X11680Y7340
X11390Y9300
X8500Y7690
X12350Y5200
X9107Y9313
X18660Y12320
X6103Y11980
X4970Y12240
X6610Y11820
X5000Y13200
X7290Y17780
X9870Y14000
X13930Y3010
T02
X1917Y13268
X1917Y11535
T03
X852Y15297
X852Y16297
X18637Y5296
X17637Y5296
X18637Y6296
X17637Y6296
X18637Y7296
X17637Y7296
X18637Y8296
X17637Y8296
X18637Y9296
X17637Y9296
X18637Y10296
X17637Y10296
X4274Y1478
X5274Y1478
X6274Y1478
X7274Y1478
X8274Y1478
X13604Y1264
X13604Y2264
X14604Y1264
X14604Y2264
X15604Y1264
X15604Y2264
X18640Y17590
X18640Y16590
X18640Y15590
X18640Y14590
X18640Y13590
X9900Y1520
X10900Y1420
X11900Y1520
X13500Y3800
X14500Y3800
X15500Y3800
T04
X1540Y18100
X1740Y2070
X18100Y1770
M30
