G75*
G70*
%OFA0B0*%
%FSLAX24Y24*%
%IPPOS*%
%LPD*%
%AMOC8*
5,1,8,0,0,1.08239X$1,22.5*
%
%ADD10C,0.0000*%
%ADD11R,0.0472X0.0472*%
D10*
X002641Y001725D02*
X002641Y019048D01*
X002643Y019114D01*
X002648Y019180D01*
X002658Y019246D01*
X002671Y019311D01*
X002687Y019375D01*
X002707Y019438D01*
X002731Y019500D01*
X002758Y019560D01*
X002788Y019619D01*
X002822Y019676D01*
X002859Y019731D01*
X002899Y019784D01*
X002941Y019835D01*
X002987Y019883D01*
X003035Y019929D01*
X003086Y019971D01*
X003139Y020011D01*
X003194Y020048D01*
X003251Y020082D01*
X003310Y020112D01*
X003370Y020139D01*
X003432Y020163D01*
X003495Y020183D01*
X003559Y020199D01*
X003624Y020212D01*
X003690Y020222D01*
X003756Y020227D01*
X003822Y020229D01*
X021538Y020229D01*
X021592Y020227D01*
X021645Y020222D01*
X021698Y020213D01*
X021750Y020200D01*
X021802Y020184D01*
X021852Y020164D01*
X021900Y020141D01*
X021947Y020114D01*
X021992Y020085D01*
X022035Y020052D01*
X022075Y020017D01*
X022113Y019979D01*
X022148Y019939D01*
X022181Y019896D01*
X022210Y019851D01*
X022237Y019804D01*
X022260Y019756D01*
X022280Y019706D01*
X022296Y019654D01*
X022309Y019602D01*
X022318Y019549D01*
X022323Y019496D01*
X022325Y019442D01*
X022326Y019442D02*
X022326Y001332D01*
X022325Y001332D02*
X022323Y001278D01*
X022318Y001225D01*
X022309Y001172D01*
X022296Y001120D01*
X022280Y001068D01*
X022260Y001018D01*
X022237Y000970D01*
X022210Y000923D01*
X022181Y000878D01*
X022148Y000835D01*
X022113Y000795D01*
X022075Y000757D01*
X022035Y000722D01*
X021992Y000689D01*
X021947Y000660D01*
X021900Y000633D01*
X021852Y000610D01*
X021802Y000590D01*
X021750Y000574D01*
X021698Y000561D01*
X021645Y000552D01*
X021592Y000547D01*
X021538Y000545D01*
X021538Y000544D02*
X003822Y000544D01*
X003756Y000546D01*
X003690Y000551D01*
X003624Y000561D01*
X003559Y000574D01*
X003495Y000590D01*
X003432Y000610D01*
X003370Y000634D01*
X003310Y000661D01*
X003251Y000691D01*
X003194Y000725D01*
X003139Y000762D01*
X003086Y000802D01*
X003035Y000844D01*
X002987Y000890D01*
X002941Y000938D01*
X002899Y000989D01*
X002859Y001042D01*
X002822Y001097D01*
X002788Y001154D01*
X002758Y001213D01*
X002731Y001273D01*
X002707Y001335D01*
X002687Y001398D01*
X002671Y001462D01*
X002658Y001527D01*
X002648Y001593D01*
X002643Y001659D01*
X002641Y001725D01*
X004381Y012080D02*
X004383Y012106D01*
X004389Y012132D01*
X004399Y012157D01*
X004412Y012180D01*
X004428Y012200D01*
X004448Y012218D01*
X004470Y012233D01*
X004493Y012245D01*
X004519Y012253D01*
X004545Y012257D01*
X004571Y012257D01*
X004597Y012253D01*
X004623Y012245D01*
X004647Y012233D01*
X004668Y012218D01*
X004688Y012200D01*
X004704Y012180D01*
X004717Y012157D01*
X004727Y012132D01*
X004733Y012106D01*
X004735Y012080D01*
X004733Y012054D01*
X004727Y012028D01*
X004717Y012003D01*
X004704Y011980D01*
X004688Y011960D01*
X004668Y011942D01*
X004646Y011927D01*
X004623Y011915D01*
X004597Y011907D01*
X004571Y011903D01*
X004545Y011903D01*
X004519Y011907D01*
X004493Y011915D01*
X004469Y011927D01*
X004448Y011942D01*
X004428Y011960D01*
X004412Y011980D01*
X004399Y012003D01*
X004389Y012028D01*
X004383Y012054D01*
X004381Y012080D01*
X004381Y013812D02*
X004383Y013838D01*
X004389Y013864D01*
X004399Y013889D01*
X004412Y013912D01*
X004428Y013932D01*
X004448Y013950D01*
X004470Y013965D01*
X004493Y013977D01*
X004519Y013985D01*
X004545Y013989D01*
X004571Y013989D01*
X004597Y013985D01*
X004623Y013977D01*
X004647Y013965D01*
X004668Y013950D01*
X004688Y013932D01*
X004704Y013912D01*
X004717Y013889D01*
X004727Y013864D01*
X004733Y013838D01*
X004735Y013812D01*
X004733Y013786D01*
X004727Y013760D01*
X004717Y013735D01*
X004704Y013712D01*
X004688Y013692D01*
X004668Y013674D01*
X004646Y013659D01*
X004623Y013647D01*
X004597Y013639D01*
X004571Y013635D01*
X004545Y013635D01*
X004519Y013639D01*
X004493Y013647D01*
X004469Y013659D01*
X004448Y013674D01*
X004428Y013692D01*
X004412Y013712D01*
X004399Y013735D01*
X004389Y013760D01*
X004383Y013786D01*
X004381Y013812D01*
D11*
X008229Y019451D03*
X009055Y019451D03*
X012062Y019451D03*
X012889Y019451D03*
X016007Y019442D03*
X016834Y019442D03*
X019944Y019442D03*
X020771Y019442D03*
M02*
