G75*
G70*
%OFA0B0*%
%FSLAX24Y24*%
%IPPOS*%
%LPD*%
%AMOC8*
5,1,8,0,0,1.08239X$1,22.5*
%
%ADD10C,0.0000*%
%ADD11R,0.0433X0.0394*%
%ADD12R,0.0472X0.0472*%
%ADD13R,0.0394X0.0433*%
%ADD14R,0.0402X0.0701*%
%ADD15R,0.0790X0.0591*%
%ADD16R,0.0797X0.0591*%
%ADD17R,0.0354X0.0138*%
%ADD18R,0.0472X0.0217*%
%ADD19R,0.0984X0.0787*%
%ADD20R,0.1299X0.0197*%
%ADD21R,0.0591X0.0110*%
%ADD22R,0.0110X0.0591*%
%ADD23R,0.0800X0.0800*%
%ADD24R,0.0551X0.0394*%
%ADD25R,0.0551X0.0551*%
%ADD26R,0.0173X0.0453*%
%ADD27R,0.0248X0.0453*%
%ADD28R,0.0453X0.0173*%
%ADD29R,0.0453X0.0248*%
%ADD30R,0.0600X0.0400*%
D10*
X002641Y001725D02*
X002641Y019048D01*
X002643Y019114D01*
X002648Y019180D01*
X002658Y019246D01*
X002671Y019311D01*
X002687Y019375D01*
X002707Y019438D01*
X002731Y019500D01*
X002758Y019560D01*
X002788Y019619D01*
X002822Y019676D01*
X002859Y019731D01*
X002899Y019784D01*
X002941Y019835D01*
X002987Y019883D01*
X003035Y019929D01*
X003086Y019971D01*
X003139Y020011D01*
X003194Y020048D01*
X003251Y020082D01*
X003310Y020112D01*
X003370Y020139D01*
X003432Y020163D01*
X003495Y020183D01*
X003559Y020199D01*
X003624Y020212D01*
X003690Y020222D01*
X003756Y020227D01*
X003822Y020229D01*
X021538Y020229D01*
X021592Y020227D01*
X021645Y020222D01*
X021698Y020213D01*
X021750Y020200D01*
X021802Y020184D01*
X021852Y020164D01*
X021900Y020141D01*
X021947Y020114D01*
X021992Y020085D01*
X022035Y020052D01*
X022075Y020017D01*
X022113Y019979D01*
X022148Y019939D01*
X022181Y019896D01*
X022210Y019851D01*
X022237Y019804D01*
X022260Y019756D01*
X022280Y019706D01*
X022296Y019654D01*
X022309Y019602D01*
X022318Y019549D01*
X022323Y019496D01*
X022325Y019442D01*
X022326Y019442D02*
X022326Y001332D01*
X022325Y001332D02*
X022323Y001278D01*
X022318Y001225D01*
X022309Y001172D01*
X022296Y001120D01*
X022280Y001068D01*
X022260Y001018D01*
X022237Y000970D01*
X022210Y000923D01*
X022181Y000878D01*
X022148Y000835D01*
X022113Y000795D01*
X022075Y000757D01*
X022035Y000722D01*
X021992Y000689D01*
X021947Y000660D01*
X021900Y000633D01*
X021852Y000610D01*
X021802Y000590D01*
X021750Y000574D01*
X021698Y000561D01*
X021645Y000552D01*
X021592Y000547D01*
X021538Y000545D01*
X021538Y000544D02*
X003822Y000544D01*
X003756Y000546D01*
X003690Y000551D01*
X003624Y000561D01*
X003559Y000574D01*
X003495Y000590D01*
X003432Y000610D01*
X003370Y000634D01*
X003310Y000661D01*
X003251Y000691D01*
X003194Y000725D01*
X003139Y000762D01*
X003086Y000802D01*
X003035Y000844D01*
X002987Y000890D01*
X002941Y000938D01*
X002899Y000989D01*
X002859Y001042D01*
X002822Y001097D01*
X002788Y001154D01*
X002758Y001213D01*
X002731Y001273D01*
X002707Y001335D01*
X002687Y001398D01*
X002671Y001462D01*
X002658Y001527D01*
X002648Y001593D01*
X002643Y001659D01*
X002641Y001725D01*
X004381Y012080D02*
X004383Y012106D01*
X004389Y012132D01*
X004399Y012157D01*
X004412Y012180D01*
X004428Y012200D01*
X004448Y012218D01*
X004470Y012233D01*
X004493Y012245D01*
X004519Y012253D01*
X004545Y012257D01*
X004571Y012257D01*
X004597Y012253D01*
X004623Y012245D01*
X004647Y012233D01*
X004668Y012218D01*
X004688Y012200D01*
X004704Y012180D01*
X004717Y012157D01*
X004727Y012132D01*
X004733Y012106D01*
X004735Y012080D01*
X004733Y012054D01*
X004727Y012028D01*
X004717Y012003D01*
X004704Y011980D01*
X004688Y011960D01*
X004668Y011942D01*
X004646Y011927D01*
X004623Y011915D01*
X004597Y011907D01*
X004571Y011903D01*
X004545Y011903D01*
X004519Y011907D01*
X004493Y011915D01*
X004469Y011927D01*
X004448Y011942D01*
X004428Y011960D01*
X004412Y011980D01*
X004399Y012003D01*
X004389Y012028D01*
X004383Y012054D01*
X004381Y012080D01*
X004381Y013812D02*
X004383Y013838D01*
X004389Y013864D01*
X004399Y013889D01*
X004412Y013912D01*
X004428Y013932D01*
X004448Y013950D01*
X004470Y013965D01*
X004493Y013977D01*
X004519Y013985D01*
X004545Y013989D01*
X004571Y013989D01*
X004597Y013985D01*
X004623Y013977D01*
X004647Y013965D01*
X004668Y013950D01*
X004688Y013932D01*
X004704Y013912D01*
X004717Y013889D01*
X004727Y013864D01*
X004733Y013838D01*
X004735Y013812D01*
X004733Y013786D01*
X004727Y013760D01*
X004717Y013735D01*
X004704Y013712D01*
X004688Y013692D01*
X004668Y013674D01*
X004646Y013659D01*
X004623Y013647D01*
X004597Y013639D01*
X004571Y013635D01*
X004545Y013635D01*
X004519Y013639D01*
X004493Y013647D01*
X004469Y013659D01*
X004448Y013674D01*
X004428Y013692D01*
X004412Y013712D01*
X004399Y013735D01*
X004389Y013760D01*
X004383Y013786D01*
X004381Y013812D01*
D11*
X008187Y013315D03*
X008857Y013315D03*
X009113Y014158D03*
X008444Y014158D03*
X010528Y015611D03*
X010528Y016280D03*
X015601Y015277D03*
X015601Y014608D03*
X017487Y012133D03*
X018157Y012133D03*
X018325Y009405D03*
X017656Y009405D03*
X006119Y004551D03*
X006119Y003882D03*
X004136Y010201D03*
X003467Y010201D03*
X018865Y017489D03*
X019747Y017494D03*
X019747Y018163D03*
X018865Y018159D03*
D12*
X019944Y019442D03*
X020771Y019442D03*
X016834Y019442D03*
X016007Y019442D03*
X012897Y019442D03*
X012070Y019442D03*
X009048Y019442D03*
X008221Y019442D03*
D13*
X006912Y019442D03*
X006243Y019442D03*
X005974Y017597D03*
X005974Y016927D03*
X008444Y015763D03*
X009113Y015763D03*
X009113Y014971D03*
X008444Y014971D03*
X011678Y015711D03*
X011678Y016380D03*
X012028Y017111D03*
X012028Y017780D03*
X013378Y016380D03*
X013378Y015711D03*
X015122Y016047D03*
X015791Y016047D03*
X015528Y017111D03*
X015528Y017780D03*
X014786Y019442D03*
X014117Y019442D03*
X010849Y019442D03*
X010180Y019442D03*
X018054Y019442D03*
X018723Y019442D03*
X007178Y011930D03*
X007178Y011261D03*
X007178Y010450D03*
X007178Y009781D03*
X005963Y009833D03*
X005294Y009833D03*
X005344Y008746D03*
X006013Y008746D03*
X011640Y005062D03*
X011640Y004393D03*
X015740Y008952D03*
X016410Y008952D03*
D14*
X007629Y015696D03*
X006928Y015696D03*
D15*
X008187Y016516D03*
X010256Y007115D03*
D16*
X009093Y007115D03*
X009350Y016516D03*
D17*
X016008Y007077D03*
X016008Y006821D03*
X016008Y006565D03*
X016008Y006309D03*
X016008Y006053D03*
X016008Y005797D03*
X016008Y005541D03*
X018311Y005541D03*
X018311Y005797D03*
X018311Y006053D03*
X018311Y006309D03*
X018311Y006565D03*
X018311Y006821D03*
X018311Y007077D03*
D18*
X004318Y008505D03*
X004318Y008879D03*
X004318Y009253D03*
X003294Y009253D03*
X003294Y008505D03*
X006757Y017112D03*
X006757Y017860D03*
X007780Y017860D03*
X007780Y017486D03*
X007780Y017112D03*
X010017Y017072D03*
X010017Y017446D03*
X010017Y017820D03*
X011040Y017820D03*
X011040Y017072D03*
X013717Y017072D03*
X013717Y017446D03*
X013717Y017820D03*
X014740Y017820D03*
X014740Y017072D03*
D19*
X005542Y014698D03*
X003376Y014698D03*
X003376Y011194D03*
X005542Y011194D03*
D20*
X005778Y012316D03*
X005778Y012631D03*
X005778Y012946D03*
X005778Y013261D03*
X005778Y013576D03*
D21*
X010045Y012835D03*
X010045Y012638D03*
X010045Y012441D03*
X010045Y012244D03*
X010045Y012047D03*
X010045Y011851D03*
X010045Y011654D03*
X010045Y011457D03*
X010045Y011260D03*
X010045Y011063D03*
X010045Y010866D03*
X010045Y010669D03*
X010045Y010473D03*
X010045Y010276D03*
X010045Y010079D03*
X010045Y009882D03*
X014612Y009882D03*
X014612Y010079D03*
X014612Y010276D03*
X014612Y010473D03*
X014612Y010669D03*
X014612Y010866D03*
X014612Y011063D03*
X014612Y011260D03*
X014612Y011457D03*
X014612Y011654D03*
X014612Y011851D03*
X014612Y012047D03*
X014612Y012244D03*
X014612Y012441D03*
X014612Y012638D03*
X014612Y012835D03*
D22*
X013805Y013642D03*
X013608Y013642D03*
X013411Y013642D03*
X013214Y013642D03*
X013017Y013642D03*
X012821Y013642D03*
X012624Y013642D03*
X012427Y013642D03*
X012230Y013642D03*
X012033Y013642D03*
X011836Y013642D03*
X011639Y013642D03*
X011443Y013642D03*
X011246Y013642D03*
X011049Y013642D03*
X010852Y013642D03*
X010852Y009075D03*
X011049Y009075D03*
X011246Y009075D03*
X011443Y009075D03*
X011639Y009075D03*
X011836Y009075D03*
X012033Y009075D03*
X012230Y009075D03*
X012427Y009075D03*
X012624Y009075D03*
X012821Y009075D03*
X013017Y009075D03*
X013214Y009075D03*
X013411Y009075D03*
X013608Y009075D03*
X013805Y009075D03*
D23*
X008216Y009858D03*
X008216Y011858D03*
D24*
X016625Y015392D03*
X017491Y015766D03*
X016625Y016140D03*
X017951Y017392D03*
X017085Y017766D03*
X017951Y018140D03*
D25*
X018227Y016536D03*
X019724Y016536D03*
X019683Y015530D03*
X018187Y015530D03*
X006006Y016056D03*
X004510Y016056D03*
D26*
X013641Y006859D03*
X013956Y006859D03*
X013956Y006091D03*
X013641Y006091D03*
D27*
X013289Y006091D03*
X014309Y006091D03*
X014309Y006859D03*
X013289Y006859D03*
D28*
X017270Y010539D03*
X018037Y010539D03*
X018037Y010854D03*
X017270Y010854D03*
X017471Y013180D03*
X017471Y013495D03*
X018239Y013495D03*
X018239Y013180D03*
D29*
X018239Y012828D03*
X017471Y012828D03*
X017471Y013848D03*
X018239Y013848D03*
X018037Y011206D03*
X017270Y011206D03*
X017270Y010186D03*
X018037Y010186D03*
D30*
X010651Y005704D03*
X007851Y005704D03*
X006861Y006917D03*
X004061Y006917D03*
M02*
