G75*
G70*
%OFA0B0*%
%FSLAX24Y24*%
%IPPOS*%
%LPD*%
%AMOC8*
5,1,8,0,0,1.08239X$1,22.5*
%
%ADD10C,0.0000*%
%ADD11R,0.0472X0.0472*%
%ADD12R,0.0600X0.0600*%
%ADD13OC8,0.0600*%
%ADD14C,0.0600*%
%ADD15C,0.0740*%
%ADD16C,0.2300*%
%ADD17C,0.0100*%
%ADD18OC8,0.0320*%
%ADD19C,0.0120*%
%ADD20C,0.0320*%
%ADD21C,0.0160*%
%ADD22C,0.0140*%
%ADD23C,0.0080*%
D10*
X002641Y001725D02*
X002641Y019048D01*
X002643Y019114D01*
X002648Y019180D01*
X002658Y019246D01*
X002671Y019311D01*
X002687Y019375D01*
X002707Y019438D01*
X002731Y019500D01*
X002758Y019560D01*
X002788Y019619D01*
X002822Y019676D01*
X002859Y019731D01*
X002899Y019784D01*
X002941Y019835D01*
X002987Y019883D01*
X003035Y019929D01*
X003086Y019971D01*
X003139Y020011D01*
X003194Y020048D01*
X003251Y020082D01*
X003310Y020112D01*
X003370Y020139D01*
X003432Y020163D01*
X003495Y020183D01*
X003559Y020199D01*
X003624Y020212D01*
X003690Y020222D01*
X003756Y020227D01*
X003822Y020229D01*
X021538Y020229D01*
X021592Y020227D01*
X021645Y020222D01*
X021698Y020213D01*
X021750Y020200D01*
X021802Y020184D01*
X021852Y020164D01*
X021900Y020141D01*
X021947Y020114D01*
X021992Y020085D01*
X022035Y020052D01*
X022075Y020017D01*
X022113Y019979D01*
X022148Y019939D01*
X022181Y019896D01*
X022210Y019851D01*
X022237Y019804D01*
X022260Y019756D01*
X022280Y019706D01*
X022296Y019654D01*
X022309Y019602D01*
X022318Y019549D01*
X022323Y019496D01*
X022325Y019442D01*
X022326Y019442D02*
X022326Y001332D01*
X022325Y001332D02*
X022323Y001278D01*
X022318Y001225D01*
X022309Y001172D01*
X022296Y001120D01*
X022280Y001068D01*
X022260Y001018D01*
X022237Y000970D01*
X022210Y000923D01*
X022181Y000878D01*
X022148Y000835D01*
X022113Y000795D01*
X022075Y000757D01*
X022035Y000722D01*
X021992Y000689D01*
X021947Y000660D01*
X021900Y000633D01*
X021852Y000610D01*
X021802Y000590D01*
X021750Y000574D01*
X021698Y000561D01*
X021645Y000552D01*
X021592Y000547D01*
X021538Y000545D01*
X021538Y000544D02*
X003822Y000544D01*
X003756Y000546D01*
X003690Y000551D01*
X003624Y000561D01*
X003559Y000574D01*
X003495Y000590D01*
X003432Y000610D01*
X003370Y000634D01*
X003310Y000661D01*
X003251Y000691D01*
X003194Y000725D01*
X003139Y000762D01*
X003086Y000802D01*
X003035Y000844D01*
X002987Y000890D01*
X002941Y000938D01*
X002899Y000989D01*
X002859Y001042D01*
X002822Y001097D01*
X002788Y001154D01*
X002758Y001213D01*
X002731Y001273D01*
X002707Y001335D01*
X002687Y001398D01*
X002671Y001462D01*
X002658Y001527D01*
X002648Y001593D01*
X002643Y001659D01*
X002641Y001725D01*
X004381Y012080D02*
X004383Y012106D01*
X004389Y012132D01*
X004399Y012157D01*
X004412Y012180D01*
X004428Y012200D01*
X004448Y012218D01*
X004470Y012233D01*
X004493Y012245D01*
X004519Y012253D01*
X004545Y012257D01*
X004571Y012257D01*
X004597Y012253D01*
X004623Y012245D01*
X004647Y012233D01*
X004668Y012218D01*
X004688Y012200D01*
X004704Y012180D01*
X004717Y012157D01*
X004727Y012132D01*
X004733Y012106D01*
X004735Y012080D01*
X004733Y012054D01*
X004727Y012028D01*
X004717Y012003D01*
X004704Y011980D01*
X004688Y011960D01*
X004668Y011942D01*
X004646Y011927D01*
X004623Y011915D01*
X004597Y011907D01*
X004571Y011903D01*
X004545Y011903D01*
X004519Y011907D01*
X004493Y011915D01*
X004469Y011927D01*
X004448Y011942D01*
X004428Y011960D01*
X004412Y011980D01*
X004399Y012003D01*
X004389Y012028D01*
X004383Y012054D01*
X004381Y012080D01*
X004381Y013812D02*
X004383Y013838D01*
X004389Y013864D01*
X004399Y013889D01*
X004412Y013912D01*
X004428Y013932D01*
X004448Y013950D01*
X004470Y013965D01*
X004493Y013977D01*
X004519Y013985D01*
X004545Y013989D01*
X004571Y013989D01*
X004597Y013985D01*
X004623Y013977D01*
X004647Y013965D01*
X004668Y013950D01*
X004688Y013932D01*
X004704Y013912D01*
X004717Y013889D01*
X004727Y013864D01*
X004733Y013838D01*
X004735Y013812D01*
X004733Y013786D01*
X004727Y013760D01*
X004717Y013735D01*
X004704Y013712D01*
X004688Y013692D01*
X004668Y013674D01*
X004646Y013659D01*
X004623Y013647D01*
X004597Y013639D01*
X004571Y013635D01*
X004545Y013635D01*
X004519Y013639D01*
X004493Y013647D01*
X004469Y013659D01*
X004448Y013674D01*
X004428Y013692D01*
X004412Y013712D01*
X004399Y013735D01*
X004389Y013760D01*
X004383Y013786D01*
X004381Y013812D01*
D11*
X008229Y019451D03*
X009055Y019451D03*
X012062Y019451D03*
X012889Y019451D03*
X016007Y019442D03*
X016834Y019442D03*
X019944Y019442D03*
X020771Y019442D03*
D12*
X003493Y015841D03*
X021278Y005840D03*
X016245Y001808D03*
X006914Y002022D03*
D13*
X007914Y002022D03*
X008914Y002022D03*
X009914Y002022D03*
X010914Y002022D03*
X020278Y005840D03*
X020278Y006840D03*
X021278Y006840D03*
X021278Y007840D03*
X020278Y007840D03*
X020278Y008840D03*
X021278Y008840D03*
X021278Y009840D03*
X020278Y009840D03*
X020278Y010840D03*
X021278Y010840D03*
X003493Y016841D03*
D14*
X016141Y004344D03*
X017141Y004344D03*
X018141Y004344D03*
X018245Y002808D03*
X017245Y002808D03*
X016245Y002808D03*
X017245Y001808D03*
X018245Y001808D03*
D15*
X014541Y002064D03*
X013541Y001964D03*
X012541Y002064D03*
X021281Y014134D03*
X021281Y015134D03*
X021281Y016134D03*
X021281Y017134D03*
X021281Y018134D03*
D16*
X004181Y018644D03*
X004381Y002614D03*
X020741Y002314D03*
D17*
X003023Y000534D02*
X002655Y000533D01*
X002656Y000883D01*
X002677Y000847D01*
X002677Y000847D01*
X002943Y000580D01*
X003023Y000534D01*
X003005Y000544D02*
X002655Y000544D01*
X002841Y000534D02*
X002841Y000683D01*
X002779Y000744D02*
X002655Y000744D01*
X002943Y000580D02*
X002943Y000580D01*
X003255Y000987D02*
X003465Y000865D01*
X003700Y000802D01*
X003822Y000794D01*
X003871Y000794D01*
X017474Y000794D01*
X017361Y000908D01*
X017361Y001181D01*
X017554Y001374D01*
X017684Y001374D01*
X017840Y001556D01*
X017775Y001714D01*
X017775Y001901D01*
X017846Y002074D01*
X017978Y002206D01*
X018151Y002278D01*
X018338Y002278D01*
X018511Y002206D01*
X018643Y002074D01*
X018715Y001901D01*
X018715Y001714D01*
X018643Y001542D01*
X018511Y001410D01*
X018338Y001338D01*
X018233Y001338D01*
X018021Y001091D01*
X018021Y000908D01*
X017907Y000794D01*
X021538Y000794D01*
X021622Y000801D01*
X021782Y000853D01*
X021918Y000952D01*
X022017Y001088D01*
X022069Y001248D01*
X022076Y001332D01*
X022076Y001381D01*
X022076Y004763D01*
X021791Y004432D01*
X021791Y004423D01*
X021732Y004365D01*
X021678Y004302D01*
X021668Y004301D01*
X021662Y004294D01*
X021579Y004294D01*
X021496Y004288D01*
X021489Y004294D01*
X020117Y004294D01*
X020007Y004184D01*
X019734Y004184D01*
X019541Y004378D01*
X019541Y004403D01*
X018965Y003493D01*
X018965Y003492D01*
X018916Y003416D01*
X018868Y003340D01*
X018867Y003339D01*
X018866Y003339D01*
X018779Y003320D01*
X018690Y003300D01*
X018689Y003300D01*
X018426Y003243D01*
X018491Y003210D01*
X018551Y003166D01*
X018603Y003114D01*
X018647Y003054D01*
X018680Y002988D01*
X018703Y002918D01*
X018713Y002858D01*
X018295Y002858D01*
X018295Y002758D01*
X018713Y002758D01*
X018703Y002698D01*
X018680Y002628D01*
X018647Y002562D01*
X018603Y002502D01*
X018551Y002449D01*
X018491Y002406D01*
X018425Y002372D01*
X018355Y002350D01*
X018295Y002340D01*
X018295Y002758D01*
X018195Y002758D01*
X018195Y002340D01*
X018135Y002350D01*
X018064Y002372D01*
X017998Y002406D01*
X017938Y002449D01*
X017886Y002502D01*
X017843Y002562D01*
X017809Y002628D01*
X017786Y002698D01*
X017777Y002758D01*
X018194Y002758D01*
X018194Y002858D01*
X017777Y002858D01*
X017781Y002883D01*
X017715Y002817D01*
X017715Y002714D01*
X017643Y002542D01*
X017511Y002410D01*
X017338Y002338D01*
X017151Y002338D01*
X016978Y002410D01*
X016846Y002542D01*
X016775Y002714D01*
X016775Y002858D01*
X016712Y002908D01*
X016715Y002901D01*
X016715Y002714D01*
X016643Y002542D01*
X016511Y002410D01*
X016338Y002338D01*
X016151Y002338D01*
X015978Y002410D01*
X015846Y002542D01*
X015775Y002714D01*
X015775Y002901D01*
X015799Y002961D01*
X015073Y002191D01*
X015081Y002172D01*
X015081Y001957D01*
X015002Y001766D01*
X015209Y001974D01*
X015392Y001974D01*
X015775Y001974D01*
X015775Y002178D01*
X015874Y002278D01*
X016615Y002278D01*
X016715Y002178D01*
X016715Y001438D01*
X016615Y001338D01*
X015874Y001338D01*
X015775Y001438D01*
X015775Y001534D01*
X015392Y001534D01*
X015161Y001303D01*
X015032Y001174D01*
X014912Y001174D01*
X014832Y001094D01*
X014282Y001094D01*
X014099Y001094D01*
X013734Y001460D01*
X013648Y001424D01*
X013433Y001424D01*
X013235Y001506D01*
X013083Y001658D01*
X013019Y001813D01*
X013002Y001781D01*
X012952Y001712D01*
X012892Y001652D01*
X012824Y001602D01*
X012748Y001564D01*
X012667Y001538D01*
X012591Y001525D01*
X012591Y002014D01*
X012491Y002014D01*
X012491Y001525D01*
X012414Y001538D01*
X012333Y001564D01*
X012258Y001602D01*
X012189Y001652D01*
X012129Y001712D01*
X012079Y001781D01*
X012040Y001857D01*
X012014Y001938D01*
X012002Y002014D01*
X012490Y002014D01*
X012490Y002114D01*
X012002Y002114D01*
X012014Y002191D01*
X012040Y002272D01*
X012079Y002347D01*
X012129Y002416D01*
X012189Y002476D01*
X012258Y002526D01*
X012333Y002565D01*
X012414Y002591D01*
X012491Y002603D01*
X012491Y002114D01*
X012591Y002114D01*
X012591Y002603D01*
X012667Y002591D01*
X012748Y002565D01*
X012824Y002526D01*
X012892Y002476D01*
X012952Y002416D01*
X013002Y002347D01*
X013041Y002272D01*
X013041Y003147D01*
X013044Y003144D02*
X010220Y003144D01*
X010199Y002944D02*
X013293Y002944D01*
X013290Y002947D02*
X013304Y002936D01*
X013378Y002944D01*
X014046Y002918D01*
X014049Y002914D01*
X014136Y002914D01*
X014223Y002911D01*
X014227Y002914D01*
X014253Y002914D01*
X014500Y002897D01*
X014734Y002826D01*
X014743Y002813D01*
X014820Y002800D01*
X014894Y002777D01*
X014907Y002784D01*
X014923Y002782D01*
X014986Y002827D01*
X015055Y002863D01*
X015059Y002878D01*
X015229Y002997D01*
X014799Y002542D01*
X014648Y002604D01*
X014433Y002604D01*
X014235Y002522D01*
X014083Y002370D01*
X014020Y002218D01*
X013998Y002270D01*
X013846Y002422D01*
X013648Y002504D01*
X013433Y002504D01*
X013235Y002422D01*
X013083Y002270D01*
X013060Y002214D01*
X013041Y002272D01*
X013004Y002344D02*
X013157Y002344D01*
X013241Y002424D02*
X013241Y002981D01*
X013220Y003003D02*
X013271Y002948D01*
X013290Y002947D01*
X013220Y003003D02*
X011294Y004546D01*
X011293Y004546D01*
X011225Y004601D01*
X011152Y004659D01*
X011152Y004660D01*
X011048Y004744D01*
X010854Y004744D01*
X010412Y004744D01*
X010387Y004544D02*
X011296Y004544D01*
X011241Y004588D02*
X011241Y002360D01*
X011257Y002344D02*
X012077Y002344D01*
X012041Y002272D02*
X012041Y003948D01*
X012045Y003944D02*
X010311Y003944D01*
X010286Y003744D02*
X012295Y003744D01*
X012241Y003788D02*
X012241Y002514D01*
X012293Y002544D02*
X010158Y002544D01*
X010149Y002452D02*
X010259Y003530D01*
X010479Y005282D01*
X010491Y005293D01*
X010491Y005370D01*
X010500Y005447D01*
X010491Y005460D01*
X010491Y006487D01*
X010499Y006498D01*
X010491Y006576D01*
X010491Y006655D01*
X010481Y006665D01*
X010453Y006910D01*
X010457Y006913D01*
X010474Y006980D01*
X010486Y006996D01*
X010486Y006996D01*
X010486Y006996D01*
X010484Y007019D01*
X010503Y007098D01*
X010467Y007157D01*
X010465Y007177D01*
X010464Y007177D01*
X010448Y007311D01*
X010307Y007421D01*
X009986Y007952D01*
X009973Y008195D01*
X010134Y008034D01*
X010186Y008034D01*
X010313Y007836D01*
X011112Y005404D01*
X010854Y005404D01*
X010661Y005211D01*
X010661Y004938D01*
X010854Y004744D01*
X010841Y004758D02*
X010841Y002492D01*
X010720Y002492D02*
X010444Y002217D01*
X010444Y001828D01*
X010720Y001552D01*
X011109Y001552D01*
X011384Y001828D01*
X011384Y002217D01*
X011109Y002492D01*
X010720Y002492D01*
X010641Y002413D02*
X010641Y006839D01*
X010672Y006744D02*
X010472Y006744D01*
X010465Y006944D02*
X010606Y006944D01*
X010540Y007144D02*
X010475Y007144D01*
X010441Y007317D02*
X010441Y007448D01*
X010409Y007544D02*
X010233Y007544D01*
X010241Y007532D02*
X010241Y007949D01*
X010243Y007944D02*
X009991Y007944D01*
X010041Y007862D02*
X010041Y008128D01*
X010024Y008144D02*
X009976Y008144D01*
X009771Y007864D02*
X009741Y008424D01*
X009691Y012444D01*
X009691Y012484D01*
X007541Y014634D01*
X007501Y014764D01*
X007871Y015134D01*
X008111Y015114D01*
X009341Y013934D01*
X009731Y013934D01*
X009741Y013994D01*
X011291Y013994D01*
X011331Y013984D01*
X011343Y013754D02*
X011366Y013749D01*
X011377Y013755D01*
X013118Y013796D01*
X012408Y013174D01*
X012244Y013174D01*
X012051Y012981D01*
X012051Y012805D01*
X011801Y012970D01*
X011801Y013061D01*
X011607Y013254D01*
X011334Y013254D01*
X011141Y013061D01*
X011141Y012908D01*
X011137Y012910D01*
X011128Y012911D01*
X011120Y012914D01*
X011079Y012914D01*
X011038Y012917D01*
X011029Y012914D01*
X010944Y012914D01*
X010901Y012958D01*
X010901Y013154D01*
X010901Y013254D01*
X010863Y013346D01*
X010773Y013436D01*
X010702Y013506D01*
X010610Y013544D01*
X010057Y013544D01*
X009927Y013674D01*
X009654Y013674D01*
X009461Y013481D01*
X009461Y013462D01*
X009000Y013957D01*
X009187Y013777D01*
X009249Y013714D01*
X009252Y013714D01*
X009254Y013712D01*
X009343Y013714D01*
X009712Y013714D01*
X009784Y013702D01*
X009801Y013714D01*
X009822Y013714D01*
X009873Y013766D01*
X009885Y013774D01*
X011218Y013774D01*
X011241Y013752D01*
X011343Y013754D01*
X011441Y013757D02*
X011441Y013254D01*
X011641Y013221D02*
X011641Y013761D01*
X011841Y013766D02*
X011841Y012944D01*
X011840Y012944D02*
X012051Y012944D01*
X012041Y012812D02*
X012041Y013771D01*
X012241Y013775D02*
X012241Y013171D01*
X012214Y013144D02*
X011717Y013144D01*
X011471Y012924D02*
X012351Y012344D01*
X013121Y012964D01*
X013121Y013024D01*
X014023Y013926D01*
X013914Y014188D02*
X013939Y014208D01*
X013966Y014224D01*
X013994Y014238D01*
X014023Y014250D01*
X014053Y014258D01*
X014085Y014262D01*
X014116Y014264D01*
X014311Y014264D01*
X014751Y014270D01*
X015087Y014214D02*
X015119Y014239D01*
X015119Y014239D01*
X015119Y014239D01*
X015241Y014450D01*
X015274Y014692D01*
X015261Y014742D01*
X015258Y014856D01*
X015223Y014889D01*
X015221Y014898D01*
X015202Y014909D01*
X013699Y016326D01*
X013679Y017793D01*
X013672Y017800D01*
X013679Y018289D01*
X013692Y018302D01*
X013684Y018951D01*
X013781Y019048D01*
X013781Y019321D01*
X013587Y019514D01*
X013314Y019514D01*
X013201Y019401D01*
X012939Y019401D01*
X012939Y019045D01*
X013123Y019045D01*
X013224Y018945D01*
X013231Y018324D01*
X013024Y018324D01*
X012831Y018131D01*
X012831Y018088D01*
X012667Y018015D01*
X012647Y018034D01*
X012374Y018034D01*
X012181Y017841D01*
X012181Y017647D01*
X012118Y017648D01*
X012027Y017650D01*
X011994Y017653D01*
X011933Y017675D01*
X011882Y017715D01*
X011862Y017740D01*
X011861Y017743D01*
X011861Y017981D01*
X011667Y018174D01*
X011394Y018174D01*
X011201Y017981D01*
X011201Y017708D01*
X011394Y017514D01*
X011485Y017514D01*
X011487Y017511D01*
X011495Y017499D01*
X011552Y017411D01*
X011717Y017282D01*
X011914Y017212D01*
X011927Y017212D01*
X012208Y017206D01*
X012218Y017206D01*
X012256Y017201D01*
X012292Y017188D01*
X012373Y017147D01*
X012373Y017147D01*
X012927Y016870D01*
X012939Y016863D01*
X012959Y016841D01*
X012969Y016814D01*
X012971Y016799D01*
X012971Y016740D01*
X012971Y016708D01*
X012971Y016187D01*
X012971Y016178D01*
X013040Y015992D01*
X013046Y015986D01*
X013046Y015986D01*
X013163Y015851D01*
X013165Y015848D01*
X013491Y015472D01*
X013384Y015364D01*
X012723Y015364D01*
X012561Y015507D01*
X012561Y015641D01*
X012367Y015834D01*
X012094Y015834D01*
X011925Y015665D01*
X011675Y015896D01*
X012214Y016294D01*
X012427Y016294D01*
X012621Y016488D01*
X012621Y016761D01*
X012427Y016954D01*
X012154Y016954D01*
X011961Y016761D01*
X011961Y016654D01*
X011311Y016173D01*
X011311Y016428D01*
X011431Y016548D01*
X011431Y016821D01*
X011237Y017014D01*
X010964Y017014D01*
X010771Y016821D01*
X010771Y016548D01*
X010871Y016448D01*
X010871Y016149D01*
X010218Y016675D01*
X010211Y016681D01*
X010186Y016706D01*
X010155Y016771D01*
X010151Y016807D01*
X010151Y018078D01*
X010261Y018188D01*
X010261Y018461D01*
X010067Y018654D01*
X009794Y018654D01*
X009601Y018461D01*
X009601Y018404D01*
X009354Y018404D01*
X009204Y018254D01*
X008893Y018168D01*
X008867Y018194D01*
X008594Y018194D01*
X008401Y018001D01*
X008401Y017728D01*
X008594Y017534D01*
X008867Y017534D01*
X009017Y017684D01*
X009328Y017770D01*
X009354Y017744D01*
X009235Y017744D01*
X009241Y017746D02*
X009241Y014936D01*
X009229Y014944D02*
X010051Y014944D01*
X010051Y014918D02*
X010244Y014724D01*
X010471Y014724D01*
X010861Y014455D01*
X010861Y014358D01*
X011004Y014214D01*
X009947Y014214D01*
X009951Y014218D01*
X009951Y014491D01*
X009757Y014684D01*
X009590Y014684D01*
X007091Y016485D01*
X007091Y016551D01*
X006897Y016744D01*
X006624Y016744D01*
X006431Y016551D01*
X006431Y016278D01*
X006624Y016084D01*
X006791Y016084D01*
X007797Y015360D01*
X007790Y015354D01*
X007779Y015354D01*
X007722Y015296D01*
X007659Y015243D01*
X007658Y015233D01*
X007384Y014958D01*
X007349Y014948D01*
X007322Y014896D01*
X007281Y014855D01*
X007281Y014819D01*
X007264Y014787D01*
X007281Y014731D01*
X007281Y014673D01*
X007306Y014647D01*
X007321Y014601D01*
X007321Y014543D01*
X007346Y014517D01*
X007357Y014482D01*
X007409Y014455D01*
X007500Y014364D01*
X007123Y014364D01*
X007088Y014378D01*
X007056Y014364D01*
X007020Y014364D01*
X006994Y014338D01*
X006959Y014323D01*
X006946Y014290D01*
X006921Y014265D01*
X006921Y014227D01*
X006676Y013614D01*
X005070Y013614D01*
X004971Y013515D01*
X004971Y013374D01*
X004971Y012674D01*
X005070Y012574D01*
X005211Y012574D01*
X007249Y012574D01*
X007388Y012503D01*
X006993Y012484D01*
X006932Y012489D01*
X006924Y012481D01*
X006912Y012481D01*
X006872Y012436D01*
X006826Y012397D01*
X006825Y012385D01*
X006818Y012377D01*
X006820Y012316D01*
X006772Y011636D01*
X006760Y011577D01*
X006767Y011567D01*
X006766Y011556D01*
X006806Y011510D01*
X006840Y011460D01*
X006851Y011458D01*
X006858Y011450D01*
X006919Y011445D01*
X007401Y011354D01*
X007401Y010358D01*
X006882Y010235D01*
X006834Y010236D01*
X006816Y010219D01*
X006793Y010213D01*
X006767Y010172D01*
X006732Y010138D01*
X006732Y010114D01*
X006719Y010093D01*
X006730Y010046D01*
X006721Y009620D01*
X006708Y009574D01*
X006720Y009552D01*
X006719Y009527D01*
X006721Y009526D01*
X006266Y009545D01*
X006177Y009634D01*
X005904Y009634D01*
X005824Y009554D01*
X005082Y009554D01*
X005051Y009616D01*
X005051Y009988D01*
X005131Y010068D01*
X005131Y010341D01*
X004937Y010534D01*
X004664Y010534D01*
X004471Y010341D01*
X004471Y010068D01*
X004551Y009988D01*
X004551Y009574D01*
X004589Y009483D01*
X004659Y009412D01*
X004661Y009411D01*
X004711Y009312D01*
X004711Y009254D01*
X004749Y009163D01*
X004819Y009092D01*
X004911Y009054D01*
X005824Y009054D01*
X005904Y008974D01*
X006177Y008974D01*
X006248Y009045D01*
X007194Y009006D01*
X008168Y007749D01*
X008161Y007694D01*
X008181Y007670D01*
X008203Y007513D01*
X008195Y007501D01*
X007904Y006028D01*
X006627Y005084D01*
X006464Y005084D01*
X006271Y004891D01*
X006271Y004618D01*
X006464Y004424D01*
X006737Y004424D01*
X006931Y004618D01*
X006931Y004687D01*
X008275Y005680D01*
X008311Y005704D01*
X008314Y005709D01*
X008319Y005713D01*
X008342Y005751D01*
X008366Y005787D01*
X008367Y005793D01*
X008370Y005798D01*
X008377Y005842D01*
X008685Y007405D01*
X008681Y007424D01*
X008745Y007474D01*
X008793Y007557D01*
X008805Y007651D01*
X008780Y007744D01*
X008654Y007906D01*
X007653Y009198D01*
X007981Y009103D01*
X008000Y009084D01*
X008047Y009084D01*
X008091Y009071D01*
X008114Y009084D01*
X008780Y009084D01*
X008850Y009084D01*
X008850Y009084D01*
X008851Y009084D01*
X008900Y009133D01*
X008950Y009183D01*
X008950Y009183D01*
X008951Y009184D01*
X008951Y009254D01*
X008960Y010823D01*
X009220Y011084D01*
X009487Y011120D01*
X009520Y008507D01*
X009516Y008503D01*
X009521Y008417D01*
X009522Y008330D01*
X009526Y008327D01*
X009547Y007919D01*
X009525Y007827D01*
X009555Y007776D01*
X009556Y007761D01*
X009574Y007745D01*
X009995Y007049D01*
X010002Y006987D01*
X010051Y006552D01*
X010051Y005398D01*
X009907Y004255D01*
X009727Y004434D01*
X009454Y004434D01*
X009261Y004241D01*
X009261Y004171D01*
X006899Y002714D01*
X006889Y002714D01*
X006874Y002699D01*
X006779Y002640D01*
X006767Y002592D01*
X006761Y002585D01*
X006761Y002563D01*
X006744Y002492D01*
X006544Y002492D01*
X006444Y002393D01*
X006444Y001652D01*
X006544Y001552D01*
X007285Y001552D01*
X007384Y001652D01*
X007384Y002393D01*
X007334Y002442D01*
X009494Y003774D01*
X009727Y003774D01*
X009864Y003911D01*
X009833Y003669D01*
X009831Y003667D01*
X009822Y003580D01*
X009811Y003491D01*
X009813Y003489D01*
X009710Y002482D01*
X009444Y002217D01*
X009444Y001828D01*
X009720Y001552D01*
X010109Y001552D01*
X010384Y001828D01*
X010384Y002217D01*
X010149Y002452D01*
X010241Y002360D02*
X010241Y003348D01*
X010240Y003344D02*
X012794Y003344D01*
X012841Y003307D02*
X012841Y002514D01*
X012788Y002544D02*
X014288Y002544D01*
X014241Y002524D02*
X014241Y002914D01*
X014441Y002901D02*
X014441Y002604D01*
X014641Y002604D02*
X014641Y002854D01*
X014841Y002794D02*
X014841Y002586D01*
X014801Y002544D02*
X014793Y002544D01*
X014990Y002744D02*
X010179Y002744D01*
X010257Y002344D02*
X010572Y002344D01*
X010444Y002144D02*
X010384Y002144D01*
X010384Y001944D02*
X010444Y001944D01*
X010528Y001744D02*
X010301Y001744D01*
X010241Y001684D02*
X010241Y000794D01*
X010441Y000794D02*
X010441Y004973D01*
X010437Y004944D02*
X010661Y004944D01*
X010661Y005144D02*
X010462Y005144D01*
X010491Y005344D02*
X010794Y005344D01*
X010841Y005391D02*
X010841Y006230D01*
X010869Y006144D02*
X010491Y006144D01*
X010491Y005944D02*
X010934Y005944D01*
X011000Y005744D02*
X010491Y005744D01*
X010491Y005544D02*
X011066Y005544D01*
X011041Y005621D02*
X011041Y005404D01*
X011431Y005234D02*
X012171Y004594D01*
X013891Y004594D01*
X013971Y004574D01*
X014351Y003894D01*
X015341Y003894D01*
X015094Y003674D02*
X015204Y003564D01*
X015271Y003564D01*
X014832Y003256D01*
X014665Y003306D01*
X014647Y003327D01*
X014581Y003332D01*
X014517Y003351D01*
X014493Y003338D01*
X014358Y003348D01*
X014352Y003354D01*
X014269Y003354D01*
X014185Y003360D01*
X014179Y003354D01*
X014145Y003354D01*
X013452Y003381D01*
X012212Y004374D01*
X013830Y004374D01*
X014131Y003837D01*
X014131Y003803D01*
X014173Y003760D01*
X014203Y003707D01*
X014236Y003698D01*
X014259Y003674D01*
X014320Y003674D01*
X014378Y003658D01*
X014408Y003674D01*
X015094Y003674D01*
X015041Y003674D02*
X015041Y003403D01*
X014958Y003344D02*
X014540Y003344D01*
X014504Y003344D02*
X014408Y003344D01*
X014441Y003342D02*
X014441Y003674D01*
X014641Y003674D02*
X014641Y003328D01*
X014841Y003262D02*
X014841Y003674D01*
X015241Y003564D02*
X015241Y003543D01*
X015242Y003544D02*
X013248Y003544D01*
X013241Y003550D02*
X013241Y004374D01*
X013441Y004374D02*
X013441Y003390D01*
X013641Y003374D02*
X013641Y004374D01*
X013841Y004356D02*
X013841Y003366D01*
X014041Y003358D02*
X014041Y003998D01*
X014071Y003944D02*
X012749Y003944D01*
X012841Y003871D02*
X012841Y004374D01*
X013041Y004374D02*
X013041Y003710D01*
X012998Y003744D02*
X014182Y003744D01*
X014241Y003693D02*
X014241Y003356D01*
X014261Y003134D02*
X014541Y003114D01*
X014871Y003014D01*
X015881Y003724D01*
X016421Y003924D01*
X016661Y004164D01*
X016661Y004234D01*
X016721Y004494D01*
X016721Y004524D01*
X016911Y005114D01*
X017400Y005906D01*
X015081Y008624D01*
X014921Y008774D01*
X015251Y008766D02*
X015298Y008722D01*
X015298Y008708D01*
X017545Y006075D01*
X017593Y006046D01*
X017602Y006009D01*
X017627Y005980D01*
X017622Y005923D01*
X017635Y005868D01*
X017615Y005836D01*
X017612Y005798D01*
X017569Y005761D01*
X017112Y005021D01*
X017045Y004813D01*
X017047Y004814D01*
X017234Y004814D01*
X017407Y004743D01*
X017539Y004610D01*
X017611Y004438D01*
X017611Y004251D01*
X017539Y004078D01*
X017407Y003946D01*
X017234Y003874D01*
X017073Y003874D01*
X016901Y003636D01*
X016901Y003418D01*
X016846Y003363D01*
X016888Y003330D01*
X016938Y003313D01*
X016956Y003276D01*
X017021Y003224D01*
X017151Y003278D01*
X017338Y003278D01*
X017490Y003215D01*
X017691Y003415D01*
X017819Y003544D01*
X017869Y003544D01*
X017919Y003594D01*
X017959Y003594D01*
X017999Y003634D01*
X018155Y003634D01*
X018161Y003635D01*
X018179Y003654D01*
X018247Y003654D01*
X018594Y003730D01*
X018844Y004124D01*
X018774Y004124D01*
X018611Y004288D01*
X018611Y004251D01*
X018539Y004078D01*
X018407Y003946D01*
X018234Y003874D01*
X018047Y003874D01*
X017874Y003946D01*
X017742Y004078D01*
X017671Y004251D01*
X017671Y004438D01*
X017742Y004610D01*
X017874Y004743D01*
X018047Y004814D01*
X018234Y004814D01*
X018407Y004743D01*
X018539Y004610D01*
X018581Y004510D01*
X018581Y004591D01*
X018774Y004784D01*
X018929Y004784D01*
X018971Y004825D01*
X018971Y004958D01*
X018861Y005068D01*
X018861Y005341D01*
X019054Y005534D01*
X019327Y005534D01*
X019412Y005449D01*
X019420Y006624D01*
X019271Y006773D01*
X018212Y006535D01*
X018151Y006506D01*
X018126Y006515D01*
X018100Y006510D01*
X018043Y006546D01*
X017980Y006569D01*
X017969Y006593D01*
X017946Y006607D01*
X017931Y006673D01*
X017273Y008084D01*
X017191Y008148D01*
X017191Y007968D01*
X016997Y007774D01*
X016724Y007774D01*
X016531Y007968D01*
X016531Y008109D01*
X016525Y008114D01*
X016201Y008114D01*
X016117Y008107D01*
X016107Y008114D01*
X016095Y008114D01*
X016036Y008174D01*
X015251Y008828D01*
X015251Y008766D01*
X015274Y008744D02*
X015351Y008744D01*
X015441Y008670D02*
X015441Y008541D01*
X015438Y008544D02*
X015591Y008544D01*
X015641Y008503D02*
X015641Y008307D01*
X015609Y008344D02*
X015831Y008344D01*
X015841Y008337D02*
X015841Y008073D01*
X015779Y008144D02*
X016065Y008144D01*
X016041Y008169D02*
X016041Y007838D01*
X016121Y007744D02*
X017431Y007744D01*
X017441Y007724D02*
X017441Y006198D01*
X017486Y006144D02*
X019417Y006144D01*
X019416Y005944D02*
X017624Y005944D01*
X017558Y005744D02*
X019414Y005744D01*
X019413Y005544D02*
X017435Y005544D01*
X017441Y005553D02*
X017441Y004709D01*
X017403Y004744D02*
X017878Y004744D01*
X017841Y004709D02*
X017841Y006867D01*
X017805Y006944D02*
X016804Y006944D01*
X016841Y006901D02*
X016841Y007774D01*
X017041Y007818D02*
X017041Y006667D01*
X016974Y006744D02*
X017898Y006744D01*
X018141Y006744D02*
X019341Y007014D01*
X019641Y006714D01*
X019631Y005204D01*
X019781Y005054D01*
X019861Y005054D01*
X019661Y005004D01*
X018731Y003534D01*
X018271Y003434D01*
X018251Y003414D01*
X018091Y003414D01*
X018051Y003374D01*
X018011Y003374D01*
X017961Y003324D01*
X017911Y003324D01*
X017341Y002754D01*
X017311Y002754D01*
X017245Y002808D01*
X017271Y002764D01*
X017261Y002754D01*
X016781Y003134D01*
X016081Y003374D01*
X015811Y003274D01*
X015661Y003134D01*
X014651Y002064D01*
X014541Y002064D01*
X015041Y001860D02*
X015041Y001805D01*
X015075Y001944D02*
X015180Y001944D01*
X015241Y001974D02*
X015241Y002369D01*
X015217Y002344D02*
X016136Y002344D01*
X016041Y002384D02*
X016041Y002278D01*
X016241Y002278D02*
X016241Y002338D01*
X016353Y002344D02*
X017136Y002344D01*
X017151Y002278D02*
X016978Y002206D01*
X016846Y002074D01*
X016775Y001901D01*
X016775Y001714D01*
X016846Y001542D01*
X016978Y001410D01*
X017151Y001338D01*
X017338Y001338D01*
X017511Y001410D01*
X017643Y001542D01*
X017715Y001714D01*
X017715Y001901D01*
X017643Y002074D01*
X017511Y002206D01*
X017338Y002278D01*
X017151Y002278D01*
X017241Y002278D02*
X017241Y002338D01*
X017353Y002344D02*
X018168Y002344D01*
X018195Y002344D02*
X018295Y002344D01*
X018321Y002344D02*
X019421Y002344D01*
X019421Y002488D02*
X019421Y002140D01*
X019511Y001805D01*
X019684Y001504D01*
X019930Y001258D01*
X020231Y001084D01*
X020567Y000994D01*
X020914Y000994D01*
X021250Y001084D01*
X021551Y001258D01*
X021797Y001504D01*
X021971Y001805D01*
X022061Y002140D01*
X022061Y002488D01*
X021971Y002824D01*
X021797Y003125D01*
X021551Y003370D01*
X021250Y003544D01*
X022076Y003544D01*
X022076Y003344D02*
X021577Y003344D01*
X021641Y003281D02*
X021641Y004294D01*
X021714Y004344D02*
X022076Y004344D01*
X022076Y004144D02*
X019377Y004144D01*
X019441Y004245D02*
X019441Y002563D01*
X019436Y002544D02*
X018634Y002544D01*
X018641Y002553D02*
X018641Y002077D01*
X018573Y002144D02*
X019421Y002144D01*
X019441Y002066D02*
X019441Y000794D01*
X019641Y000794D02*
X019641Y001580D01*
X019661Y001544D02*
X018644Y001544D01*
X018641Y001539D02*
X018641Y000794D01*
X018841Y000794D02*
X018841Y003333D01*
X018871Y003344D02*
X019904Y003344D01*
X019930Y003370D02*
X019684Y003125D01*
X019511Y002824D01*
X019421Y002488D01*
X019489Y002744D02*
X018710Y002744D01*
X018641Y002758D02*
X018641Y002858D01*
X018695Y002944D02*
X019580Y002944D01*
X019641Y003049D02*
X019641Y004278D01*
X019574Y004344D02*
X019503Y004344D01*
X019841Y004184D02*
X019841Y003281D01*
X019930Y003370D02*
X020231Y003544D01*
X018997Y003544D01*
X019041Y003613D02*
X019041Y000794D01*
X019241Y000794D02*
X019241Y003929D01*
X019250Y003944D02*
X022076Y003944D01*
X022076Y003744D02*
X019124Y003744D01*
X018730Y003944D02*
X018403Y003944D01*
X018441Y003980D02*
X018441Y003696D01*
X018603Y003744D02*
X016979Y003744D01*
X017041Y003830D02*
X017041Y003232D01*
X016870Y003344D02*
X017620Y003344D01*
X017641Y003365D02*
X017641Y007296D01*
X017618Y007344D02*
X016462Y007344D01*
X016441Y007370D02*
X016441Y008114D01*
X016241Y008114D02*
X016241Y007604D01*
X016292Y007544D02*
X017525Y007544D01*
X017917Y007744D02*
X019808Y007744D01*
X019808Y007646D02*
X020083Y007370D01*
X020472Y007370D01*
X020748Y007646D01*
X020748Y008035D01*
X020661Y008121D01*
X020903Y008130D01*
X020808Y008035D01*
X020808Y007646D01*
X021083Y007370D01*
X021472Y007370D01*
X021748Y007646D01*
X021748Y008035D01*
X021472Y008310D01*
X021429Y008310D01*
X021413Y008350D01*
X021404Y008370D01*
X021472Y008370D01*
X021748Y008646D01*
X021748Y008804D01*
X021791Y008819D01*
X021791Y005106D01*
X021691Y004990D01*
X021691Y005049D01*
X021709Y005431D01*
X021748Y005470D01*
X021748Y006211D01*
X021648Y006310D01*
X020907Y006310D01*
X020808Y006211D01*
X020808Y005470D01*
X020907Y005370D01*
X021266Y005370D01*
X021261Y005274D01*
X020262Y005274D01*
X020079Y005274D01*
X019922Y005274D01*
X019896Y005290D01*
X019864Y005282D01*
X019851Y005295D01*
X019853Y005600D01*
X020083Y005370D01*
X020472Y005370D01*
X020748Y005646D01*
X020748Y006035D01*
X020472Y006310D01*
X020083Y006310D01*
X019856Y006084D01*
X019860Y006594D01*
X020083Y006370D01*
X020472Y006370D01*
X020748Y006646D01*
X020748Y007035D01*
X020472Y007310D01*
X020083Y007310D01*
X019808Y007035D01*
X019808Y006858D01*
X019797Y006869D01*
X019733Y006934D01*
X019732Y006934D01*
X019541Y007125D01*
X019535Y007151D01*
X019479Y007187D01*
X019432Y007234D01*
X019404Y007234D01*
X019381Y007249D01*
X019316Y007234D01*
X019249Y007234D01*
X019230Y007215D01*
X018265Y006998D01*
X017668Y008276D01*
X017658Y008366D01*
X017608Y008405D01*
X017601Y008420D01*
X017579Y008428D01*
X016872Y008984D01*
X017117Y008984D01*
X017217Y009084D01*
X018482Y009084D01*
X019583Y008092D01*
X019588Y008070D01*
X019652Y008030D01*
X019707Y007980D01*
X019730Y007981D01*
X019808Y007932D01*
X019808Y007646D01*
X019841Y007613D02*
X019841Y007068D01*
X019917Y007144D02*
X019537Y007144D01*
X019441Y007225D02*
X019441Y008220D01*
X019525Y008144D02*
X017730Y008144D01*
X017660Y008344D02*
X019303Y008344D01*
X019241Y008401D02*
X019241Y007225D01*
X019041Y007172D02*
X019041Y008581D01*
X019081Y008544D02*
X017431Y008544D01*
X017441Y008537D02*
X017441Y009084D01*
X017641Y009084D02*
X017641Y008379D01*
X017441Y008244D02*
X018141Y006744D01*
X018041Y006547D02*
X018041Y004812D01*
X018241Y004811D02*
X018241Y006541D01*
X018254Y006544D02*
X019420Y006544D01*
X019418Y006344D02*
X017316Y006344D01*
X017241Y006432D02*
X017241Y008109D01*
X017196Y008144D02*
X017191Y008144D01*
X017167Y007944D02*
X017338Y007944D01*
X017823Y007944D02*
X019789Y007944D01*
X019641Y008037D02*
X019641Y007025D01*
X019722Y006944D02*
X019808Y006944D01*
X020041Y007268D02*
X020041Y007413D01*
X019909Y007544D02*
X018010Y007544D01*
X018041Y007479D02*
X018041Y009084D01*
X018241Y009084D02*
X018241Y007050D01*
X018197Y007144D02*
X018916Y007144D01*
X018841Y007127D02*
X018841Y008761D01*
X018859Y008744D02*
X017177Y008744D01*
X017241Y008694D02*
X017241Y009084D01*
X017041Y008984D02*
X017041Y008852D01*
X016923Y008944D02*
X018638Y008944D01*
X018641Y008941D02*
X018641Y007082D01*
X018441Y007037D02*
X018441Y009084D01*
X017841Y009084D02*
X017841Y007907D01*
X018103Y007344D02*
X021791Y007344D01*
X021791Y007144D02*
X021638Y007144D01*
X021641Y007142D02*
X021641Y007539D01*
X021646Y007544D02*
X021791Y007544D01*
X021791Y007744D02*
X021748Y007744D01*
X021748Y007944D02*
X021791Y007944D01*
X021791Y008144D02*
X021638Y008144D01*
X021641Y008142D02*
X021641Y008539D01*
X021646Y008544D02*
X021791Y008544D01*
X021791Y008344D02*
X021415Y008344D01*
X021413Y008350D02*
X021413Y008350D01*
X021441Y008370D02*
X021441Y008310D01*
X021748Y008744D02*
X021791Y008744D01*
X021083Y009310D02*
X020808Y009035D01*
X020808Y008646D01*
X020864Y008589D01*
X020684Y008582D01*
X020748Y008646D01*
X020748Y009035D01*
X020472Y009310D01*
X020116Y009310D01*
X019191Y010258D01*
X019191Y010259D01*
X019125Y010325D01*
X019059Y010393D01*
X019057Y010393D01*
X019056Y010394D01*
X018962Y010394D01*
X018947Y010394D01*
X018847Y010494D01*
X018574Y010494D01*
X018381Y010301D01*
X018381Y010028D01*
X018434Y009974D01*
X018396Y009974D01*
X016753Y009974D01*
X016627Y009985D01*
X016388Y010067D01*
X016282Y010136D01*
X016208Y010193D01*
X015791Y010517D01*
X015777Y010516D01*
X015727Y010555D01*
X015408Y010664D01*
X015408Y010664D01*
X015330Y010664D01*
X015214Y010664D01*
X015148Y010664D01*
X013617Y010664D01*
X013601Y010664D01*
X013417Y010558D01*
X013417Y010558D01*
X013417Y010558D01*
X013318Y010385D01*
X013203Y010514D01*
X013203Y010514D01*
X013023Y010594D01*
X013016Y010594D01*
X012925Y010594D01*
X012834Y010594D01*
X011970Y010594D01*
X011961Y010602D01*
X011880Y010594D01*
X011799Y010594D01*
X011791Y010586D01*
X011566Y010565D01*
X011526Y010570D01*
X011446Y010610D01*
X011416Y010643D01*
X011307Y010794D01*
X011298Y010837D01*
X011281Y010849D01*
X011281Y010941D01*
X011087Y011134D01*
X010851Y011134D01*
X010851Y011257D01*
X010853Y011287D01*
X010870Y011344D01*
X011431Y011344D01*
X011431Y011451D02*
X011431Y011178D01*
X011624Y010984D01*
X011897Y010984D01*
X011911Y010998D01*
X011911Y010888D01*
X012104Y010694D01*
X012377Y010694D01*
X012571Y010888D01*
X012571Y011019D01*
X013336Y011684D01*
X013517Y011684D01*
X013673Y011840D01*
X013675Y011838D01*
X013686Y011823D01*
X013700Y011788D01*
X013702Y011770D01*
X013709Y011117D01*
X013709Y011109D01*
X013709Y011109D01*
X013788Y010927D01*
X013788Y010927D01*
X013931Y010790D01*
X014117Y010719D01*
X014209Y010723D01*
X014881Y010744D01*
X015392Y010728D01*
X015405Y010714D01*
X016066Y010714D01*
X016207Y010709D01*
X016311Y010558D01*
X016311Y010348D01*
X016504Y010154D01*
X016777Y010154D01*
X016971Y010348D01*
X016971Y010621D01*
X016777Y010814D01*
X016693Y010814D01*
X016651Y010874D01*
X016727Y010874D01*
X016921Y011068D01*
X016921Y011341D01*
X016727Y011534D01*
X016454Y011534D01*
X016354Y011434D01*
X015932Y011434D01*
X015641Y011767D01*
X015641Y012724D01*
X015747Y012724D02*
X015941Y012918D01*
X015941Y013191D01*
X015815Y013316D01*
X017613Y013331D01*
X017708Y013332D01*
X017803Y013333D01*
X017803Y013333D01*
X017876Y013334D01*
X018184Y013463D01*
X018236Y013514D01*
X018292Y013570D01*
X018303Y013581D01*
X018370Y013649D01*
X018371Y013649D01*
X018371Y013744D01*
X018371Y013749D01*
X018431Y013809D01*
X018431Y013688D01*
X018624Y013494D01*
X018781Y013494D01*
X021001Y011463D01*
X021001Y011283D01*
X020990Y011269D01*
X020996Y011223D01*
X020808Y011035D01*
X020808Y010646D01*
X021083Y010370D01*
X021472Y010370D01*
X021545Y010443D01*
X021544Y010238D01*
X021472Y010310D01*
X021083Y010310D01*
X020808Y010035D01*
X020808Y009646D01*
X021083Y009370D01*
X021472Y009370D01*
X021527Y009425D01*
X021476Y009326D01*
X021465Y009314D01*
X021451Y009310D01*
X021083Y009310D01*
X021041Y009268D02*
X021041Y009413D01*
X020909Y009544D02*
X020646Y009544D01*
X020641Y009539D02*
X020641Y009142D01*
X020638Y009144D02*
X020917Y009144D01*
X020841Y009068D02*
X020841Y009613D01*
X020748Y009646D02*
X020472Y009370D01*
X020083Y009370D01*
X019808Y009646D01*
X019808Y010035D01*
X020083Y010310D01*
X020472Y010310D01*
X020748Y010035D01*
X020748Y009646D01*
X020748Y009744D02*
X020808Y009744D01*
X020808Y009944D02*
X020748Y009944D01*
X020841Y010068D02*
X020841Y010613D01*
X020909Y010544D02*
X020646Y010544D01*
X020641Y010539D02*
X020641Y010142D01*
X020638Y010144D02*
X020917Y010144D01*
X021041Y010268D02*
X021041Y010413D01*
X021241Y010370D02*
X021241Y010310D01*
X021441Y010310D02*
X021441Y010370D01*
X021545Y010344D02*
X019106Y010344D01*
X019041Y010394D02*
X019041Y013256D01*
X018944Y013344D02*
X017901Y013344D01*
X017841Y013333D02*
X017841Y009974D01*
X018041Y009974D02*
X018041Y013403D01*
X018236Y013514D02*
X018236Y013514D01*
X018241Y013519D02*
X018241Y009974D01*
X018381Y010144D02*
X016271Y010144D01*
X016241Y010168D02*
X016241Y010659D01*
X016311Y010544D02*
X015740Y010544D01*
X015727Y010555D02*
X015727Y010555D01*
X015741Y010644D02*
X013241Y010684D01*
X013135Y010544D02*
X013409Y010544D01*
X013441Y010571D02*
X013441Y011684D01*
X013577Y011744D02*
X013702Y011744D01*
X013641Y011808D02*
X013641Y010664D01*
X013617Y010664D02*
X013617Y010664D01*
X013601Y010664D02*
X013601Y010664D01*
X013841Y010664D02*
X013841Y010876D01*
X013780Y010944D02*
X012571Y010944D01*
X012641Y011080D02*
X012641Y010594D01*
X012841Y010594D02*
X012841Y011254D01*
X012945Y011344D02*
X013706Y011344D01*
X013708Y011144D02*
X012714Y011144D01*
X013041Y011428D02*
X013041Y010586D01*
X013023Y010594D02*
X013023Y010594D01*
X013016Y010594D02*
X013016Y010594D01*
X012925Y010374D02*
X011891Y010374D01*
X011571Y010344D01*
X011544Y010121D02*
X011472Y010049D01*
X011437Y010084D01*
X011164Y010084D01*
X011037Y009957D01*
X010875Y010474D01*
X010995Y010474D01*
X011006Y010460D01*
X011006Y010460D01*
X011059Y010386D01*
X011067Y010375D01*
X011113Y010312D01*
X011148Y010263D01*
X011148Y010263D01*
X011419Y010124D01*
X011491Y010124D01*
X011500Y010117D01*
X011544Y010121D01*
X011441Y010124D02*
X011441Y010081D01*
X011419Y010124D02*
X011419Y010124D01*
X011380Y010144D02*
X010978Y010144D01*
X011041Y009961D02*
X011041Y010412D01*
X011089Y010344D02*
X010915Y010344D01*
X011113Y010312D02*
X011113Y010312D01*
X011148Y010263D02*
X011148Y010263D01*
X011241Y010215D02*
X011241Y010084D01*
X011301Y009754D02*
X011531Y009334D01*
X011771Y009344D01*
X013511Y009344D01*
X013851Y009004D01*
X014351Y009154D01*
X013731Y009464D01*
X013731Y009987D01*
X013730Y009987D02*
X013732Y010016D01*
X013737Y010044D01*
X013745Y010071D01*
X013757Y010098D01*
X013772Y010122D01*
X013790Y010145D01*
X013810Y010165D01*
X013833Y010183D01*
X013857Y010198D01*
X013884Y010210D01*
X013911Y010218D01*
X013939Y010223D01*
X013968Y010225D01*
X013968Y010224D02*
X014191Y010224D01*
X014941Y009474D01*
X015051Y009464D01*
X015261Y009204D01*
X015291Y009094D01*
X015059Y009103D02*
X015057Y009104D01*
X014930Y009104D01*
X014950Y009120D01*
X014956Y009179D01*
X014971Y009213D01*
X015059Y009104D01*
X015059Y009103D01*
X015041Y009104D02*
X015041Y009127D01*
X015026Y009144D02*
X014952Y009144D01*
X014741Y009234D02*
X014491Y009544D01*
X014031Y009844D01*
X013531Y009534D02*
X013531Y010267D01*
X013533Y010292D01*
X013538Y010317D01*
X013547Y010341D01*
X013559Y010363D01*
X013574Y010383D01*
X013592Y010401D01*
X013612Y010416D01*
X013634Y010428D01*
X013658Y010437D01*
X013683Y010442D01*
X013708Y010444D01*
X015239Y010444D01*
X015241Y010664D02*
X015241Y010733D01*
X015041Y010739D02*
X015041Y010664D01*
X014841Y010664D02*
X014841Y010743D01*
X014641Y010737D02*
X014641Y010664D01*
X014441Y010664D02*
X014441Y010730D01*
X014241Y010724D02*
X014241Y010664D01*
X014117Y010719D02*
X014117Y010719D01*
X014052Y010744D02*
X012427Y010744D01*
X012441Y010758D02*
X012441Y010594D01*
X012241Y010594D02*
X012241Y010694D01*
X012054Y010744D02*
X011343Y010744D01*
X011441Y010616D02*
X011441Y011168D01*
X011464Y011144D02*
X010851Y011144D01*
X010853Y011287D02*
X010853Y011287D01*
X010870Y011344D02*
X010884Y011370D01*
X010911Y011411D01*
X010940Y011449D01*
X011016Y011509D01*
X011059Y011530D01*
X011071Y011535D01*
X011088Y011541D01*
X011117Y011549D01*
X011146Y011551D01*
X011512Y011532D01*
X011431Y011451D01*
X011441Y011461D02*
X011441Y011536D01*
X011275Y011544D02*
X011099Y011544D01*
X011041Y011521D02*
X011041Y011134D01*
X010630Y011257D02*
X010631Y011292D01*
X010636Y011327D01*
X010643Y011362D01*
X010653Y011396D01*
X010666Y011428D01*
X010682Y011460D01*
X010700Y011490D01*
X010700Y011491D02*
X010727Y011531D01*
X010631Y011257D02*
X010631Y010624D01*
X010651Y010454D01*
X010901Y009654D01*
X011291Y008944D01*
X013021Y008284D01*
X013351Y008271D02*
X013351Y008421D01*
X013157Y008614D01*
X012884Y008614D01*
X012853Y008584D01*
X011469Y009112D01*
X011504Y009113D01*
X011556Y009098D01*
X011591Y009117D01*
X011775Y009124D01*
X013419Y009124D01*
X013617Y008926D01*
X013598Y008444D01*
X013524Y008444D01*
X013351Y008271D01*
X013351Y008344D02*
X013424Y008344D01*
X013441Y008361D02*
X013441Y009103D01*
X013241Y009124D02*
X013241Y008531D01*
X013227Y008544D02*
X013602Y008544D01*
X013610Y008744D02*
X012432Y008744D01*
X012441Y008741D02*
X012441Y009124D01*
X012641Y009124D02*
X012641Y008665D01*
X012841Y008588D02*
X012841Y009124D01*
X013041Y009124D02*
X013041Y008614D01*
X013599Y008944D02*
X011908Y008944D01*
X011841Y008970D02*
X011841Y009124D01*
X012041Y009124D02*
X012041Y008894D01*
X012241Y008817D02*
X012241Y009124D01*
X011641Y009119D02*
X011641Y009046D01*
X011137Y008768D02*
X011142Y008758D01*
X011221Y008736D01*
X011267Y008718D01*
X011171Y008621D01*
X011171Y008564D01*
X011004Y008564D01*
X010912Y008472D01*
X010678Y008979D01*
X010646Y009733D01*
X010671Y009652D01*
X010664Y009628D01*
X010697Y009568D01*
X010718Y009502D01*
X010740Y009490D01*
X011093Y008846D01*
X011127Y008771D01*
X011137Y008768D01*
X011191Y008744D02*
X010786Y008744D01*
X010841Y008626D02*
X010841Y009307D01*
X010820Y009344D02*
X010663Y009344D01*
X010671Y009144D02*
X010930Y009144D01*
X011040Y008944D02*
X010695Y008944D01*
X011041Y008942D02*
X011041Y008564D01*
X010984Y008544D02*
X010878Y008544D01*
X011241Y008691D02*
X011241Y008728D01*
X011501Y008484D02*
X012141Y008344D01*
X012521Y008144D01*
X011975Y008155D02*
X011861Y008041D01*
X011861Y007896D01*
X011543Y008154D01*
X011637Y008154D01*
X011699Y008216D01*
X011975Y008155D01*
X011964Y008144D02*
X011555Y008144D01*
X011641Y008158D02*
X011641Y008075D01*
X011801Y007944D02*
X011861Y007944D01*
X011841Y007912D02*
X011841Y008185D01*
X012427Y007674D02*
X012436Y007674D01*
X012571Y007809D01*
X012571Y007827D01*
X013181Y007394D01*
X013181Y007298D01*
X013374Y007104D01*
X013647Y007104D01*
X013731Y007188D01*
X013864Y007054D01*
X013975Y007054D01*
X013752Y006696D01*
X013352Y006686D01*
X012257Y007574D01*
X012327Y007574D01*
X012427Y007674D01*
X012441Y007679D02*
X012441Y007426D01*
X012541Y007344D02*
X013181Y007344D01*
X013241Y007238D02*
X013241Y006777D01*
X013281Y006744D02*
X013782Y006744D01*
X013841Y006839D02*
X013841Y007078D01*
X013774Y007144D02*
X013687Y007144D01*
X013641Y007104D02*
X013641Y006694D01*
X013441Y006689D02*
X013441Y007104D01*
X013334Y007144D02*
X012787Y007144D01*
X012841Y007101D02*
X012841Y007635D01*
X012969Y007544D02*
X012294Y007544D01*
X012506Y007744D02*
X012687Y007744D01*
X012641Y007777D02*
X012641Y007263D01*
X013041Y007493D02*
X013041Y006939D01*
X013034Y006944D02*
X013907Y006944D01*
X014300Y006744D02*
X015031Y006744D01*
X015031Y006781D02*
X015031Y006705D01*
X015001Y006688D01*
X014993Y006657D01*
X014819Y006484D01*
X014664Y006484D01*
X014471Y006291D01*
X014471Y006195D01*
X014155Y006511D01*
X014749Y007463D01*
X014755Y007470D01*
X014755Y007473D01*
X014775Y007505D01*
X014746Y007634D01*
X014702Y008375D01*
X014715Y008430D01*
X014697Y008459D01*
X014695Y008493D01*
X014694Y008494D01*
X014702Y008527D01*
X014784Y008444D01*
X014945Y008444D01*
X017129Y005886D01*
X017021Y005711D01*
X017021Y005921D01*
X016827Y006114D01*
X016554Y006114D01*
X016361Y005921D01*
X016361Y005703D01*
X015731Y004930D01*
X015731Y005121D01*
X015687Y005164D01*
X015707Y005164D01*
X015901Y005358D01*
X015901Y005631D01*
X015707Y005824D01*
X015751Y005868D01*
X015751Y006141D01*
X015557Y006334D01*
X015517Y006334D01*
X015691Y006508D01*
X015691Y006781D01*
X015497Y006974D01*
X015224Y006974D01*
X015031Y006781D01*
X015041Y006791D02*
X015041Y008332D01*
X015030Y008344D02*
X014704Y008344D01*
X014841Y008444D02*
X014841Y006505D01*
X014880Y006544D02*
X014176Y006544D01*
X014241Y006648D02*
X014241Y006425D01*
X014322Y006344D02*
X014524Y006344D01*
X014441Y006225D02*
X014441Y006969D01*
X014425Y006944D02*
X015194Y006944D01*
X015241Y006974D02*
X015241Y008098D01*
X015201Y008144D02*
X014716Y008144D01*
X014727Y007944D02*
X015372Y007944D01*
X015441Y007864D02*
X015441Y006974D01*
X015527Y006944D02*
X016225Y006944D01*
X016241Y006926D02*
X016241Y005556D01*
X016231Y005544D02*
X015901Y005544D01*
X015841Y005691D02*
X015841Y007395D01*
X015884Y007344D02*
X014675Y007344D01*
X014641Y007289D02*
X014641Y006461D01*
X014801Y006154D02*
X015191Y006544D01*
X015361Y006644D01*
X015641Y006458D02*
X015641Y006251D01*
X015527Y006344D02*
X016737Y006344D01*
X016641Y006458D02*
X016641Y006114D01*
X016841Y006101D02*
X016841Y006223D01*
X016908Y006144D02*
X015747Y006144D01*
X015751Y005944D02*
X016384Y005944D01*
X016441Y006001D02*
X016441Y006692D01*
X016396Y006744D02*
X015691Y006744D01*
X015641Y006831D02*
X015641Y007629D01*
X015713Y007544D02*
X014766Y007544D01*
X014739Y007744D02*
X015542Y007744D01*
X015950Y007944D02*
X016554Y007944D01*
X016641Y007858D02*
X016641Y007135D01*
X016633Y007144D02*
X017711Y007144D01*
X018045Y006544D02*
X017145Y006544D01*
X016567Y006544D02*
X015691Y006544D01*
X016055Y007144D02*
X014550Y007144D01*
X014541Y007544D02*
X013876Y006479D01*
X014611Y005744D01*
X014991Y005744D01*
X014744Y005524D02*
X014784Y005484D01*
X014460Y005484D01*
X014065Y005715D01*
X014032Y005755D01*
X013989Y005759D01*
X013953Y005780D01*
X013902Y005767D01*
X013552Y005800D01*
X013417Y005934D01*
X013286Y005934D01*
X012155Y007065D01*
X013190Y006226D01*
X013379Y006245D01*
X013381Y006247D01*
X013787Y006257D01*
X014519Y005524D01*
X014702Y005524D01*
X014744Y005524D01*
X014641Y005524D02*
X014641Y005484D01*
X014499Y005544D02*
X014357Y005544D01*
X014441Y005496D02*
X014441Y005603D01*
X014299Y005744D02*
X014041Y005744D01*
X014041Y006003D01*
X014099Y005944D02*
X013276Y005944D01*
X013241Y005979D02*
X013241Y006231D01*
X013076Y006144D02*
X013899Y006144D01*
X013841Y006203D02*
X013841Y005773D01*
X013641Y005791D02*
X013641Y006253D01*
X013441Y006249D02*
X013441Y005911D01*
X013261Y005634D02*
X013281Y005604D01*
X013251Y005584D01*
X012531Y005464D01*
X011901Y005464D01*
X012147Y005244D02*
X012460Y005244D01*
X012477Y005232D01*
X012549Y005244D01*
X012622Y005244D01*
X012636Y005259D01*
X013085Y005334D01*
X013144Y005274D01*
X013334Y005274D01*
X013331Y005271D01*
X013331Y004998D01*
X013514Y004814D01*
X012253Y004814D01*
X011882Y005134D01*
X012037Y005134D01*
X012147Y005244D01*
X012241Y005244D02*
X012241Y004824D01*
X012102Y004944D02*
X013384Y004944D01*
X013441Y004888D02*
X013441Y004814D01*
X013241Y004814D02*
X013241Y005274D01*
X013331Y005144D02*
X012047Y005144D01*
X012041Y005138D02*
X012041Y004997D01*
X012441Y004814D02*
X012441Y005244D01*
X012641Y005260D02*
X012641Y004814D01*
X012841Y004814D02*
X012841Y005293D01*
X013041Y005326D02*
X013041Y004814D01*
X012641Y004374D02*
X012641Y004031D01*
X012499Y004144D02*
X013959Y004144D01*
X013847Y004344D02*
X012249Y004344D01*
X012241Y004351D02*
X012241Y004374D01*
X012441Y004374D02*
X012441Y004191D01*
X011841Y004108D02*
X011841Y000794D01*
X012041Y000794D02*
X012041Y001856D01*
X012013Y001944D02*
X011384Y001944D01*
X011384Y002144D02*
X012007Y002144D01*
X012041Y002114D02*
X012041Y002014D01*
X012241Y002014D02*
X012241Y002114D01*
X012441Y002114D02*
X012441Y002014D01*
X012491Y001944D02*
X012591Y001944D01*
X012591Y001744D02*
X012491Y001744D01*
X012491Y001544D02*
X012591Y001544D01*
X012641Y001533D02*
X012641Y000794D01*
X012841Y000794D02*
X012841Y001615D01*
X012688Y001544D02*
X013197Y001544D01*
X013241Y001504D02*
X013241Y000794D01*
X013441Y000794D02*
X013441Y001424D01*
X013641Y001424D02*
X013641Y000794D01*
X013841Y000794D02*
X013841Y001353D01*
X013849Y001344D02*
X004741Y001344D01*
X004841Y001371D02*
X004841Y000794D01*
X005041Y000794D02*
X005041Y001471D01*
X005167Y001544D02*
X012394Y001544D01*
X012441Y001533D02*
X012441Y000794D01*
X012241Y000794D02*
X012241Y001615D01*
X012106Y001744D02*
X011301Y001744D01*
X011241Y001684D02*
X011241Y000794D01*
X011441Y000794D02*
X011441Y004428D01*
X011546Y004344D02*
X010362Y004344D01*
X010336Y004144D02*
X011795Y004144D01*
X011641Y004268D02*
X011641Y000794D01*
X011041Y000794D02*
X011041Y001552D01*
X010841Y001552D02*
X010841Y000794D01*
X010641Y000794D02*
X010641Y001631D01*
X010041Y001552D02*
X010041Y000794D01*
X009841Y000794D02*
X009841Y001552D01*
X009641Y001631D02*
X009641Y000794D01*
X009441Y000794D02*
X009441Y003741D01*
X009445Y003744D02*
X009843Y003744D01*
X009841Y003727D02*
X009841Y003888D01*
X009641Y003774D02*
X009641Y002413D01*
X009572Y002344D02*
X009257Y002344D01*
X009241Y002360D02*
X009241Y003618D01*
X009121Y003544D02*
X009818Y003544D01*
X009798Y003344D02*
X008797Y003344D01*
X008841Y003371D02*
X008841Y002492D01*
X008864Y002492D02*
X008720Y002492D01*
X008444Y002217D01*
X008444Y002072D01*
X008864Y002072D01*
X008864Y001972D01*
X008444Y001972D01*
X008444Y001828D01*
X008720Y001552D01*
X008864Y001552D01*
X008864Y001972D01*
X008964Y001972D01*
X008964Y001552D01*
X009109Y001552D01*
X009384Y001828D01*
X009384Y001972D01*
X008964Y001972D01*
X008964Y002072D01*
X008864Y002072D01*
X008864Y002492D01*
X008964Y002492D02*
X008964Y002072D01*
X009384Y002072D01*
X009384Y002217D01*
X009109Y002492D01*
X008964Y002492D01*
X009041Y002492D02*
X009041Y003495D01*
X008841Y003912D02*
X008841Y009084D01*
X008911Y009144D02*
X009512Y009144D01*
X009514Y008944D02*
X007849Y008944D01*
X007841Y008955D02*
X007841Y009144D01*
X007838Y009144D02*
X007694Y009144D01*
X007391Y009144D02*
X007241Y009254D01*
X007041Y009012D02*
X007041Y005390D01*
X006979Y005344D02*
X002891Y005344D01*
X002891Y005144D02*
X006708Y005144D01*
X006641Y005095D02*
X006641Y009029D01*
X006668Y008909D02*
X004641Y008894D01*
X003791Y008894D01*
X003791Y009794D01*
X003091Y009794D01*
X002891Y009744D02*
X004551Y009744D01*
X004563Y009544D02*
X002891Y009544D01*
X002891Y009344D02*
X004695Y009344D01*
X004641Y009431D02*
X004641Y003911D01*
X004554Y003934D02*
X004890Y003844D01*
X005191Y003670D01*
X005437Y003425D01*
X005611Y003124D01*
X005701Y002788D01*
X005701Y002440D01*
X005611Y002105D01*
X005437Y001804D01*
X005191Y001558D01*
X004890Y001384D01*
X004554Y001294D01*
X004207Y001294D01*
X003871Y001384D01*
X003570Y001558D01*
X003324Y001804D01*
X003151Y002105D01*
X003061Y002440D01*
X003061Y002788D01*
X003151Y003124D01*
X003324Y003425D01*
X003570Y003670D01*
X003871Y003844D01*
X004207Y003934D01*
X004554Y003934D01*
X004441Y003934D02*
X004441Y011666D01*
X004473Y011653D02*
X004643Y011653D01*
X004799Y011718D01*
X004920Y011838D01*
X004985Y011995D01*
X004985Y012165D01*
X004920Y012322D01*
X004799Y012442D01*
X004643Y012507D01*
X004473Y012507D01*
X004316Y012442D01*
X004195Y012322D01*
X004130Y012165D01*
X004130Y011995D01*
X004195Y011838D01*
X004316Y011718D01*
X004473Y011653D01*
X004641Y011653D02*
X004641Y010511D01*
X004841Y010534D02*
X004841Y011759D01*
X004826Y011744D02*
X006780Y011744D01*
X006776Y011544D02*
X002891Y011544D01*
X002891Y011344D02*
X007401Y011344D01*
X007241Y011384D02*
X007241Y010320D01*
X007341Y010344D02*
X005127Y010344D01*
X005041Y010431D02*
X005041Y012604D01*
X004971Y012744D02*
X002891Y012744D01*
X002891Y012544D02*
X007308Y012544D01*
X007241Y012574D02*
X007241Y012496D01*
X007041Y012487D02*
X007041Y012574D01*
X006841Y012574D02*
X006841Y012409D01*
X006862Y012408D02*
X006865Y011124D01*
X006991Y010874D01*
X008341Y010864D01*
X008471Y010964D01*
X009141Y010964D01*
X009081Y010944D02*
X009489Y010944D01*
X009441Y011114D02*
X009441Y004421D01*
X009364Y004344D02*
X002891Y004344D01*
X002891Y004144D02*
X009218Y004144D01*
X009241Y004159D02*
X009241Y011086D01*
X009041Y010904D02*
X009041Y004035D01*
X008893Y003944D02*
X002891Y003944D01*
X002891Y003744D02*
X003698Y003744D01*
X003641Y003711D02*
X003641Y015371D01*
X003841Y015371D02*
X003841Y003827D01*
X004041Y003890D02*
X004041Y017324D01*
X004007Y017324D02*
X004354Y017324D01*
X004690Y017414D01*
X004991Y017588D01*
X005237Y017834D01*
X005411Y018135D01*
X005501Y018470D01*
X005501Y018818D01*
X005411Y019154D01*
X005237Y019455D01*
X004991Y019700D01*
X004690Y019874D01*
X004354Y019964D01*
X004007Y019964D01*
X003671Y019874D01*
X003370Y019700D01*
X003124Y019455D01*
X002951Y019154D01*
X002891Y018930D01*
X002891Y019048D01*
X002899Y019170D01*
X002961Y019404D01*
X003083Y019615D01*
X003255Y019787D01*
X003465Y019908D01*
X003700Y019971D01*
X003822Y019979D01*
X003871Y019979D01*
X021489Y019979D01*
X021538Y019979D01*
X021622Y019973D01*
X021782Y019921D01*
X021918Y019822D01*
X022017Y019686D01*
X022069Y019526D01*
X022076Y019442D01*
X022076Y014687D01*
X021809Y014999D01*
X021821Y015027D01*
X021821Y015242D01*
X021738Y015440D01*
X021586Y015592D01*
X021487Y015633D01*
X021488Y015634D01*
X021564Y015672D01*
X021632Y015722D01*
X021692Y015782D01*
X021742Y015851D01*
X021781Y015927D01*
X021807Y016008D01*
X021819Y016084D01*
X021331Y016084D01*
X021331Y016184D01*
X021819Y016184D01*
X021807Y016261D01*
X021781Y016342D01*
X021742Y016417D01*
X021692Y016486D01*
X021632Y016546D01*
X021564Y016596D01*
X021489Y016634D01*
X021564Y016672D01*
X021632Y016722D01*
X021692Y016782D01*
X021742Y016851D01*
X021781Y016927D01*
X021807Y017008D01*
X021819Y017084D01*
X021331Y017084D01*
X021331Y017184D01*
X021819Y017184D01*
X021807Y017261D01*
X021781Y017342D01*
X021742Y017417D01*
X021692Y017486D01*
X021632Y017546D01*
X021564Y017596D01*
X021489Y017634D01*
X021564Y017672D01*
X021632Y017722D01*
X021692Y017782D01*
X021742Y017851D01*
X021781Y017927D01*
X021807Y018008D01*
X021819Y018084D01*
X021331Y018084D01*
X021331Y018184D01*
X021819Y018184D01*
X021807Y018261D01*
X021781Y018342D01*
X021742Y018417D01*
X021692Y018486D01*
X021632Y018546D01*
X021564Y018596D01*
X021488Y018635D01*
X021407Y018661D01*
X021331Y018673D01*
X021331Y018184D01*
X021231Y018184D01*
X021231Y018673D01*
X021154Y018661D01*
X021073Y018635D01*
X020998Y018596D01*
X020929Y018546D01*
X020869Y018486D01*
X020819Y018417D01*
X020780Y018342D01*
X020754Y018261D01*
X020742Y018184D01*
X021230Y018184D01*
X021230Y018084D01*
X020742Y018084D01*
X020754Y018008D01*
X020780Y017927D01*
X020819Y017851D01*
X020869Y017782D01*
X020929Y017722D01*
X020998Y017672D01*
X021073Y017634D01*
X020998Y017596D01*
X020929Y017546D01*
X020869Y017486D01*
X020819Y017417D01*
X020780Y017342D01*
X020754Y017261D01*
X020742Y017184D01*
X021230Y017184D01*
X021230Y017084D01*
X020742Y017084D01*
X020754Y017008D01*
X020780Y016927D01*
X020819Y016851D01*
X020869Y016782D01*
X020929Y016722D01*
X020998Y016672D01*
X021073Y016634D01*
X020998Y016596D01*
X020929Y016546D01*
X020869Y016486D01*
X020819Y016417D01*
X020780Y016342D01*
X020754Y016261D01*
X020742Y016184D01*
X021230Y016184D01*
X021230Y016084D01*
X020742Y016084D01*
X020754Y016008D01*
X020780Y015927D01*
X020819Y015851D01*
X020869Y015782D01*
X020929Y015722D01*
X020998Y015672D01*
X021073Y015634D01*
X021075Y015633D01*
X020975Y015592D01*
X020823Y015440D01*
X020741Y015242D01*
X020741Y015027D01*
X020823Y014828D01*
X020975Y014676D01*
X021077Y014634D01*
X020975Y014592D01*
X020823Y014440D01*
X020741Y014242D01*
X020741Y014027D01*
X020823Y013828D01*
X020975Y013676D01*
X021173Y013594D01*
X021388Y013594D01*
X021586Y013676D01*
X021738Y013828D01*
X021751Y013858D01*
X021751Y013463D01*
X021369Y013194D01*
X021164Y013194D01*
X020978Y013008D01*
X020531Y013455D01*
X020531Y013671D01*
X020337Y013864D01*
X020064Y013864D01*
X019884Y013684D01*
X019233Y014294D01*
X019151Y014378D01*
X018924Y014474D01*
X018801Y014474D01*
X018706Y014474D01*
X018631Y014474D01*
X018506Y014474D01*
X018506Y014474D01*
X018273Y014384D01*
X018273Y014384D01*
X018251Y014364D01*
X018250Y014364D01*
X018208Y014326D01*
X018180Y014300D01*
X018152Y014274D01*
X018145Y014274D01*
X018082Y014211D01*
X018015Y014150D01*
X018015Y014144D01*
X018011Y014139D01*
X018011Y014049D01*
X018010Y014039D01*
X017911Y013939D01*
X017911Y013855D01*
X017780Y013800D01*
X017704Y013792D01*
X015995Y013778D01*
X016043Y013825D01*
X016066Y013833D01*
X016080Y013862D01*
X016121Y013903D01*
X016121Y013913D01*
X016128Y013920D01*
X016128Y013961D01*
X016469Y014662D01*
X016519Y014711D01*
X016519Y014711D01*
X016601Y014909D01*
X016601Y014911D01*
X016611Y014921D01*
X016611Y016842D01*
X018412Y017899D01*
X018413Y017898D01*
X018415Y017900D01*
X018547Y017977D01*
X018549Y017987D01*
X018569Y017994D01*
X019904Y017994D01*
X020004Y017894D01*
X020277Y017894D01*
X020471Y018088D01*
X020471Y018361D01*
X020277Y018554D01*
X020004Y018554D01*
X019904Y018454D01*
X018531Y018454D01*
X018521Y018444D01*
X018514Y018444D01*
X018514Y018444D01*
X018301Y018370D01*
X018301Y018370D01*
X018281Y018355D01*
X016311Y017200D01*
X016285Y017200D01*
X016249Y017164D01*
X016211Y017141D01*
X016211Y017141D01*
X016210Y017141D01*
X016182Y017124D01*
X016172Y017087D01*
X016151Y017065D01*
X016151Y017004D01*
X016144Y016979D01*
X016141Y016971D01*
X016142Y016970D01*
X016134Y016940D01*
X016151Y016912D01*
X016151Y014977D01*
X016150Y014977D01*
X016130Y014969D01*
X016106Y014921D01*
X016068Y014882D01*
X016068Y014842D01*
X015762Y014214D01*
X015087Y014214D01*
X015241Y014214D02*
X015241Y014449D01*
X015241Y014450D02*
X015241Y014450D01*
X015254Y014544D02*
X015923Y014544D01*
X015841Y014376D02*
X015841Y019036D01*
X015700Y019036D02*
X016313Y019036D01*
X016413Y019135D01*
X016413Y019749D01*
X016313Y019848D01*
X015700Y019848D01*
X015601Y019749D01*
X015601Y019721D01*
X015537Y019784D01*
X015264Y019784D01*
X015071Y019591D01*
X015071Y019318D01*
X015264Y019124D01*
X015537Y019124D01*
X015601Y019188D01*
X015601Y019135D01*
X015700Y019036D01*
X015641Y019095D02*
X015641Y014214D01*
X015441Y014214D02*
X015441Y019124D01*
X015557Y019144D02*
X015601Y019144D01*
X015244Y019144D02*
X013781Y019144D01*
X013757Y019344D02*
X015071Y019344D01*
X015071Y019544D02*
X013295Y019544D01*
X013295Y019501D02*
X013295Y019710D01*
X013284Y019753D01*
X013261Y019792D01*
X013230Y019823D01*
X013191Y019846D01*
X013148Y019857D01*
X012939Y019857D01*
X012939Y019501D01*
X013295Y019501D01*
X013241Y019501D02*
X013241Y019441D01*
X013041Y019401D02*
X013041Y019501D01*
X012939Y019501D02*
X012939Y019401D01*
X012839Y019401D01*
X012839Y019045D01*
X012630Y019045D01*
X012587Y019057D01*
X012548Y019079D01*
X012517Y019111D01*
X012494Y019149D01*
X012483Y019193D01*
X012483Y019401D01*
X012839Y019401D01*
X012839Y019501D01*
X012483Y019501D01*
X012483Y019710D01*
X012494Y019753D01*
X012517Y019792D01*
X012548Y019823D01*
X012587Y019846D01*
X012630Y019857D01*
X012839Y019857D01*
X012839Y019501D01*
X012939Y019501D01*
X012939Y019544D02*
X012839Y019544D01*
X012841Y019501D02*
X012841Y019979D01*
X013041Y019979D02*
X013041Y019857D01*
X012939Y019744D02*
X012839Y019744D01*
X012641Y019857D02*
X012641Y019979D01*
X012441Y019979D02*
X012441Y019786D01*
X012468Y019758D02*
X012369Y019857D01*
X011756Y019857D01*
X011656Y019758D01*
X011656Y019725D01*
X011607Y019774D01*
X011334Y019774D01*
X011141Y019581D01*
X011141Y019308D01*
X011334Y019114D01*
X011607Y019114D01*
X011656Y019163D01*
X011656Y019145D01*
X011756Y019045D01*
X012369Y019045D01*
X012468Y019145D01*
X012468Y019758D01*
X012468Y019744D02*
X012492Y019744D01*
X012483Y019544D02*
X012468Y019544D01*
X012641Y019501D02*
X012641Y019401D01*
X012483Y019344D02*
X012468Y019344D01*
X012468Y019144D02*
X012497Y019144D01*
X012441Y019117D02*
X012441Y018034D01*
X012391Y017994D02*
X012221Y017824D01*
X012221Y017606D01*
X012101Y017608D01*
X012026Y017610D01*
X011987Y017614D01*
X011914Y017640D01*
X011853Y017688D01*
X011829Y017718D01*
X011821Y017731D01*
X011821Y017964D01*
X011651Y018134D01*
X011411Y018134D01*
X011241Y017964D01*
X011241Y017724D01*
X011411Y017554D01*
X011506Y017554D01*
X011529Y017519D01*
X011582Y017439D01*
X011582Y017439D01*
X011736Y017318D01*
X011736Y017318D01*
X011921Y017252D01*
X011945Y017251D01*
X012030Y017250D01*
X012094Y017248D01*
X012144Y017247D01*
X012180Y017247D01*
X012218Y017246D01*
X012265Y017240D01*
X012309Y017224D01*
X012878Y016939D01*
X012945Y016906D01*
X012963Y016894D01*
X012993Y016862D01*
X013009Y016821D01*
X013011Y016799D01*
X013011Y016753D01*
X013011Y016725D01*
X013011Y016444D01*
X012521Y016444D01*
X012581Y016504D01*
X012581Y016744D01*
X012411Y016914D01*
X012171Y016914D01*
X012001Y016744D01*
X012001Y016634D01*
X011745Y016444D01*
X011271Y016444D01*
X011391Y016564D01*
X011391Y016804D01*
X012060Y016804D01*
X012041Y016841D02*
X012041Y017209D01*
X011945Y017251D02*
X011945Y017251D01*
X011921Y017252D02*
X011921Y017252D01*
X011914Y017212D02*
X011914Y017212D01*
X011927Y017212D02*
X011927Y017212D01*
X011841Y017238D02*
X011841Y016565D01*
X011813Y016544D02*
X011427Y016544D01*
X011391Y016607D02*
X011964Y016607D01*
X012001Y016705D02*
X011391Y016705D01*
X011431Y016744D02*
X011961Y016744D01*
X012159Y016902D02*
X011292Y016902D01*
X011307Y016944D02*
X012144Y016944D01*
X012241Y016954D02*
X012241Y017203D01*
X012360Y017198D02*
X010111Y017198D01*
X010151Y017144D02*
X012379Y017144D01*
X012441Y017113D02*
X012441Y016941D01*
X012437Y016944D02*
X012779Y016944D01*
X012755Y017001D02*
X010111Y017001D01*
X010151Y016944D02*
X010894Y016944D01*
X010909Y016902D02*
X010111Y016902D01*
X010111Y016807D02*
X010111Y018094D01*
X010221Y018204D01*
X010221Y018444D01*
X010121Y018544D01*
X013269Y018544D01*
X013272Y018313D01*
X013279Y018306D01*
X013279Y018284D01*
X013041Y018284D01*
X012871Y018114D01*
X012871Y018062D01*
X012658Y017967D01*
X012631Y017994D01*
X012391Y017994D01*
X012383Y017986D02*
X011799Y017986D01*
X011841Y018001D02*
X011841Y019045D01*
X012041Y019045D02*
X012041Y017650D01*
X012181Y017744D02*
X011861Y017744D01*
X011851Y017691D02*
X012221Y017691D01*
X012221Y017789D02*
X011821Y017789D01*
X011821Y017888D02*
X012284Y017888D01*
X012241Y017901D02*
X012241Y019045D01*
X012641Y019045D02*
X012641Y018034D01*
X012639Y017986D02*
X012701Y017986D01*
X012871Y018085D02*
X011700Y018085D01*
X011697Y018144D02*
X012844Y018144D01*
X012841Y018141D02*
X012841Y019401D01*
X012839Y019344D02*
X012939Y019344D01*
X012939Y019144D02*
X012839Y019144D01*
X013041Y019045D02*
X013041Y018324D01*
X013038Y018282D02*
X010221Y018282D01*
X010261Y018344D02*
X013231Y018344D01*
X013271Y018381D02*
X010221Y018381D01*
X010241Y018481D02*
X010241Y019979D01*
X010441Y019979D02*
X010441Y016496D01*
X010441Y016444D02*
X010223Y016619D01*
X010186Y016649D01*
X010154Y016682D01*
X010116Y016762D01*
X010111Y016807D01*
X010111Y016804D02*
X010811Y016804D01*
X010811Y016564D01*
X010911Y016464D01*
X010911Y016444D01*
X010441Y016444D01*
X010361Y016508D02*
X010866Y016508D01*
X010841Y016478D02*
X010841Y016173D01*
X010871Y016344D02*
X010628Y016344D01*
X010641Y016334D02*
X010641Y019979D01*
X010841Y019979D02*
X010841Y016891D01*
X010811Y016804D02*
X010981Y016974D01*
X011221Y016974D01*
X011391Y016804D01*
X011241Y017011D02*
X011241Y017668D01*
X011274Y017691D02*
X010111Y017691D01*
X010151Y017744D02*
X011201Y017744D01*
X011241Y017789D02*
X010111Y017789D01*
X010111Y017888D02*
X011241Y017888D01*
X011201Y017944D02*
X010151Y017944D01*
X010111Y017986D02*
X011263Y017986D01*
X011241Y018021D02*
X011241Y019208D01*
X011304Y019144D02*
X009447Y019144D01*
X009450Y019149D02*
X009428Y019111D01*
X009396Y019079D01*
X009357Y019057D01*
X009314Y019045D01*
X009105Y019045D01*
X009105Y019401D01*
X009005Y019401D01*
X008649Y019401D01*
X008649Y019193D01*
X008661Y019149D01*
X008683Y019111D01*
X008715Y019079D01*
X008754Y019057D01*
X008797Y019045D01*
X009005Y019045D01*
X009005Y019401D01*
X009005Y019501D01*
X008649Y019501D01*
X008649Y019710D01*
X008661Y019753D01*
X008683Y019792D01*
X008715Y019823D01*
X008754Y019846D01*
X008797Y019857D01*
X009005Y019857D01*
X009005Y019501D01*
X009105Y019501D01*
X009105Y019857D01*
X009314Y019857D01*
X009357Y019846D01*
X009396Y019823D01*
X009428Y019792D01*
X009450Y019753D01*
X009462Y019710D01*
X009462Y019501D01*
X009106Y019501D01*
X009106Y019401D01*
X009462Y019401D01*
X009462Y019193D01*
X009450Y019149D01*
X009441Y019133D02*
X009441Y018404D01*
X009371Y018364D02*
X009225Y018219D01*
X008881Y018124D01*
X008851Y018154D01*
X008611Y018154D01*
X008441Y017984D01*
X008441Y017744D01*
X008611Y017574D01*
X008851Y017574D01*
X008996Y017720D01*
X009340Y017815D01*
X009371Y017784D01*
X009611Y017784D01*
X009751Y017924D01*
X009751Y016733D01*
X009751Y016680D01*
X009861Y016449D01*
X009867Y016444D01*
X007078Y016444D01*
X007051Y016464D01*
X007051Y016534D01*
X006881Y016704D01*
X006641Y016704D01*
X006471Y016534D01*
X006471Y016444D01*
X006041Y016444D01*
X006041Y018544D01*
X009741Y018544D01*
X009641Y018444D01*
X009641Y018334D01*
X009611Y018364D01*
X009371Y018364D01*
X009294Y018344D02*
X005467Y018344D01*
X005441Y018247D02*
X005441Y013614D01*
X005641Y013614D02*
X005641Y019979D01*
X005841Y019979D02*
X005841Y013614D01*
X006041Y013614D02*
X006041Y019979D01*
X006241Y019979D02*
X006241Y013614D01*
X006441Y013614D02*
X006441Y016268D01*
X006431Y016344D02*
X002891Y016344D01*
X003023Y016212D02*
X003023Y015471D01*
X003122Y015371D01*
X003863Y015371D01*
X003963Y015471D01*
X003963Y016212D01*
X003863Y016311D01*
X003122Y016311D01*
X003023Y016212D01*
X003041Y016229D02*
X003041Y016629D01*
X003023Y016647D02*
X003298Y016371D01*
X003443Y016371D01*
X003443Y016791D01*
X003543Y016791D01*
X003543Y016371D01*
X003688Y016371D01*
X003963Y016647D01*
X003963Y016791D01*
X003543Y016791D01*
X003543Y016891D01*
X003963Y016891D01*
X003963Y017036D01*
X003688Y017311D01*
X003543Y017311D01*
X003543Y016891D01*
X003443Y016891D01*
X003443Y016791D01*
X003023Y016791D01*
X003023Y016647D01*
X003023Y016744D02*
X002891Y016744D01*
X003041Y016791D02*
X003041Y016891D01*
X003023Y016891D02*
X003443Y016891D01*
X003443Y017311D01*
X003298Y017311D01*
X003023Y017036D01*
X003023Y016891D01*
X003023Y016944D02*
X002891Y016944D01*
X003041Y017054D02*
X003041Y017979D01*
X003061Y017944D02*
X002891Y017944D01*
X002891Y017744D02*
X003214Y017744D01*
X003241Y017717D02*
X003241Y017254D01*
X003131Y017144D02*
X002891Y017144D01*
X002891Y017344D02*
X003932Y017344D01*
X004007Y017324D02*
X003671Y017414D01*
X003370Y017588D01*
X003124Y017834D01*
X002951Y018135D01*
X002891Y018359D01*
X002891Y001725D01*
X002899Y001604D01*
X002961Y001369D01*
X003083Y001159D01*
X003255Y000987D01*
X003241Y001001D02*
X003241Y001949D01*
X003243Y001944D02*
X002891Y001944D01*
X002891Y001744D02*
X003384Y001744D01*
X003441Y001687D02*
X003441Y000879D01*
X003328Y000944D02*
X017361Y000944D01*
X017441Y000828D02*
X017441Y000794D01*
X017241Y000794D02*
X017241Y001338D01*
X017136Y001344D02*
X016621Y001344D01*
X016641Y001364D02*
X016641Y000794D01*
X016841Y000794D02*
X016841Y001555D01*
X016845Y001544D02*
X016715Y001544D01*
X016715Y001744D02*
X016775Y001744D01*
X016792Y001944D02*
X016715Y001944D01*
X016841Y002061D02*
X016841Y002555D01*
X016845Y002544D02*
X016644Y002544D01*
X016641Y002539D02*
X016641Y002252D01*
X016715Y002144D02*
X016916Y002144D01*
X017041Y002232D02*
X017041Y002384D01*
X017441Y002380D02*
X017441Y002235D01*
X017573Y002144D02*
X017916Y002144D01*
X017841Y002061D02*
X017841Y002566D01*
X017855Y002544D02*
X017644Y002544D01*
X017641Y002539D02*
X017641Y002077D01*
X017697Y001944D02*
X017792Y001944D01*
X017775Y001744D02*
X017715Y001744D01*
X017644Y001544D02*
X017830Y001544D01*
X017641Y001539D02*
X017641Y001374D01*
X017524Y001344D02*
X017353Y001344D01*
X017441Y001380D02*
X017441Y001261D01*
X017361Y001144D02*
X014882Y001144D01*
X014841Y001103D02*
X014841Y000794D01*
X015041Y000794D02*
X015041Y001183D01*
X015202Y001344D02*
X015868Y001344D01*
X015841Y001372D02*
X015841Y000794D01*
X016041Y000794D02*
X016041Y001338D01*
X016241Y001338D02*
X016241Y000794D01*
X016441Y000794D02*
X016441Y001338D01*
X017041Y001384D02*
X017041Y000794D01*
X017691Y001044D02*
X018301Y001754D01*
X018245Y001808D01*
X018697Y001944D02*
X019473Y001944D01*
X019545Y001744D02*
X018715Y001744D01*
X018441Y001380D02*
X018441Y000794D01*
X018241Y000794D02*
X018241Y001338D01*
X018353Y001344D02*
X019844Y001344D01*
X019841Y001347D02*
X019841Y000794D01*
X020041Y000794D02*
X020041Y001194D01*
X020127Y001144D02*
X018067Y001144D01*
X018041Y001114D02*
X018041Y000794D01*
X018021Y000944D02*
X021908Y000944D01*
X021841Y000895D02*
X021841Y001580D01*
X021820Y001544D02*
X022076Y001544D01*
X022076Y001344D02*
X021637Y001344D01*
X021641Y001348D02*
X021641Y000807D01*
X021441Y000794D02*
X021441Y001194D01*
X021354Y001144D02*
X022035Y001144D01*
X022041Y001160D02*
X022041Y002066D01*
X022061Y002144D02*
X022076Y002144D01*
X022076Y001944D02*
X022008Y001944D01*
X022076Y001744D02*
X021936Y001744D01*
X022061Y002344D02*
X022076Y002344D01*
X022076Y002544D02*
X022046Y002544D01*
X022041Y002562D02*
X022041Y004722D01*
X022060Y004744D02*
X022076Y004744D01*
X022076Y004544D02*
X021887Y004544D01*
X021841Y004490D02*
X021841Y003049D01*
X021777Y003144D02*
X022076Y003144D01*
X022076Y002944D02*
X021901Y002944D01*
X021992Y002744D02*
X022076Y002744D01*
X021441Y003434D02*
X021441Y004294D01*
X021241Y004294D02*
X021241Y003547D01*
X021250Y003544D02*
X020914Y003634D01*
X020567Y003634D01*
X020231Y003544D01*
X020241Y003547D02*
X020241Y004294D01*
X020441Y004294D02*
X020441Y003600D01*
X020641Y003634D02*
X020641Y004294D01*
X020841Y004294D02*
X020841Y003634D01*
X021041Y003600D02*
X021041Y004294D01*
X021571Y004514D02*
X022011Y005024D01*
X022011Y011644D01*
X021411Y012334D01*
X021351Y012324D02*
X020171Y013504D01*
X019944Y013744D02*
X019820Y013744D01*
X019841Y013725D02*
X019841Y017994D01*
X019954Y017944D02*
X018490Y017944D01*
X018441Y017915D02*
X018441Y014449D01*
X018641Y014474D02*
X018641Y017994D01*
X018841Y017994D02*
X018841Y014474D01*
X018924Y014474D02*
X018924Y014474D01*
X019041Y014425D02*
X019041Y017994D01*
X019241Y017994D02*
X019241Y014286D01*
X019184Y014344D02*
X020783Y014344D01*
X020841Y014458D02*
X020841Y014811D01*
X020907Y014744D02*
X016532Y014744D01*
X016441Y014603D02*
X016441Y013782D01*
X016641Y013783D02*
X016641Y016860D01*
X016611Y016744D02*
X020907Y016744D01*
X020841Y016821D02*
X020841Y016447D01*
X020782Y016344D02*
X016611Y016344D01*
X016611Y016144D02*
X021230Y016144D01*
X021231Y016184D02*
X021231Y016595D01*
X021231Y017084D01*
X021331Y017084D01*
X021331Y016673D01*
X021331Y016184D01*
X021231Y016184D01*
X021241Y016184D02*
X021241Y017084D01*
X021230Y017144D02*
X017125Y017144D01*
X017041Y017095D02*
X017041Y013787D01*
X017241Y013788D02*
X017241Y017212D01*
X017441Y017329D02*
X017441Y013790D01*
X017641Y013792D02*
X017641Y017446D01*
X017808Y017544D02*
X020927Y017544D01*
X020841Y017447D02*
X020841Y017821D01*
X020907Y017744D02*
X018149Y017744D01*
X018241Y017798D02*
X018241Y014355D01*
X018229Y014344D02*
X016314Y014344D01*
X016241Y014193D02*
X016241Y013780D01*
X016128Y013944D02*
X017915Y013944D01*
X017841Y013826D02*
X017841Y017564D01*
X018041Y017681D02*
X018041Y014173D01*
X018015Y014144D02*
X016217Y014144D01*
X015908Y014011D02*
X015904Y014006D01*
X015902Y014000D01*
X015901Y013994D01*
X014187Y013994D01*
X014157Y013992D01*
X014127Y013986D01*
X014098Y013976D01*
X014071Y013963D01*
X014046Y013946D01*
X014023Y013926D01*
X014271Y013654D02*
X014011Y013504D01*
X012081Y011724D01*
X011157Y011770D01*
X011009Y011747D02*
X010980Y011736D01*
X010901Y011941D02*
X010791Y011899D01*
X010655Y011789D01*
X010660Y012476D01*
X010666Y012486D01*
X010699Y012452D01*
X010791Y012414D01*
X010890Y012414D01*
X010957Y012414D01*
X011021Y012342D01*
X011021Y012279D01*
X011071Y012157D01*
X011164Y012064D01*
X011285Y012014D01*
X011416Y012014D01*
X011538Y012064D01*
X011630Y012157D01*
X011681Y012279D01*
X011681Y012410D01*
X011630Y012531D01*
X011567Y012594D01*
X011572Y012594D01*
X012201Y012180D01*
X012222Y012154D01*
X011999Y011949D01*
X011196Y011989D01*
X011168Y011990D01*
X011045Y011996D01*
X010930Y011952D01*
X010919Y011948D01*
X010901Y011941D01*
X010910Y011944D02*
X010656Y011944D01*
X010791Y011899D02*
X010791Y011899D01*
X010841Y011918D02*
X010841Y012414D01*
X011018Y012344D02*
X010659Y012344D01*
X010658Y012144D02*
X011084Y012144D01*
X011041Y012230D02*
X011041Y011995D01*
X011045Y011996D02*
X011045Y011996D01*
X011241Y011986D02*
X011241Y012033D01*
X011441Y012024D02*
X011441Y011976D01*
X011641Y011966D02*
X011641Y012182D01*
X011617Y012144D02*
X012212Y012144D01*
X012041Y012285D02*
X012041Y011987D01*
X011841Y011956D02*
X011841Y012417D01*
X011951Y012344D02*
X011681Y012344D01*
X011641Y012506D02*
X011641Y012549D01*
X011647Y012544D02*
X011617Y012544D01*
X011041Y012917D02*
X011041Y013774D01*
X010841Y013774D02*
X010841Y013368D01*
X010863Y013344D02*
X012602Y013344D01*
X012641Y013378D02*
X012641Y013785D01*
X012841Y013789D02*
X012841Y013553D01*
X012830Y013544D02*
X010057Y013544D01*
X010041Y013561D02*
X010041Y013774D01*
X009852Y013744D02*
X013059Y013744D01*
X013041Y013729D02*
X013041Y013794D01*
X013041Y014024D02*
X013581Y014564D01*
X013911Y014544D02*
X014171Y014544D01*
X014171Y014508D02*
X014171Y014689D01*
X013925Y014972D01*
X013782Y014829D01*
X013911Y014701D01*
X013911Y014443D01*
X014020Y014484D01*
X014025Y014484D01*
X014116Y014484D01*
X014194Y014484D01*
X014171Y014508D01*
X014041Y014484D02*
X014041Y014839D01*
X014123Y014744D02*
X013867Y014744D01*
X013841Y014771D02*
X013841Y014888D01*
X013897Y014944D02*
X013949Y014944D01*
X013631Y015144D02*
X012641Y015144D01*
X012231Y015504D01*
X012457Y015744D02*
X013255Y015744D01*
X013241Y015761D02*
X013241Y015364D01*
X013041Y015364D02*
X013041Y015991D01*
X013040Y015992D02*
X013040Y015992D01*
X013082Y015944D02*
X011741Y015944D01*
X011841Y016018D02*
X011841Y015743D01*
X011839Y015744D02*
X012004Y015744D01*
X012041Y015781D02*
X012041Y016166D01*
X012012Y016144D02*
X012983Y016144D01*
X012971Y016178D02*
X012971Y016178D01*
X012971Y016344D02*
X012477Y016344D01*
X012441Y016308D02*
X012441Y015761D01*
X012241Y015834D02*
X012241Y016294D01*
X012581Y016508D02*
X013011Y016508D01*
X012971Y016544D02*
X012621Y016544D01*
X012581Y016607D02*
X013011Y016607D01*
X013011Y016705D02*
X012581Y016705D01*
X012621Y016744D02*
X012971Y016744D01*
X013010Y016804D02*
X012521Y016804D01*
X012422Y016902D02*
X012950Y016902D01*
X012878Y016939D02*
X012878Y016939D01*
X012841Y016913D02*
X012841Y015364D01*
X012641Y015437D02*
X012641Y017013D01*
X012558Y017100D02*
X010111Y017100D01*
X010111Y017297D02*
X011795Y017297D01*
X011717Y017282D02*
X011717Y017282D01*
X011641Y017342D02*
X011641Y016417D01*
X011542Y016344D02*
X011311Y016344D01*
X011441Y016269D02*
X011441Y017514D01*
X011364Y017544D02*
X010151Y017544D01*
X010111Y017592D02*
X011373Y017592D01*
X011546Y017494D02*
X010111Y017494D01*
X010111Y017395D02*
X011638Y017395D01*
X011638Y017344D02*
X010151Y017344D01*
X009751Y017297D02*
X006041Y017297D01*
X006041Y017395D02*
X009751Y017395D01*
X009711Y017344D02*
X004429Y017344D01*
X004441Y017347D02*
X004441Y014226D01*
X004473Y014239D02*
X004316Y014174D01*
X004195Y014054D01*
X004130Y013897D01*
X004130Y013727D01*
X004195Y013570D01*
X004316Y013450D01*
X004473Y013385D01*
X004643Y013385D01*
X004799Y013450D01*
X004920Y013570D01*
X004985Y013727D01*
X004985Y013897D01*
X004920Y014054D01*
X004799Y014174D01*
X004643Y014239D01*
X004473Y014239D01*
X004641Y014239D02*
X004641Y017401D01*
X004841Y017501D02*
X004841Y014133D01*
X004829Y014144D02*
X006888Y014144D01*
X006841Y014027D02*
X006841Y016049D01*
X006985Y015944D02*
X003963Y015944D01*
X003963Y015744D02*
X007263Y015744D01*
X007241Y015760D02*
X007241Y014364D01*
X007321Y014544D02*
X002891Y014544D01*
X002891Y014344D02*
X007000Y014344D01*
X007041Y014364D02*
X007041Y015904D01*
X006641Y016084D02*
X006641Y013614D01*
X006728Y013744D02*
X004985Y013744D01*
X005041Y013585D02*
X005041Y017638D01*
X005147Y017744D02*
X008401Y017744D01*
X008441Y017789D02*
X006041Y017789D01*
X006041Y017691D02*
X008494Y017691D01*
X008441Y017688D02*
X008441Y015512D01*
X008396Y015544D02*
X010920Y015544D01*
X010950Y015520D02*
X010811Y015381D01*
X010811Y015108D01*
X011004Y014914D01*
X011147Y014914D01*
X011230Y014824D01*
X011100Y014824D01*
X010711Y015094D01*
X010711Y015191D01*
X010517Y015384D01*
X010244Y015384D01*
X010051Y015191D01*
X010051Y014918D01*
X010051Y015144D02*
X008952Y015144D01*
X009041Y015080D02*
X009041Y017691D01*
X008967Y017691D02*
X009751Y017691D01*
X009711Y017744D02*
X009627Y017744D01*
X009711Y017828D01*
X009711Y016716D01*
X009711Y016671D01*
X009829Y016424D01*
X009864Y016395D01*
X009869Y016392D01*
X009935Y016338D01*
X010006Y016281D01*
X010950Y015520D01*
X010841Y015608D02*
X010841Y015411D01*
X010811Y015344D02*
X010557Y015344D01*
X010641Y015261D02*
X010641Y015769D01*
X010672Y015744D02*
X008119Y015744D01*
X008041Y015800D02*
X008041Y019045D01*
X007922Y019045D02*
X008535Y019045D01*
X008635Y019145D01*
X008635Y019758D01*
X008535Y019857D01*
X007922Y019857D01*
X007822Y019758D01*
X007822Y019669D01*
X007798Y019670D01*
X007684Y019784D01*
X007411Y019784D01*
X007217Y019591D01*
X007217Y019318D01*
X007411Y019124D01*
X007684Y019124D01*
X007790Y019230D01*
X007822Y019229D01*
X007822Y019145D01*
X007922Y019045D01*
X007841Y019126D02*
X007841Y015944D01*
X010424Y015944D01*
X010441Y015931D02*
X010441Y015384D01*
X010241Y015381D02*
X010241Y016092D01*
X010176Y016144D02*
X007563Y016144D01*
X007641Y016088D02*
X007641Y019124D01*
X007704Y019144D02*
X007823Y019144D01*
X007441Y019124D02*
X007441Y016232D01*
X007286Y016344D02*
X009927Y016344D01*
X009864Y016395D02*
X009864Y016395D01*
X009841Y016414D02*
X009841Y014601D01*
X009897Y014544D02*
X010731Y014544D01*
X010641Y014607D02*
X010641Y014214D01*
X010841Y014214D02*
X010841Y014469D01*
X010874Y014344D02*
X009951Y014344D01*
X010041Y014214D02*
X010041Y016253D01*
X010006Y016281D02*
X010006Y016281D01*
X009861Y016449D02*
X009861Y016449D01*
X009829Y016424D02*
X009829Y016424D01*
X009833Y016508D02*
X007051Y016508D01*
X007091Y016544D02*
X009771Y016544D01*
X009785Y016607D02*
X006978Y016607D01*
X007041Y016601D02*
X007041Y019979D01*
X007241Y019979D02*
X007241Y019614D01*
X007217Y019544D02*
X005147Y019544D01*
X005241Y019448D02*
X005241Y019979D01*
X005441Y019979D02*
X005441Y019042D01*
X005467Y018944D02*
X013224Y018944D01*
X013226Y018744D02*
X005501Y018744D01*
X005501Y018544D02*
X009684Y018544D01*
X009641Y018501D02*
X009641Y019979D01*
X009841Y019979D02*
X009841Y018654D01*
X010041Y018654D02*
X010041Y019979D01*
X009441Y019979D02*
X009441Y019769D01*
X009452Y019744D02*
X011304Y019744D01*
X011241Y019681D02*
X011241Y019979D01*
X011441Y019979D02*
X011441Y019774D01*
X011637Y019744D02*
X011656Y019744D01*
X011641Y019741D02*
X011641Y019979D01*
X011841Y019979D02*
X011841Y019857D01*
X012041Y019857D02*
X012041Y019979D01*
X012241Y019979D02*
X012241Y019857D01*
X012062Y019451D02*
X012061Y019444D01*
X011471Y019444D01*
X011641Y019148D02*
X011641Y018174D01*
X011441Y018174D02*
X011441Y019114D01*
X011637Y019144D02*
X011656Y019144D01*
X011141Y019344D02*
X009462Y019344D01*
X009441Y019401D02*
X009441Y019501D01*
X009462Y019544D02*
X011141Y019544D01*
X011041Y019979D02*
X011041Y017014D01*
X011101Y016684D02*
X011091Y016644D01*
X011091Y016014D01*
X011191Y015914D01*
X011331Y015914D01*
X012291Y016624D01*
X012390Y017384D02*
X012358Y017399D01*
X012325Y017410D01*
X012291Y017418D01*
X012257Y017424D01*
X012222Y017426D01*
X012023Y017430D01*
X012390Y017385D02*
X013025Y017067D01*
X013115Y017268D02*
X013042Y017305D01*
X012732Y017459D01*
X012841Y017568D01*
X012841Y017611D01*
X012841Y017405D01*
X012962Y017344D02*
X013225Y017344D01*
X013205Y017223D02*
X013115Y017268D01*
X013042Y017305D02*
X013042Y017305D01*
X013041Y017305D02*
X013041Y017664D01*
X013024Y017664D02*
X013221Y017664D01*
X013227Y017201D01*
X013210Y017220D01*
X013205Y017223D01*
X013205Y017223D01*
X013210Y017220D02*
X013210Y017220D01*
X013647Y017198D02*
X015491Y017198D01*
X015491Y017100D02*
X013649Y017100D01*
X013688Y017144D02*
X016216Y017144D01*
X016210Y017141D02*
X016210Y017141D01*
X016241Y017159D02*
X016241Y019036D01*
X016041Y019036D02*
X016041Y014787D01*
X016020Y014744D02*
X015261Y014744D01*
X015274Y014692D02*
X015274Y014692D01*
X015241Y014872D02*
X015241Y019148D01*
X015401Y019454D02*
X016001Y019444D01*
X016007Y019442D01*
X016413Y019344D02*
X016427Y019344D01*
X016427Y019392D02*
X016427Y019183D01*
X016439Y019140D01*
X016461Y019101D01*
X016493Y019070D01*
X016532Y019047D01*
X016575Y019036D01*
X016784Y019036D01*
X016784Y019392D01*
X016883Y019392D01*
X016883Y019036D01*
X017092Y019036D01*
X017135Y019047D01*
X017174Y019070D01*
X017206Y019101D01*
X017228Y019140D01*
X017240Y019183D01*
X017240Y019392D01*
X016884Y019392D01*
X016884Y019492D01*
X017240Y019492D01*
X017240Y019700D01*
X017228Y019744D01*
X019164Y019744D01*
X019194Y019774D02*
X019001Y019581D01*
X019001Y019308D01*
X019194Y019114D01*
X019467Y019114D01*
X019538Y019185D01*
X019538Y019135D01*
X019637Y019036D01*
X020250Y019036D01*
X020350Y019135D01*
X020350Y019749D01*
X020250Y019848D01*
X019637Y019848D01*
X019538Y019749D01*
X019538Y019704D01*
X019467Y019774D01*
X019194Y019774D01*
X019241Y019774D02*
X019241Y019979D01*
X019441Y019979D02*
X019441Y019774D01*
X019497Y019744D02*
X019538Y019744D01*
X019641Y019848D02*
X019641Y019979D01*
X019841Y019979D02*
X019841Y019848D01*
X020041Y019848D02*
X020041Y019979D01*
X020241Y019979D02*
X020241Y019848D01*
X020350Y019744D02*
X020376Y019744D01*
X020364Y019700D01*
X020364Y019492D01*
X020720Y019492D01*
X020720Y019392D01*
X020364Y019392D01*
X020364Y019183D01*
X020376Y019140D01*
X020398Y019101D01*
X020430Y019070D01*
X020469Y019047D01*
X020512Y019036D01*
X020721Y019036D01*
X020721Y019392D01*
X020820Y019392D01*
X020820Y019036D01*
X021029Y019036D01*
X021072Y019047D01*
X021111Y019070D01*
X021143Y019101D01*
X021165Y019140D01*
X021177Y019183D01*
X021177Y019392D01*
X020821Y019392D01*
X020821Y019492D01*
X021177Y019492D01*
X021177Y019700D01*
X021165Y019744D01*
X021975Y019744D01*
X022041Y019613D02*
X022041Y014728D01*
X022027Y014744D02*
X022076Y014744D01*
X022076Y014944D02*
X021856Y014944D01*
X021841Y014962D02*
X021841Y019878D01*
X021710Y019944D02*
X004429Y019944D01*
X004441Y019941D02*
X004441Y019979D01*
X004641Y019979D02*
X004641Y019887D01*
X004841Y019979D02*
X004841Y019787D01*
X004915Y019744D02*
X007371Y019744D01*
X007441Y019784D02*
X007441Y019979D01*
X007641Y019979D02*
X007641Y019784D01*
X007724Y019744D02*
X007822Y019744D01*
X007841Y019776D02*
X007841Y019979D01*
X008041Y019979D02*
X008041Y019857D01*
X008241Y019857D02*
X008241Y019979D01*
X008441Y019979D02*
X008441Y019857D01*
X008635Y019744D02*
X008658Y019744D01*
X008649Y019544D02*
X008635Y019544D01*
X008635Y019344D02*
X008649Y019344D01*
X008841Y019401D02*
X008841Y019501D01*
X009005Y019544D02*
X009105Y019544D01*
X009041Y019501D02*
X009041Y019979D01*
X009241Y019979D02*
X009241Y019857D01*
X009105Y019744D02*
X009005Y019744D01*
X008841Y019857D02*
X008841Y019979D01*
X008641Y019979D02*
X008641Y018194D01*
X008544Y018144D02*
X005413Y018144D01*
X005301Y017944D02*
X008401Y017944D01*
X008443Y017986D02*
X006041Y017986D01*
X006041Y017888D02*
X008441Y017888D01*
X008441Y018041D02*
X008441Y019045D01*
X008241Y019045D02*
X008241Y015656D01*
X008641Y015368D02*
X008641Y017534D01*
X008584Y017544D02*
X004915Y017544D01*
X005241Y017840D02*
X005241Y013614D01*
X005000Y013544D02*
X004894Y013544D01*
X004841Y013491D02*
X004841Y012401D01*
X004897Y012344D02*
X006819Y012344D01*
X006808Y012144D02*
X004985Y012144D01*
X004964Y011944D02*
X006794Y011944D01*
X006841Y011460D02*
X006841Y010236D01*
X006738Y010144D02*
X005131Y010144D01*
X005051Y009944D02*
X006728Y009944D01*
X006724Y009744D02*
X005051Y009744D01*
X005241Y009554D02*
X005241Y012574D01*
X005441Y012574D02*
X005441Y009554D01*
X005641Y009554D02*
X005641Y012574D01*
X005841Y012574D02*
X005841Y009571D01*
X006041Y009634D02*
X006041Y012574D01*
X006241Y012574D02*
X006241Y009571D01*
X006284Y009544D02*
X006720Y009544D01*
X006641Y009529D02*
X006641Y012574D01*
X006441Y012574D02*
X006441Y009538D01*
X006441Y009037D02*
X006441Y005061D01*
X006324Y004944D02*
X002891Y004944D01*
X002891Y004744D02*
X006271Y004744D01*
X006344Y004544D02*
X002891Y004544D01*
X004241Y003934D02*
X004241Y011793D01*
X004289Y011744D02*
X002891Y011744D01*
X002891Y011944D02*
X004151Y011944D01*
X004130Y012144D02*
X002891Y012144D01*
X002891Y012344D02*
X004218Y012344D01*
X004241Y012367D02*
X004241Y013525D01*
X004221Y013544D02*
X002891Y013544D01*
X002891Y013344D02*
X004971Y013344D01*
X004971Y013144D02*
X002891Y013144D01*
X002891Y012944D02*
X004971Y012944D01*
X004641Y012507D02*
X004641Y013385D01*
X004441Y013398D02*
X004441Y012494D01*
X004130Y013744D02*
X002891Y013744D01*
X002891Y013944D02*
X004150Y013944D01*
X004241Y014099D02*
X004241Y017324D01*
X003841Y017369D02*
X003841Y017158D01*
X003855Y017144D02*
X009711Y017144D01*
X009751Y017100D02*
X006041Y017100D01*
X006041Y017198D02*
X009751Y017198D01*
X009751Y017001D02*
X006041Y017001D01*
X006041Y016902D02*
X009751Y016902D01*
X009711Y016944D02*
X003963Y016944D01*
X003841Y016891D02*
X003841Y016791D01*
X003963Y016744D02*
X009711Y016744D01*
X009711Y016716D02*
X009711Y016716D01*
X009751Y016705D02*
X006041Y016705D01*
X006041Y016607D02*
X006543Y016607D01*
X006441Y016561D02*
X006441Y019979D01*
X006641Y019979D02*
X006641Y016744D01*
X006841Y016744D02*
X006841Y019979D01*
X007547Y019454D02*
X008121Y019444D01*
X008229Y019451D01*
X009005Y019344D02*
X009105Y019344D01*
X009041Y019401D02*
X009041Y018209D01*
X009098Y018184D02*
X006041Y018184D01*
X006041Y018282D02*
X009288Y018282D01*
X009241Y018291D02*
X009241Y019045D01*
X009105Y019144D02*
X009005Y019144D01*
X008841Y019045D02*
X008841Y018194D01*
X008541Y018085D02*
X006041Y018085D01*
X006041Y018381D02*
X009641Y018381D01*
X009675Y018479D02*
X006041Y018479D01*
X005413Y019144D02*
X007391Y019144D01*
X007241Y019294D02*
X007241Y016377D01*
X006564Y016144D02*
X003963Y016144D01*
X003841Y016311D02*
X003841Y016524D01*
X003860Y016544D02*
X006431Y016544D01*
X006471Y016508D02*
X006041Y016508D01*
X006041Y016804D02*
X009751Y016804D01*
X009751Y016680D02*
X009751Y016680D01*
X009711Y016671D02*
X009711Y016671D01*
X009931Y016807D02*
X009931Y018324D01*
X010186Y018479D02*
X013270Y018479D01*
X013229Y018544D02*
X010177Y018544D01*
X010200Y018184D02*
X012940Y018184D01*
X013161Y017994D02*
X012511Y017704D01*
X012284Y017944D02*
X011861Y017944D01*
X011678Y017620D02*
X011700Y017590D01*
X011725Y017562D01*
X011751Y017536D01*
X011780Y017513D01*
X011811Y017492D01*
X011844Y017474D01*
X011878Y017459D01*
X011913Y017447D01*
X011949Y017438D01*
X011986Y017432D01*
X012023Y017430D01*
X011679Y017620D02*
X011531Y017844D01*
X011361Y018085D02*
X010111Y018085D01*
X010217Y018144D02*
X011364Y018144D01*
X011582Y017439D02*
X011582Y017439D01*
X011552Y017411D02*
X011552Y017411D01*
X011552Y017411D01*
X010811Y016705D02*
X010143Y016705D01*
X010168Y016744D02*
X010771Y016744D01*
X010811Y016607D02*
X010239Y016607D01*
X010241Y016657D02*
X010241Y018168D01*
X009751Y017888D02*
X009714Y017888D01*
X009751Y017789D02*
X009616Y017789D01*
X009641Y017758D02*
X009641Y014684D01*
X009507Y014744D02*
X010224Y014744D01*
X010241Y014728D02*
X010241Y014214D01*
X010441Y014214D02*
X010441Y014724D01*
X010381Y015054D02*
X011191Y014494D01*
X011441Y014278D02*
X011441Y014217D01*
X011378Y014215D02*
X011516Y014353D01*
X011647Y014222D01*
X011378Y014215D01*
X011507Y014344D02*
X011524Y014344D01*
X011641Y014228D02*
X011641Y014222D01*
X011942Y014229D02*
X012121Y014408D01*
X012121Y014576D01*
X012181Y014528D01*
X012181Y014408D01*
X012350Y014238D01*
X011942Y014229D01*
X012041Y014231D02*
X012041Y014328D01*
X012057Y014344D02*
X012244Y014344D01*
X012241Y014348D02*
X012241Y014236D01*
X012679Y014246D02*
X012841Y014408D01*
X012841Y014514D01*
X012841Y014250D01*
X012777Y014344D02*
X013050Y014344D01*
X013041Y014335D02*
X013041Y014578D01*
X013007Y014544D02*
X013250Y014544D01*
X013251Y014545D02*
X012958Y014252D01*
X012679Y014246D01*
X012841Y014514D02*
X012977Y014514D01*
X013171Y014708D01*
X013171Y014924D01*
X013384Y014924D01*
X013429Y014879D01*
X013251Y014701D01*
X013251Y014545D01*
X013241Y014535D02*
X013241Y014924D01*
X013294Y014744D02*
X013171Y014744D01*
X012841Y014844D02*
X012491Y014844D01*
X011331Y015914D01*
X011141Y015244D02*
X011791Y014544D01*
X012121Y014544D02*
X012160Y014544D01*
X012511Y014544D02*
X010073Y016509D01*
X010380Y016544D02*
X010774Y016544D01*
X010073Y016509D02*
X010044Y016534D01*
X010019Y016562D01*
X009996Y016592D01*
X009976Y016625D01*
X009960Y016659D01*
X009947Y016695D01*
X009938Y016732D01*
X009932Y016769D01*
X009930Y016807D01*
X009751Y017494D02*
X006041Y017494D01*
X006041Y017592D02*
X008593Y017592D01*
X008841Y017534D02*
X008841Y015224D01*
X008674Y015344D02*
X010204Y015344D01*
X010711Y015144D02*
X010811Y015144D01*
X010841Y015078D02*
X010841Y015004D01*
X010927Y014944D02*
X010974Y014944D01*
X011041Y014914D02*
X011041Y014865D01*
X012561Y015544D02*
X013429Y015544D01*
X013441Y015530D02*
X013441Y015421D01*
X012691Y015544D02*
X012741Y016294D01*
X013191Y016278D02*
X013191Y016799D01*
X013189Y016832D01*
X013184Y016865D01*
X013175Y016897D01*
X013162Y016928D01*
X013146Y016957D01*
X013127Y016984D01*
X013105Y017009D01*
X013081Y017031D01*
X013054Y017051D01*
X013025Y017067D01*
X013650Y017001D02*
X015491Y017001D01*
X015491Y016902D02*
X013651Y016902D01*
X013691Y016944D02*
X016135Y016944D01*
X016141Y016971D02*
X016141Y016971D01*
X016151Y016744D02*
X013694Y016744D01*
X013654Y016705D02*
X015491Y016705D01*
X015491Y016607D02*
X013656Y016607D01*
X013696Y016544D02*
X016151Y016544D01*
X016151Y016344D02*
X013699Y016344D01*
X013469Y016326D02*
X013471Y016297D01*
X013477Y016268D01*
X013486Y016241D01*
X013498Y016214D01*
X013514Y016190D01*
X013532Y016167D01*
X013272Y016061D02*
X013251Y016088D01*
X013233Y016116D01*
X013218Y016147D01*
X013206Y016178D01*
X013198Y016211D01*
X013193Y016244D01*
X013191Y016278D01*
X013272Y016061D02*
X014501Y014644D01*
X014750Y014270D02*
X014787Y014282D01*
X014823Y014298D01*
X014856Y014317D01*
X014888Y014339D01*
X014918Y014364D01*
X014944Y014392D01*
X014969Y014422D01*
X014990Y014455D01*
X015007Y014489D01*
X015022Y014525D01*
X015032Y014562D01*
X015039Y014600D01*
X015043Y014639D01*
X015042Y014678D01*
X015038Y014716D01*
X015030Y014754D01*
X015164Y014944D02*
X016117Y014944D01*
X016288Y014791D02*
X016309Y014814D01*
X016327Y014839D01*
X016343Y014866D01*
X016357Y014894D01*
X016367Y014924D01*
X016375Y014954D01*
X016379Y014985D01*
X016381Y015016D01*
X016611Y014944D02*
X020775Y014944D01*
X020741Y015144D02*
X016611Y015144D01*
X016611Y015344D02*
X020783Y015344D01*
X020841Y015458D02*
X020841Y015821D01*
X020907Y015744D02*
X016611Y015744D01*
X016611Y015544D02*
X020927Y015544D01*
X021041Y015619D02*
X021041Y015650D01*
X021634Y015544D02*
X022076Y015544D01*
X022076Y015344D02*
X021778Y015344D01*
X021821Y015144D02*
X022076Y015144D01*
X021641Y015538D02*
X021641Y015731D01*
X021654Y015744D02*
X022076Y015744D01*
X022076Y015944D02*
X021787Y015944D01*
X021641Y016084D02*
X021641Y016184D01*
X021441Y016184D02*
X021441Y016084D01*
X021331Y016144D02*
X022076Y016144D01*
X022076Y016344D02*
X021780Y016344D01*
X021641Y016538D02*
X021641Y016731D01*
X021654Y016744D02*
X022076Y016744D01*
X022076Y016544D02*
X021634Y016544D01*
X021331Y016544D02*
X021231Y016544D01*
X021231Y016344D02*
X021331Y016344D01*
X021041Y016184D02*
X021041Y016084D01*
X020841Y016084D02*
X020841Y016184D01*
X020775Y015944D02*
X016611Y015944D01*
X016151Y015944D02*
X014104Y015944D01*
X014041Y016004D02*
X014041Y019979D01*
X014241Y019979D02*
X014241Y015816D01*
X014316Y015744D02*
X016151Y015744D01*
X016151Y015544D02*
X014528Y015544D01*
X014441Y015627D02*
X014441Y019979D01*
X014641Y019979D02*
X014641Y015438D01*
X014740Y015344D02*
X016151Y015344D01*
X016151Y015144D02*
X014952Y015144D01*
X015041Y015061D02*
X015041Y019979D01*
X015241Y019979D02*
X015241Y019761D01*
X015224Y019744D02*
X013286Y019744D01*
X013241Y019812D02*
X013241Y019979D01*
X013441Y019979D02*
X013441Y019514D01*
X013641Y019461D02*
X013641Y019979D01*
X013841Y019979D02*
X013841Y016193D01*
X013892Y016144D02*
X016151Y016144D01*
X016611Y016544D02*
X020927Y016544D01*
X021041Y016618D02*
X021041Y016650D01*
X021231Y016744D02*
X021331Y016744D01*
X021331Y016944D02*
X021231Y016944D01*
X021331Y017144D02*
X022076Y017144D01*
X022076Y016944D02*
X021787Y016944D01*
X021641Y017084D02*
X021641Y017184D01*
X021441Y017184D02*
X021441Y017084D01*
X021331Y017184D02*
X021231Y017184D01*
X021231Y017673D01*
X021231Y018084D01*
X021331Y018084D01*
X021331Y017595D01*
X021331Y017184D01*
X021241Y017184D02*
X021241Y018084D01*
X021230Y018144D02*
X020471Y018144D01*
X020441Y018058D02*
X020441Y013761D01*
X020457Y013744D02*
X020907Y013744D01*
X020841Y013811D02*
X020841Y013145D01*
X020842Y013144D02*
X021114Y013144D01*
X021041Y013071D02*
X021041Y013649D01*
X021241Y013594D02*
X021241Y013194D01*
X021441Y013245D02*
X021441Y013616D01*
X021641Y013731D02*
X021641Y013386D01*
X021582Y013344D02*
X020642Y013344D01*
X020641Y013345D02*
X020641Y019036D01*
X020721Y019144D02*
X020820Y019144D01*
X020841Y019036D02*
X020841Y018447D01*
X020782Y018344D02*
X020471Y018344D01*
X020441Y018391D02*
X020441Y019063D01*
X020375Y019144D02*
X020350Y019144D01*
X020241Y019036D02*
X020241Y018554D01*
X020287Y018544D02*
X020927Y018544D01*
X021041Y018618D02*
X021041Y019039D01*
X021166Y019144D02*
X022076Y019144D01*
X022076Y018944D02*
X013684Y018944D01*
X013686Y018744D02*
X022076Y018744D01*
X022076Y018544D02*
X021634Y018544D01*
X021641Y018538D02*
X021641Y019967D01*
X021441Y019979D02*
X021441Y018650D01*
X021331Y018544D02*
X021231Y018544D01*
X021231Y018344D02*
X021331Y018344D01*
X021241Y018184D02*
X021241Y019979D01*
X021041Y019979D02*
X021041Y019845D01*
X021029Y019848D02*
X020820Y019848D01*
X020820Y019492D01*
X020721Y019492D01*
X020721Y019848D01*
X020512Y019848D01*
X020469Y019836D01*
X020430Y019814D01*
X020398Y019782D01*
X020376Y019744D01*
X020441Y019820D02*
X020441Y019979D01*
X020641Y019979D02*
X020641Y019848D01*
X020721Y019744D02*
X020820Y019744D01*
X020841Y019848D02*
X020841Y019979D01*
X021029Y019848D02*
X021072Y019836D01*
X021111Y019814D01*
X021143Y019782D01*
X021165Y019744D01*
X021177Y019544D02*
X022063Y019544D01*
X022076Y019344D02*
X021177Y019344D01*
X021041Y019392D02*
X021041Y019492D01*
X020841Y019492D02*
X020841Y019392D01*
X020820Y019344D02*
X020721Y019344D01*
X020641Y019392D02*
X020641Y019492D01*
X020721Y019544D02*
X020820Y019544D01*
X020441Y019492D02*
X020441Y019392D01*
X020364Y019344D02*
X020350Y019344D01*
X020350Y019544D02*
X020364Y019544D01*
X019944Y019442D02*
X019941Y019444D01*
X019331Y019444D01*
X019041Y019268D02*
X019041Y018454D01*
X019041Y018644D02*
X017501Y019004D01*
X017229Y019144D02*
X019164Y019144D01*
X019241Y019114D02*
X019241Y018454D01*
X019441Y018454D02*
X019441Y019114D01*
X019497Y019144D02*
X019538Y019144D01*
X019641Y019036D02*
X019641Y018454D01*
X019841Y018454D02*
X019841Y019036D01*
X020041Y019036D02*
X020041Y018554D01*
X019994Y018544D02*
X013689Y018544D01*
X013649Y018544D02*
X015491Y018544D01*
X015491Y016444D01*
X013658Y016444D01*
X013639Y017776D01*
X013632Y017783D01*
X013639Y018305D01*
X013652Y018318D01*
X013649Y018544D01*
X013650Y018479D02*
X015491Y018479D01*
X015491Y018381D02*
X013651Y018381D01*
X013691Y018344D02*
X018263Y018344D01*
X018241Y018331D02*
X018241Y019979D01*
X018441Y019979D02*
X018441Y018419D01*
X018641Y018454D02*
X018641Y019979D01*
X018841Y019979D02*
X018841Y018454D01*
X019441Y017994D02*
X019441Y014099D01*
X019392Y014144D02*
X020741Y014144D01*
X020775Y013944D02*
X019606Y013944D01*
X019641Y013912D02*
X019641Y017994D01*
X020041Y017894D02*
X020041Y013841D01*
X020241Y013864D02*
X020241Y017894D01*
X020327Y017944D02*
X020775Y017944D01*
X020841Y018084D02*
X020841Y018184D01*
X021041Y018184D02*
X021041Y018084D01*
X021231Y017944D02*
X021331Y017944D01*
X021441Y018084D02*
X021441Y018184D01*
X021331Y018144D02*
X022076Y018144D01*
X022076Y017944D02*
X021787Y017944D01*
X021641Y018084D02*
X021641Y018184D01*
X021780Y018344D02*
X022076Y018344D01*
X022076Y017744D02*
X021654Y017744D01*
X021641Y017731D02*
X021641Y017538D01*
X021634Y017544D02*
X022076Y017544D01*
X022076Y017344D02*
X021780Y017344D01*
X021331Y017344D02*
X021231Y017344D01*
X021231Y017544D02*
X021331Y017544D01*
X021331Y017744D02*
X021231Y017744D01*
X021041Y017651D02*
X021041Y017618D01*
X020782Y017344D02*
X017467Y017344D01*
X017239Y017744D02*
X013680Y017744D01*
X013632Y017789D02*
X015491Y017789D01*
X015491Y017691D02*
X013641Y017691D01*
X013642Y017592D02*
X015491Y017592D01*
X015491Y017494D02*
X013643Y017494D01*
X013683Y017544D02*
X016898Y017544D01*
X016841Y017511D02*
X016841Y019392D01*
X016783Y019392D02*
X016427Y019392D01*
X016441Y019392D02*
X016441Y019492D01*
X016427Y019492D02*
X016427Y019700D01*
X016439Y019744D01*
X016413Y019744D01*
X016439Y019744D02*
X016461Y019782D01*
X016493Y019814D01*
X016532Y019836D01*
X016575Y019848D01*
X016784Y019848D01*
X016784Y019492D01*
X016883Y019492D01*
X016883Y019848D01*
X017092Y019848D01*
X017135Y019836D01*
X017174Y019814D01*
X017206Y019782D01*
X017228Y019744D01*
X017240Y019544D02*
X019001Y019544D01*
X019041Y019621D02*
X019041Y019979D01*
X018041Y019979D02*
X018041Y018214D01*
X017922Y018144D02*
X013677Y018144D01*
X013638Y018184D02*
X015491Y018184D01*
X015491Y018282D02*
X013639Y018282D01*
X013636Y018085D02*
X015491Y018085D01*
X015491Y017986D02*
X013635Y017986D01*
X013674Y017944D02*
X017581Y017944D01*
X017641Y017979D02*
X017641Y019979D01*
X017841Y019979D02*
X017841Y018097D01*
X017441Y017862D02*
X017441Y019979D01*
X017241Y019979D02*
X017241Y017745D01*
X017041Y017628D02*
X017041Y019036D01*
X016883Y019144D02*
X016784Y019144D01*
X016641Y019036D02*
X016641Y017393D01*
X016557Y017344D02*
X013685Y017344D01*
X013646Y017297D02*
X015491Y017297D01*
X015491Y017395D02*
X013645Y017395D01*
X013451Y017694D02*
X013461Y018394D01*
X013633Y017888D02*
X015491Y017888D01*
X016281Y017884D02*
X016291Y018694D01*
X016391Y018794D01*
X016691Y018794D01*
X016441Y019137D02*
X016441Y017276D01*
X016380Y016974D02*
X016379Y016973D01*
X016379Y016971D01*
X016380Y016970D01*
X016784Y016944D02*
X020775Y016944D01*
X020841Y017084D02*
X020841Y017184D01*
X021041Y017184D02*
X021041Y017084D01*
X018627Y018224D02*
X018590Y018222D01*
X018552Y018218D01*
X018516Y018210D01*
X018480Y018199D01*
X018445Y018185D01*
X018411Y018169D01*
X018379Y018149D01*
X018348Y018127D01*
X016438Y019144D02*
X016413Y019144D01*
X016784Y019344D02*
X016883Y019344D01*
X016783Y019392D02*
X016783Y019492D01*
X016427Y019492D01*
X016427Y019544D02*
X016413Y019544D01*
X016441Y019747D02*
X016441Y019979D01*
X016641Y019979D02*
X016641Y019848D01*
X016784Y019744D02*
X016883Y019744D01*
X017041Y019848D02*
X017041Y019979D01*
X016841Y019979D02*
X016841Y019492D01*
X016883Y019544D02*
X016784Y019544D01*
X016641Y019492D02*
X016641Y019392D01*
X017041Y019392D02*
X017041Y019492D01*
X017240Y019344D02*
X019001Y019344D01*
X016241Y019848D02*
X016241Y019979D01*
X016041Y019979D02*
X016041Y019848D01*
X015841Y019848D02*
X015841Y019979D01*
X015641Y019979D02*
X015641Y019789D01*
X015601Y019744D02*
X015577Y019744D01*
X015441Y019784D02*
X015441Y019979D01*
X014841Y019979D02*
X014841Y015250D01*
X016288Y014791D02*
X015908Y014011D01*
X016041Y013823D02*
X016041Y013778D01*
X015519Y013774D02*
X015517Y013774D01*
X015443Y013773D01*
X015427Y013756D01*
X014601Y013594D01*
X014601Y013774D01*
X015519Y013774D01*
X015441Y013771D02*
X015441Y013774D01*
X015365Y013744D02*
X014601Y013744D01*
X014641Y013774D02*
X014641Y013602D01*
X014841Y013641D02*
X014841Y013774D01*
X015041Y013774D02*
X015041Y013681D01*
X015241Y013720D02*
X015241Y013774D01*
X015841Y013317D02*
X015841Y013291D01*
X015941Y013144D02*
X019163Y013144D01*
X019241Y013073D02*
X019241Y010207D01*
X019302Y010144D02*
X019917Y010144D01*
X019841Y010068D02*
X019841Y010613D01*
X019808Y010646D02*
X020083Y010370D01*
X020228Y010370D01*
X020228Y010790D01*
X020328Y010790D01*
X020328Y010890D01*
X020748Y010890D01*
X020748Y011035D01*
X020472Y011310D01*
X020328Y011310D01*
X020328Y010890D01*
X020228Y010890D01*
X020228Y010790D01*
X019808Y010790D01*
X019808Y010646D01*
X019808Y010744D02*
X016847Y010744D01*
X016841Y010751D02*
X016841Y010988D01*
X016797Y010944D02*
X019808Y010944D01*
X019808Y010890D02*
X020228Y010890D01*
X020228Y011310D01*
X020083Y011310D01*
X019808Y011035D01*
X019808Y010890D01*
X019841Y010890D02*
X019841Y010790D01*
X020041Y010790D02*
X020041Y010890D01*
X020228Y010944D02*
X020328Y010944D01*
X020241Y010890D02*
X020241Y012158D01*
X020256Y012144D02*
X014702Y012144D01*
X014641Y012180D02*
X014641Y012824D01*
X014681Y012824D02*
X014682Y012823D01*
X014771Y012824D01*
X014862Y012824D01*
X014863Y012825D01*
X015367Y012831D01*
X015474Y012724D01*
X015747Y012724D01*
X015767Y012744D02*
X019600Y012744D01*
X019641Y012707D02*
X019641Y009797D01*
X019692Y009744D02*
X019808Y009744D01*
X019841Y009613D02*
X019841Y009592D01*
X019887Y009544D02*
X019909Y009544D01*
X020041Y009413D02*
X020041Y009387D01*
X020083Y009344D02*
X021486Y009344D01*
X021441Y009370D02*
X021441Y009310D01*
X021241Y009310D02*
X021241Y009370D01*
X020441Y009370D02*
X020441Y009310D01*
X020241Y009310D02*
X020241Y009370D01*
X019641Y009139D02*
X019641Y009105D01*
X019635Y009144D02*
X019601Y009144D01*
X019441Y009301D02*
X019441Y009343D01*
X019440Y009344D02*
X019397Y009344D01*
X019241Y009498D02*
X019241Y009548D01*
X019245Y009544D02*
X019193Y009544D01*
X019092Y009643D02*
X019046Y009725D01*
X018879Y009866D01*
X018905Y009892D01*
X019808Y008967D01*
X019808Y008941D01*
X019092Y009643D01*
X019046Y009725D02*
X019046Y009725D01*
X019041Y009729D02*
X019041Y009753D01*
X019049Y009744D02*
X019023Y009744D01*
X019441Y010002D02*
X019441Y012890D01*
X019382Y012944D02*
X015941Y012944D01*
X015841Y012818D02*
X015841Y011538D01*
X015835Y011544D02*
X020912Y011544D01*
X020841Y011609D02*
X020841Y011068D01*
X020917Y011144D02*
X020638Y011144D01*
X020641Y011142D02*
X020641Y011792D01*
X020693Y011744D02*
X015660Y011744D01*
X015641Y011767D02*
X015641Y011775D01*
X015582Y011834D01*
X015526Y011898D01*
X015518Y011898D01*
X015512Y011904D01*
X015428Y011904D01*
X015344Y011910D01*
X015338Y011904D01*
X015110Y011904D01*
X014291Y012386D01*
X014291Y012461D01*
X014104Y012647D01*
X014128Y012671D01*
X014374Y012824D01*
X014681Y012824D01*
X014841Y012824D02*
X014841Y012063D01*
X015041Y011945D02*
X015041Y012827D01*
X015241Y012830D02*
X015241Y011904D01*
X015441Y011904D02*
X015441Y012758D01*
X015454Y012744D02*
X014246Y012744D01*
X014241Y012741D02*
X014241Y012511D01*
X014207Y012544D02*
X019819Y012544D01*
X019841Y012524D02*
X019841Y011068D01*
X019917Y011144D02*
X016921Y011144D01*
X016917Y011344D02*
X021001Y011344D01*
X021461Y011344D02*
X021549Y011344D01*
X021472Y011310D02*
X021549Y011234D01*
X021550Y011495D01*
X021461Y011579D01*
X021461Y011570D01*
X021465Y011479D01*
X021461Y011475D01*
X021461Y011310D01*
X021472Y011310D01*
X021462Y011544D02*
X021497Y011544D01*
X022041Y011945D02*
X022041Y013105D01*
X022054Y013114D02*
X022076Y013114D01*
X022076Y011905D01*
X021517Y012547D01*
X021455Y012552D01*
X021631Y012728D01*
X021631Y012816D01*
X022054Y013114D01*
X022076Y012944D02*
X021813Y012944D01*
X021841Y012964D02*
X021841Y012175D01*
X021867Y012144D02*
X022076Y012144D01*
X022076Y011944D02*
X022041Y011944D01*
X022076Y012344D02*
X021693Y012344D01*
X021641Y012405D02*
X021641Y012823D01*
X021631Y012744D02*
X022076Y012744D01*
X022076Y012544D02*
X021519Y012544D01*
X020475Y011944D02*
X015042Y011944D01*
X015051Y011684D02*
X013961Y012324D01*
X013641Y012204D02*
X013641Y012494D01*
X013991Y012844D01*
X014311Y013044D01*
X014771Y013044D01*
X015611Y013054D01*
X016041Y013318D02*
X016041Y011434D01*
X016241Y011434D02*
X016241Y013320D01*
X016441Y013322D02*
X016441Y011521D01*
X016641Y011534D02*
X016641Y013323D01*
X016841Y013325D02*
X016841Y011421D01*
X015841Y011204D02*
X015421Y011684D01*
X015051Y011684D01*
X015079Y011464D02*
X015321Y011464D01*
X015575Y011174D01*
X015405Y011174D01*
X015399Y011168D01*
X014971Y011181D01*
X014965Y011187D01*
X014881Y011184D01*
X014797Y011187D01*
X014791Y011181D01*
X014291Y011166D01*
X014200Y011163D01*
X014190Y011163D01*
X014171Y011171D01*
X014157Y011184D01*
X014149Y011203D01*
X014148Y011212D01*
X014143Y011685D01*
X014143Y011685D01*
X014142Y011769D01*
X014141Y011867D01*
X014140Y011867D01*
X014140Y011875D01*
X014140Y011875D01*
X014095Y011990D01*
X014915Y011509D01*
X014959Y011464D01*
X014991Y011464D01*
X015018Y011448D01*
X015079Y011464D01*
X015041Y011454D02*
X015041Y011179D01*
X015241Y011173D02*
X015241Y011464D01*
X015426Y011344D02*
X014146Y011344D01*
X013928Y011210D02*
X013930Y011179D01*
X013936Y011149D01*
X013945Y011120D01*
X013957Y011091D01*
X013972Y011065D01*
X013991Y011040D01*
X014012Y011018D01*
X014035Y010998D01*
X014061Y010981D01*
X014088Y010966D01*
X014117Y010955D01*
X014147Y010948D01*
X014177Y010944D01*
X014208Y010943D01*
X014881Y010964D01*
X015501Y010944D01*
X015441Y010714D02*
X015441Y010653D01*
X015641Y010714D02*
X015641Y010584D01*
X015841Y010479D02*
X015841Y010714D01*
X016041Y010714D02*
X016041Y010323D01*
X016014Y010344D02*
X016314Y010344D01*
X016441Y010218D02*
X016441Y010048D01*
X016641Y009984D02*
X016641Y010154D01*
X016841Y010218D02*
X016841Y009974D01*
X017041Y009974D02*
X017041Y013327D01*
X017241Y013328D02*
X017241Y009974D01*
X017441Y009974D02*
X017441Y013330D01*
X017613Y013331D02*
X017613Y013331D01*
X017641Y013331D02*
X017641Y009974D01*
X016967Y010344D02*
X018424Y010344D01*
X018441Y010361D02*
X018441Y013678D01*
X018431Y013744D02*
X018371Y013744D01*
X018370Y013649D02*
X018370Y013649D01*
X018303Y013581D02*
X018303Y013581D01*
X018266Y013544D02*
X018574Y013544D01*
X018641Y013494D02*
X018641Y010494D01*
X018841Y010494D02*
X018841Y013439D01*
X018801Y014244D02*
X018631Y014244D01*
X018180Y014300D02*
X018180Y014300D01*
X019151Y014378D02*
X019151Y014378D01*
X020531Y013544D02*
X021751Y013544D01*
X021751Y013744D02*
X021654Y013744D01*
X021041Y014619D02*
X021041Y014649D01*
X020927Y014544D02*
X016412Y014544D01*
X016601Y014909D02*
X016601Y014909D01*
X015825Y014344D02*
X015180Y014344D01*
X013618Y014234D02*
X013259Y013920D01*
X013273Y013934D01*
X013272Y013945D01*
X013562Y014234D01*
X013618Y014234D01*
X013515Y014144D02*
X013472Y014144D01*
X013441Y014113D02*
X013441Y014079D01*
X013287Y013944D02*
X013273Y013944D01*
X012441Y013780D02*
X012441Y013203D01*
X011241Y013161D02*
X011241Y013752D01*
X010641Y013774D02*
X010641Y013532D01*
X010441Y013544D02*
X010441Y013774D01*
X010241Y013774D02*
X010241Y013544D01*
X009841Y013674D02*
X009841Y013733D01*
X009641Y013714D02*
X009641Y013661D01*
X009524Y013544D02*
X009384Y013544D01*
X009441Y013484D02*
X009441Y013714D01*
X009241Y013698D02*
X009241Y013723D01*
X009219Y013744D02*
X009198Y013744D01*
X009041Y013912D02*
X009041Y013917D01*
X009012Y013944D02*
X009011Y013944D01*
X009091Y012664D02*
X007641Y013744D01*
X006808Y013944D02*
X004965Y013944D01*
X004286Y014144D02*
X002891Y014144D01*
X002891Y014744D02*
X007277Y014744D01*
X007347Y014944D02*
X002891Y014944D01*
X002891Y015144D02*
X007570Y015144D01*
X007641Y015215D02*
X007641Y015472D01*
X007541Y015544D02*
X003963Y015544D01*
X003441Y015371D02*
X003441Y003541D01*
X003444Y003544D02*
X002891Y003544D01*
X002891Y003344D02*
X003278Y003344D01*
X003241Y003280D02*
X003241Y015371D01*
X003041Y015453D02*
X003041Y001232D01*
X003097Y001144D02*
X014049Y001144D01*
X014041Y001153D02*
X014041Y000794D01*
X014241Y000794D02*
X014241Y001094D01*
X014441Y001094D02*
X014441Y000794D01*
X014641Y000794D02*
X014641Y001094D01*
X014741Y001314D02*
X014191Y001314D01*
X013541Y001964D01*
X014045Y001771D02*
X014061Y001810D01*
X014083Y001758D01*
X014235Y001606D01*
X014409Y001534D01*
X014282Y001534D01*
X014045Y001771D01*
X014072Y001744D02*
X014097Y001744D01*
X014241Y001604D02*
X014241Y001575D01*
X014272Y001544D02*
X014385Y001544D01*
X014741Y001314D02*
X014821Y001394D01*
X014941Y001394D01*
X015301Y001754D01*
X016301Y001754D01*
X016245Y001808D01*
X015641Y001974D02*
X015641Y002793D01*
X015595Y002744D02*
X015775Y002744D01*
X015841Y002555D02*
X015841Y002244D01*
X015775Y002144D02*
X015081Y002144D01*
X015441Y001974D02*
X015441Y002581D01*
X015406Y002544D02*
X015845Y002544D01*
X015792Y002944D02*
X015784Y002944D01*
X015179Y002944D02*
X015154Y002944D01*
X015041Y002856D02*
X015041Y002798D01*
X014261Y003134D02*
X014141Y003134D01*
X013371Y003164D01*
X011361Y004774D01*
X010991Y005074D01*
X011041Y004744D02*
X011041Y002492D01*
X009911Y002284D02*
X009911Y002024D01*
X009914Y002022D01*
X009911Y002284D02*
X010041Y003554D01*
X010271Y005384D01*
X010271Y006564D01*
X010221Y007014D01*
X010257Y007060D01*
X010241Y007194D01*
X010406Y007344D02*
X010475Y007344D01*
X010935Y007544D02*
X011025Y007544D01*
X011041Y007529D02*
X011041Y007223D01*
X011066Y007144D02*
X011425Y007144D01*
X011441Y007129D02*
X011441Y006005D01*
X011461Y005944D02*
X012625Y005944D01*
X012641Y005929D02*
X012641Y005706D01*
X012512Y005684D02*
X012147Y005684D01*
X012037Y005794D01*
X011764Y005794D01*
X011573Y005603D01*
X010891Y007679D01*
X012832Y005737D01*
X012512Y005684D01*
X012441Y005684D02*
X012441Y006129D01*
X012425Y006144D02*
X011395Y006144D01*
X011329Y006344D02*
X012225Y006344D01*
X012241Y006329D02*
X012241Y005684D01*
X012087Y005744D02*
X012825Y005744D01*
X013281Y005604D02*
X013921Y005544D01*
X014401Y005264D01*
X015081Y005264D01*
X015411Y005494D01*
X015571Y005494D01*
X015787Y005744D02*
X016361Y005744D01*
X016691Y005784D02*
X016711Y005784D01*
X015831Y004704D01*
X014581Y004604D01*
X014841Y004398D02*
X014841Y004114D01*
X015041Y004114D02*
X015041Y004420D01*
X014848Y004405D02*
X014717Y004274D01*
X014444Y004274D01*
X014322Y004396D01*
X014480Y004114D01*
X015094Y004114D01*
X015204Y004224D01*
X015477Y004224D01*
X015671Y004031D01*
X015671Y003845D01*
X015706Y003870D01*
X015719Y003899D01*
X015777Y003921D01*
X015829Y003957D01*
X015860Y003951D01*
X015867Y003954D01*
X015742Y004078D01*
X015671Y004251D01*
X015671Y004438D01*
X015685Y004472D01*
X014848Y004405D01*
X014787Y004344D02*
X015671Y004344D01*
X015641Y004468D02*
X015641Y004061D01*
X015715Y004144D02*
X015557Y004144D01*
X015441Y004224D02*
X015441Y004452D01*
X015241Y004436D02*
X015241Y004224D01*
X015124Y004144D02*
X014463Y004144D01*
X014441Y004184D02*
X014441Y004278D01*
X014374Y004344D02*
X014351Y004344D01*
X014251Y004524D02*
X014205Y004605D01*
X014206Y004609D01*
X014161Y004684D01*
X014118Y004761D01*
X014114Y004762D01*
X014113Y004764D01*
X014212Y004764D01*
X014274Y004764D01*
X014251Y004741D01*
X014251Y004524D01*
X014251Y004544D02*
X014239Y004544D01*
X014241Y004542D02*
X014241Y004764D01*
X014254Y004744D02*
X014128Y004744D01*
X013980Y004814D02*
X013893Y004900D01*
X013807Y004814D01*
X013830Y004814D01*
X013856Y004830D01*
X013918Y004814D01*
X013980Y004814D01*
X013841Y004821D02*
X013841Y004848D01*
X013781Y005144D02*
X013671Y005144D01*
X013661Y005134D01*
X013781Y005144D02*
X013971Y005134D01*
X014121Y004984D01*
X015401Y004984D01*
X015731Y004944D02*
X015742Y004944D01*
X015841Y005065D02*
X015841Y005298D01*
X015887Y005344D02*
X016068Y005344D01*
X016041Y005310D02*
X016041Y007161D01*
X014321Y007884D02*
X014446Y008405D01*
X014521Y008714D01*
X014741Y009234D01*
X015039Y009687D02*
X014502Y010224D01*
X014894Y010224D01*
X014894Y009994D01*
X015087Y009801D01*
X015251Y009801D01*
X015502Y009562D01*
X015561Y009495D01*
X015561Y009328D01*
X015754Y009134D01*
X015938Y009134D01*
X016650Y008574D01*
X016274Y008574D01*
X015485Y009232D01*
X015489Y009272D01*
X015461Y009307D01*
X015449Y009350D01*
X015406Y009375D01*
X015278Y009533D01*
X015278Y009535D01*
X015219Y009605D01*
X015164Y009673D01*
X015163Y009674D01*
X015161Y009675D01*
X015070Y009683D01*
X015039Y009687D01*
X015041Y009686D02*
X015041Y009848D01*
X014982Y009744D02*
X015311Y009744D01*
X015241Y009801D02*
X015241Y009580D01*
X015270Y009544D02*
X015517Y009544D01*
X015441Y009620D02*
X015441Y009355D01*
X015450Y009344D02*
X015561Y009344D01*
X015641Y009248D02*
X015641Y009102D01*
X015590Y009144D02*
X015744Y009144D01*
X015841Y009134D02*
X015841Y008935D01*
X015830Y008944D02*
X016179Y008944D01*
X016241Y008896D02*
X016241Y008602D01*
X016441Y008574D02*
X016441Y008739D01*
X016434Y008744D02*
X016070Y008744D01*
X016041Y008769D02*
X016041Y009054D01*
X016415Y009344D02*
X016651Y009344D01*
X016651Y009451D02*
X016714Y009514D01*
X016658Y009514D01*
X016658Y009514D01*
X016548Y009514D01*
X016548Y009514D01*
X016181Y009640D01*
X016221Y009601D01*
X016221Y009497D01*
X016740Y009089D01*
X016651Y009178D01*
X016651Y009451D01*
X016641Y009514D02*
X016641Y009167D01*
X016669Y009144D02*
X016684Y009144D01*
X016441Y009324D02*
X016441Y009551D01*
X016461Y009544D02*
X016221Y009544D01*
X016241Y009481D02*
X016241Y009620D01*
X015972Y009794D02*
X015883Y009794D01*
X015879Y009799D01*
X015878Y009810D01*
X015819Y009867D01*
X015766Y009928D01*
X015755Y009929D01*
X015559Y010115D01*
X015924Y009831D01*
X015972Y009794D01*
X015924Y009831D02*
X015924Y009831D01*
X015841Y009846D02*
X015841Y009896D01*
X015779Y009944D02*
X015738Y009944D01*
X015641Y010037D02*
X015641Y010052D01*
X015661Y009714D02*
X015224Y010131D01*
X014894Y010144D02*
X014582Y010144D01*
X014641Y010085D02*
X014641Y010224D01*
X014841Y010224D02*
X014841Y009885D01*
X014782Y009944D02*
X014944Y009944D01*
X015239Y010444D02*
X015291Y010442D01*
X015343Y010437D01*
X015395Y010428D01*
X015446Y010416D01*
X015496Y010401D01*
X015545Y010383D01*
X015593Y010361D01*
X015639Y010336D01*
X015683Y010308D01*
X015725Y010277D01*
X015661Y009714D02*
X015881Y009464D01*
X015891Y009464D01*
X014321Y008824D02*
X014311Y008783D01*
X014283Y008716D01*
X014290Y008697D01*
X014211Y008368D01*
X014171Y008201D01*
X014043Y008074D01*
X014074Y008842D01*
X014168Y008870D01*
X014214Y008824D01*
X014321Y008824D01*
X014241Y008824D02*
X014241Y008491D01*
X014253Y008544D02*
X014062Y008544D01*
X014054Y008344D02*
X014205Y008344D01*
X014211Y008368D02*
X014211Y008368D01*
X014114Y008144D02*
X014046Y008144D01*
X013524Y007784D02*
X013331Y007978D01*
X013331Y008128D01*
X013169Y007966D01*
X013440Y007774D01*
X013445Y007775D01*
X013459Y007764D01*
X013553Y007764D01*
X013545Y007784D01*
X013524Y007784D01*
X013441Y007774D02*
X013441Y007868D01*
X013364Y007944D02*
X013200Y007944D01*
X013241Y007915D02*
X013241Y008038D01*
X014070Y008744D02*
X014294Y008744D01*
X013531Y009534D02*
X012228Y009564D01*
X011747Y009858D01*
X012181Y010024D02*
X012811Y009924D01*
X013154Y010207D02*
X013143Y010235D01*
X013128Y010262D01*
X013111Y010286D01*
X013090Y010308D01*
X013067Y010328D01*
X013041Y010344D01*
X013014Y010357D01*
X012985Y010366D01*
X012955Y010372D01*
X012925Y010374D01*
X013154Y010207D02*
X013241Y009934D01*
X013241Y010471D02*
X013241Y011601D01*
X013175Y011544D02*
X013704Y011544D01*
X013922Y011774D02*
X013920Y011807D01*
X013914Y011840D01*
X013905Y011872D01*
X013893Y011903D01*
X013878Y011932D01*
X013860Y011960D01*
X013839Y011985D01*
X013641Y012204D01*
X013381Y012014D02*
X012241Y011024D01*
X012041Y010758D02*
X012041Y010594D01*
X011841Y010594D02*
X011841Y010984D01*
X011911Y010944D02*
X011277Y010944D01*
X011241Y010981D02*
X011241Y011546D01*
X011241Y011394D02*
X011331Y011055D01*
X010980Y011736D02*
X010942Y011719D01*
X010906Y011700D01*
X010871Y011678D01*
X010838Y011653D01*
X010806Y011626D01*
X010777Y011596D01*
X010751Y011565D01*
X010727Y011531D01*
X011009Y011746D02*
X011045Y011758D01*
X011082Y011765D01*
X011119Y011769D01*
X011157Y011770D01*
X011761Y011314D02*
X012181Y011314D01*
X014111Y013264D01*
X014441Y012824D02*
X014441Y012297D01*
X014361Y012344D02*
X020037Y012344D01*
X020041Y012341D02*
X020041Y011268D01*
X020228Y011144D02*
X020328Y011144D01*
X020441Y011310D02*
X020441Y011975D01*
X020748Y010944D02*
X020808Y010944D01*
X020748Y010790D02*
X020328Y010790D01*
X020328Y010370D01*
X020472Y010370D01*
X020748Y010646D01*
X020748Y010790D01*
X020748Y010744D02*
X020808Y010744D01*
X020641Y010790D02*
X020641Y010890D01*
X020441Y010890D02*
X020441Y010790D01*
X020328Y010744D02*
X020228Y010744D01*
X020241Y010790D02*
X020241Y010310D01*
X020441Y010310D02*
X020441Y010370D01*
X020328Y010544D02*
X020228Y010544D01*
X020041Y010413D02*
X020041Y010268D01*
X019909Y010544D02*
X016971Y010544D01*
X015441Y011174D02*
X015441Y011327D01*
X014841Y011186D02*
X014841Y011552D01*
X014855Y011544D02*
X014144Y011544D01*
X014142Y011744D02*
X014514Y011744D01*
X014441Y011787D02*
X014441Y011170D01*
X014291Y011166D02*
X014291Y011166D01*
X014241Y011164D02*
X014241Y011905D01*
X014173Y011944D02*
X014113Y011944D01*
X013922Y011773D02*
X013928Y011210D01*
X013709Y011117D02*
X013709Y011117D01*
X013931Y010790D02*
X013931Y010790D01*
X014041Y010748D02*
X014041Y010664D01*
X014641Y011177D02*
X014641Y011670D01*
X011866Y010645D02*
X011821Y010647D01*
X011776Y010652D01*
X011731Y010662D01*
X011688Y010674D01*
X011646Y010691D01*
X011605Y010710D01*
X011566Y010733D01*
X011529Y010760D01*
X011494Y010789D01*
X011462Y010820D01*
X011433Y010855D01*
X011406Y010891D01*
X011382Y010930D01*
X011362Y010970D01*
X011345Y011012D01*
X011332Y011056D01*
X011641Y010984D02*
X011641Y010572D01*
X011571Y010344D02*
X011532Y010346D01*
X011494Y010351D01*
X011456Y010360D01*
X011419Y010373D01*
X011384Y010389D01*
X011350Y010408D01*
X011318Y010431D01*
X011289Y010456D01*
X011262Y010484D01*
X011238Y010514D01*
X011101Y010704D01*
X010951Y010804D01*
X010187Y010744D02*
X009932Y010744D01*
X009934Y010544D02*
X010186Y010544D01*
X010184Y010344D02*
X009937Y010344D01*
X009939Y010144D02*
X010183Y010144D01*
X010181Y009944D02*
X009942Y009944D01*
X009944Y009744D02*
X010185Y009744D01*
X010185Y009746D02*
X010219Y008961D01*
X010202Y008915D01*
X010223Y008869D01*
X010225Y008819D01*
X010261Y008786D01*
X010303Y008694D01*
X010134Y008694D01*
X009959Y008520D01*
X009926Y011180D01*
X010191Y011216D01*
X010181Y009934D01*
X010177Y009929D01*
X010181Y009840D01*
X010180Y009751D01*
X010185Y009746D01*
X010193Y009544D02*
X009947Y009544D01*
X009949Y009344D02*
X010202Y009344D01*
X010211Y009144D02*
X009952Y009144D01*
X009954Y008944D02*
X010213Y008944D01*
X010241Y008805D02*
X010241Y008694D01*
X010280Y008744D02*
X009957Y008744D01*
X010041Y008601D02*
X010041Y011195D01*
X009927Y011144D02*
X010190Y011144D01*
X010189Y010944D02*
X009929Y010944D01*
X009492Y010744D02*
X008960Y010744D01*
X008958Y010544D02*
X009494Y010544D01*
X009497Y010344D02*
X008957Y010344D01*
X008956Y010144D02*
X009499Y010144D01*
X009502Y009944D02*
X008955Y009944D01*
X008954Y009744D02*
X009504Y009744D01*
X009507Y009544D02*
X008952Y009544D01*
X008951Y009344D02*
X009509Y009344D01*
X008641Y009084D02*
X008641Y007923D01*
X008654Y007906D02*
X008654Y007906D01*
X008624Y007944D02*
X009546Y007944D01*
X009535Y008144D02*
X008469Y008144D01*
X008441Y008181D02*
X008441Y009084D01*
X008241Y009084D02*
X008241Y008439D01*
X008314Y008344D02*
X009522Y008344D01*
X009519Y008544D02*
X008159Y008544D01*
X008041Y008697D02*
X008041Y009084D01*
X008004Y008744D02*
X009517Y008744D01*
X009959Y008544D02*
X009984Y008544D01*
X010112Y007744D02*
X010343Y007744D01*
X009695Y007544D02*
X008786Y007544D01*
X008779Y007744D02*
X009574Y007744D01*
X009641Y007635D02*
X009641Y004434D01*
X009817Y004344D02*
X009918Y004344D01*
X009841Y004321D02*
X009841Y007304D01*
X009816Y007344D02*
X008674Y007344D01*
X008641Y007177D02*
X008641Y003788D01*
X008569Y003744D02*
X005063Y003744D01*
X005041Y003757D02*
X005041Y009054D01*
X005241Y009054D02*
X005241Y003621D01*
X005317Y003544D02*
X008245Y003544D01*
X008241Y003542D02*
X008241Y005655D01*
X008338Y005744D02*
X010051Y005744D01*
X010051Y005544D02*
X008091Y005544D01*
X008041Y005507D02*
X008041Y003418D01*
X007921Y003344D02*
X005483Y003344D01*
X005441Y003418D02*
X005441Y009054D01*
X005641Y009054D02*
X005641Y003012D01*
X005659Y002944D02*
X007272Y002944D01*
X007241Y002925D02*
X007241Y004916D01*
X007279Y004944D02*
X009994Y004944D01*
X009969Y004744D02*
X007008Y004744D01*
X007041Y004768D02*
X007041Y002801D01*
X006948Y002744D02*
X005701Y002744D01*
X005701Y002544D02*
X006756Y002544D01*
X006641Y002492D02*
X006641Y004424D01*
X006441Y004448D02*
X006441Y000794D01*
X006641Y000794D02*
X006641Y001552D01*
X006841Y001552D02*
X006841Y000794D01*
X007041Y000794D02*
X007041Y001552D01*
X007241Y001552D02*
X007241Y000794D01*
X007441Y000794D02*
X007441Y002508D01*
X007500Y002544D02*
X009716Y002544D01*
X009737Y002744D02*
X007824Y002744D01*
X007841Y002755D02*
X007841Y002492D01*
X007720Y002492D02*
X008109Y002492D01*
X008384Y002217D01*
X008384Y001828D01*
X008109Y001552D01*
X007720Y001552D01*
X007444Y001828D01*
X007444Y002217D01*
X007720Y002492D01*
X007641Y002413D02*
X007641Y002631D01*
X007572Y002344D02*
X007384Y002344D01*
X007384Y002144D02*
X007444Y002144D01*
X007444Y001944D02*
X007384Y001944D01*
X007384Y001744D02*
X007528Y001744D01*
X007641Y001631D02*
X007641Y000794D01*
X007841Y000794D02*
X007841Y001552D01*
X008041Y001552D02*
X008041Y000794D01*
X008241Y000794D02*
X008241Y001684D01*
X008301Y001744D02*
X008528Y001744D01*
X008641Y001631D02*
X008641Y000794D01*
X008841Y000794D02*
X008841Y001552D01*
X008864Y001744D02*
X008964Y001744D01*
X008964Y001944D02*
X008864Y001944D01*
X008841Y001972D02*
X008841Y002072D01*
X008864Y002144D02*
X008964Y002144D01*
X009041Y002072D02*
X009041Y001972D01*
X009241Y001972D02*
X009241Y002072D01*
X009384Y002144D02*
X009444Y002144D01*
X009444Y001944D02*
X009384Y001944D01*
X009301Y001744D02*
X009528Y001744D01*
X009241Y001684D02*
X009241Y000794D01*
X009041Y000794D02*
X009041Y001552D01*
X008641Y001972D02*
X008641Y002072D01*
X008444Y002144D02*
X008384Y002144D01*
X008384Y001944D02*
X008444Y001944D01*
X008572Y002344D02*
X008257Y002344D01*
X008241Y002360D02*
X008241Y003001D01*
X008148Y002944D02*
X009757Y002944D01*
X009778Y003144D02*
X008472Y003144D01*
X008441Y003125D02*
X008441Y000794D01*
X006444Y001744D02*
X005377Y001744D01*
X005441Y001810D02*
X005441Y000794D01*
X005641Y000794D02*
X005641Y002217D01*
X005621Y002144D02*
X006444Y002144D01*
X006444Y001944D02*
X005518Y001944D01*
X005675Y002344D02*
X006444Y002344D01*
X006841Y002678D02*
X006841Y004528D01*
X006857Y004544D02*
X009943Y004544D01*
X010019Y005144D02*
X007549Y005144D01*
X007641Y005212D02*
X007641Y003172D01*
X007596Y003144D02*
X005599Y003144D01*
X004841Y003857D02*
X004841Y009083D01*
X004767Y009144D02*
X002891Y009144D01*
X002891Y008944D02*
X007242Y008944D01*
X007241Y008946D02*
X007241Y005538D01*
X007250Y005544D02*
X002891Y005544D01*
X002891Y005744D02*
X007520Y005744D01*
X007441Y005685D02*
X007441Y008688D01*
X007397Y008744D02*
X002891Y008744D01*
X002891Y008544D02*
X007552Y008544D01*
X007641Y008430D02*
X007641Y005833D01*
X007791Y005944D02*
X002891Y005944D01*
X002891Y006144D02*
X007927Y006144D01*
X007841Y005981D02*
X007841Y008172D01*
X007862Y008144D02*
X002891Y008144D01*
X002891Y007944D02*
X008017Y007944D01*
X008041Y007914D02*
X008041Y006719D01*
X008046Y006744D02*
X002891Y006744D01*
X002891Y006544D02*
X008006Y006544D01*
X007967Y006344D02*
X002891Y006344D01*
X002891Y006944D02*
X008085Y006944D01*
X008125Y007144D02*
X002891Y007144D01*
X002891Y007344D02*
X008164Y007344D01*
X008198Y007544D02*
X002891Y007544D01*
X002891Y007744D02*
X008168Y007744D01*
X007707Y008344D02*
X002891Y008344D01*
X004961Y009304D02*
X004801Y009624D01*
X004551Y009944D02*
X002891Y009944D01*
X002891Y010144D02*
X004471Y010144D01*
X004474Y010344D02*
X002891Y010344D01*
X002891Y010544D02*
X007401Y010544D01*
X007401Y010744D02*
X002891Y010744D01*
X002891Y010944D02*
X007401Y010944D01*
X007401Y011144D02*
X002891Y011144D01*
X005841Y009038D02*
X005841Y000794D01*
X006041Y000794D02*
X006041Y008974D01*
X006241Y009038D02*
X006241Y000794D01*
X005241Y000794D02*
X005241Y001608D01*
X004641Y001317D02*
X004641Y000794D01*
X004441Y000794D02*
X004441Y001294D01*
X004241Y001294D02*
X004241Y000794D01*
X004041Y000794D02*
X004041Y001339D01*
X004020Y001344D02*
X002976Y001344D01*
X002915Y001544D02*
X003594Y001544D01*
X003641Y001517D02*
X003641Y000818D01*
X003841Y000794D02*
X003841Y001402D01*
X003140Y002144D02*
X002891Y002144D01*
X002891Y002344D02*
X003086Y002344D01*
X003061Y002544D02*
X002891Y002544D01*
X002891Y002744D02*
X003061Y002744D01*
X003103Y002944D02*
X002891Y002944D01*
X002891Y003144D02*
X003162Y003144D01*
X006981Y002494D02*
X006981Y002084D01*
X006921Y002024D01*
X006914Y002022D01*
X008041Y002492D02*
X008041Y002878D01*
X007441Y003048D02*
X007441Y005064D01*
X006841Y005242D02*
X006841Y009021D01*
X006951Y008904D02*
X006668Y008909D01*
X006951Y008904D02*
X006245Y007650D01*
X006261Y006286D01*
X007746Y006299D01*
X008441Y006164D02*
X008441Y003665D01*
X008641Y003248D02*
X008641Y002413D01*
X008864Y002344D02*
X008964Y002344D01*
X007841Y003295D02*
X007841Y005359D01*
X007820Y005344D02*
X010044Y005344D01*
X010041Y005319D02*
X010041Y006642D01*
X010051Y006544D02*
X008516Y006544D01*
X008476Y006344D02*
X010051Y006344D01*
X010051Y006144D02*
X008437Y006144D01*
X008397Y005944D02*
X010051Y005944D01*
X010491Y006344D02*
X010803Y006344D01*
X010737Y006544D02*
X010494Y006544D01*
X010029Y006744D02*
X008555Y006744D01*
X008595Y006944D02*
X010007Y006944D01*
X009937Y007144D02*
X008634Y007144D01*
X011001Y007344D02*
X011225Y007344D01*
X011241Y007329D02*
X011241Y006614D01*
X011264Y006544D02*
X012025Y006544D01*
X012041Y006529D02*
X012041Y005791D01*
X011841Y005794D02*
X011841Y006729D01*
X011825Y006744D02*
X011198Y006744D01*
X011132Y006944D02*
X011625Y006944D01*
X011641Y006929D02*
X011641Y005671D01*
X011714Y005744D02*
X011526Y005744D01*
X012841Y006379D02*
X012841Y006509D01*
X012797Y006544D02*
X012676Y006544D01*
X012641Y006579D02*
X012641Y006671D01*
X012550Y006744D02*
X012476Y006744D01*
X012441Y006779D02*
X012441Y006833D01*
X012304Y006944D02*
X012276Y006944D01*
X012241Y006979D02*
X012241Y006996D01*
X012876Y006344D02*
X013043Y006344D01*
X013041Y006347D02*
X013041Y006179D01*
X013261Y006464D02*
X013876Y006479D01*
X014241Y005803D02*
X014241Y005612D01*
X015707Y005824D02*
X015707Y005824D01*
X016636Y005344D02*
X016794Y005344D01*
X016756Y005282D02*
X016919Y005546D01*
X016827Y005454D01*
X016725Y005454D01*
X016204Y004814D01*
X016234Y004814D01*
X016407Y004743D01*
X016517Y004632D01*
X016528Y004642D01*
X016682Y005123D01*
X016676Y005152D01*
X016709Y005207D01*
X016729Y005268D01*
X016756Y005282D01*
X016641Y005350D02*
X016641Y004994D01*
X016625Y004944D02*
X016310Y004944D01*
X016241Y004859D02*
X016241Y004811D01*
X016403Y004744D02*
X016560Y004744D01*
X016441Y004709D02*
X016441Y005105D01*
X016473Y005144D02*
X016677Y005144D01*
X016841Y005419D02*
X016841Y005468D01*
X016917Y005544D02*
X016918Y005544D01*
X017021Y005744D02*
X017041Y005744D01*
X017041Y005743D02*
X017041Y005989D01*
X017079Y005944D02*
X016997Y005944D01*
X017311Y005344D02*
X018864Y005344D01*
X018861Y005144D02*
X017188Y005144D01*
X017241Y005230D02*
X017241Y004811D01*
X017087Y004944D02*
X018971Y004944D01*
X018841Y004784D02*
X018841Y006676D01*
X019041Y006721D02*
X019041Y005521D01*
X019241Y005534D02*
X019241Y006766D01*
X019300Y006744D02*
X019143Y006744D01*
X018641Y006631D02*
X018641Y004651D01*
X018581Y004544D02*
X018566Y004544D01*
X018441Y004709D02*
X018441Y006586D01*
X019859Y006544D02*
X019909Y006544D01*
X020041Y006413D02*
X020041Y006268D01*
X019917Y006144D02*
X019857Y006144D01*
X019858Y006344D02*
X021791Y006344D01*
X021641Y006310D02*
X021641Y006539D01*
X021646Y006544D02*
X021791Y006544D01*
X021748Y006646D02*
X021472Y006370D01*
X021083Y006370D01*
X020808Y006646D01*
X020808Y007035D01*
X021083Y007310D01*
X021472Y007310D01*
X021748Y007035D01*
X021748Y006646D01*
X021748Y006744D02*
X021791Y006744D01*
X021791Y006944D02*
X021748Y006944D01*
X021441Y007310D02*
X021441Y007370D01*
X021241Y007370D02*
X021241Y007310D01*
X021041Y007268D02*
X021041Y007413D01*
X020909Y007544D02*
X020646Y007544D01*
X020641Y007539D02*
X020641Y007142D01*
X020638Y007144D02*
X020917Y007144D01*
X020841Y007068D02*
X020841Y007613D01*
X020808Y007744D02*
X020748Y007744D01*
X020748Y007944D02*
X020808Y007944D01*
X020841Y008068D02*
X020841Y008128D01*
X020841Y008588D02*
X020841Y008613D01*
X020808Y008744D02*
X020748Y008744D01*
X020748Y008944D02*
X020808Y008944D01*
X019808Y008944D02*
X019804Y008944D01*
X019808Y009944D02*
X019497Y009944D01*
X016641Y008581D02*
X016641Y008574D01*
X020241Y007370D02*
X020241Y007310D01*
X020441Y007310D02*
X020441Y007370D01*
X020748Y006944D02*
X020808Y006944D01*
X020808Y006744D02*
X020748Y006744D01*
X020841Y006613D02*
X020841Y006244D01*
X020808Y006144D02*
X020638Y006144D01*
X020641Y006142D02*
X020641Y006539D01*
X020646Y006544D02*
X020909Y006544D01*
X021041Y006413D02*
X021041Y006310D01*
X021241Y006310D02*
X021241Y006370D01*
X021441Y006370D02*
X021441Y006310D01*
X021748Y006144D02*
X021791Y006144D01*
X021791Y005944D02*
X021748Y005944D01*
X021748Y005744D02*
X021791Y005744D01*
X021791Y005544D02*
X021748Y005544D01*
X021705Y005344D02*
X021791Y005344D01*
X021791Y005144D02*
X021695Y005144D01*
X021471Y005054D02*
X020171Y005054D01*
X020171Y005004D01*
X020171Y005054D02*
X019861Y005054D01*
X020017Y004834D02*
X020029Y004834D01*
X020079Y004784D01*
X020262Y004784D01*
X020312Y004834D01*
X021465Y004834D01*
X021551Y004830D01*
X021556Y004834D01*
X021470Y004734D01*
X020117Y004734D01*
X020017Y004834D01*
X020041Y004823D02*
X020041Y004811D01*
X020107Y004744D02*
X021479Y004744D01*
X021441Y004734D02*
X021441Y004834D01*
X021556Y004834D02*
X021556Y004834D01*
X021471Y005054D02*
X021501Y005674D01*
X021278Y005840D01*
X020808Y005744D02*
X020748Y005744D01*
X020748Y005944D02*
X020808Y005944D01*
X020808Y005544D02*
X020646Y005544D01*
X020641Y005539D02*
X020641Y005274D01*
X020841Y005274D02*
X020841Y005437D01*
X021041Y005370D02*
X021041Y005274D01*
X021241Y005274D02*
X021241Y005370D01*
X021264Y005344D02*
X019851Y005344D01*
X019853Y005544D02*
X019909Y005544D01*
X020041Y005413D02*
X020041Y005274D01*
X020241Y005274D02*
X020241Y005370D01*
X020441Y005370D02*
X020441Y005274D01*
X020441Y004834D02*
X020441Y004734D01*
X020641Y004734D02*
X020641Y004834D01*
X020841Y004834D02*
X020841Y004734D01*
X021041Y004734D02*
X021041Y004834D01*
X021241Y004834D02*
X021241Y004734D01*
X021571Y004514D02*
X019871Y004514D01*
X020041Y004218D02*
X020041Y003434D01*
X019704Y003144D02*
X018573Y003144D01*
X018641Y003062D02*
X018641Y003290D01*
X018441Y003246D02*
X018441Y003236D01*
X018241Y003654D02*
X018241Y003877D01*
X018041Y003877D02*
X018041Y003634D01*
X017870Y003544D02*
X016901Y003544D01*
X016571Y003554D02*
X017141Y004344D01*
X017611Y004344D02*
X017671Y004344D01*
X017715Y004144D02*
X017566Y004144D01*
X017441Y003980D02*
X017441Y003235D01*
X017241Y003278D02*
X017241Y003877D01*
X017403Y003944D02*
X017878Y003944D01*
X017841Y003980D02*
X017841Y003544D01*
X018641Y003803D02*
X018641Y004258D01*
X018566Y004144D02*
X018754Y004144D01*
X018841Y004124D02*
X018841Y004120D01*
X018911Y004454D02*
X019191Y004734D01*
X019191Y005204D01*
X018734Y004744D02*
X018403Y004744D01*
X017715Y004544D02*
X017566Y004544D01*
X015905Y005144D02*
X015707Y005144D01*
X014641Y004274D02*
X014641Y004114D01*
X015671Y003944D02*
X015811Y003944D01*
X015841Y003954D02*
X015841Y003980D01*
X016144Y003587D02*
X016162Y003579D01*
X016241Y003552D01*
X016241Y003623D01*
X016144Y003587D01*
X016715Y002744D02*
X016775Y002744D01*
X016441Y002380D02*
X016441Y002278D01*
X015641Y001534D02*
X015641Y000794D01*
X015441Y000794D02*
X015441Y001534D01*
X015241Y001383D02*
X015241Y000794D01*
X013041Y000794D02*
X013041Y001760D01*
X013047Y001744D02*
X012976Y001744D01*
X012591Y002144D02*
X012491Y002144D01*
X012491Y002344D02*
X012591Y002344D01*
X012591Y002544D02*
X012491Y002544D01*
X012441Y002595D02*
X012441Y003627D01*
X012544Y003544D02*
X010261Y003544D01*
X012641Y003467D02*
X012641Y002595D01*
X013441Y002504D02*
X013441Y002941D01*
X013641Y002934D02*
X013641Y002504D01*
X013841Y002424D02*
X013841Y002926D01*
X014041Y002918D02*
X014041Y002268D01*
X014072Y002344D02*
X013924Y002344D01*
X017715Y002744D02*
X017779Y002744D01*
X017841Y002758D02*
X017841Y002858D01*
X018041Y002858D02*
X018041Y002758D01*
X018195Y002744D02*
X018295Y002744D01*
X018241Y002758D02*
X018241Y002278D01*
X018441Y002235D02*
X018441Y002380D01*
X018295Y002544D02*
X018195Y002544D01*
X018041Y002384D02*
X018041Y002232D01*
X018441Y002758D02*
X018441Y002858D01*
X020241Y001082D02*
X020241Y000794D01*
X020441Y000794D02*
X020441Y001028D01*
X020641Y000994D02*
X020641Y000794D01*
X020841Y000794D02*
X020841Y000994D01*
X021041Y001028D02*
X021041Y000794D01*
X021241Y000794D02*
X021241Y001082D01*
X020241Y004734D02*
X020241Y004784D01*
X020241Y006310D02*
X020241Y006370D01*
X020441Y006370D02*
X020441Y006310D01*
X010705Y009544D02*
X010654Y009544D01*
X008192Y012660D02*
X008135Y012674D01*
X008077Y012686D01*
X008018Y012695D01*
X007959Y012702D01*
X007611Y012784D01*
X008192Y012659D02*
X008744Y012524D01*
X009091Y012664D02*
X009251Y012364D01*
X009911Y012540D02*
X009929Y012539D01*
X009911Y012549D01*
X009911Y012540D01*
X009911Y012544D02*
X009919Y012544D01*
X010241Y012869D02*
X010241Y013044D01*
X010401Y013044D02*
X010401Y012804D01*
X010413Y012775D01*
X009945Y013032D01*
X009957Y013044D01*
X010401Y013044D01*
X010401Y012944D02*
X010104Y012944D01*
X010041Y012979D02*
X010041Y013044D01*
X009611Y012964D02*
X010431Y012514D01*
X010914Y012944D02*
X011141Y012944D01*
X011224Y013144D02*
X010901Y013144D01*
X007510Y013324D02*
X007451Y013290D01*
X007394Y013252D01*
X007339Y013212D01*
X007286Y013169D01*
X007236Y013122D01*
X007188Y013074D01*
X007143Y013022D01*
X007100Y012969D01*
X007061Y012913D01*
X007024Y012855D01*
X006991Y012796D01*
X006961Y012734D01*
X006934Y012671D01*
X006911Y012607D01*
X006891Y012542D01*
X006875Y012475D01*
X006862Y012408D01*
X007041Y011422D02*
X007041Y010272D01*
X007441Y014364D02*
X007441Y014423D01*
X007441Y015015D02*
X007441Y015616D01*
X007770Y015344D02*
X002891Y015344D01*
X002891Y015544D02*
X003023Y015544D01*
X003023Y015744D02*
X002891Y015744D01*
X002891Y015944D02*
X003023Y015944D01*
X003023Y016144D02*
X002891Y016144D01*
X003241Y016311D02*
X003241Y016429D01*
X003125Y016544D02*
X002891Y016544D01*
X003241Y016791D02*
X003241Y016891D01*
X003441Y016891D02*
X003441Y016791D01*
X003443Y016744D02*
X003543Y016744D01*
X003641Y016791D02*
X003641Y016891D01*
X003543Y016944D02*
X003443Y016944D01*
X003443Y017144D02*
X003543Y017144D01*
X003641Y017311D02*
X003641Y017432D01*
X003446Y017544D02*
X002891Y017544D01*
X003441Y017547D02*
X003441Y017311D01*
X002948Y018144D02*
X002891Y018144D01*
X002891Y018344D02*
X002894Y018344D01*
X002891Y018944D02*
X002894Y018944D01*
X002897Y019144D02*
X002948Y019144D01*
X003041Y019310D02*
X003041Y019542D01*
X003042Y019544D02*
X003214Y019544D01*
X003241Y019571D02*
X003241Y019773D01*
X003212Y019744D02*
X003446Y019744D01*
X003441Y019741D02*
X003441Y019894D01*
X003599Y019944D02*
X003932Y019944D01*
X003841Y019920D02*
X003841Y019979D01*
X004041Y019964D02*
X004041Y019979D01*
X004241Y019964D02*
X004241Y019979D01*
X003641Y019955D02*
X003641Y019857D01*
X002973Y020211D02*
X002943Y020193D01*
X002707Y019957D01*
X002708Y020210D01*
X002973Y020211D01*
X002943Y020193D02*
X002943Y020193D01*
X002894Y020144D02*
X002708Y020144D01*
X002841Y020091D02*
X002841Y020210D01*
X002945Y019344D02*
X003061Y019344D01*
X005041Y019651D02*
X005041Y019979D01*
X005301Y019344D02*
X007217Y019344D01*
X008634Y019144D02*
X008664Y019144D01*
X009241Y019401D02*
X009241Y019501D01*
X009248Y017789D02*
X009365Y017789D01*
X009354Y017744D02*
X009627Y017744D01*
X009441Y017744D02*
X009441Y014792D01*
X011335Y016508D02*
X011831Y016508D01*
X013657Y016508D02*
X015491Y016508D01*
X015491Y016804D02*
X013653Y016804D01*
X013223Y017544D02*
X012817Y017544D01*
X012841Y017611D02*
X013004Y017684D01*
X013024Y017664D01*
X009751Y017592D02*
X008869Y017592D01*
X008877Y017544D02*
X009711Y017544D01*
X003641Y016371D02*
X003641Y016311D01*
X003441Y016311D02*
X003441Y016371D01*
X003443Y016544D02*
X003543Y016544D01*
X016841Y016977D02*
X016841Y013785D01*
X022227Y020223D02*
X022288Y020223D01*
X022289Y020173D01*
X022281Y020184D01*
X022281Y020185D01*
X022227Y020223D01*
X022241Y020223D02*
X022241Y020214D01*
D18*
X019331Y019444D03*
X020141Y018224D03*
X015401Y019454D03*
X013451Y019184D03*
X011471Y019444D03*
X009931Y018324D03*
X009491Y018074D03*
X008731Y017864D03*
X008841Y017394D03*
X007351Y017484D03*
X006761Y016414D03*
X005601Y017094D03*
X007547Y019454D03*
X010491Y017444D03*
X011531Y017844D03*
X012511Y017704D03*
X013161Y017994D03*
X014191Y017444D03*
X012291Y016624D03*
X012741Y016294D03*
X012691Y015544D03*
X012231Y015504D03*
X011141Y015244D03*
X010381Y015054D03*
X011191Y014494D03*
X011791Y014544D03*
X012511Y014544D03*
X012841Y014844D03*
X013581Y014564D03*
X013631Y015144D03*
X014501Y014644D03*
X014271Y013654D03*
X015611Y013054D03*
X013961Y012324D03*
X013381Y012014D03*
X012381Y012844D03*
X011471Y012924D03*
X009791Y013344D03*
X008744Y012524D03*
X009251Y012364D03*
X007611Y012784D03*
X007511Y013324D03*
X007641Y013744D03*
X007947Y014748D03*
X009621Y014354D03*
X011101Y016684D03*
X018761Y013824D03*
X018791Y013194D03*
X020201Y013534D03*
X021301Y012864D03*
X018821Y011614D03*
X018641Y010844D03*
X018711Y010164D03*
X016981Y009314D03*
X015891Y009464D03*
X015224Y010131D03*
X016041Y010594D03*
X016641Y010484D03*
X016591Y011204D03*
X016041Y011594D03*
X013341Y010994D03*
X012241Y011024D03*
X011761Y011314D03*
X011241Y011394D03*
X010951Y010804D03*
X012181Y010024D03*
X011747Y009858D03*
X011301Y009754D03*
X012811Y009924D03*
X013241Y009934D03*
X014031Y009844D03*
X014351Y009154D03*
X014921Y008774D03*
X013661Y008114D03*
X014321Y007884D03*
X014001Y007384D03*
X013511Y007434D03*
X013021Y008284D03*
X012191Y007904D03*
X011501Y008484D03*
X011141Y008234D03*
X010271Y008364D03*
X006951Y008904D03*
X006041Y009304D03*
X004801Y010204D03*
X006991Y010874D03*
X009141Y010964D03*
X003791Y008894D03*
X007746Y006299D03*
X006601Y004754D03*
X009591Y004104D03*
X010991Y005074D03*
X011901Y005464D03*
X013281Y005604D03*
X013661Y005134D03*
X014581Y004604D03*
X015401Y004984D03*
X015571Y005494D03*
X014991Y005744D03*
X014801Y006154D03*
X015421Y006004D03*
X015361Y006644D03*
X016691Y005784D03*
X019191Y005204D03*
X018911Y004454D03*
X019871Y004514D03*
X016571Y003554D03*
X015341Y003894D03*
X017691Y001044D03*
X018681Y007474D03*
X016861Y008104D03*
X018321Y008784D03*
X003641Y012644D03*
D19*
X007947Y014748D02*
X009611Y012964D01*
X010431Y012514D02*
X010411Y009844D01*
X010451Y008924D01*
X010851Y008054D01*
X011041Y007854D02*
X013261Y005634D01*
X013261Y006464D02*
X011141Y008184D01*
X012191Y007904D02*
X012341Y007904D01*
X012521Y008144D02*
X013381Y007534D01*
X013511Y007434D01*
X013801Y007764D02*
X013661Y008114D01*
X014321Y007884D02*
X014321Y007604D01*
X014341Y007604D01*
X014001Y007384D02*
X013801Y007764D01*
X013851Y009004D01*
X015291Y009094D02*
X016191Y008344D01*
X016621Y008344D01*
X016861Y008104D01*
X017441Y008244D02*
X015891Y009464D01*
X016140Y009954D02*
X015725Y010277D01*
X015741Y010644D02*
X016041Y010594D01*
X016331Y010934D02*
X016641Y010484D01*
X016140Y009954D02*
X016189Y009919D01*
X016239Y009886D01*
X016291Y009857D01*
X016345Y009831D01*
X016401Y009808D01*
X016458Y009789D01*
X016515Y009773D01*
X016574Y009760D01*
X016633Y009751D01*
X016693Y009746D01*
X016753Y009744D01*
X018492Y009744D01*
X018908Y009502D02*
X019820Y008607D01*
X020179Y008341D02*
X020211Y008334D01*
X021001Y008364D01*
X021236Y008174D02*
X021261Y008114D01*
X021278Y007840D01*
X021236Y008175D02*
X021221Y008206D01*
X021202Y008236D01*
X021180Y008263D01*
X021156Y008288D01*
X021129Y008310D01*
X021099Y008329D01*
X021067Y008344D01*
X021034Y008356D01*
X021000Y008364D01*
X020278Y007841D02*
X020245Y007867D01*
X020213Y007895D01*
X020182Y007926D01*
X020154Y007958D01*
X020128Y007992D01*
X020127Y007992D02*
X020111Y008014D01*
X019791Y008214D01*
X018571Y009314D01*
X016981Y009314D01*
X018321Y008784D02*
X018681Y007474D01*
X020201Y008894D02*
X020278Y008840D01*
X020179Y008341D02*
X020134Y008353D01*
X020091Y008368D01*
X020049Y008388D01*
X020009Y008410D01*
X019971Y008436D01*
X019935Y008465D01*
X019902Y008496D01*
X019872Y008531D01*
X019844Y008567D01*
X019820Y008606D01*
X020201Y008894D02*
X018961Y010164D01*
X018711Y010164D01*
X018641Y010844D02*
X018641Y011094D01*
X018791Y011244D01*
X018821Y011614D01*
X018791Y013194D01*
X018335Y014130D02*
X018366Y014155D01*
X018400Y014178D01*
X018435Y014198D01*
X018472Y014214D01*
X018511Y014227D01*
X018550Y014237D01*
X018590Y014242D01*
X018631Y014244D01*
X018335Y014130D02*
X018241Y014044D01*
X018241Y013944D01*
X018141Y013844D01*
X018141Y013744D01*
X017706Y013562D02*
X015541Y013544D01*
X014111Y013264D01*
X013041Y014024D02*
X011331Y013984D01*
X012381Y012844D02*
X013914Y014188D01*
X015031Y014754D02*
X013532Y016168D01*
X013469Y016326D02*
X013451Y017694D01*
X013461Y018394D02*
X013451Y019184D01*
X016381Y016974D02*
X018348Y018128D01*
X018627Y018224D02*
X020141Y018224D01*
X016381Y016970D02*
X016381Y015016D01*
X017706Y013562D02*
X017754Y013564D01*
X017802Y013570D01*
X017850Y013580D01*
X017896Y013594D01*
X017941Y013610D01*
X017985Y013631D01*
X018027Y013655D01*
X018067Y013681D01*
X018105Y013711D01*
X018141Y013744D01*
X018761Y013824D02*
X021231Y011564D01*
X021231Y011204D01*
X021278Y010840D01*
X020278Y010840D02*
X019945Y011010D01*
X019541Y011414D01*
X019541Y011764D01*
X019341Y011894D01*
X018821Y011614D01*
X016041Y011594D01*
X015841Y011204D02*
X016591Y011204D01*
X016331Y010934D02*
X016071Y010944D01*
X015501Y010944D01*
X013341Y010994D02*
X013241Y010684D01*
X011866Y010644D01*
X009771Y007864D02*
X010257Y007060D01*
X009591Y004104D02*
X006981Y002494D01*
X018492Y009744D02*
X018534Y009742D01*
X018576Y009737D01*
X018617Y009727D01*
X018657Y009715D01*
X018696Y009699D01*
X018733Y009679D01*
X018768Y009656D01*
X018802Y009630D01*
X018832Y009602D01*
X018861Y009571D01*
X018886Y009537D01*
X018909Y009502D01*
X021584Y009107D02*
X021615Y009135D01*
X021644Y009166D01*
X021670Y009199D01*
X021693Y009234D01*
X021714Y009271D01*
X021732Y009309D01*
X021746Y009348D01*
X021758Y009389D01*
X021766Y009430D01*
X021771Y009472D01*
X021781Y011594D01*
X019072Y014130D01*
X019044Y014156D01*
X019014Y014179D01*
X018982Y014199D01*
X018948Y014215D01*
X018913Y014228D01*
X018876Y014237D01*
X018839Y014243D01*
X018801Y014245D01*
X021281Y015134D02*
X021391Y015134D01*
X021981Y014444D01*
X021981Y013344D01*
X021301Y012864D01*
X021584Y009107D02*
X021501Y008964D01*
X021651Y009014D01*
X021278Y008840D01*
X007351Y017484D02*
X006141Y016894D01*
X005721Y017114D01*
X005654Y017211D01*
X005601Y017094D01*
X007351Y017484D02*
X008841Y017394D01*
D20*
X016281Y017884D03*
X016691Y018794D03*
X017501Y019004D03*
X019041Y018644D03*
X011351Y012344D03*
X003091Y009794D03*
D21*
X004801Y009624D02*
X004801Y010204D01*
X004961Y009304D02*
X006041Y009304D01*
X007241Y009254D01*
X010271Y008364D02*
X010541Y007944D01*
X011431Y005234D01*
X008131Y005884D02*
X008431Y007404D01*
X008131Y005884D02*
X006601Y004754D01*
X011351Y012344D02*
X011071Y012664D01*
X010841Y012664D01*
X010651Y012854D01*
X010651Y013204D01*
X010561Y013294D01*
X009841Y013294D01*
X009791Y013344D01*
X009621Y014354D02*
X006761Y016414D01*
X004835Y016325D02*
X004840Y015595D01*
X004835Y016325D02*
X003493Y016841D01*
X008731Y017864D02*
X009491Y018074D01*
D22*
X007391Y009144D02*
X008435Y007796D01*
X008561Y007634D01*
D23*
X008435Y007796D02*
X008381Y007754D01*
X008431Y007404D01*
X010261Y008354D02*
X010271Y008364D01*
X010851Y008054D02*
X010911Y007964D01*
X011021Y007854D01*
X011041Y007854D01*
X011141Y008184D02*
X011141Y008234D01*
X014446Y008405D02*
X014491Y008394D01*
X014541Y007544D01*
X021351Y012324D02*
X021401Y012324D01*
X021411Y012334D01*
X020171Y013504D02*
X020201Y013534D01*
M02*
