G75*
G70*
%OFA0B0*%
%FSLAX24Y24*%
%IPPOS*%
%LPD*%
%AMOC8*
5,1,8,0,0,1.08239X$1,22.5*
%
%ADD10C,0.0100*%
%ADD11C,0.0050*%
%ADD12C,0.0060*%
%ADD13C,0.0000*%
%ADD14R,0.0013X0.0007*%
%ADD15R,0.0020X0.0007*%
%ADD16R,0.0073X0.0007*%
%ADD17R,0.0047X0.0007*%
%ADD18R,0.0066X0.0007*%
%ADD19R,0.0093X0.0007*%
%ADD20R,0.0067X0.0007*%
%ADD21R,0.0093X0.0007*%
%ADD22R,0.0107X0.0007*%
%ADD23R,0.0080X0.0007*%
%ADD24R,0.0106X0.0007*%
%ADD25R,0.0119X0.0007*%
%ADD26R,0.0126X0.0007*%
%ADD27R,0.0140X0.0007*%
%ADD28R,0.0047X0.0007*%
%ADD29R,0.0047X0.0007*%
%ADD30R,0.0060X0.0007*%
%ADD31R,0.0033X0.0007*%
%ADD32R,0.0040X0.0007*%
%ADD33R,0.0033X0.0007*%
%ADD34R,0.0053X0.0007*%
%ADD35R,0.0046X0.0007*%
%ADD36R,0.0027X0.0007*%
%ADD37R,0.0046X0.0007*%
%ADD38R,0.0034X0.0007*%
%ADD39R,0.0040X0.0007*%
%ADD40R,0.0020X0.0007*%
%ADD41R,0.0006X0.0007*%
%ADD42R,0.0027X0.0007*%
%ADD43R,0.0007X0.0007*%
%ADD44R,0.0033X0.0007*%
%ADD45R,0.0034X0.0007*%
%ADD46R,0.0034X0.0007*%
%ADD47R,0.0014X0.0007*%
%ADD48R,0.0007X0.0007*%
%ADD49R,0.0013X0.0007*%
%ADD50R,0.0014X0.0007*%
%ADD51R,0.0006X0.0007*%
%ADD52R,0.0079X0.0007*%
%ADD53R,0.0054X0.0007*%
%ADD54R,0.0053X0.0007*%
%ADD55R,0.0014X0.0007*%
%ADD56R,0.0026X0.0007*%
%ADD57R,0.0034X0.0007*%
%ADD58R,0.0006X0.0007*%
%ADD59R,0.0026X0.0007*%
%ADD60R,0.0060X0.0007*%
%ADD61R,0.0027X0.0007*%
%ADD62R,0.0073X0.0007*%
%ADD63R,0.0073X0.0007*%
%ADD64R,0.0067X0.0007*%
%ADD65R,0.0066X0.0007*%
%ADD66R,0.0040X0.0007*%
%ADD67R,0.0087X0.0007*%
%ADD68R,0.0034X0.0007*%
%ADD69R,0.0120X0.0007*%
%ADD70R,0.0087X0.0007*%
%ADD71R,0.0034X0.0007*%
%ADD72R,0.0007X0.0007*%
%ADD73R,0.0093X0.0007*%
%ADD74R,0.0033X0.0007*%
%ADD75R,0.0013X0.0007*%
%ADD76R,0.0086X0.0007*%
%ADD77R,0.0066X0.0007*%
%ADD78R,0.0054X0.0007*%
%ADD79R,0.0094X0.0007*%
%ADD80R,0.0033X0.0007*%
%ADD81R,0.0007X0.0007*%
%ADD82R,0.0040X0.0007*%
%ADD83R,0.0047X0.0007*%
%ADD84R,0.0099X0.0007*%
%ADD85R,0.0034X0.0007*%
%ADD86R,0.0119X0.0007*%
%ADD87R,0.0093X0.0007*%
%ADD88R,0.0094X0.0007*%
%ADD89R,0.0033X0.0007*%
%ADD90R,0.0107X0.0007*%
%ADD91R,0.0100X0.0007*%
%ADD92R,0.0047X0.0007*%
%ADD93R,0.0080X0.0007*%
%ADD94R,0.0066X0.0007*%
%ADD95R,0.0053X0.0007*%
%ADD96R,0.0106X0.0007*%
%ADD97R,0.0026X0.0007*%
%ADD98R,0.0113X0.0007*%
%ADD99R,0.0113X0.0007*%
%ADD100R,0.0100X0.0007*%
%ADD101R,0.0120X0.0007*%
%ADD102R,0.0087X0.0007*%
%ADD103R,0.0074X0.0007*%
%ADD104R,0.0053X0.0007*%
%ADD105R,0.0054X0.0007*%
%ADD106R,0.0047X0.0007*%
%ADD107R,0.0053X0.0007*%
%ADD108R,0.0080X0.0007*%
%ADD109R,0.0073X0.0007*%
%ADD110R,0.0046X0.0007*%
%ADD111R,0.0027X0.0007*%
%ADD112R,0.0027X0.0007*%
%ADD113R,0.0093X0.0007*%
%ADD114R,0.0034X0.0007*%
%ADD115R,0.0006X0.0007*%
%ADD116R,0.0046X0.0007*%
%ADD117R,0.0026X0.0007*%
%ADD118R,0.0027X0.0007*%
%ADD119R,0.0046X0.0007*%
%ADD120R,0.0100X0.0007*%
%ADD121R,0.0027X0.0007*%
%ADD122R,0.0007X0.0007*%
%ADD123R,0.0039X0.0007*%
%ADD124R,0.0020X0.0007*%
%ADD125R,0.0073X0.0007*%
%ADD126R,0.0060X0.0007*%
%ADD127R,0.0020X0.0007*%
%ADD128R,0.0067X0.0007*%
%ADD129R,0.0006X0.0007*%
%ADD130R,0.0053X0.0007*%
%ADD131R,0.0059X0.0007*%
%ADD132R,0.0066X0.0007*%
%ADD133R,0.0080X0.0007*%
%ADD134R,0.0033X0.0007*%
%ADD135R,0.0059X0.0007*%
%ADD136R,0.0067X0.0007*%
%ADD137R,0.0026X0.0007*%
%ADD138R,0.0153X0.0007*%
%ADD139R,0.0207X0.0007*%
%ADD140R,0.0039X0.0007*%
%ADD141R,0.0207X0.0007*%
%ADD142R,0.0087X0.0007*%
%ADD143R,0.0039X0.0007*%
%ADD144R,0.0094X0.0007*%
%ADD145R,0.0026X0.0007*%
%ADD146R,0.0087X0.0007*%
%ADD147R,0.0039X0.0007*%
%ADD148R,0.0027X0.0007*%
%ADD149R,0.0134X0.0007*%
%ADD150R,0.0133X0.0007*%
%ADD151R,0.0087X0.0007*%
%ADD152R,0.0160X0.0007*%
%ADD153R,0.0047X0.0007*%
%ADD154R,0.0114X0.0007*%
%ADD155R,0.0107X0.0007*%
%ADD156R,0.0106X0.0007*%
%ADD157R,0.0100X0.0007*%
%ADD158R,0.0093X0.0007*%
%ADD159R,0.0154X0.0007*%
%ADD160R,0.0074X0.0007*%
%ADD161R,0.0153X0.0007*%
%ADD162R,0.0154X0.0007*%
%ADD163R,0.0086X0.0007*%
%ADD164R,0.0086X0.0007*%
%ADD165R,0.0054X0.0007*%
%ADD166R,0.0086X0.0007*%
%ADD167R,0.0014X0.0007*%
%ADD168R,0.0026X0.0007*%
%ADD169R,0.0073X0.0007*%
%ADD170R,0.0033X0.0007*%
%ADD171R,0.0054X0.0007*%
%ADD172R,0.0013X0.0007*%
%ADD173R,0.0013X0.0007*%
%ADD174R,0.0054X0.0007*%
%ADD175R,0.0014X0.0007*%
%ADD176R,0.0006X0.0007*%
%ADD177R,0.0046X0.0007*%
%ADD178R,0.0007X0.0007*%
%ADD179R,0.0013X0.0007*%
%ADD180R,0.0086X0.0007*%
%ADD181R,0.0114X0.0007*%
%ADD182R,0.0107X0.0007*%
%ADD183R,0.0126X0.0007*%
%ADD184R,0.0054X0.0007*%
%ADD185R,0.0094X0.0007*%
%ADD186R,0.0246X0.0007*%
%ADD187R,0.0247X0.0007*%
%ADD188R,0.0233X0.0007*%
%ADD189R,0.0166X0.0007*%
%ADD190R,0.0114X0.0007*%
%ADD191R,0.0047X0.0007*%
%ADD192R,0.0094X0.0007*%
%ADD193R,0.0026X0.0007*%
%ADD194R,0.0087X0.0007*%
%ADD195R,0.0060X0.0007*%
%ADD196R,0.0107X0.0007*%
%ADD197R,0.0146X0.0007*%
%ADD198R,0.0173X0.0007*%
%ADD199R,0.0207X0.0007*%
%ADD200R,0.0226X0.0007*%
%ADD201R,0.0240X0.0007*%
%ADD202R,0.0133X0.0007*%
%ADD203R,0.0253X0.0007*%
%ADD204R,0.0266X0.0007*%
%ADD205R,0.0186X0.0007*%
%ADD206R,0.0280X0.0007*%
%ADD207R,0.0200X0.0007*%
%ADD208R,0.0293X0.0007*%
%ADD209R,0.0219X0.0007*%
%ADD210R,0.0300X0.0007*%
%ADD211R,0.0233X0.0007*%
%ADD212R,0.0307X0.0007*%
%ADD213R,0.0239X0.0007*%
%ADD214R,0.0260X0.0007*%
%ADD215R,0.0147X0.0007*%
%ADD216R,0.0266X0.0007*%
%ADD217R,0.0147X0.0007*%
%ADD218R,0.0266X0.0007*%
%ADD219R,0.0273X0.0007*%
%ADD220R,0.0126X0.0007*%
%ADD221R,0.0279X0.0007*%
%ADD222R,0.0127X0.0007*%
%ADD223R,0.0147X0.0007*%
%ADD224R,0.0120X0.0007*%
%ADD225R,0.0133X0.0007*%
%ADD226R,0.0107X0.0007*%
%ADD227R,0.0134X0.0007*%
%ADD228R,0.0113X0.0007*%
%ADD229R,0.0039X0.0007*%
%ADD230R,0.0113X0.0007*%
%ADD231R,0.0140X0.0007*%
%ADD232R,0.0113X0.0007*%
%ADD233R,0.0140X0.0007*%
%ADD234R,0.0220X0.0007*%
%ADD235R,0.0106X0.0007*%
%ADD236R,0.0260X0.0007*%
%ADD237R,0.0147X0.0007*%
%ADD238R,0.0107X0.0007*%
%ADD239R,0.0273X0.0007*%
%ADD240R,0.0153X0.0007*%
%ADD241R,0.0066X0.0007*%
%ADD242R,0.0107X0.0007*%
%ADD243R,0.0280X0.0007*%
%ADD244R,0.0153X0.0007*%
%ADD245R,0.0094X0.0007*%
%ADD246R,0.0093X0.0007*%
%ADD247R,0.0280X0.0007*%
%ADD248R,0.0120X0.0007*%
%ADD249R,0.0160X0.0007*%
%ADD250R,0.0139X0.0007*%
%ADD251R,0.0287X0.0007*%
%ADD252R,0.0167X0.0007*%
%ADD253R,0.0133X0.0007*%
%ADD254R,0.0140X0.0007*%
%ADD255R,0.0193X0.0007*%
%ADD256R,0.0133X0.0007*%
%ADD257R,0.0279X0.0007*%
%ADD258R,0.0246X0.0007*%
%ADD259R,0.0146X0.0007*%
%ADD260R,0.0213X0.0007*%
%ADD261R,0.0147X0.0007*%
%ADD262R,0.0154X0.0007*%
%ADD263R,0.0186X0.0007*%
%ADD264R,0.0233X0.0007*%
%ADD265R,0.0266X0.0007*%
%ADD266R,0.0113X0.0007*%
%ADD267R,0.0206X0.0007*%
%ADD268R,0.0240X0.0007*%
%ADD269R,0.0167X0.0007*%
%ADD270R,0.0239X0.0007*%
%ADD271R,0.0173X0.0007*%
%ADD272R,0.0273X0.0007*%
%ADD273R,0.0127X0.0007*%
%ADD274R,0.0260X0.0007*%
%ADD275R,0.0239X0.0007*%
%ADD276R,0.0186X0.0007*%
%ADD277R,0.0126X0.0007*%
%ADD278R,0.0267X0.0007*%
%ADD279R,0.0286X0.0007*%
%ADD280R,0.0180X0.0007*%
%ADD281R,0.0253X0.0007*%
%ADD282R,0.0274X0.0007*%
%ADD283R,0.0293X0.0007*%
%ADD284R,0.0253X0.0007*%
%ADD285R,0.0153X0.0007*%
%ADD286R,0.0274X0.0007*%
%ADD287R,0.0306X0.0007*%
%ADD288R,0.0253X0.0007*%
%ADD289R,0.0160X0.0007*%
%ADD290R,0.0187X0.0007*%
%ADD291R,0.0153X0.0007*%
%ADD292R,0.0273X0.0007*%
%ADD293R,0.0320X0.0007*%
%ADD294R,0.0273X0.0007*%
%ADD295R,0.0154X0.0007*%
%ADD296R,0.0326X0.0007*%
%ADD297R,0.0253X0.0007*%
%ADD298R,0.0326X0.0007*%
%ADD299R,0.0139X0.0007*%
%ADD300R,0.0086X0.0007*%
%ADD301R,0.0319X0.0007*%
%ADD302R,0.0259X0.0007*%
%ADD303R,0.0167X0.0007*%
%ADD304R,0.0247X0.0007*%
%ADD305R,0.0307X0.0007*%
%ADD306R,0.0206X0.0007*%
%ADD307R,0.0119X0.0007*%
%ADD308R,0.0133X0.0007*%
%ADD309R,0.0146X0.0007*%
%ADD310R,0.0307X0.0007*%
%ADD311R,0.0260X0.0007*%
%ADD312R,0.0246X0.0007*%
%ADD313R,0.0127X0.0007*%
%ADD314R,0.0226X0.0007*%
%ADD315R,0.0127X0.0007*%
%ADD316R,0.0193X0.0007*%
%ADD317R,0.0286X0.0007*%
%ADD318R,0.0299X0.0007*%
%ADD319R,0.0127X0.0007*%
%ADD320R,0.0133X0.0007*%
%ADD321R,0.0146X0.0007*%
%ADD322R,0.0246X0.0007*%
%ADD323R,0.0253X0.0007*%
%ADD324R,0.0333X0.0007*%
%ADD325R,0.0113X0.0007*%
%ADD326R,0.0179X0.0007*%
%ADD327R,0.0207X0.0007*%
%ADD328R,0.0346X0.0007*%
%ADD329R,0.0340X0.0007*%
%ADD330R,0.0307X0.0007*%
%ADD331R,0.0106X0.0007*%
%ADD332R,0.0253X0.0007*%
%ADD333R,0.0293X0.0007*%
%ADD334R,0.0106X0.0007*%
%ADD335R,0.0247X0.0007*%
%ADD336R,0.0293X0.0007*%
%ADD337R,0.0106X0.0007*%
%ADD338R,0.0353X0.0007*%
%ADD339R,0.0293X0.0007*%
%ADD340R,0.0379X0.0007*%
%ADD341R,0.0279X0.0007*%
%ADD342R,0.0386X0.0007*%
%ADD343R,0.0373X0.0007*%
%ADD344R,0.0267X0.0007*%
%ADD345R,0.0114X0.0007*%
%ADD346R,0.0366X0.0007*%
%ADD347R,0.0313X0.0007*%
%ADD348R,0.0240X0.0007*%
%ADD349R,0.0226X0.0007*%
%ADD350R,0.0234X0.0007*%
%ADD351R,0.0187X0.0007*%
%ADD352R,0.0226X0.0007*%
%ADD353R,0.0146X0.0007*%
%ADD354R,0.0220X0.0007*%
%ADD355R,0.0206X0.0007*%
%ADD356R,0.0199X0.0007*%
%ADD357R,0.0199X0.0007*%
%ADD358R,0.0227X0.0007*%
%ADD359R,0.0193X0.0007*%
%ADD360R,0.0173X0.0007*%
%ADD361R,0.0193X0.0007*%
%ADD362R,0.0213X0.0007*%
%ADD363R,0.0180X0.0007*%
%ADD364R,0.0213X0.0007*%
%ADD365R,0.0173X0.0007*%
%ADD366R,0.0167X0.0007*%
%ADD367R,0.0213X0.0007*%
%ADD368R,0.0167X0.0007*%
%ADD369R,0.0206X0.0007*%
%ADD370R,0.0146X0.0007*%
%ADD371R,0.0206X0.0007*%
%ADD372R,0.0160X0.0007*%
%ADD373R,0.0174X0.0007*%
%ADD374R,0.0147X0.0007*%
%ADD375R,0.0207X0.0007*%
%ADD376R,0.0166X0.0007*%
%ADD377R,0.0207X0.0007*%
%ADD378R,0.0174X0.0007*%
%ADD379R,0.0200X0.0007*%
%ADD380R,0.0174X0.0007*%
%ADD381R,0.0200X0.0007*%
%ADD382R,0.0206X0.0007*%
%ADD383R,0.0146X0.0007*%
%ADD384R,0.0193X0.0007*%
%ADD385R,0.0066X0.0007*%
%ADD386R,0.0206X0.0007*%
%ADD387R,0.0099X0.0007*%
%ADD388R,0.0194X0.0007*%
%ADD389R,0.0200X0.0007*%
%ADD390R,0.0159X0.0007*%
%ADD391R,0.0166X0.0007*%
%ADD392R,0.0166X0.0007*%
%ADD393R,0.0186X0.0007*%
%ADD394R,0.0186X0.0007*%
%ADD395R,0.0186X0.0007*%
%ADD396R,0.0147X0.0007*%
%ADD397R,0.0187X0.0007*%
%ADD398R,0.0193X0.0007*%
%ADD399R,0.0134X0.0007*%
%ADD400R,0.0186X0.0007*%
%ADD401R,0.0133X0.0007*%
%ADD402R,0.0180X0.0007*%
%ADD403R,0.0180X0.0007*%
%ADD404R,0.0127X0.0007*%
%ADD405R,0.0127X0.0007*%
%ADD406R,0.0126X0.0007*%
%ADD407R,0.0194X0.0007*%
%ADD408R,0.0187X0.0007*%
%ADD409R,0.0320X0.0007*%
%ADD410R,0.0119X0.0007*%
%ADD411R,0.0339X0.0007*%
%ADD412R,0.0367X0.0007*%
%ADD413R,0.0379X0.0007*%
%ADD414R,0.0119X0.0007*%
%ADD415R,0.0393X0.0007*%
%ADD416R,0.0213X0.0007*%
%ADD417R,0.0406X0.0007*%
%ADD418R,0.0412X0.0007*%
%ADD419R,0.0380X0.0007*%
%ADD420R,0.0426X0.0007*%
%ADD421R,0.0372X0.0007*%
%ADD422R,0.0440X0.0007*%
%ADD423R,0.0373X0.0007*%
%ADD424R,0.0119X0.0007*%
%ADD425R,0.0446X0.0007*%
%ADD426R,0.0360X0.0007*%
%ADD427R,0.0459X0.0007*%
%ADD428R,0.0466X0.0007*%
%ADD429R,0.0367X0.0007*%
%ADD430R,0.0353X0.0007*%
%ADD431R,0.0473X0.0007*%
%ADD432R,0.0486X0.0007*%
%ADD433R,0.0347X0.0007*%
%ADD434R,0.0499X0.0007*%
%ADD435R,0.0360X0.0007*%
%ADD436R,0.0346X0.0007*%
%ADD437R,0.0346X0.0007*%
%ADD438R,0.0360X0.0007*%
%ADD439R,0.0353X0.0007*%
%ADD440R,0.0359X0.0007*%
%ADD441R,0.0347X0.0007*%
%ADD442R,0.0126X0.0007*%
%ADD443R,0.0353X0.0007*%
%ADD444R,0.0346X0.0007*%
%ADD445R,0.0014X0.0007*%
%ADD446R,0.0347X0.0007*%
%ADD447R,0.0119X0.0007*%
%ADD448R,0.0114X0.0007*%
%ADD449R,0.0340X0.0007*%
%ADD450R,0.0346X0.0007*%
%ADD451R,0.0340X0.0007*%
%ADD452R,0.0333X0.0007*%
%ADD453R,0.0346X0.0007*%
%ADD454R,0.0333X0.0007*%
%ADD455R,0.0333X0.0007*%
%ADD456R,0.0326X0.0007*%
%ADD457R,0.0327X0.0007*%
%ADD458R,0.0319X0.0007*%
%ADD459R,0.0313X0.0007*%
%ADD460R,0.0313X0.0007*%
%ADD461R,0.0319X0.0007*%
%ADD462R,0.0313X0.0007*%
%ADD463R,0.0320X0.0007*%
%ADD464R,0.0087X0.0007*%
%ADD465R,0.0313X0.0007*%
%ADD466R,0.0306X0.0007*%
%ADD467R,0.0306X0.0007*%
%ADD468R,0.0306X0.0007*%
%ADD469R,0.0306X0.0007*%
%ADD470R,0.0300X0.0007*%
%ADD471R,0.0299X0.0007*%
%ADD472R,0.0300X0.0007*%
%ADD473R,0.0006X0.0007*%
%ADD474R,0.0293X0.0007*%
%ADD475R,0.0280X0.0007*%
%ADD476R,0.0227X0.0007*%
%ADD477R,0.0074X0.0007*%
%ADD478R,0.0286X0.0007*%
%ADD479R,0.0287X0.0007*%
%ADD480R,0.0353X0.0007*%
%ADD481R,0.0366X0.0007*%
%ADD482R,0.0387X0.0007*%
%ADD483R,0.0267X0.0007*%
%ADD484R,0.0399X0.0007*%
%ADD485R,0.0413X0.0007*%
%ADD486R,0.0267X0.0007*%
%ADD487R,0.0420X0.0007*%
%ADD488R,0.0426X0.0007*%
%ADD489R,0.0439X0.0007*%
%ADD490R,0.0446X0.0007*%
%ADD491R,0.0460X0.0007*%
%ADD492R,0.0472X0.0007*%
%ADD493R,0.0479X0.0007*%
%ADD494R,0.0493X0.0007*%
%ADD495R,0.0506X0.0007*%
%ADD496R,0.0246X0.0007*%
%ADD497R,0.0533X0.0007*%
%ADD498R,0.0553X0.0007*%
%ADD499R,0.0246X0.0007*%
%ADD500R,0.0593X0.0007*%
%ADD501R,0.0233X0.0007*%
%ADD502R,0.0247X0.0007*%
%ADD503R,0.0220X0.0007*%
%ADD504R,0.0380X0.0007*%
%ADD505R,0.0233X0.0007*%
%ADD506R,0.0240X0.0007*%
%ADD507R,0.0273X0.0007*%
%ADD508R,0.0227X0.0007*%
%ADD509R,0.0320X0.0007*%
%ADD510R,0.0226X0.0007*%
%ADD511R,0.0307X0.0007*%
%ADD512R,0.0346X0.0007*%
%ADD513R,0.0359X0.0007*%
%ADD514R,0.0227X0.0007*%
%ADD515R,0.0219X0.0007*%
%ADD516R,0.0226X0.0007*%
%ADD517R,0.0227X0.0007*%
%ADD518R,0.0386X0.0007*%
%ADD519R,0.0393X0.0007*%
%ADD520R,0.0219X0.0007*%
%ADD521R,0.0379X0.0007*%
%ADD522R,0.0400X0.0007*%
%ADD523R,0.0386X0.0007*%
%ADD524R,0.0400X0.0007*%
%ADD525R,0.0406X0.0007*%
%ADD526R,0.0207X0.0007*%
%ADD527R,0.0053X0.0007*%
%ADD528R,0.0193X0.0007*%
%ADD529R,0.0074X0.0007*%
%ADD530R,0.0174X0.0007*%
%ADD531R,0.0187X0.0007*%
%ADD532R,0.0173X0.0007*%
%ADD533R,0.0046X0.0007*%
%ADD534R,0.0174X0.0007*%
%ADD535R,0.0053X0.0007*%
%ADD536R,0.0067X0.0007*%
%ADD537R,0.0126X0.0007*%
%ADD538R,0.0079X0.0007*%
%ADD539R,0.0134X0.0007*%
%ADD540R,0.0154X0.0007*%
%ADD541R,0.0094X0.0007*%
%ADD542R,0.0199X0.0007*%
%ADD543R,0.0187X0.0007*%
%ADD544R,0.0219X0.0007*%
%ADD545R,0.0099X0.0007*%
%ADD546R,0.0114X0.0007*%
%ADD547R,0.0134X0.0007*%
%ADD548R,0.0259X0.0007*%
%ADD549R,0.0299X0.0007*%
%ADD550R,0.0839X0.0007*%
%ADD551R,0.0839X0.0007*%
%ADD552R,0.0832X0.0007*%
%ADD553R,0.0832X0.0007*%
%ADD554R,0.0826X0.0007*%
%ADD555R,0.0819X0.0007*%
%ADD556R,0.0812X0.0007*%
%ADD557R,0.0812X0.0007*%
%ADD558R,0.0806X0.0007*%
%ADD559R,0.0792X0.0007*%
%ADD560R,0.0792X0.0007*%
%ADD561R,0.0792X0.0007*%
%ADD562R,0.0792X0.0007*%
%ADD563R,0.0785X0.0007*%
%ADD564R,0.0785X0.0007*%
%ADD565R,0.0785X0.0007*%
%ADD566R,0.0779X0.0007*%
%ADD567R,0.0773X0.0007*%
%ADD568R,0.0773X0.0007*%
%ADD569R,0.0773X0.0007*%
%ADD570R,0.0766X0.0007*%
%ADD571R,0.0106X0.0007*%
%ADD572R,0.0759X0.0007*%
%ADD573R,0.0752X0.0007*%
%ADD574R,0.0740X0.0007*%
%ADD575R,0.0740X0.0007*%
%ADD576R,0.0733X0.0007*%
%ADD577R,0.0726X0.0007*%
%ADD578R,0.0719X0.0007*%
%ADD579R,0.0712X0.0007*%
%ADD580R,0.0712X0.0007*%
%ADD581R,0.0700X0.0007*%
%ADD582R,0.0846X0.0007*%
%ADD583R,0.0833X0.0007*%
%ADD584R,0.0826X0.0007*%
%ADD585R,0.0819X0.0007*%
%ADD586R,0.0806X0.0007*%
%ADD587R,0.0799X0.0007*%
%ADD588R,0.0786X0.0007*%
%ADD589R,0.0766X0.0007*%
%ADD590R,0.0753X0.0007*%
%ADD591R,0.0739X0.0007*%
%ADD592R,0.0726X0.0007*%
%ADD593R,0.0713X0.0007*%
%ADD594R,0.0699X0.0007*%
%ADD595R,0.0693X0.0007*%
%ADD596R,0.0679X0.0007*%
%ADD597R,0.0659X0.0007*%
%ADD598R,0.0646X0.0007*%
%ADD599R,0.0633X0.0007*%
%ADD600R,0.0613X0.0007*%
%ADD601R,0.0599X0.0007*%
%ADD602R,0.0573X0.0007*%
%ADD603R,0.0559X0.0007*%
%ADD604R,0.0533X0.0007*%
%ADD605R,0.0513X0.0007*%
%ADD606R,0.0486X0.0007*%
%ADD607R,0.0459X0.0007*%
%ADD608R,0.0433X0.0007*%
%ADD609R,0.0074X0.0007*%
%ADD610R,0.0074X0.0007*%
%ADD611R,0.0067X0.0007*%
%ADD612R,0.0067X0.0007*%
%ADD613R,0.0067X0.0007*%
%ADD614R,0.0013X0.0007*%
%ADD615R,0.0073X0.0007*%
%ADD616R,0.0073X0.0007*%
%ADD617R,0.0126X0.0007*%
%ADD618R,0.0086X0.0007*%
%ADD619R,0.0313X0.0007*%
%ADD620R,0.0167X0.0007*%
%ADD621R,0.0099X0.0007*%
%ADD622R,0.0139X0.0007*%
%ADD623R,0.0246X0.0007*%
%ADD624R,0.0174X0.0007*%
%ADD625R,0.0154X0.0007*%
%ADD626R,0.0119X0.0007*%
%ADD627R,0.0007X0.0007*%
%ADD628R,0.0173X0.0007*%
%ADD629R,0.0074X0.0007*%
%ADD630R,0.0046X0.0007*%
%ADD631R,0.0339X0.0007*%
%ADD632C,0.0040*%
%ADD633R,0.0118X0.0059*%
%ADD634R,0.0118X0.0118*%
%ADD635R,0.0157X0.0118*%
%ADD636C,0.0030*%
%ADD637C,0.0362*%
%ADD638C,0.0080*%
%ADD639C,0.0200*%
%ADD640R,0.0039X0.0551*%
%ADD641R,0.0079X0.0551*%
%ADD642R,0.0079X0.0039*%
%ADD643R,0.0551X0.0039*%
%ADD644R,0.0551X0.0079*%
%ADD645R,0.0039X0.0079*%
%ADD646C,0.0025*%
D10*
X006361Y015684D02*
X006371Y015684D01*
X006371Y016314D01*
X007480Y018453D02*
X007480Y019013D01*
X007761Y019013D01*
X007854Y018920D01*
X007854Y018733D01*
X007761Y018639D01*
X007480Y018639D01*
X008088Y018453D02*
X008275Y018639D01*
X008462Y018453D01*
X008462Y019013D01*
X008696Y019013D02*
X008976Y019013D01*
X009070Y018920D01*
X009070Y018733D01*
X008976Y018639D01*
X008696Y018639D01*
X008696Y018453D02*
X008696Y019013D01*
X008883Y018639D02*
X009070Y018453D01*
X008088Y018453D02*
X008088Y019013D01*
X010667Y019113D02*
X010667Y018646D01*
X010760Y018553D01*
X010947Y018553D01*
X011040Y018646D01*
X011040Y019113D01*
X011274Y019020D02*
X011274Y018926D01*
X011368Y018833D01*
X011555Y018833D01*
X011648Y018739D01*
X011648Y018646D01*
X011555Y018553D01*
X011368Y018553D01*
X011274Y018646D01*
X011274Y019020D02*
X011368Y019113D01*
X011555Y019113D01*
X011648Y019020D01*
X011882Y019113D02*
X012162Y019113D01*
X012256Y019020D01*
X012256Y018926D01*
X012162Y018833D01*
X011882Y018833D01*
X011882Y018553D02*
X011882Y019113D01*
X012162Y018833D02*
X012256Y018739D01*
X012256Y018646D01*
X012162Y018553D01*
X011882Y018553D01*
X014813Y018423D02*
X014813Y018983D01*
X015000Y018796D01*
X015187Y018983D01*
X015187Y018423D01*
X015421Y018516D02*
X015514Y018423D01*
X015701Y018423D01*
X015794Y018516D01*
X015794Y018890D01*
X015701Y018983D01*
X015514Y018983D01*
X015421Y018890D01*
X015421Y018516D01*
X016029Y018423D02*
X016029Y018983D01*
X016309Y018983D01*
X016402Y018890D01*
X016402Y018516D01*
X016309Y018423D01*
X016029Y018423D01*
X016636Y018423D02*
X017010Y018423D01*
X016636Y018423D02*
X016636Y018983D01*
X017010Y018983D01*
X016823Y018703D02*
X016636Y018703D01*
X018490Y018639D02*
X018677Y018453D01*
X018864Y018639D01*
X018864Y019013D01*
X019098Y019013D02*
X019378Y019013D01*
X019471Y018920D01*
X019471Y018733D01*
X019378Y018639D01*
X019098Y018639D01*
X019098Y018453D02*
X019098Y019013D01*
X019705Y019013D02*
X019705Y018453D01*
X020079Y018453D01*
X020313Y018546D02*
X020406Y018453D01*
X020593Y018453D01*
X020687Y018546D01*
X020687Y018733D01*
X020500Y018733D01*
X020687Y018920D02*
X020593Y019013D01*
X020406Y019013D01*
X020313Y018920D01*
X020313Y018546D01*
X019892Y018733D02*
X019705Y018733D01*
X019705Y019013D02*
X020079Y019013D01*
X019471Y018453D02*
X019284Y018639D01*
X018490Y018639D02*
X018490Y019013D01*
D11*
X007698Y016816D02*
X007698Y016216D01*
X007698Y016816D01*
X004932Y014462D02*
X003987Y014462D01*
X002766Y014462D02*
X002491Y014462D01*
X004004Y013540D02*
X004063Y013599D01*
X004121Y013599D01*
X004180Y013540D01*
X004180Y013365D01*
X004238Y013230D02*
X004296Y013230D01*
X004355Y013172D01*
X004355Y013055D01*
X004296Y012997D01*
X004180Y013055D02*
X004180Y013172D01*
X004238Y013230D01*
X004063Y013230D02*
X004004Y013172D01*
X004004Y013055D01*
X004063Y012997D01*
X004121Y012997D01*
X004180Y013055D01*
X004296Y012862D02*
X004004Y012862D01*
X004004Y012629D02*
X004296Y012629D01*
X004355Y012687D01*
X004355Y012804D01*
X004296Y012862D01*
X004355Y013365D02*
X004004Y013365D01*
X004004Y013540D01*
X004180Y013540D02*
X004238Y013599D01*
X004296Y013599D01*
X004355Y013540D01*
X004355Y013365D01*
X005857Y013792D02*
X005857Y014186D01*
X005857Y012099D02*
X005857Y011706D01*
X004932Y011430D02*
X003987Y011430D01*
X002766Y011430D02*
X002491Y011430D01*
X007507Y012039D02*
X007507Y009677D01*
X007744Y009677D01*
X007783Y009717D01*
X008216Y010308D02*
X008216Y010608D01*
X007716Y010608D01*
X007816Y010758D02*
X008616Y010758D01*
X008616Y010958D01*
X007816Y010958D01*
X007816Y010758D01*
X008216Y010608D02*
X008716Y010608D01*
X008716Y011108D02*
X008216Y011108D01*
X008216Y011408D01*
X008216Y011108D02*
X007716Y011108D01*
X007783Y012000D02*
X007744Y012039D01*
X007507Y012039D01*
X008649Y012000D02*
X008688Y012039D01*
X008925Y012039D01*
X008925Y009677D01*
X008688Y009677D01*
X008649Y009717D01*
X006661Y007667D02*
X006661Y006167D01*
X004261Y006167D01*
X004261Y007667D01*
X006661Y007667D01*
X008051Y006454D02*
X010451Y006454D01*
X010451Y004954D01*
X008051Y004954D01*
X008051Y006454D01*
X010744Y006815D02*
X010744Y007415D01*
X010744Y006815D01*
X010321Y004063D02*
X010088Y004063D01*
X010029Y004004D01*
X010029Y003829D01*
X010379Y003829D01*
X010379Y004004D01*
X010321Y004063D01*
X010321Y003694D02*
X010204Y003694D01*
X010204Y003578D01*
X010088Y003694D02*
X010029Y003636D01*
X010029Y003519D01*
X010088Y003461D01*
X010321Y003461D01*
X010379Y003519D01*
X010379Y003636D01*
X010321Y003694D01*
X010884Y003609D02*
X010884Y003492D01*
X010943Y003434D01*
X011176Y003434D01*
X011235Y003492D01*
X011235Y003609D01*
X011176Y003667D01*
X011059Y003667D01*
X011059Y003550D01*
X010943Y003667D02*
X010884Y003609D01*
X010943Y003802D02*
X010884Y003860D01*
X010884Y003977D01*
X010943Y004035D01*
X010943Y003802D02*
X011176Y003802D01*
X011235Y003860D01*
X011235Y003977D01*
X011176Y004035D01*
X011059Y003299D02*
X011118Y003240D01*
X011118Y003065D01*
X011235Y003065D02*
X010884Y003065D01*
X010884Y003240D01*
X010943Y003299D01*
X011059Y003299D01*
X010379Y003092D02*
X010029Y003092D01*
X010029Y003268D01*
X010088Y003326D01*
X010204Y003326D01*
X010263Y003268D01*
X010263Y003092D01*
X009281Y003161D02*
X009281Y003278D01*
X009222Y003337D01*
X009105Y003337D01*
X009105Y003220D01*
X008989Y003337D02*
X008930Y003278D01*
X008930Y003161D01*
X008989Y003103D01*
X009222Y003103D01*
X009281Y003161D01*
X009281Y003471D02*
X008930Y003471D01*
X009281Y003705D01*
X008930Y003705D01*
X008930Y003840D02*
X008930Y004015D01*
X008989Y004073D01*
X009222Y004073D01*
X009281Y004015D01*
X009281Y003840D01*
X008930Y003840D01*
X008283Y003868D02*
X008283Y003985D01*
X008225Y004043D01*
X008166Y004043D01*
X008108Y003985D01*
X008108Y003926D01*
X008108Y003985D02*
X008049Y004043D01*
X007991Y004043D01*
X007933Y003985D01*
X007933Y003868D01*
X007991Y003809D01*
X007933Y003675D02*
X008166Y003675D01*
X008283Y003558D01*
X008166Y003441D01*
X007933Y003441D01*
X007991Y003306D02*
X008049Y003306D01*
X008108Y003248D01*
X008166Y003306D01*
X008225Y003306D01*
X008283Y003248D01*
X008283Y003131D01*
X008225Y003073D01*
X008108Y003190D02*
X008108Y003248D01*
X007991Y003306D02*
X007933Y003248D01*
X007933Y003131D01*
X007991Y003073D01*
X007181Y003153D02*
X007181Y003270D01*
X007122Y003329D01*
X007181Y003463D02*
X007181Y003697D01*
X007181Y003832D02*
X006830Y003832D01*
X006830Y004007D01*
X006889Y004065D01*
X007005Y004065D01*
X007064Y004007D01*
X007064Y003832D01*
X007064Y003948D02*
X007181Y004065D01*
X007181Y003463D02*
X006830Y003463D01*
X006889Y003329D02*
X006830Y003270D01*
X006830Y003153D01*
X006889Y003095D01*
X007122Y003095D01*
X007181Y003153D01*
X007181Y002960D02*
X006830Y002960D01*
X006947Y002843D01*
X006830Y002727D01*
X007181Y002727D01*
X008225Y003809D02*
X008283Y003868D01*
X006866Y001027D02*
X006749Y001027D01*
X006691Y000969D01*
X006866Y001027D02*
X006924Y000969D01*
X006924Y000910D01*
X006691Y000677D01*
X006924Y000677D01*
X006556Y000677D02*
X006322Y000677D01*
X006439Y000677D02*
X006439Y001027D01*
X006322Y000910D01*
X006188Y000969D02*
X005954Y000735D01*
X006012Y000677D01*
X006129Y000677D01*
X006188Y000735D01*
X006188Y000969D01*
X006129Y001027D01*
X006012Y001027D01*
X005954Y000969D01*
X005954Y000735D01*
X005819Y000677D02*
X005586Y000677D01*
X005819Y000910D01*
X005819Y000969D01*
X005761Y001027D01*
X005644Y001027D01*
X005586Y000969D01*
X005083Y000852D02*
X005083Y000677D01*
X005083Y000852D02*
X005024Y000910D01*
X004849Y000910D01*
X004849Y000677D01*
X004714Y000677D02*
X004539Y000677D01*
X004481Y000735D01*
X004539Y000794D01*
X004714Y000794D01*
X004714Y000852D02*
X004714Y000677D01*
X004714Y000852D02*
X004656Y000910D01*
X004539Y000910D01*
X004346Y001027D02*
X004229Y001027D01*
X004288Y001027D02*
X004288Y000735D01*
X004229Y000677D01*
X004171Y000677D01*
X004113Y000735D01*
X015745Y001308D02*
X016745Y001308D01*
X016745Y002308D01*
X015745Y002308D01*
X015745Y003308D01*
X018745Y003308D01*
X018745Y001308D01*
X016745Y001308D01*
X015745Y001308D02*
X015745Y002308D01*
D12*
X014611Y003071D02*
X014170Y003071D01*
X014170Y002924D02*
X014170Y003218D01*
X014170Y003385D02*
X014611Y003678D01*
X014611Y003385D02*
X014170Y003678D01*
X014384Y004054D02*
X014311Y004128D01*
X014384Y004054D02*
X014531Y004054D01*
X014604Y004128D01*
X014604Y004201D01*
X014531Y004274D01*
X014457Y004274D01*
X014531Y004274D02*
X014604Y004348D01*
X014604Y004421D01*
X014531Y004495D01*
X014384Y004495D01*
X014311Y004421D01*
X014771Y004128D02*
X014844Y004128D01*
X014844Y004054D01*
X014771Y004054D01*
X014771Y004128D01*
X015001Y004128D02*
X015075Y004054D01*
X015221Y004054D01*
X015295Y004128D01*
X015295Y004201D01*
X015221Y004274D01*
X015148Y004274D01*
X015221Y004274D02*
X015295Y004348D01*
X015295Y004421D01*
X015221Y004495D01*
X015075Y004495D01*
X015001Y004421D01*
X015641Y004594D02*
X015891Y004844D01*
X016391Y004844D01*
X016641Y004594D01*
X016891Y004844D01*
X017391Y004844D01*
X017641Y004594D01*
X017891Y004844D01*
X018391Y004844D01*
X018641Y004594D01*
X018641Y004094D01*
X018391Y003844D01*
X017891Y003844D01*
X017641Y004094D01*
X017391Y003844D01*
X016891Y003844D01*
X016641Y004094D01*
X016391Y003844D01*
X015891Y003844D01*
X015641Y004094D01*
X015641Y004594D01*
X016641Y004594D02*
X016641Y004094D01*
X017641Y004094D02*
X017641Y004594D01*
X018171Y004948D02*
X018244Y004874D01*
X018391Y004874D01*
X018464Y004948D01*
X018464Y005094D01*
X018391Y005168D01*
X018317Y005168D01*
X018171Y005094D01*
X018171Y005315D01*
X018464Y005315D01*
X018631Y005315D02*
X018631Y005021D01*
X018778Y004874D01*
X018925Y005021D01*
X018925Y005315D01*
X019498Y004317D02*
X019317Y004136D01*
X022238Y004136D01*
X022057Y004317D01*
X022057Y007454D01*
X022238Y007454D02*
X022238Y004136D01*
X022057Y004317D02*
X019498Y004317D01*
X019498Y012364D01*
X019317Y012545D01*
X022238Y012545D01*
X022057Y012364D01*
X022057Y009226D01*
X022238Y009226D02*
X022238Y012545D01*
X022057Y012364D02*
X019498Y012364D01*
X019317Y012545D02*
X019317Y004136D01*
X019045Y003864D02*
X022510Y003864D01*
X022510Y007454D01*
X021786Y007454D01*
X021786Y009226D01*
X022510Y009226D01*
X022510Y007454D01*
X022510Y009226D02*
X022510Y012817D01*
X019045Y012817D01*
X019045Y003864D01*
X019391Y002314D02*
X019393Y002387D01*
X019399Y002460D01*
X019409Y002532D01*
X019423Y002604D01*
X019440Y002675D01*
X019462Y002745D01*
X019487Y002814D01*
X019516Y002881D01*
X019548Y002946D01*
X019584Y003010D01*
X019624Y003072D01*
X019666Y003131D01*
X019712Y003188D01*
X019761Y003242D01*
X019813Y003294D01*
X019867Y003343D01*
X019924Y003389D01*
X019983Y003431D01*
X020045Y003471D01*
X020109Y003507D01*
X020174Y003539D01*
X020241Y003568D01*
X020310Y003593D01*
X020380Y003615D01*
X020451Y003632D01*
X020523Y003646D01*
X020595Y003656D01*
X020668Y003662D01*
X020741Y003664D01*
X020814Y003662D01*
X020887Y003656D01*
X020959Y003646D01*
X021031Y003632D01*
X021102Y003615D01*
X021172Y003593D01*
X021241Y003568D01*
X021308Y003539D01*
X021373Y003507D01*
X021437Y003471D01*
X021499Y003431D01*
X021558Y003389D01*
X021615Y003343D01*
X021669Y003294D01*
X021721Y003242D01*
X021770Y003188D01*
X021816Y003131D01*
X021858Y003072D01*
X021898Y003010D01*
X021934Y002946D01*
X021966Y002881D01*
X021995Y002814D01*
X022020Y002745D01*
X022042Y002675D01*
X022059Y002604D01*
X022073Y002532D01*
X022083Y002460D01*
X022089Y002387D01*
X022091Y002314D01*
X022089Y002241D01*
X022083Y002168D01*
X022073Y002096D01*
X022059Y002024D01*
X022042Y001953D01*
X022020Y001883D01*
X021995Y001814D01*
X021966Y001747D01*
X021934Y001682D01*
X021898Y001618D01*
X021858Y001556D01*
X021816Y001497D01*
X021770Y001440D01*
X021721Y001386D01*
X021669Y001334D01*
X021615Y001285D01*
X021558Y001239D01*
X021499Y001197D01*
X021437Y001157D01*
X021373Y001121D01*
X021308Y001089D01*
X021241Y001060D01*
X021172Y001035D01*
X021102Y001013D01*
X021031Y000996D01*
X020959Y000982D01*
X020887Y000972D01*
X020814Y000966D01*
X020741Y000964D01*
X020668Y000966D01*
X020595Y000972D01*
X020523Y000982D01*
X020451Y000996D01*
X020380Y001013D01*
X020310Y001035D01*
X020241Y001060D01*
X020174Y001089D01*
X020109Y001121D01*
X020045Y001157D01*
X019983Y001197D01*
X019924Y001239D01*
X019867Y001285D01*
X019813Y001334D01*
X019761Y001386D01*
X019712Y001440D01*
X019666Y001497D01*
X019624Y001556D01*
X019584Y001618D01*
X019548Y001682D01*
X019516Y001747D01*
X019487Y001814D01*
X019462Y001883D01*
X019440Y001953D01*
X019423Y002024D01*
X019409Y002096D01*
X019399Y002168D01*
X019393Y002241D01*
X019391Y002314D01*
X019463Y001118D02*
X019537Y001045D01*
X019537Y000898D01*
X019463Y000825D01*
X019243Y000825D01*
X019243Y000678D02*
X019243Y001118D01*
X019463Y001118D01*
X019077Y001045D02*
X019003Y001118D01*
X018856Y001118D01*
X018783Y001045D01*
X018783Y000972D01*
X018856Y000898D01*
X019003Y000898D01*
X019077Y000825D01*
X019077Y000751D01*
X019003Y000678D01*
X018856Y000678D01*
X018783Y000751D01*
X018616Y000751D02*
X018543Y000678D01*
X018396Y000678D01*
X018323Y000751D01*
X018323Y001045D01*
X018396Y001118D01*
X018543Y001118D01*
X018616Y001045D01*
X018162Y001118D02*
X018016Y001118D01*
X018089Y001118D02*
X018089Y000678D01*
X018016Y000678D02*
X018162Y000678D01*
X017849Y000678D02*
X017702Y000825D01*
X017776Y000825D02*
X017555Y000825D01*
X017555Y000678D02*
X017555Y001118D01*
X017776Y001118D01*
X017849Y001045D01*
X017849Y000898D01*
X017776Y000825D01*
X017389Y000825D02*
X017389Y001118D01*
X017389Y000825D02*
X017242Y000678D01*
X017095Y000825D01*
X017095Y001118D01*
X016928Y000972D02*
X016928Y000678D01*
X016928Y000898D02*
X016635Y000898D01*
X016635Y000972D02*
X016635Y000678D01*
X016635Y000972D02*
X016781Y001118D01*
X016928Y000972D01*
X014375Y001335D02*
X014082Y001335D01*
X014228Y001335D02*
X014228Y000894D01*
X013915Y000894D02*
X013768Y001041D01*
X013841Y001041D02*
X013621Y001041D01*
X013621Y000894D02*
X013621Y001335D01*
X013841Y001335D01*
X013915Y001261D01*
X013915Y001114D01*
X013841Y001041D01*
X013455Y001114D02*
X013161Y001114D01*
X013161Y001188D02*
X013161Y000894D01*
X012994Y000968D02*
X012921Y000894D01*
X012774Y000894D01*
X012701Y000968D01*
X012701Y001335D01*
X012994Y001335D02*
X012994Y000968D01*
X013161Y001188D02*
X013308Y001335D01*
X013455Y001188D01*
X013455Y000894D01*
X011414Y001772D02*
X011164Y001522D01*
X010664Y001522D01*
X010414Y001772D01*
X010164Y001522D01*
X009664Y001522D01*
X009414Y001772D01*
X009164Y001522D01*
X008664Y001522D01*
X008414Y001772D01*
X008164Y001522D01*
X007664Y001522D01*
X007414Y001772D01*
X007164Y001522D01*
X006664Y001522D01*
X006414Y001772D01*
X006414Y002272D01*
X006664Y002522D01*
X007164Y002522D01*
X007414Y002272D01*
X007664Y002522D01*
X008164Y002522D01*
X008414Y002272D01*
X008414Y001772D01*
X008406Y001294D02*
X008259Y001294D01*
X008333Y001294D02*
X008333Y000854D01*
X008406Y000854D02*
X008259Y000854D01*
X008566Y000927D02*
X008640Y000854D01*
X008786Y000854D01*
X008860Y000927D01*
X009027Y000927D02*
X009100Y000854D01*
X009247Y000854D01*
X009320Y000927D01*
X009320Y001001D01*
X009247Y001074D01*
X009100Y001074D01*
X009027Y001148D01*
X009027Y001221D01*
X009100Y001294D01*
X009247Y001294D01*
X009320Y001221D01*
X009487Y001294D02*
X009707Y001294D01*
X009781Y001221D01*
X009781Y001074D01*
X009707Y001001D01*
X009487Y001001D01*
X009487Y000854D02*
X009487Y001294D01*
X008860Y001221D02*
X008786Y001294D01*
X008640Y001294D01*
X008566Y001221D01*
X008566Y000927D01*
X009414Y001772D02*
X009414Y002272D01*
X009664Y002522D01*
X010164Y002522D01*
X010414Y002272D01*
X010664Y002522D01*
X011164Y002522D01*
X011414Y002272D01*
X011414Y001772D01*
X010414Y001772D02*
X010414Y002272D01*
X009414Y002272D02*
X009164Y002522D01*
X008664Y002522D01*
X008414Y002272D01*
X007414Y002272D02*
X007414Y001772D01*
X003031Y002614D02*
X003033Y002687D01*
X003039Y002760D01*
X003049Y002832D01*
X003063Y002904D01*
X003080Y002975D01*
X003102Y003045D01*
X003127Y003114D01*
X003156Y003181D01*
X003188Y003246D01*
X003224Y003310D01*
X003264Y003372D01*
X003306Y003431D01*
X003352Y003488D01*
X003401Y003542D01*
X003453Y003594D01*
X003507Y003643D01*
X003564Y003689D01*
X003623Y003731D01*
X003685Y003771D01*
X003749Y003807D01*
X003814Y003839D01*
X003881Y003868D01*
X003950Y003893D01*
X004020Y003915D01*
X004091Y003932D01*
X004163Y003946D01*
X004235Y003956D01*
X004308Y003962D01*
X004381Y003964D01*
X004454Y003962D01*
X004527Y003956D01*
X004599Y003946D01*
X004671Y003932D01*
X004742Y003915D01*
X004812Y003893D01*
X004881Y003868D01*
X004948Y003839D01*
X005013Y003807D01*
X005077Y003771D01*
X005139Y003731D01*
X005198Y003689D01*
X005255Y003643D01*
X005309Y003594D01*
X005361Y003542D01*
X005410Y003488D01*
X005456Y003431D01*
X005498Y003372D01*
X005538Y003310D01*
X005574Y003246D01*
X005606Y003181D01*
X005635Y003114D01*
X005660Y003045D01*
X005682Y002975D01*
X005699Y002904D01*
X005713Y002832D01*
X005723Y002760D01*
X005729Y002687D01*
X005731Y002614D01*
X005729Y002541D01*
X005723Y002468D01*
X005713Y002396D01*
X005699Y002324D01*
X005682Y002253D01*
X005660Y002183D01*
X005635Y002114D01*
X005606Y002047D01*
X005574Y001982D01*
X005538Y001918D01*
X005498Y001856D01*
X005456Y001797D01*
X005410Y001740D01*
X005361Y001686D01*
X005309Y001634D01*
X005255Y001585D01*
X005198Y001539D01*
X005139Y001497D01*
X005077Y001457D01*
X005013Y001421D01*
X004948Y001389D01*
X004881Y001360D01*
X004812Y001335D01*
X004742Y001313D01*
X004671Y001296D01*
X004599Y001282D01*
X004527Y001272D01*
X004454Y001266D01*
X004381Y001264D01*
X004308Y001266D01*
X004235Y001272D01*
X004163Y001282D01*
X004091Y001296D01*
X004020Y001313D01*
X003950Y001335D01*
X003881Y001360D01*
X003814Y001389D01*
X003749Y001421D01*
X003685Y001457D01*
X003623Y001497D01*
X003564Y001539D01*
X003507Y001585D01*
X003453Y001634D01*
X003401Y001686D01*
X003352Y001740D01*
X003306Y001797D01*
X003264Y001856D01*
X003224Y001918D01*
X003188Y001982D01*
X003156Y002047D01*
X003127Y002114D01*
X003102Y002183D01*
X003080Y002253D01*
X003063Y002324D01*
X003049Y002396D01*
X003039Y002468D01*
X003033Y002541D01*
X003031Y002614D01*
X012270Y002998D02*
X012344Y002924D01*
X012637Y002924D01*
X012711Y002998D01*
X012711Y003144D01*
X012637Y003218D01*
X012490Y003218D01*
X012490Y003071D01*
X012344Y003218D02*
X012270Y003144D01*
X012270Y002998D01*
X012270Y003385D02*
X012711Y003678D01*
X012270Y003678D01*
X012270Y003845D02*
X012270Y004065D01*
X012344Y004139D01*
X012637Y004139D01*
X012711Y004065D01*
X012711Y003845D01*
X012270Y003845D01*
X012270Y003385D02*
X012711Y003385D01*
X013170Y003485D02*
X013611Y003778D01*
X013611Y003485D02*
X013170Y003778D01*
X013244Y003318D02*
X013390Y003318D01*
X013464Y003244D01*
X013464Y003024D01*
X013611Y003024D02*
X013170Y003024D01*
X013170Y003244D01*
X013244Y003318D01*
X013464Y003171D02*
X013611Y003318D01*
X004125Y008319D02*
X003487Y008319D01*
X003487Y008356D01*
X003487Y008673D02*
X003487Y009084D01*
X003487Y009402D02*
X003487Y009439D01*
X004125Y009439D01*
X004125Y009402D01*
X004125Y009084D02*
X004125Y009047D01*
X004125Y008710D02*
X004125Y008673D01*
X004125Y008356D02*
X004125Y008319D01*
X003743Y015341D02*
X003243Y015341D01*
X002993Y015591D01*
X002993Y016091D01*
X003243Y016341D01*
X002993Y016591D01*
X002993Y017091D01*
X003243Y017341D01*
X003743Y017341D01*
X003993Y017091D01*
X003993Y016591D01*
X003743Y016341D01*
X003993Y016091D01*
X003993Y015591D01*
X003743Y015341D01*
X003743Y016341D02*
X003243Y016341D01*
X006950Y016926D02*
X006950Y016963D01*
X006950Y016926D02*
X007587Y016926D01*
X007587Y016963D01*
X007587Y017280D02*
X007587Y017317D01*
X007587Y017654D02*
X007587Y017691D01*
X006950Y017691D02*
X006950Y017280D01*
X006950Y018009D02*
X006950Y018046D01*
X007587Y018046D01*
X007587Y018009D01*
X010210Y017969D02*
X010210Y018006D01*
X010847Y018006D01*
X010847Y017969D01*
X010847Y017651D02*
X010847Y017240D01*
X010847Y016923D02*
X010847Y016886D01*
X010210Y016886D01*
X010210Y016923D01*
X010210Y017240D02*
X010210Y017277D01*
X010210Y017614D02*
X010210Y017651D01*
X013910Y017614D02*
X013910Y017651D01*
X013910Y017969D02*
X013910Y018006D01*
X014547Y018006D01*
X014547Y017969D01*
X014547Y017651D02*
X014547Y017240D01*
X014547Y016923D02*
X014547Y016886D01*
X013910Y016886D01*
X013910Y016923D01*
X013910Y017240D02*
X013910Y017277D01*
X019503Y014823D02*
X019503Y014596D01*
X019503Y014766D02*
X019730Y014766D01*
X019730Y014823D02*
X019730Y014596D01*
X019871Y014653D02*
X019928Y014596D01*
X020042Y014596D01*
X020098Y014653D01*
X020098Y014936D01*
X020240Y014936D02*
X020467Y014596D01*
X020240Y014596D02*
X020467Y014936D01*
X019871Y014936D02*
X019871Y014653D01*
X019730Y014823D02*
X019617Y014936D01*
X019503Y014823D01*
X019695Y014146D02*
X019809Y014033D01*
X019809Y013806D01*
X019950Y013806D02*
X020120Y013806D01*
X020177Y013863D01*
X020177Y014090D01*
X020120Y014146D01*
X019950Y014146D01*
X019950Y013806D01*
X019809Y013976D02*
X019582Y013976D01*
X019582Y014033D02*
X019695Y014146D01*
X019582Y014033D02*
X019582Y013806D01*
X020319Y013863D02*
X020375Y013806D01*
X020489Y013806D01*
X020545Y013863D01*
X020319Y013863D02*
X020319Y014090D01*
X020375Y014146D01*
X020489Y014146D01*
X020545Y014090D01*
X002831Y018644D02*
X002833Y018717D01*
X002839Y018790D01*
X002849Y018862D01*
X002863Y018934D01*
X002880Y019005D01*
X002902Y019075D01*
X002927Y019144D01*
X002956Y019211D01*
X002988Y019276D01*
X003024Y019340D01*
X003064Y019402D01*
X003106Y019461D01*
X003152Y019518D01*
X003201Y019572D01*
X003253Y019624D01*
X003307Y019673D01*
X003364Y019719D01*
X003423Y019761D01*
X003485Y019801D01*
X003549Y019837D01*
X003614Y019869D01*
X003681Y019898D01*
X003750Y019923D01*
X003820Y019945D01*
X003891Y019962D01*
X003963Y019976D01*
X004035Y019986D01*
X004108Y019992D01*
X004181Y019994D01*
X004254Y019992D01*
X004327Y019986D01*
X004399Y019976D01*
X004471Y019962D01*
X004542Y019945D01*
X004612Y019923D01*
X004681Y019898D01*
X004748Y019869D01*
X004813Y019837D01*
X004877Y019801D01*
X004939Y019761D01*
X004998Y019719D01*
X005055Y019673D01*
X005109Y019624D01*
X005161Y019572D01*
X005210Y019518D01*
X005256Y019461D01*
X005298Y019402D01*
X005338Y019340D01*
X005374Y019276D01*
X005406Y019211D01*
X005435Y019144D01*
X005460Y019075D01*
X005482Y019005D01*
X005499Y018934D01*
X005513Y018862D01*
X005523Y018790D01*
X005529Y018717D01*
X005531Y018644D01*
X005529Y018571D01*
X005523Y018498D01*
X005513Y018426D01*
X005499Y018354D01*
X005482Y018283D01*
X005460Y018213D01*
X005435Y018144D01*
X005406Y018077D01*
X005374Y018012D01*
X005338Y017948D01*
X005298Y017886D01*
X005256Y017827D01*
X005210Y017770D01*
X005161Y017716D01*
X005109Y017664D01*
X005055Y017615D01*
X004998Y017569D01*
X004939Y017527D01*
X004877Y017487D01*
X004813Y017451D01*
X004748Y017419D01*
X004681Y017390D01*
X004612Y017365D01*
X004542Y017343D01*
X004471Y017326D01*
X004399Y017312D01*
X004327Y017302D01*
X004254Y017296D01*
X004181Y017294D01*
X004108Y017296D01*
X004035Y017302D01*
X003963Y017312D01*
X003891Y017326D01*
X003820Y017343D01*
X003750Y017365D01*
X003681Y017390D01*
X003614Y017419D01*
X003549Y017451D01*
X003485Y017487D01*
X003423Y017527D01*
X003364Y017569D01*
X003307Y017615D01*
X003253Y017664D01*
X003201Y017716D01*
X003152Y017770D01*
X003106Y017827D01*
X003064Y017886D01*
X003024Y017948D01*
X002988Y018012D01*
X002956Y018077D01*
X002927Y018144D01*
X002902Y018213D01*
X002880Y018283D01*
X002863Y018354D01*
X002849Y018426D01*
X002839Y018498D01*
X002833Y018571D01*
X002831Y018644D01*
D13*
X002641Y000461D02*
X002657Y000461D01*
X002663Y000467D01*
X002663Y000489D01*
X002657Y000494D01*
X002641Y000494D01*
X002641Y000461D01*
X002671Y000461D02*
X002671Y000467D01*
X002676Y000467D01*
X002676Y000461D01*
X002671Y000461D01*
X002686Y000461D02*
X002708Y000494D01*
X002716Y000494D02*
X002727Y000483D01*
X002739Y000494D01*
X002739Y000461D01*
X002747Y000467D02*
X002752Y000461D01*
X002769Y000461D01*
X002769Y000456D02*
X002763Y000450D01*
X002758Y000450D01*
X002769Y000456D02*
X002769Y000483D01*
X002766Y000504D02*
X002763Y000507D01*
X002763Y000518D01*
X002763Y000507D01*
X002766Y000504D01*
X002770Y000507D02*
X002773Y000504D01*
X002781Y000504D01*
X002781Y000515D01*
X002781Y000504D01*
X002773Y000504D01*
X002770Y000507D01*
X002770Y000515D01*
X002770Y000507D01*
X002766Y000515D02*
X002761Y000515D01*
X002766Y000515D01*
X002756Y000515D02*
X002749Y000515D01*
X002746Y000512D01*
X002746Y000507D01*
X002749Y000504D01*
X002756Y000504D01*
X002749Y000504D01*
X002746Y000507D01*
X002746Y000512D01*
X002749Y000515D01*
X002756Y000515D01*
X002739Y000515D02*
X002739Y000504D01*
X002739Y000515D01*
X002736Y000515D01*
X002739Y000515D01*
X002739Y000520D02*
X002739Y000523D01*
X002739Y000520D01*
X002732Y000518D02*
X002732Y000512D01*
X002729Y000510D01*
X002721Y000510D01*
X002729Y000510D01*
X002732Y000512D01*
X002732Y000518D01*
X002729Y000520D01*
X002721Y000520D01*
X002721Y000504D01*
X002721Y000520D01*
X002729Y000520D01*
X002732Y000518D01*
X002736Y000504D02*
X002741Y000504D01*
X002736Y000504D01*
X002716Y000494D02*
X002716Y000461D01*
X002747Y000467D02*
X002747Y000483D01*
X002785Y000504D02*
X002785Y000515D01*
X002785Y000504D01*
X002785Y000510D02*
X002790Y000515D01*
X002793Y000515D01*
X002790Y000515D01*
X002785Y000510D01*
X002797Y000510D02*
X002808Y000510D01*
X002808Y000512D01*
X002805Y000515D01*
X002800Y000515D01*
X002797Y000512D01*
X002797Y000507D01*
X002800Y000504D01*
X002805Y000504D01*
X002800Y000504D01*
X002797Y000507D01*
X002797Y000512D01*
X002800Y000515D01*
X002805Y000515D01*
X002808Y000512D01*
X002808Y000510D01*
X002797Y000510D01*
X002812Y000512D02*
X002815Y000515D01*
X002823Y000515D01*
X002815Y000515D01*
X002812Y000512D01*
X002815Y000510D01*
X002820Y000510D01*
X002823Y000507D01*
X002820Y000504D01*
X002812Y000504D01*
X002820Y000504D01*
X002823Y000507D01*
X002820Y000510D01*
X002815Y000510D01*
X002812Y000512D01*
X002827Y000504D02*
X002837Y000520D01*
X002827Y000504D01*
X002824Y000494D02*
X002830Y000489D01*
X002830Y000478D01*
X002824Y000472D01*
X002808Y000472D01*
X002808Y000461D02*
X002808Y000494D01*
X002824Y000494D01*
X002838Y000483D02*
X002843Y000483D01*
X002843Y000461D01*
X002838Y000461D02*
X002849Y000461D01*
X002858Y000467D02*
X002864Y000461D01*
X002880Y000461D01*
X002894Y000467D02*
X002899Y000461D01*
X002894Y000467D02*
X002894Y000489D01*
X002889Y000483D02*
X002899Y000483D01*
X002909Y000483D02*
X002909Y000467D01*
X002914Y000461D01*
X002931Y000461D01*
X002931Y000483D01*
X002939Y000483D02*
X002939Y000461D01*
X002939Y000472D02*
X002950Y000483D01*
X002956Y000483D01*
X002964Y000478D02*
X002970Y000483D01*
X002981Y000483D01*
X002986Y000478D01*
X002986Y000472D01*
X002964Y000472D01*
X002964Y000467D02*
X002964Y000478D01*
X002964Y000467D02*
X002970Y000461D01*
X002981Y000461D01*
X002995Y000461D02*
X003011Y000461D01*
X003017Y000467D01*
X003011Y000472D01*
X003000Y000472D01*
X002995Y000478D01*
X003000Y000483D01*
X003017Y000483D01*
X003027Y000499D02*
X003027Y000515D01*
X003035Y000515D01*
X003038Y000512D01*
X003038Y000507D01*
X003035Y000504D01*
X003027Y000504D01*
X003035Y000504D01*
X003038Y000507D01*
X003038Y000512D01*
X003035Y000515D01*
X003027Y000515D01*
X003027Y000499D01*
X003021Y000504D02*
X003023Y000507D01*
X003023Y000512D01*
X003021Y000515D01*
X003013Y000515D01*
X003021Y000515D01*
X003023Y000512D01*
X003023Y000507D01*
X003021Y000504D01*
X003013Y000504D01*
X003013Y000520D01*
X003013Y000504D01*
X003021Y000504D01*
X003009Y000520D02*
X002998Y000504D01*
X003009Y000520D01*
X002994Y000515D02*
X002986Y000515D01*
X002983Y000512D01*
X002986Y000510D01*
X002991Y000510D01*
X002994Y000507D01*
X002991Y000504D01*
X002983Y000504D01*
X002991Y000504D01*
X002994Y000507D01*
X002991Y000510D01*
X002986Y000510D01*
X002983Y000512D01*
X002986Y000515D01*
X002994Y000515D01*
X002979Y000515D02*
X002974Y000515D01*
X002979Y000515D01*
X002976Y000518D02*
X002976Y000507D01*
X002979Y000504D01*
X002976Y000507D01*
X002976Y000518D01*
X002969Y000515D02*
X002961Y000515D01*
X002959Y000512D01*
X002959Y000507D01*
X002961Y000504D01*
X002969Y000504D01*
X002961Y000504D01*
X002959Y000507D01*
X002959Y000512D01*
X002961Y000515D01*
X002969Y000515D01*
X002955Y000512D02*
X002955Y000510D01*
X002944Y000510D01*
X002955Y000510D01*
X002955Y000512D01*
X002952Y000515D01*
X002947Y000515D01*
X002944Y000512D01*
X002944Y000507D01*
X002947Y000504D01*
X002952Y000504D01*
X002947Y000504D01*
X002944Y000507D01*
X002944Y000512D01*
X002947Y000515D01*
X002952Y000515D01*
X002955Y000512D01*
X002940Y000515D02*
X002940Y000502D01*
X002937Y000499D01*
X002934Y000499D01*
X002937Y000499D01*
X002940Y000502D01*
X002940Y000515D01*
X002940Y000520D02*
X002940Y000523D01*
X002940Y000520D01*
X002930Y000512D02*
X002928Y000515D01*
X002922Y000515D01*
X002920Y000512D01*
X002920Y000507D01*
X002922Y000504D01*
X002928Y000504D01*
X002930Y000507D01*
X002930Y000512D01*
X002928Y000515D01*
X002922Y000515D01*
X002920Y000512D01*
X002920Y000507D01*
X002922Y000504D01*
X002928Y000504D01*
X002930Y000507D01*
X002930Y000512D01*
X002915Y000515D02*
X002913Y000515D01*
X002907Y000510D01*
X002913Y000515D01*
X002915Y000515D01*
X002907Y000515D02*
X002907Y000504D01*
X002907Y000515D01*
X002903Y000518D02*
X002903Y000512D01*
X002901Y000510D01*
X002893Y000510D01*
X002901Y000510D01*
X002903Y000512D01*
X002903Y000518D01*
X002901Y000520D01*
X002893Y000520D01*
X002893Y000504D01*
X002893Y000520D01*
X002901Y000520D01*
X002903Y000518D01*
X002874Y000515D02*
X002868Y000515D01*
X002874Y000515D01*
X002871Y000518D02*
X002871Y000507D01*
X002874Y000504D01*
X002871Y000507D01*
X002871Y000518D01*
X002864Y000515D02*
X002861Y000515D01*
X002856Y000510D01*
X002861Y000515D01*
X002864Y000515D01*
X002856Y000515D02*
X002856Y000504D01*
X002856Y000515D01*
X002852Y000515D02*
X002852Y000504D01*
X002852Y000515D01*
X002847Y000520D01*
X002841Y000515D01*
X002841Y000504D01*
X002841Y000515D01*
X002847Y000520D01*
X002852Y000515D01*
X002852Y000512D02*
X002841Y000512D01*
X002852Y000512D01*
X002843Y000500D02*
X002843Y000494D01*
X002858Y000478D02*
X002858Y000467D01*
X002858Y000478D02*
X002864Y000483D01*
X002880Y000483D01*
X003025Y000461D02*
X003047Y000494D01*
X003057Y000499D02*
X003059Y000499D01*
X003062Y000502D01*
X003062Y000515D01*
X003059Y000515D02*
X003057Y000512D01*
X003057Y000507D01*
X003059Y000504D01*
X003067Y000504D01*
X003069Y000504D02*
X003067Y000507D01*
X003067Y000512D01*
X003069Y000515D01*
X003075Y000515D01*
X003077Y000512D01*
X003077Y000507D01*
X003075Y000504D01*
X003069Y000504D01*
X003071Y000504D02*
X003071Y000520D01*
X003074Y000515D02*
X003079Y000515D01*
X003082Y000512D01*
X003082Y000504D01*
X003081Y000504D02*
X003087Y000504D01*
X003089Y000504D02*
X003086Y000507D01*
X003086Y000512D01*
X003089Y000515D01*
X003094Y000515D01*
X003097Y000512D01*
X003097Y000510D01*
X003086Y000510D01*
X003084Y000504D02*
X003084Y000520D01*
X003081Y000520D01*
X003074Y000515D02*
X003071Y000512D01*
X003067Y000515D02*
X003059Y000515D01*
X003062Y000520D02*
X003062Y000523D01*
X003053Y000512D02*
X003042Y000512D01*
X003053Y000512D01*
X003066Y000494D02*
X003077Y000483D01*
X003077Y000461D01*
X003086Y000461D02*
X003086Y000483D01*
X003077Y000478D02*
X003055Y000478D01*
X003055Y000483D02*
X003066Y000494D01*
X003055Y000483D02*
X003055Y000461D01*
X003086Y000472D02*
X003097Y000483D01*
X003102Y000483D01*
X003111Y000483D02*
X003122Y000483D01*
X003117Y000489D02*
X003117Y000467D01*
X003122Y000461D01*
X003162Y000461D02*
X003162Y000494D01*
X003178Y000494D01*
X003184Y000489D01*
X003184Y000478D01*
X003178Y000472D01*
X003162Y000472D01*
X003162Y000499D02*
X003162Y000515D01*
X003170Y000515D01*
X003173Y000512D01*
X003173Y000507D01*
X003170Y000504D01*
X003162Y000504D01*
X003160Y000504D02*
X003168Y000504D01*
X003168Y000502D02*
X003168Y000515D01*
X003160Y000515D01*
X003157Y000512D01*
X003157Y000507D01*
X003160Y000504D01*
X003158Y000504D02*
X003158Y000512D01*
X003155Y000515D01*
X003153Y000512D01*
X003153Y000504D01*
X003145Y000504D01*
X003142Y000507D01*
X003142Y000512D01*
X003145Y000515D01*
X003153Y000515D01*
X003150Y000515D02*
X003153Y000512D01*
X003150Y000515D02*
X003147Y000515D01*
X003147Y000504D01*
X003143Y000507D02*
X003143Y000512D01*
X003141Y000515D01*
X003133Y000515D01*
X003130Y000515D02*
X003128Y000512D01*
X003128Y000507D01*
X003128Y000504D01*
X003125Y000504D01*
X003125Y000507D01*
X003128Y000507D01*
X003130Y000504D01*
X003136Y000504D01*
X003138Y000507D01*
X003138Y000512D01*
X003136Y000515D01*
X003130Y000515D01*
X003133Y000520D02*
X003133Y000504D01*
X003141Y000504D01*
X003143Y000507D01*
X003153Y000504D02*
X003153Y000520D01*
X003172Y000512D02*
X003174Y000515D01*
X003180Y000515D01*
X003182Y000512D01*
X003182Y000510D01*
X003172Y000510D01*
X003172Y000512D02*
X003172Y000507D01*
X003174Y000504D01*
X003180Y000504D01*
X003187Y000504D02*
X003187Y000515D01*
X003192Y000515D02*
X003195Y000515D01*
X003192Y000515D02*
X003187Y000510D01*
X003199Y000507D02*
X003201Y000507D01*
X003201Y000504D01*
X003199Y000504D01*
X003199Y000507D01*
X003206Y000504D02*
X003214Y000504D01*
X003217Y000507D01*
X003217Y000512D01*
X003214Y000515D01*
X003206Y000515D01*
X003206Y000520D02*
X003206Y000504D01*
X003221Y000504D02*
X003221Y000515D01*
X003223Y000515D01*
X003226Y000512D01*
X003229Y000515D01*
X003231Y000512D01*
X003231Y000504D01*
X003235Y000504D02*
X003243Y000504D01*
X003246Y000507D01*
X003246Y000512D01*
X003243Y000515D01*
X003235Y000515D01*
X003235Y000499D01*
X003226Y000504D02*
X003226Y000512D01*
X003223Y000483D02*
X003217Y000478D01*
X003217Y000467D01*
X003223Y000461D01*
X003234Y000461D01*
X003239Y000467D01*
X003239Y000478D01*
X003234Y000483D01*
X003223Y000483D01*
X003209Y000483D02*
X003203Y000483D01*
X003192Y000472D01*
X003192Y000461D02*
X003192Y000483D01*
X003168Y000502D02*
X003165Y000499D01*
X003162Y000499D01*
X003121Y000504D02*
X003118Y000507D01*
X003118Y000518D01*
X003116Y000515D02*
X003116Y000504D01*
X003111Y000504D02*
X003104Y000504D01*
X003101Y000507D01*
X003101Y000515D01*
X003103Y000515D02*
X003111Y000515D01*
X003111Y000502D01*
X003109Y000499D01*
X003106Y000499D01*
X003109Y000504D02*
X003111Y000507D01*
X003109Y000510D01*
X003103Y000510D01*
X003101Y000512D01*
X003103Y000515D01*
X003094Y000520D02*
X003094Y000504D01*
X003089Y000504D01*
X003091Y000504D02*
X003096Y000504D01*
X003101Y000504D02*
X003109Y000504D01*
X003116Y000510D02*
X003121Y000515D01*
X003124Y000515D01*
X003121Y000515D02*
X003116Y000515D01*
X003094Y000520D02*
X003091Y000520D01*
X003259Y000500D02*
X003259Y000494D01*
X003259Y000483D02*
X003259Y000456D01*
X003253Y000450D01*
X003248Y000450D01*
X003268Y000467D02*
X003273Y000461D01*
X003284Y000461D01*
X003290Y000472D02*
X003268Y000472D01*
X003268Y000467D02*
X003268Y000478D01*
X003273Y000483D01*
X003284Y000483D01*
X003290Y000478D01*
X003290Y000472D01*
X003298Y000467D02*
X003304Y000461D01*
X003320Y000461D01*
X003334Y000467D02*
X003340Y000461D01*
X003334Y000467D02*
X003334Y000489D01*
X003329Y000483D02*
X003340Y000483D01*
X003349Y000478D02*
X003354Y000483D01*
X003371Y000483D01*
X003365Y000472D02*
X003354Y000472D01*
X003349Y000478D01*
X003349Y000461D02*
X003365Y000461D01*
X003371Y000467D01*
X003365Y000472D01*
X003379Y000461D02*
X003401Y000494D01*
X003410Y000494D02*
X003410Y000461D01*
X003426Y000461D01*
X003432Y000467D01*
X003432Y000478D01*
X003426Y000483D01*
X003410Y000483D01*
X003440Y000483D02*
X003456Y000483D01*
X003462Y000478D01*
X003462Y000467D01*
X003456Y000461D01*
X003440Y000461D01*
X003440Y000450D02*
X003440Y000483D01*
X003470Y000478D02*
X003492Y000478D01*
X003512Y000483D02*
X003512Y000456D01*
X003506Y000450D01*
X003501Y000450D01*
X003521Y000467D02*
X003526Y000461D01*
X003537Y000461D01*
X003543Y000467D01*
X003543Y000478D01*
X003537Y000483D01*
X003526Y000483D01*
X003521Y000478D01*
X003521Y000467D01*
X003512Y000494D02*
X003512Y000500D01*
X003551Y000494D02*
X003557Y000494D01*
X003557Y000461D01*
X003562Y000461D02*
X003551Y000461D01*
X003572Y000461D02*
X003583Y000461D01*
X003577Y000461D02*
X003577Y000494D01*
X003572Y000494D01*
X003592Y000483D02*
X003592Y000467D01*
X003597Y000461D01*
X003614Y000461D01*
X003614Y000456D02*
X003608Y000450D01*
X003603Y000450D01*
X003614Y000456D02*
X003614Y000483D01*
X003622Y000483D02*
X003622Y000461D01*
X003622Y000472D02*
X003633Y000483D01*
X003639Y000483D01*
X003647Y000478D02*
X003647Y000467D01*
X003653Y000461D01*
X003664Y000461D01*
X003669Y000467D01*
X003669Y000478D01*
X003664Y000483D01*
X003653Y000483D01*
X003647Y000478D01*
X003678Y000478D02*
X003683Y000483D01*
X003700Y000483D01*
X003708Y000478D02*
X003708Y000467D01*
X003714Y000461D01*
X003730Y000461D01*
X003730Y000456D02*
X003730Y000483D01*
X003714Y000483D01*
X003708Y000478D01*
X003700Y000494D02*
X003700Y000461D01*
X003683Y000461D01*
X003678Y000467D01*
X003678Y000478D01*
X003719Y000450D02*
X003725Y000450D01*
X003730Y000456D01*
X003744Y000461D02*
X003739Y000467D01*
X003739Y000478D01*
X003744Y000483D01*
X003755Y000483D01*
X003761Y000478D01*
X003761Y000472D01*
X003739Y000472D01*
X003744Y000461D02*
X003755Y000461D01*
X003769Y000461D02*
X003769Y000483D01*
X003769Y000472D02*
X003780Y000483D01*
X003785Y000483D01*
X003794Y000478D02*
X003816Y000478D01*
X003825Y000478D02*
X003825Y000467D01*
X003830Y000461D01*
X003847Y000461D01*
X003855Y000461D02*
X003855Y000483D01*
X003847Y000483D02*
X003830Y000483D01*
X003825Y000478D01*
X003855Y000472D02*
X003866Y000483D01*
X003871Y000483D01*
X003880Y000478D02*
X003880Y000467D01*
X003886Y000461D01*
X003897Y000461D01*
X003902Y000467D01*
X003902Y000478D01*
X003897Y000483D01*
X003886Y000483D01*
X003880Y000478D01*
X003911Y000483D02*
X003927Y000483D01*
X003933Y000478D01*
X003933Y000467D01*
X003927Y000461D01*
X003911Y000461D01*
X003911Y000450D02*
X003911Y000483D01*
X003941Y000483D02*
X003957Y000483D01*
X003963Y000478D01*
X003963Y000467D01*
X003957Y000461D01*
X003941Y000461D01*
X003941Y000450D02*
X003941Y000483D01*
X003971Y000478D02*
X003977Y000483D01*
X003988Y000483D01*
X003993Y000478D01*
X003993Y000472D01*
X003971Y000472D01*
X003971Y000467D02*
X003971Y000478D01*
X003971Y000467D02*
X003977Y000461D01*
X003988Y000461D01*
X004002Y000467D02*
X004007Y000461D01*
X004024Y000461D01*
X004024Y000494D01*
X004024Y000483D02*
X004007Y000483D01*
X004002Y000478D01*
X004002Y000467D01*
X004032Y000467D02*
X004037Y000467D01*
X004037Y000461D01*
X004032Y000461D01*
X004032Y000467D01*
X004047Y000461D02*
X004047Y000494D01*
X004047Y000483D02*
X004064Y000483D01*
X004069Y000478D01*
X004069Y000467D01*
X004064Y000461D01*
X004047Y000461D01*
X004077Y000461D02*
X004077Y000483D01*
X004083Y000483D01*
X004088Y000478D01*
X004094Y000483D01*
X004099Y000478D01*
X004099Y000461D01*
X004108Y000461D02*
X004124Y000461D01*
X004130Y000467D01*
X004130Y000478D01*
X004124Y000483D01*
X004108Y000483D01*
X004108Y000450D01*
X004088Y000461D02*
X004088Y000478D01*
X003822Y000544D02*
X021538Y000544D01*
X021538Y000545D02*
X021592Y000547D01*
X021645Y000552D01*
X021698Y000561D01*
X021750Y000574D01*
X021802Y000590D01*
X021852Y000610D01*
X021900Y000633D01*
X021947Y000660D01*
X021992Y000689D01*
X022035Y000722D01*
X022075Y000757D01*
X022113Y000795D01*
X022148Y000835D01*
X022181Y000878D01*
X022210Y000923D01*
X022237Y000970D01*
X022260Y001018D01*
X022280Y001068D01*
X022296Y001120D01*
X022309Y001172D01*
X022318Y001225D01*
X022323Y001278D01*
X022325Y001332D01*
X022326Y001332D02*
X022326Y019442D01*
X022325Y019442D02*
X022323Y019496D01*
X022318Y019549D01*
X022309Y019602D01*
X022296Y019654D01*
X022280Y019706D01*
X022260Y019756D01*
X022237Y019804D01*
X022210Y019851D01*
X022181Y019896D01*
X022148Y019939D01*
X022113Y019979D01*
X022075Y020017D01*
X022035Y020052D01*
X021992Y020085D01*
X021947Y020114D01*
X021900Y020141D01*
X021852Y020164D01*
X021802Y020184D01*
X021750Y020200D01*
X021698Y020213D01*
X021645Y020222D01*
X021592Y020227D01*
X021538Y020229D01*
X003822Y020229D01*
X003756Y020227D01*
X003690Y020222D01*
X003624Y020212D01*
X003559Y020199D01*
X003495Y020183D01*
X003432Y020163D01*
X003370Y020139D01*
X003310Y020112D01*
X003251Y020082D01*
X003194Y020048D01*
X003139Y020011D01*
X003086Y019971D01*
X003035Y019929D01*
X002987Y019883D01*
X002941Y019835D01*
X002899Y019784D01*
X002859Y019731D01*
X002822Y019676D01*
X002788Y019619D01*
X002758Y019560D01*
X002731Y019500D01*
X002707Y019438D01*
X002687Y019375D01*
X002671Y019311D01*
X002658Y019246D01*
X002648Y019180D01*
X002643Y019114D01*
X002641Y019048D01*
X002641Y001725D01*
X002643Y001659D01*
X002648Y001593D01*
X002658Y001527D01*
X002671Y001462D01*
X002687Y001398D01*
X002707Y001335D01*
X002731Y001273D01*
X002758Y001213D01*
X002788Y001154D01*
X002822Y001097D01*
X002859Y001042D01*
X002899Y000989D01*
X002941Y000938D01*
X002987Y000890D01*
X003035Y000844D01*
X003086Y000802D01*
X003139Y000762D01*
X003194Y000725D01*
X003251Y000691D01*
X003310Y000661D01*
X003370Y000634D01*
X003432Y000610D01*
X003495Y000590D01*
X003559Y000574D01*
X003624Y000561D01*
X003690Y000551D01*
X003756Y000546D01*
X003822Y000544D01*
X003320Y000483D02*
X003304Y000483D01*
X003298Y000478D01*
X003298Y000467D01*
X002703Y000502D02*
X002700Y000499D01*
X002697Y000499D01*
X002700Y000499D01*
X002703Y000502D01*
X002703Y000515D01*
X002703Y000502D01*
X002703Y000504D02*
X002695Y000504D01*
X002692Y000507D01*
X002692Y000515D01*
X002692Y000507D01*
X002695Y000504D01*
X002703Y000504D01*
X002688Y000504D02*
X002688Y000520D01*
X002683Y000515D01*
X002677Y000520D01*
X002677Y000504D01*
X002677Y000520D01*
X002683Y000515D01*
X002688Y000520D01*
X002688Y000504D01*
X002673Y000520D02*
X002663Y000504D01*
X002673Y000520D01*
X002658Y000515D02*
X002658Y000512D01*
X002655Y000512D01*
X002655Y000515D01*
X002658Y000515D01*
X002658Y000512D01*
X002655Y000512D01*
X002655Y000515D01*
X002658Y000515D01*
X002651Y000518D02*
X002649Y000520D01*
X002641Y000520D01*
X002641Y000504D01*
X002649Y000504D01*
X002651Y000507D01*
X002651Y000518D01*
X002649Y000520D01*
X002641Y000520D01*
X002641Y000504D01*
X002649Y000504D01*
X002651Y000507D01*
X002651Y000518D01*
X002655Y000507D02*
X002655Y000504D01*
X002658Y000504D01*
X002658Y000507D01*
X002655Y000507D01*
X002655Y000504D01*
X002658Y000504D01*
X002658Y000507D01*
X002655Y000507D01*
X002671Y000483D02*
X002671Y000478D01*
X002676Y000478D01*
X002676Y000483D01*
X002671Y000483D01*
X004381Y012080D02*
X004383Y012106D01*
X004389Y012132D01*
X004399Y012157D01*
X004412Y012180D01*
X004428Y012200D01*
X004448Y012218D01*
X004470Y012233D01*
X004493Y012245D01*
X004519Y012253D01*
X004545Y012257D01*
X004571Y012257D01*
X004597Y012253D01*
X004623Y012245D01*
X004647Y012233D01*
X004668Y012218D01*
X004688Y012200D01*
X004704Y012180D01*
X004717Y012157D01*
X004727Y012132D01*
X004733Y012106D01*
X004735Y012080D01*
X004733Y012054D01*
X004727Y012028D01*
X004717Y012003D01*
X004704Y011980D01*
X004688Y011960D01*
X004668Y011942D01*
X004646Y011927D01*
X004623Y011915D01*
X004597Y011907D01*
X004571Y011903D01*
X004545Y011903D01*
X004519Y011907D01*
X004493Y011915D01*
X004469Y011927D01*
X004448Y011942D01*
X004428Y011960D01*
X004412Y011980D01*
X004399Y012003D01*
X004389Y012028D01*
X004383Y012054D01*
X004381Y012080D01*
X004381Y013812D02*
X004383Y013838D01*
X004389Y013864D01*
X004399Y013889D01*
X004412Y013912D01*
X004428Y013932D01*
X004448Y013950D01*
X004470Y013965D01*
X004493Y013977D01*
X004519Y013985D01*
X004545Y013989D01*
X004571Y013989D01*
X004597Y013985D01*
X004623Y013977D01*
X004647Y013965D01*
X004668Y013950D01*
X004688Y013932D01*
X004704Y013912D01*
X004717Y013889D01*
X004727Y013864D01*
X004733Y013838D01*
X004735Y013812D01*
X004733Y013786D01*
X004727Y013760D01*
X004717Y013735D01*
X004704Y013712D01*
X004688Y013692D01*
X004668Y013674D01*
X004646Y013659D01*
X004623Y013647D01*
X004597Y013639D01*
X004571Y013635D01*
X004545Y013635D01*
X004519Y013639D01*
X004493Y013647D01*
X004469Y013659D01*
X004448Y013674D01*
X004428Y013692D01*
X004412Y013712D01*
X004399Y013735D01*
X004389Y013760D01*
X004383Y013786D01*
X004381Y013812D01*
D14*
X012113Y014844D03*
X012539Y015043D03*
X012692Y014804D03*
X012173Y015270D03*
X014291Y014744D03*
X013032Y018666D03*
X013032Y018753D03*
D15*
X013268Y017148D03*
X012429Y017161D03*
X013588Y015330D03*
X013341Y014750D03*
X011043Y014850D03*
D16*
X012183Y015316D03*
X014081Y015763D03*
X014747Y015017D03*
X014287Y014750D03*
X012516Y017248D03*
X012416Y017414D03*
X011417Y017814D03*
X011357Y017914D03*
X011297Y018080D03*
X011703Y018180D03*
X012016Y018327D03*
X012962Y018527D03*
X013142Y018527D03*
X013102Y018313D03*
X013548Y018147D03*
X013708Y018147D03*
X013908Y017947D03*
X014241Y017894D03*
D17*
X013282Y017175D03*
X013142Y016802D03*
X012556Y016802D03*
X012416Y017221D03*
X012416Y017234D03*
X012416Y017241D03*
X011357Y017454D03*
X011497Y018067D03*
X011863Y018074D03*
X011863Y018087D03*
X012496Y015490D03*
X012436Y015443D03*
X012396Y015410D03*
X012496Y015010D03*
X012516Y014943D03*
X012742Y014757D03*
X012802Y015023D03*
X012822Y015123D03*
X013122Y015303D03*
X013648Y014877D03*
X014034Y014857D03*
X014294Y014990D03*
X014314Y015003D03*
X014387Y015003D03*
X014367Y014943D03*
X014367Y014937D03*
X014507Y014943D03*
X014487Y015010D03*
X011244Y015090D03*
X011064Y014957D03*
D18*
X011646Y014943D03*
X013318Y014877D03*
X013338Y014757D03*
X013391Y015303D03*
X013331Y015423D03*
X011373Y017421D03*
X011613Y017867D03*
X011626Y017900D03*
X011626Y017907D03*
X011633Y017934D03*
X011633Y017940D03*
X011633Y017954D03*
X011633Y017967D03*
X011633Y017974D03*
X011746Y018054D03*
X011726Y018100D03*
X011726Y018107D03*
X011706Y018167D03*
X011706Y018174D03*
X011886Y018207D03*
X011866Y018273D03*
X011866Y018287D03*
X011866Y018300D03*
X011846Y018034D03*
X011513Y018140D03*
X011453Y017967D03*
X013098Y018287D03*
X013178Y018420D03*
X013198Y018440D03*
X013118Y018453D03*
X013371Y018307D03*
X013551Y018140D03*
D19*
X013778Y018233D03*
X013911Y018373D03*
X014084Y018154D03*
X013951Y018074D03*
X013944Y018067D03*
X014277Y017920D03*
X014304Y017334D03*
X012932Y017088D03*
X012759Y017088D03*
X012579Y016708D03*
X012579Y016688D03*
X012586Y016635D03*
X012586Y016622D03*
X013092Y016622D03*
X013092Y016635D03*
X011873Y016255D03*
X011953Y016076D03*
X011966Y016056D03*
X012819Y015423D03*
X012486Y014937D03*
X012739Y014777D03*
X011667Y015023D03*
X014284Y014757D03*
X014477Y014937D03*
X011407Y017354D03*
X011567Y017801D03*
X011387Y018167D03*
X012033Y018307D03*
X012066Y018420D03*
X012792Y018533D03*
D20*
X012952Y018493D03*
X012952Y018480D03*
X013132Y018493D03*
X013032Y018680D03*
X013032Y018746D03*
X012546Y018547D03*
X012546Y018527D03*
X012546Y018513D03*
X012546Y018493D03*
X012546Y018480D03*
X012559Y018280D03*
X011933Y018127D03*
X011873Y018260D03*
X011713Y018147D03*
X011733Y018094D03*
X011733Y018080D03*
X011447Y017947D03*
X013358Y018260D03*
X013898Y017980D03*
X013898Y017960D03*
X014131Y017814D03*
X012566Y016782D03*
X011873Y016262D03*
X012486Y015383D03*
X012739Y014764D03*
D21*
X012526Y015017D03*
X013332Y014764D03*
X014357Y015017D03*
X014517Y015017D03*
X013092Y016615D03*
X013092Y016628D03*
X012586Y016628D03*
X012579Y016682D03*
X012426Y017448D03*
X012153Y018160D03*
X012819Y018646D03*
X013032Y018693D03*
X013758Y018327D03*
X013938Y018060D03*
X013931Y017927D03*
X014271Y017914D03*
X014297Y017328D03*
D22*
X012852Y017248D03*
X012852Y017228D03*
X012852Y017215D03*
X012752Y017081D03*
X012466Y017548D03*
X014091Y015929D03*
X013558Y015763D03*
X014111Y015017D03*
X014284Y014764D03*
X012739Y014784D03*
X012246Y015863D03*
X012093Y015863D03*
D23*
X013298Y015669D03*
X013484Y015343D03*
X013751Y015010D03*
X014357Y015023D03*
X014743Y015010D03*
X012738Y014770D03*
X012572Y016755D03*
X013111Y016735D03*
X013118Y016755D03*
X013125Y016775D03*
X013185Y017088D03*
X012505Y017101D03*
X012419Y017421D03*
X011546Y017774D03*
X011453Y017741D03*
X011440Y017774D03*
X011433Y017787D03*
X011420Y017807D03*
X011400Y017841D03*
X011373Y017887D03*
X011360Y017907D03*
X011353Y017920D03*
X011340Y017940D03*
X011333Y017954D03*
X011320Y017974D03*
X011293Y018074D03*
X011313Y018100D03*
X011320Y018107D03*
X011333Y018120D03*
X011353Y018140D03*
X011626Y017987D03*
X011759Y018034D03*
X011693Y018207D03*
X011893Y018187D03*
X012046Y018400D03*
X012172Y018174D03*
X012812Y018553D03*
X012832Y018633D03*
X012965Y018553D03*
X012965Y018540D03*
X013145Y018540D03*
X013145Y018533D03*
X013211Y018453D03*
X013105Y018320D03*
X013391Y018333D03*
X013591Y018320D03*
X013604Y018333D03*
X013611Y018340D03*
X013631Y018373D03*
X013724Y018174D03*
X013717Y018167D03*
X013711Y018154D03*
X014157Y018100D03*
X014250Y017900D03*
X014130Y017807D03*
X014130Y017801D03*
X011393Y017374D03*
X011386Y017388D03*
D24*
X013551Y015743D03*
X013331Y014770D03*
X011626Y014857D03*
D25*
X014284Y014770D03*
X014264Y017274D03*
X014344Y017967D03*
D26*
X013188Y017075D03*
X013048Y016542D03*
X013261Y016402D03*
X011896Y016176D03*
X013328Y014777D03*
X011283Y018007D03*
D27*
X011463Y018207D03*
X013834Y018287D03*
X014240Y017234D03*
X014234Y017221D03*
X013787Y016176D03*
X013747Y016109D03*
X014107Y015876D03*
X014280Y014777D03*
X012156Y015723D03*
X012036Y015976D03*
X011869Y016235D03*
X012602Y016302D03*
X011563Y015869D03*
D28*
X011244Y015097D03*
X011224Y014997D03*
X012349Y015017D03*
X012782Y014817D03*
X013282Y014784D03*
X013408Y014930D03*
X014134Y014997D03*
X014334Y014784D03*
X013282Y017181D03*
X012416Y017228D03*
X012083Y018094D03*
X011863Y018080D03*
X014354Y017428D03*
D29*
X011870Y018094D03*
X011870Y018114D03*
X011870Y018127D03*
X011870Y018313D03*
X013235Y015316D03*
X013555Y015296D03*
X013375Y014784D03*
D30*
X013654Y014930D03*
X014234Y014784D03*
X013468Y015330D03*
X013388Y015296D03*
X013248Y015350D03*
X012256Y014930D03*
X011636Y014950D03*
X013135Y016795D03*
X013288Y017215D03*
X013288Y017228D03*
X013288Y017248D03*
X012515Y017215D03*
X012509Y017128D03*
X012409Y017328D03*
X012409Y017348D03*
X012409Y017361D03*
X012409Y017381D03*
X011623Y017894D03*
X011543Y017761D03*
X011370Y017428D03*
X011576Y018060D03*
X011510Y018114D03*
X011510Y018127D03*
X011709Y018160D03*
X012016Y018347D03*
X012549Y018347D03*
X012555Y018313D03*
X012555Y018293D03*
X012928Y018293D03*
X012935Y018427D03*
X012942Y018447D03*
X013108Y018427D03*
X013115Y018447D03*
X013541Y018180D03*
X014174Y018080D03*
X014174Y018060D03*
D31*
X014367Y017454D03*
X012902Y016708D03*
X012782Y016708D03*
X012722Y016708D03*
X012842Y016588D03*
X012929Y016588D03*
X012982Y016222D03*
X012243Y015976D03*
X011637Y015776D03*
X012123Y015423D03*
X012136Y015390D03*
X012143Y015370D03*
X012156Y015336D03*
X012163Y015323D03*
X012203Y015323D03*
X012216Y015343D03*
X012223Y015356D03*
X012236Y015376D03*
X012243Y015390D03*
X012256Y015410D03*
X012263Y015423D03*
X012316Y015510D03*
X012356Y015376D03*
X012476Y015343D03*
X012476Y015336D03*
X012476Y015323D03*
X012489Y015410D03*
X012489Y015423D03*
X012496Y015443D03*
X012509Y015503D03*
X012762Y015376D03*
X012749Y015343D03*
X012749Y015336D03*
X012749Y015303D03*
X012942Y015336D03*
X012942Y015343D03*
X012942Y015356D03*
X012942Y015370D03*
X012942Y015376D03*
X012942Y015390D03*
X012942Y015403D03*
X012949Y015410D03*
X012949Y015423D03*
X012949Y015443D03*
X012962Y015490D03*
X012969Y015523D03*
X012942Y015270D03*
X013242Y015423D03*
X013282Y015376D03*
X013368Y015343D03*
X013368Y015336D03*
X013468Y015376D03*
X013488Y015410D03*
X013548Y015376D03*
X013568Y015423D03*
X013648Y014990D03*
X013648Y014977D03*
X013648Y014970D03*
X013641Y014943D03*
X013688Y014957D03*
X013701Y014977D03*
X013821Y014957D03*
X013828Y014970D03*
X013941Y014977D03*
X013941Y014990D03*
X013941Y014943D03*
X013941Y014937D03*
X014014Y014923D03*
X014021Y014943D03*
X014034Y014970D03*
X014041Y014977D03*
X014094Y014903D03*
X014134Y014903D03*
X014134Y014970D03*
X014134Y014977D03*
X014154Y015070D03*
X014161Y015090D03*
X014254Y014937D03*
X014327Y014903D03*
X014367Y014877D03*
X014447Y014903D03*
X014447Y014943D03*
X014527Y014957D03*
X014547Y014977D03*
X014554Y015003D03*
X014554Y015010D03*
X014647Y015023D03*
X014687Y014970D03*
X014634Y014943D03*
X014827Y015003D03*
X014827Y015010D03*
X014827Y015023D03*
X013648Y014857D03*
X013408Y014877D03*
X013388Y014804D03*
X013302Y014970D03*
X013308Y014990D03*
X013202Y014990D03*
X013202Y014977D03*
X013202Y014970D03*
X013202Y014957D03*
X013202Y014943D03*
X013202Y014937D03*
X013202Y014923D03*
X013202Y014857D03*
X013102Y014857D03*
X013102Y014923D03*
X013102Y014937D03*
X013102Y014943D03*
X013102Y014957D03*
X013102Y014970D03*
X013102Y014977D03*
X013102Y014990D03*
X012902Y014970D03*
X012889Y014943D03*
X012889Y014937D03*
X012889Y014923D03*
X012702Y014790D03*
X012536Y014957D03*
X012549Y014970D03*
X012556Y014977D03*
X012469Y014977D03*
X012456Y014943D03*
X012456Y014903D03*
X012376Y014923D03*
X012369Y014937D03*
X012369Y014943D03*
X012369Y014957D03*
X012369Y014970D03*
X012283Y014943D03*
X012243Y014943D03*
X012243Y014937D03*
X012243Y014957D03*
X012256Y015023D03*
X012123Y015070D03*
X012116Y015043D03*
X012103Y014990D03*
X012103Y014977D03*
X012096Y014957D03*
X012096Y014943D03*
X011783Y014937D03*
X011783Y014923D03*
X011617Y014970D03*
X011617Y014990D03*
X011537Y015010D03*
X011537Y015023D03*
X011437Y014923D03*
X011324Y014957D03*
X011317Y014943D03*
X011317Y014937D03*
X011317Y014923D03*
X011224Y014923D03*
X011224Y014937D03*
X011224Y014943D03*
X011224Y014957D03*
X011237Y015023D03*
X011237Y015043D03*
X011244Y015103D03*
X011064Y015023D03*
X011064Y015010D03*
X011064Y015003D03*
X013974Y015743D03*
X014081Y015756D03*
D32*
X014010Y015709D03*
X013984Y015736D03*
X013484Y015403D03*
X013464Y015370D03*
X013458Y015323D03*
X013371Y015323D03*
X013371Y015310D03*
X013364Y015356D03*
X013364Y015370D03*
X013364Y015376D03*
X013358Y015390D03*
X013291Y015390D03*
X013238Y015410D03*
X013158Y015376D03*
X013158Y015370D03*
X013151Y015410D03*
X013138Y015323D03*
X013225Y015290D03*
X013231Y015303D03*
X013231Y015123D03*
X013225Y015103D03*
X013225Y015090D03*
X013218Y015070D03*
X013125Y015090D03*
X013125Y015103D03*
X013131Y015123D03*
X013118Y015070D03*
X013005Y015003D03*
X013018Y014970D03*
X013018Y014957D03*
X013098Y014903D03*
X013098Y014877D03*
X013198Y014877D03*
X013198Y014903D03*
X013291Y014903D03*
X013364Y014903D03*
X013411Y014903D03*
X013411Y014937D03*
X013424Y015010D03*
X013311Y015003D03*
X013404Y014857D03*
X013391Y014810D03*
X013378Y014790D03*
X013651Y015003D03*
X013651Y015010D03*
X013711Y014990D03*
X013831Y014977D03*
X013837Y014990D03*
X013851Y015003D03*
X013931Y015003D03*
X013944Y014970D03*
X013944Y014957D03*
X013917Y014903D03*
X014010Y014903D03*
X014017Y014937D03*
X014050Y014990D03*
X014130Y014957D03*
X014137Y014990D03*
X014164Y015103D03*
X014170Y015123D03*
X014284Y014977D03*
X014277Y014970D03*
X014264Y014957D03*
X014257Y014943D03*
X014244Y014903D03*
X014150Y014857D03*
X014210Y014804D03*
X014350Y014804D03*
X014350Y014810D03*
X014357Y014824D03*
X014370Y014957D03*
X014377Y014970D03*
X014383Y014990D03*
X014450Y014957D03*
X014457Y014970D03*
X014470Y014990D03*
X014477Y015003D03*
X014643Y015003D03*
X014643Y015010D03*
X014703Y014990D03*
X014803Y014877D03*
X014836Y015070D03*
X013811Y014903D03*
X013564Y015303D03*
X013058Y015410D03*
X013051Y015403D03*
X013045Y015390D03*
X013025Y015323D03*
X012938Y015323D03*
X012938Y015310D03*
X012938Y015303D03*
X012938Y015290D03*
X012852Y015410D03*
X012785Y015410D03*
X012778Y015403D03*
X012772Y015390D03*
X012758Y015370D03*
X012752Y015356D03*
X012745Y015323D03*
X012745Y015310D03*
X012818Y015110D03*
X012818Y015103D03*
X012798Y015010D03*
X012798Y015003D03*
X012798Y014990D03*
X012798Y014977D03*
X012792Y014970D03*
X012792Y014957D03*
X012792Y014943D03*
X012792Y014937D03*
X012792Y014923D03*
X012792Y014903D03*
X012792Y014877D03*
X012785Y014857D03*
X012785Y014844D03*
X012785Y014837D03*
X012785Y014824D03*
X012778Y014810D03*
X012778Y014804D03*
X012772Y014790D03*
X012885Y014903D03*
X012905Y014977D03*
X012912Y014990D03*
X012925Y015003D03*
X012485Y015003D03*
X012479Y014990D03*
X012465Y014970D03*
X012459Y014957D03*
X012365Y014977D03*
X012299Y014970D03*
X012252Y015003D03*
X012252Y015010D03*
X012259Y015043D03*
X012266Y015070D03*
X012266Y015090D03*
X012266Y015103D03*
X012266Y015110D03*
X012126Y015090D03*
X012099Y014970D03*
X012086Y014903D03*
X012232Y014877D03*
X012379Y014903D03*
X012392Y014877D03*
X011819Y015090D03*
X011793Y014970D03*
X011779Y014903D03*
X011699Y014903D03*
X011613Y014977D03*
X011626Y015003D03*
X011533Y015003D03*
X011533Y014990D03*
X011526Y014957D03*
X011446Y014957D03*
X011446Y014970D03*
X011433Y015003D03*
X011353Y015003D03*
X011340Y014990D03*
X011333Y014977D03*
X011313Y014903D03*
X011220Y014903D03*
X011220Y014877D03*
X011047Y014903D03*
X011040Y014877D03*
X011060Y014990D03*
X011067Y015043D03*
X011073Y015070D03*
X011240Y015070D03*
X011420Y014903D03*
X011520Y014877D03*
X011566Y015123D03*
X012152Y015343D03*
X012139Y015376D03*
X012126Y015410D03*
X012112Y015443D03*
X012106Y015470D03*
X012099Y015490D03*
X012252Y015403D03*
X012232Y015370D03*
X012212Y015336D03*
X012272Y015443D03*
X012292Y015470D03*
X012312Y015503D03*
X012385Y015403D03*
X012372Y015390D03*
X012412Y015423D03*
X012472Y015310D03*
X012472Y015303D03*
X012472Y015290D03*
X012472Y015270D03*
X012965Y015503D03*
X012965Y015510D03*
X011653Y015789D03*
X012838Y016568D03*
X012838Y016708D03*
X012838Y016735D03*
X012718Y016735D03*
X012552Y016808D03*
X012419Y017201D03*
X012419Y017208D03*
X013185Y017175D03*
X013185Y017168D03*
X013185Y017155D03*
X013185Y017135D03*
X013185Y017121D03*
X013278Y017168D03*
X014357Y017434D03*
X014224Y017867D03*
X013737Y018353D03*
X013364Y018453D03*
X013151Y018573D03*
X011873Y018134D03*
X011473Y018233D03*
X011440Y017934D03*
X011353Y017474D03*
D33*
X011870Y018320D03*
X011670Y015809D03*
X011810Y015043D03*
X011790Y014957D03*
X011790Y014943D03*
X011530Y014970D03*
X011530Y014977D03*
X011330Y014970D03*
X013015Y014977D03*
X013015Y014990D03*
X013015Y014943D03*
X013015Y014937D03*
X013115Y015043D03*
X013215Y015043D03*
X013295Y014957D03*
X013295Y014943D03*
X013295Y014937D03*
X013295Y014923D03*
X013415Y014943D03*
X013395Y014824D03*
X013275Y014790D03*
X013655Y015023D03*
X013575Y015310D03*
X013475Y015390D03*
X013275Y015370D03*
X013235Y015370D03*
X013235Y015376D03*
X013235Y015390D03*
X013235Y015403D03*
X013155Y015403D03*
X013155Y015390D03*
X013155Y015356D03*
X013035Y015370D03*
X013035Y015376D03*
X012975Y015543D03*
X014640Y014990D03*
X014640Y014977D03*
X014640Y014970D03*
X014680Y014957D03*
X014640Y014857D03*
X014820Y014957D03*
X014820Y014970D03*
X014820Y014977D03*
X014840Y015090D03*
D34*
X014644Y014903D03*
X014224Y014790D03*
X013651Y014903D03*
X013292Y015676D03*
X013998Y015723D03*
X013791Y016202D03*
X013172Y016156D03*
X014344Y017408D03*
X014124Y017774D03*
X013751Y018034D03*
X013032Y018673D03*
X012559Y018253D03*
X011507Y018107D03*
X011507Y018100D03*
X011447Y017940D03*
X011567Y015110D03*
X011633Y015010D03*
X011627Y014957D03*
X012246Y014903D03*
D35*
X014127Y014937D03*
X014127Y014943D03*
X014340Y014790D03*
X014640Y014877D03*
D36*
X014677Y014950D03*
X014817Y014950D03*
X013778Y014997D03*
X013691Y014963D03*
X013578Y015316D03*
X013272Y015363D03*
X012972Y015550D03*
X012852Y015396D03*
X012559Y014997D03*
X012559Y014983D03*
X012692Y014797D03*
X012286Y014950D03*
X012273Y015130D03*
X012126Y015097D03*
X011074Y015097D03*
X011054Y014950D03*
X013971Y015749D03*
X012932Y016595D03*
X012719Y016595D03*
X012426Y017181D03*
D37*
X012309Y015496D03*
X012402Y015416D03*
X012815Y015117D03*
X012775Y014797D03*
X014287Y014983D03*
D38*
X013421Y014983D03*
X013421Y014997D03*
X013421Y014963D03*
X013401Y014850D03*
X013268Y014797D03*
X013208Y014997D03*
X013208Y015017D03*
X013108Y015017D03*
X013108Y014997D03*
X013008Y014930D03*
X013128Y015117D03*
X013228Y015117D03*
X013361Y015383D03*
X013461Y015363D03*
X013461Y015316D03*
X013361Y015583D03*
X013048Y015396D03*
X013028Y015350D03*
X011796Y014983D03*
X011523Y014950D03*
X011523Y014930D03*
X011443Y014950D03*
X011443Y014983D03*
X011756Y015863D03*
X013188Y017148D03*
D39*
X013185Y017161D03*
X013185Y017128D03*
X012419Y017215D03*
X011460Y017714D03*
X011240Y017980D03*
X012925Y018280D03*
X013551Y018127D03*
X014363Y017448D03*
X012965Y015516D03*
X013065Y015416D03*
X013031Y015363D03*
X013025Y015330D03*
X013025Y015316D03*
X013031Y015296D03*
X012938Y015296D03*
X012938Y015316D03*
X012845Y015296D03*
X012752Y015296D03*
X012745Y015316D03*
X012752Y015350D03*
X012765Y015383D03*
X012772Y015396D03*
X012792Y015416D03*
X012472Y015296D03*
X012379Y015396D03*
X012259Y015416D03*
X012146Y015363D03*
X012159Y015330D03*
X012132Y015396D03*
X012099Y015496D03*
X012266Y015097D03*
X012472Y014983D03*
X012525Y014950D03*
X012792Y014950D03*
X012792Y014963D03*
X012798Y014983D03*
X012798Y014997D03*
X012798Y015017D03*
X012792Y014930D03*
X012785Y014850D03*
X012785Y014830D03*
X012892Y014950D03*
X012918Y014997D03*
X013011Y014997D03*
X013018Y014963D03*
X013125Y015097D03*
X013225Y015097D03*
X013311Y014997D03*
X013418Y014950D03*
X013398Y014830D03*
X013391Y014817D03*
X013384Y014797D03*
X013651Y014997D03*
X013651Y015017D03*
X013704Y014983D03*
X013717Y014997D03*
X013817Y014950D03*
X013844Y014997D03*
X013937Y014997D03*
X013944Y014963D03*
X014024Y014950D03*
X014030Y014963D03*
X014044Y014983D03*
X014057Y014997D03*
X014137Y014983D03*
X014130Y014950D03*
X014250Y014930D03*
X014270Y014963D03*
X014370Y014950D03*
X014377Y014963D03*
X014383Y014983D03*
X014383Y014997D03*
X014463Y014983D03*
X014517Y014950D03*
X014643Y014997D03*
X014643Y015017D03*
X014696Y014983D03*
X014710Y014997D03*
X014843Y015097D03*
X014357Y014830D03*
X014343Y014797D03*
X014217Y014797D03*
X014164Y015097D03*
X013531Y015363D03*
X013478Y015396D03*
X013471Y015383D03*
X013491Y015416D03*
X013464Y015296D03*
X013371Y015316D03*
X013364Y015350D03*
X013364Y015363D03*
X013358Y015396D03*
X013298Y015396D03*
X013285Y015383D03*
X013238Y015416D03*
X013158Y015383D03*
X013145Y015416D03*
X013145Y015330D03*
X013131Y015316D03*
X013225Y015296D03*
X011620Y014997D03*
X011613Y014983D03*
X011620Y014963D03*
X011533Y014997D03*
X011540Y015017D03*
X011566Y015097D03*
X011566Y015117D03*
X011440Y014997D03*
X011446Y014963D03*
X011346Y014997D03*
X011320Y014950D03*
X011227Y014963D03*
X011233Y015017D03*
X011060Y014997D03*
D40*
X011623Y015769D03*
X012349Y015343D03*
X012815Y015090D03*
X013268Y014804D03*
X013581Y015323D03*
X013967Y015756D03*
X012715Y016602D03*
X012835Y016688D03*
X012962Y016708D03*
X012722Y016755D03*
X012542Y016822D03*
X012429Y017168D03*
X011463Y017707D03*
X011343Y017501D03*
X012928Y018273D03*
X014373Y017474D03*
D41*
X013228Y015270D03*
X013268Y014810D03*
X011816Y015103D03*
X014773Y014990D03*
D42*
X014817Y014943D03*
X014637Y014957D03*
X014564Y014903D03*
X014204Y014810D03*
X014151Y015043D03*
X014171Y015137D03*
X013678Y014943D03*
X013232Y015137D03*
X013132Y015137D03*
X013232Y015356D03*
X012852Y015390D03*
X012486Y015403D03*
X012559Y014990D03*
X012233Y014857D03*
X011607Y014844D03*
X011214Y014857D03*
X012206Y015856D03*
X011873Y016269D03*
X012719Y016588D03*
X012779Y016568D03*
X012932Y016568D03*
X012899Y016735D03*
X012779Y016735D03*
X013152Y016808D03*
X013272Y017155D03*
X012426Y017175D03*
X013971Y018207D03*
X014011Y015703D03*
D43*
X012869Y015316D03*
X012556Y015350D03*
X013648Y014850D03*
X014201Y014817D03*
X012536Y016828D03*
X011337Y017528D03*
D44*
X012549Y016815D03*
X012476Y016116D03*
X012349Y015716D03*
X012969Y015530D03*
X012962Y015496D03*
X012949Y015416D03*
X012942Y015396D03*
X012942Y015383D03*
X012942Y015363D03*
X012942Y015350D03*
X012942Y015330D03*
X013042Y015383D03*
X012849Y015416D03*
X012749Y015330D03*
X012822Y015130D03*
X012909Y014983D03*
X012889Y014930D03*
X013102Y014930D03*
X013102Y014950D03*
X013102Y014963D03*
X013102Y014983D03*
X013202Y014983D03*
X013202Y014963D03*
X013202Y014950D03*
X013202Y014930D03*
X013302Y014963D03*
X013428Y015017D03*
X013648Y014983D03*
X013648Y014963D03*
X013641Y014950D03*
X013821Y014963D03*
X013941Y014950D03*
X013941Y014983D03*
X014014Y014930D03*
X014134Y014963D03*
X014261Y014950D03*
X014354Y014817D03*
X014447Y014950D03*
X014454Y014963D03*
X014474Y014997D03*
X014534Y014963D03*
X014634Y014950D03*
X014827Y014997D03*
X014827Y015017D03*
X013568Y015416D03*
X013368Y015330D03*
X012489Y015416D03*
X012476Y015350D03*
X012476Y015330D03*
X012476Y015316D03*
X012243Y015383D03*
X012223Y015350D03*
X012136Y015383D03*
X012123Y015416D03*
X012256Y015017D03*
X012243Y014963D03*
X012243Y014950D03*
X012296Y014963D03*
X012369Y014963D03*
X012369Y014950D03*
X012376Y014930D03*
X012456Y014950D03*
X012103Y014983D03*
X012096Y014963D03*
X012096Y014950D03*
X011783Y014930D03*
X011437Y014930D03*
X011337Y014983D03*
X011324Y014963D03*
X011317Y014930D03*
X011224Y014930D03*
X011224Y014950D03*
X011064Y015017D03*
X011643Y015783D03*
D45*
X011563Y015090D03*
X011523Y014943D03*
X011523Y014937D03*
X011523Y014923D03*
X011523Y014903D03*
X011443Y014937D03*
X011443Y014943D03*
X011443Y014977D03*
X011443Y014990D03*
X011796Y014990D03*
X011796Y014977D03*
X011816Y015070D03*
X013008Y014923D03*
X013108Y015003D03*
X013108Y015010D03*
X013108Y015023D03*
X013128Y015110D03*
X013228Y015110D03*
X013208Y015023D03*
X013208Y015010D03*
X013208Y015003D03*
X013421Y015003D03*
X013421Y014990D03*
X013421Y014977D03*
X013421Y014970D03*
X013421Y014957D03*
X013401Y014844D03*
X013401Y014837D03*
X013461Y015303D03*
X013461Y015310D03*
X013461Y015356D03*
X013541Y015370D03*
X013561Y015390D03*
X013268Y015356D03*
X013148Y015343D03*
X013148Y015336D03*
X013028Y015336D03*
X013028Y015343D03*
X013028Y015356D03*
X013028Y015310D03*
X013028Y015303D03*
X014693Y014977D03*
X014833Y015043D03*
X013188Y017141D03*
D46*
X012895Y016688D03*
X012775Y016602D03*
X012775Y016588D03*
X012422Y017188D03*
X014127Y017767D03*
X014360Y017441D03*
X012955Y015470D03*
X012855Y015403D03*
X012855Y015303D03*
X012482Y015390D03*
X012149Y015356D03*
X012129Y015403D03*
X012269Y015123D03*
X012249Y014990D03*
X012249Y014977D03*
X012249Y014970D03*
X012289Y014957D03*
X012089Y014937D03*
X012089Y014923D03*
X012562Y015003D03*
X012562Y015010D03*
X012895Y014957D03*
X013694Y014970D03*
X013814Y014943D03*
X013814Y014937D03*
X013814Y014923D03*
X013934Y014923D03*
X014027Y014957D03*
X014147Y015023D03*
X014167Y015110D03*
X014247Y014923D03*
X014360Y014857D03*
X014360Y014844D03*
X014360Y014837D03*
X014380Y014977D03*
X014460Y014977D03*
X014540Y014970D03*
X011230Y015003D03*
X011230Y015010D03*
X011070Y015090D03*
X011050Y014943D03*
X011050Y014937D03*
X011050Y014923D03*
D47*
X011806Y014844D03*
D48*
X012176Y014903D03*
X012123Y015103D03*
X012349Y015023D03*
X012822Y015137D03*
X013102Y014844D03*
X013202Y014844D03*
X013781Y014990D03*
X014174Y015143D03*
X014574Y014923D03*
X014807Y014903D03*
X014827Y014937D03*
X014847Y015110D03*
X013588Y015336D03*
X013242Y015443D03*
X012509Y015510D03*
X012096Y015510D03*
X011244Y015110D03*
X011337Y017521D03*
D49*
X012839Y016595D03*
X011567Y015130D03*
X011214Y014850D03*
X012233Y014850D03*
X013851Y014850D03*
X014031Y014850D03*
X014151Y014850D03*
X014484Y014850D03*
D50*
X011353Y014850D03*
D51*
X011523Y014850D03*
X013168Y016149D03*
D52*
X011620Y014850D03*
X011347Y017927D03*
X011287Y018060D03*
X011327Y018114D03*
X011973Y018080D03*
D53*
X011493Y018060D03*
X013238Y015330D03*
X011806Y014850D03*
D54*
X012113Y014850D03*
X013112Y015296D03*
X014011Y015716D03*
X014124Y014930D03*
X014364Y014930D03*
X012559Y016795D03*
X011507Y018094D03*
X012126Y018480D03*
X012559Y018260D03*
D55*
X013964Y015763D03*
X012925Y014850D03*
X012492Y014850D03*
D56*
X013098Y014850D03*
X013198Y014850D03*
X014683Y014963D03*
D57*
X014360Y014850D03*
X014167Y015117D03*
X014167Y015130D03*
X013934Y014930D03*
X013834Y014983D03*
X013814Y014930D03*
X012895Y014963D03*
X012815Y015097D03*
X012755Y015363D03*
X012482Y015396D03*
X012502Y015496D03*
X012362Y015383D03*
X012249Y015396D03*
X012229Y015363D03*
X012209Y015330D03*
X012149Y015350D03*
X012269Y015117D03*
X012249Y014997D03*
X012249Y014983D03*
X012089Y014930D03*
X012462Y014963D03*
X012482Y014997D03*
X012542Y014963D03*
X011050Y014930D03*
X012775Y016595D03*
X012422Y017195D03*
D58*
X012875Y017814D03*
X012855Y015383D03*
X014640Y014850D03*
D59*
X014550Y014990D03*
X014370Y014903D03*
X013644Y014957D03*
X012865Y015310D03*
X012572Y014903D03*
X012279Y014937D03*
X012099Y015503D03*
X011040Y014857D03*
X013944Y015922D03*
X012725Y016568D03*
X012965Y016735D03*
X011240Y017974D03*
X011979Y018054D03*
X012079Y018087D03*
D60*
X011976Y018067D03*
X011929Y018134D03*
X011716Y018140D03*
X011689Y018233D03*
X011510Y018134D03*
X011510Y018120D03*
X011450Y017954D03*
X011363Y017441D03*
X011363Y017434D03*
X012409Y017374D03*
X012409Y017368D03*
X012409Y017354D03*
X012409Y017341D03*
X012409Y017334D03*
X012409Y017321D03*
X012409Y017301D03*
X012509Y017135D03*
X012509Y017121D03*
X012562Y016788D03*
X013181Y017101D03*
X013288Y017221D03*
X013288Y017234D03*
X013288Y017241D03*
X013288Y017254D03*
X014340Y017401D03*
X014134Y017821D03*
X014174Y018067D03*
X014174Y018074D03*
X014174Y018087D03*
X014400Y018034D03*
X013921Y018400D03*
X013554Y018233D03*
X013541Y018187D03*
X013541Y018174D03*
X013541Y018167D03*
X013548Y018134D03*
X013108Y018420D03*
X013115Y018433D03*
X013115Y018440D03*
X013121Y018467D03*
X012942Y018453D03*
X012935Y018420D03*
X012928Y018373D03*
X012928Y018300D03*
X012555Y018300D03*
X012555Y018307D03*
X012555Y018287D03*
X012555Y018267D03*
X012549Y018353D03*
X012549Y018373D03*
X012016Y018340D03*
X013361Y018467D03*
X012642Y016022D03*
X012828Y015443D03*
X013108Y015443D03*
X013241Y015336D03*
X013068Y015270D03*
X012342Y015010D03*
X012182Y015303D03*
X011676Y014923D03*
X011356Y014857D03*
X012928Y014857D03*
X013654Y014923D03*
X013754Y015023D03*
X013854Y014857D03*
X014120Y014923D03*
X014360Y014923D03*
X014746Y015023D03*
D61*
X014670Y014943D03*
X013565Y015403D03*
X013565Y015410D03*
X013425Y015023D03*
X011520Y014857D03*
X011580Y016022D03*
D62*
X013475Y015336D03*
X011810Y014857D03*
X011410Y017821D03*
X011290Y018067D03*
X011510Y018154D03*
X011950Y018107D03*
X012955Y018500D03*
X012955Y018507D03*
X013135Y018507D03*
X013135Y018500D03*
X013395Y018340D03*
D63*
X013368Y018300D03*
X013621Y018353D03*
X013748Y018340D03*
X013701Y018140D03*
X013701Y018134D03*
X014074Y017987D03*
X014234Y017887D03*
X014327Y017374D03*
X014321Y017368D03*
X012909Y017121D03*
X012789Y017121D03*
X012516Y017254D03*
X012416Y017408D03*
X011457Y017734D03*
X011377Y017408D03*
X011304Y018087D03*
X011703Y018187D03*
X011976Y018074D03*
X012183Y018187D03*
X012016Y018320D03*
X012123Y018473D03*
X012829Y018573D03*
X012962Y018533D03*
X012962Y018520D03*
X012969Y018573D03*
X013142Y018520D03*
X013102Y018307D03*
X013102Y018300D03*
X012569Y016775D03*
X012569Y016768D03*
X012469Y016109D03*
X012789Y015270D03*
X012343Y015003D03*
X012469Y014923D03*
X012116Y014857D03*
D64*
X012253Y014923D03*
X012499Y014857D03*
X013538Y015443D03*
X013658Y014937D03*
X012486Y015470D03*
X013132Y016788D03*
X013898Y017967D03*
X013898Y017974D03*
X013898Y017987D03*
X013691Y018107D03*
X013358Y018267D03*
X013358Y018273D03*
X013358Y018473D03*
X013192Y018433D03*
X012952Y018487D03*
X012939Y018440D03*
X012939Y018433D03*
X012932Y018400D03*
X012546Y018467D03*
X012546Y018473D03*
X012546Y018487D03*
X012546Y018500D03*
X012546Y018507D03*
X012546Y018520D03*
X012546Y018533D03*
X012546Y018540D03*
X012559Y018273D03*
X012026Y018373D03*
X012013Y018333D03*
X011873Y018267D03*
X011873Y018253D03*
X011713Y018154D03*
X011733Y018087D03*
X011467Y017987D03*
X011547Y017767D03*
X014171Y018054D03*
D65*
X013904Y018007D03*
X013904Y017954D03*
X013624Y018400D03*
X012945Y018467D03*
X012945Y018473D03*
X012925Y018353D03*
X012925Y018340D03*
X012925Y018333D03*
X012925Y018320D03*
X012925Y018307D03*
X012552Y018320D03*
X012552Y018333D03*
X012552Y018340D03*
X012552Y018400D03*
X012199Y018233D03*
X012199Y018207D03*
X012019Y018353D03*
X012412Y017401D03*
X012412Y017388D03*
X012512Y017241D03*
X012512Y017234D03*
X012512Y017221D03*
X014330Y017388D03*
X012179Y015310D03*
X014157Y014877D03*
X014490Y014857D03*
X014650Y014937D03*
D66*
X014450Y014884D03*
X014317Y014897D03*
X014244Y014897D03*
X014010Y014897D03*
X013931Y014917D03*
X013817Y014884D03*
X013811Y014917D03*
X013411Y014897D03*
X013291Y014917D03*
X013198Y014897D03*
X013198Y014884D03*
X013098Y014884D03*
X013098Y014897D03*
X013005Y014917D03*
X012892Y014884D03*
X012885Y014917D03*
X012792Y014917D03*
X012792Y014897D03*
X012792Y014884D03*
X012785Y014864D03*
X012459Y014884D03*
X012379Y014897D03*
X012259Y015030D03*
X012259Y015050D03*
X012266Y015063D03*
X012266Y015083D03*
X012119Y015063D03*
X012112Y015030D03*
X012086Y014897D03*
X011779Y014897D03*
X011699Y014897D03*
X011806Y015030D03*
X011813Y015063D03*
X011520Y014897D03*
X011520Y014884D03*
X011433Y014917D03*
X011320Y014884D03*
X011313Y014917D03*
X011220Y014897D03*
X011220Y014884D03*
X011213Y014864D03*
X011047Y014897D03*
X011040Y014864D03*
X011067Y015050D03*
X011073Y015083D03*
X011240Y015083D03*
X011240Y015063D03*
X012119Y015430D03*
X012112Y015450D03*
X012106Y015463D03*
X012099Y015483D03*
X012266Y015430D03*
X012279Y015450D03*
X012286Y015463D03*
X012299Y015483D03*
X012419Y015430D03*
X012472Y015263D03*
X012179Y015283D03*
X012958Y015483D03*
X013118Y015063D03*
X013218Y015063D03*
X014836Y015063D03*
X012932Y016582D03*
X012838Y016582D03*
X012838Y016562D03*
X012898Y016695D03*
X012838Y016715D03*
X012838Y016728D03*
X012718Y016728D03*
X012718Y016715D03*
X014137Y017827D03*
X012559Y018247D03*
D67*
X012536Y018593D03*
X013741Y018194D03*
X013761Y018214D03*
X013182Y017281D03*
X012929Y017095D03*
X013102Y016695D03*
X012576Y016715D03*
X012576Y016728D03*
X012822Y015430D03*
X012929Y014864D03*
X012116Y014864D03*
X011357Y014864D03*
X014274Y014884D03*
D68*
X014833Y015030D03*
X014833Y015050D03*
X013228Y015283D03*
X013208Y015030D03*
X013108Y015030D03*
X011876Y015030D03*
X011816Y015083D03*
X011856Y014884D03*
X011523Y014864D03*
X011523Y014917D03*
X011676Y015816D03*
X011696Y018247D03*
D69*
X011280Y018014D03*
X011433Y017314D03*
X012852Y017261D03*
X013058Y016549D03*
X013791Y016182D03*
X013564Y015849D03*
X011566Y015849D03*
X011560Y015996D03*
X011633Y014864D03*
X014257Y017261D03*
X014270Y017281D03*
X014383Y017994D03*
D70*
X013415Y018360D03*
X013115Y016748D03*
X011810Y014864D03*
D71*
X012089Y014884D03*
X012089Y014917D03*
X012229Y014864D03*
X012955Y015450D03*
X012955Y015463D03*
X013814Y014897D03*
X014087Y014897D03*
X014147Y015030D03*
X014247Y014917D03*
X014560Y014897D03*
X012775Y016582D03*
X012835Y016695D03*
X011070Y015063D03*
X011050Y014917D03*
D72*
X011537Y015030D03*
X012396Y014864D03*
X012722Y016695D03*
D73*
X012579Y016695D03*
X012506Y017095D03*
X014397Y018014D03*
X013951Y018227D03*
X013791Y018247D03*
X013771Y018227D03*
X013438Y018380D03*
X012639Y016016D03*
X012499Y014864D03*
X014044Y014884D03*
D74*
X014014Y014917D03*
X014134Y014897D03*
X014154Y015050D03*
X014154Y015063D03*
X014161Y015083D03*
X014367Y014897D03*
X014367Y014884D03*
X014367Y014864D03*
X014447Y014897D03*
X013648Y014864D03*
X013408Y014864D03*
X013408Y014884D03*
X013202Y014864D03*
X013202Y014917D03*
X013102Y014917D03*
X013102Y014864D03*
X012889Y014897D03*
X012802Y015030D03*
X012569Y014897D03*
X012456Y014897D03*
X012376Y014917D03*
X012163Y014884D03*
X012183Y015030D03*
X012116Y015050D03*
X012123Y015083D03*
X011783Y014917D03*
X011783Y014884D03*
X011317Y014897D03*
X011224Y014917D03*
X011237Y015030D03*
X011237Y015050D03*
X011064Y015030D03*
X011044Y014884D03*
X012496Y015450D03*
X012949Y015430D03*
X012942Y015283D03*
X013122Y015083D03*
X013222Y015083D03*
X012722Y016582D03*
X012782Y016695D03*
X012782Y016715D03*
X012782Y016728D03*
X012902Y016728D03*
X012902Y016715D03*
D75*
X014377Y017481D03*
X013738Y018360D03*
X013498Y015263D03*
X013318Y015030D03*
X013312Y014864D03*
X014264Y014864D03*
X011693Y015050D03*
D76*
X013854Y014864D03*
X012522Y017281D03*
X013914Y018380D03*
D77*
X012039Y018393D03*
X012019Y018360D03*
X012532Y015030D03*
X014037Y014864D03*
D78*
X014157Y014864D03*
X012492Y015483D03*
X012412Y017261D03*
X012412Y017281D03*
D79*
X012432Y017461D03*
X012765Y017095D03*
X014490Y014864D03*
D80*
X014640Y014864D03*
X014840Y015083D03*
X013215Y015050D03*
X013115Y015050D03*
X011810Y015050D03*
X011350Y017481D03*
D81*
X011690Y015829D03*
X014800Y014864D03*
D82*
X014810Y014890D03*
X014643Y014870D03*
X014550Y014890D03*
X014443Y014910D03*
X014077Y014890D03*
X014010Y014890D03*
X013924Y014910D03*
X013811Y014910D03*
X013651Y014870D03*
X013291Y014910D03*
X013198Y014910D03*
X013198Y014890D03*
X013098Y014890D03*
X013098Y014910D03*
X012998Y014910D03*
X012885Y014910D03*
X012792Y014910D03*
X012792Y014890D03*
X012559Y014890D03*
X012452Y014910D03*
X012385Y014890D03*
X012379Y014910D03*
X012239Y014890D03*
X012232Y014870D03*
X012086Y014890D03*
X012259Y015037D03*
X012259Y015057D03*
X012266Y015077D03*
X012272Y015436D03*
X012286Y015456D03*
X012958Y015476D03*
X011779Y014890D03*
X011693Y014890D03*
X011693Y014910D03*
X011520Y014890D03*
X011426Y014910D03*
X011313Y014910D03*
X011220Y014890D03*
X011240Y015057D03*
X011240Y015077D03*
X011073Y015077D03*
X011067Y015037D03*
X011047Y014910D03*
X011040Y014870D03*
X011666Y015803D03*
X012838Y016575D03*
X012932Y016575D03*
X012838Y016702D03*
X012838Y016722D03*
X012718Y016722D03*
X012718Y016742D03*
X011353Y017468D03*
X014836Y015077D03*
X014836Y015057D03*
D83*
X013908Y014890D03*
X013648Y014890D03*
X012982Y014890D03*
X012429Y015436D03*
X012296Y015476D03*
X012103Y015476D03*
X011217Y014870D03*
D84*
X011357Y014870D03*
D85*
X011523Y014870D03*
X011523Y014910D03*
X011816Y015077D03*
X014833Y015037D03*
D86*
X011640Y014870D03*
D87*
X011813Y014870D03*
X012792Y015276D03*
X012579Y016702D03*
X012526Y017288D03*
X013278Y017288D03*
D88*
X012432Y017468D03*
X013784Y018240D03*
X012119Y014870D03*
D89*
X012116Y015037D03*
X012116Y015057D03*
X012123Y015077D03*
X012176Y015276D03*
X012116Y015436D03*
X011783Y014910D03*
X011317Y014890D03*
X011224Y014910D03*
X011237Y015037D03*
X011044Y014890D03*
X012396Y014870D03*
X012456Y014890D03*
X012789Y014870D03*
X012889Y014890D03*
X013102Y014870D03*
X013202Y014870D03*
X013408Y014870D03*
X013408Y014890D03*
X013222Y015077D03*
X013122Y015077D03*
X012942Y015276D03*
X012949Y015436D03*
X014014Y014910D03*
X014134Y014890D03*
X014154Y015057D03*
X014161Y015077D03*
X014367Y014890D03*
X014367Y014870D03*
X014447Y014890D03*
X012722Y016575D03*
X012782Y016702D03*
X012782Y016722D03*
X012902Y016722D03*
X012902Y016702D03*
X013921Y018407D03*
D90*
X012446Y017508D03*
X012539Y017308D03*
X011467Y018220D03*
X013791Y016189D03*
X012093Y015843D03*
X011567Y015843D03*
X012499Y014870D03*
D91*
X012928Y014870D03*
X013854Y014870D03*
X014280Y014890D03*
X013568Y015803D03*
X012282Y015623D03*
X012442Y017488D03*
X013754Y018040D03*
X013907Y018367D03*
X013448Y018387D03*
X012529Y018606D03*
X014287Y017308D03*
D92*
X013315Y014870D03*
X011410Y014890D03*
D93*
X012472Y015456D03*
X014037Y014870D03*
X012918Y017108D03*
X012778Y017108D03*
X012519Y017268D03*
X011380Y017874D03*
X011480Y018000D03*
X012052Y018407D03*
X012539Y018586D03*
X013631Y018387D03*
X013917Y018387D03*
X014157Y018040D03*
X014017Y017874D03*
D94*
X013957Y018220D03*
X012019Y018367D03*
X014117Y014910D03*
X014157Y014870D03*
X014350Y014910D03*
D95*
X014264Y014870D03*
X014524Y015037D03*
X014644Y014910D03*
X013651Y014910D03*
X012246Y014910D03*
X011693Y018240D03*
X013558Y018240D03*
D96*
X012099Y015823D03*
X014490Y014870D03*
D97*
X014803Y014870D03*
X013238Y015436D03*
D98*
X012969Y015010D03*
X013861Y014877D03*
X014101Y015003D03*
X014081Y015776D03*
X014074Y015942D03*
X013708Y016042D03*
X013668Y015976D03*
X013568Y015836D03*
X013548Y015736D03*
X012616Y016568D03*
X012369Y016455D03*
X012349Y016469D03*
X012343Y016475D03*
X012496Y017088D03*
X012742Y017075D03*
X012849Y017201D03*
X012942Y017075D03*
X012476Y017567D03*
X013948Y017920D03*
X014307Y017940D03*
X014327Y017954D03*
X013941Y018233D03*
X012809Y018653D03*
X012742Y018500D03*
X012096Y015889D03*
X012096Y015876D03*
X012103Y015809D03*
X012116Y015776D03*
X011397Y015010D03*
X011364Y014877D03*
D99*
X011650Y014877D03*
X012935Y014877D03*
X013075Y015290D03*
X011990Y016022D03*
X011430Y017321D03*
X013135Y018400D03*
X013035Y018720D03*
D100*
X013035Y018733D03*
X013035Y018700D03*
X012728Y018706D03*
X012775Y018520D03*
X012529Y018620D03*
X013121Y018373D03*
X013874Y018333D03*
X013881Y018340D03*
X013894Y018353D03*
X012435Y017474D03*
X011416Y017341D03*
X011283Y018034D03*
X011903Y018140D03*
X012589Y016608D03*
X013081Y016588D03*
X013088Y016602D03*
X013088Y016608D03*
X011976Y016042D03*
X011916Y016142D03*
X013328Y015403D03*
X013561Y015769D03*
X013561Y015776D03*
X013568Y015809D03*
X014080Y015769D03*
X014100Y015922D03*
X012122Y014877D03*
X011816Y014877D03*
D101*
X012505Y014877D03*
X013511Y015290D03*
X013531Y015709D03*
X013724Y016069D03*
X013311Y016435D03*
X013291Y016422D03*
X013271Y016409D03*
X012945Y017068D03*
X012852Y017188D03*
X012852Y017254D03*
X012545Y017321D03*
X012492Y017587D03*
X011440Y017301D03*
X012385Y016442D03*
X012399Y016435D03*
X012006Y016002D03*
X012119Y015769D03*
X011566Y016002D03*
X014497Y014877D03*
X014357Y017974D03*
X014377Y017987D03*
X013544Y018273D03*
X012718Y018487D03*
X012099Y018440D03*
X012092Y018433D03*
D102*
X012116Y018467D03*
X012163Y018167D03*
X011963Y018100D03*
X011557Y017787D03*
X011397Y017368D03*
X012429Y017454D03*
X012769Y017101D03*
X012922Y017101D03*
X013182Y017274D03*
X013122Y016768D03*
X013102Y016688D03*
X013102Y016675D03*
X013102Y016668D03*
X012576Y016735D03*
X011943Y016089D03*
X012336Y015709D03*
X012529Y015023D03*
X012336Y014990D03*
X011397Y015023D03*
X013748Y015003D03*
X014041Y014877D03*
X014314Y017354D03*
X014261Y017907D03*
X013921Y017934D03*
X013701Y018087D03*
X013408Y018353D03*
X012802Y018540D03*
X012829Y018640D03*
D103*
X012835Y018620D03*
X012835Y018600D03*
X012542Y018573D03*
X012542Y018553D03*
X012089Y018100D03*
X013694Y018100D03*
X013694Y018120D03*
X013914Y017940D03*
X014460Y014923D03*
X014267Y014877D03*
D104*
X011400Y014884D03*
X013185Y017115D03*
D105*
X013551Y018227D03*
X011686Y014917D03*
X011686Y014884D03*
D106*
X011417Y014897D03*
X012236Y014884D03*
X012243Y014897D03*
X012389Y014884D03*
X012549Y014884D03*
X012469Y015283D03*
X012449Y015450D03*
X012829Y015450D03*
X013388Y015283D03*
X013648Y014897D03*
X013648Y014884D03*
X014747Y015030D03*
X014807Y014884D03*
X011357Y017461D03*
D107*
X011853Y018047D03*
X013172Y018413D03*
X013964Y018214D03*
X013538Y015450D03*
X013651Y014917D03*
X013898Y014884D03*
X014644Y014917D03*
X012972Y014884D03*
D108*
X013318Y014884D03*
X013791Y016196D03*
X012572Y016748D03*
X012785Y017115D03*
X012519Y017261D03*
X011593Y017827D03*
X011406Y017827D03*
X011386Y017861D03*
X011693Y018214D03*
X012059Y018413D03*
X012818Y018560D03*
X013624Y018360D03*
X013631Y018380D03*
D109*
X013628Y018393D03*
X012969Y018560D03*
X012829Y018580D03*
X011883Y018214D03*
X011377Y017881D03*
X011397Y017847D03*
X013182Y017261D03*
X013182Y017095D03*
X012476Y015463D03*
X014161Y014884D03*
D110*
X013914Y014897D03*
X013754Y015030D03*
X014540Y014884D03*
X014640Y014884D03*
X014640Y014897D03*
D111*
X013225Y015276D03*
X011860Y014890D03*
D112*
X012166Y014890D03*
X012779Y016575D03*
X012779Y016742D03*
X012839Y016742D03*
X012899Y016742D03*
X011347Y017488D03*
D113*
X011280Y018040D03*
X011620Y018000D03*
X013505Y015276D03*
X013325Y014890D03*
D114*
X013814Y014890D03*
X014147Y015037D03*
X014247Y014910D03*
X012955Y015456D03*
X012109Y015456D03*
X011070Y015057D03*
X012089Y014910D03*
X012835Y016555D03*
D115*
X014380Y017488D03*
X014187Y014890D03*
D116*
X014640Y014890D03*
X014227Y017874D03*
X014400Y018040D03*
D117*
X013238Y015430D03*
X011866Y014897D03*
D118*
X012173Y014897D03*
X012939Y015263D03*
X013658Y015030D03*
X012839Y016549D03*
X012719Y016748D03*
X011347Y017494D03*
X014224Y017861D03*
D119*
X012988Y014897D03*
D120*
X013328Y014897D03*
X013068Y015283D03*
X013108Y015430D03*
X013568Y015796D03*
X011576Y016016D03*
X012529Y017294D03*
X012435Y017481D03*
X012442Y017494D03*
X012449Y017514D03*
X011803Y017994D03*
X012529Y018613D03*
X013454Y018393D03*
D121*
X013425Y015030D03*
X014810Y014897D03*
D122*
X013235Y015143D03*
X013135Y015143D03*
X011870Y014903D03*
D123*
X012992Y014903D03*
X013305Y014977D03*
X012972Y015536D03*
D124*
X012968Y015037D03*
X012802Y015037D03*
X012575Y014910D03*
X011396Y015037D03*
X011576Y015823D03*
X011683Y015823D03*
X012722Y016702D03*
X012962Y016702D03*
X014373Y017468D03*
X013914Y015803D03*
X013894Y015037D03*
X014367Y015037D03*
X014567Y014910D03*
D125*
X013395Y014910D03*
X011390Y017854D03*
X011690Y018220D03*
X011890Y018200D03*
X013395Y018200D03*
D126*
X013541Y018194D03*
X013548Y018214D03*
X013561Y018247D03*
X013108Y018413D03*
X012935Y018413D03*
X012928Y018380D03*
X012928Y018360D03*
X012968Y018580D03*
X012549Y018393D03*
X012549Y018380D03*
X012549Y018360D03*
X012202Y018227D03*
X012202Y018214D03*
X012409Y017314D03*
X012409Y017294D03*
X012509Y017115D03*
X012848Y016928D03*
X013288Y017261D03*
X013421Y015829D03*
X012968Y015030D03*
X013401Y014917D03*
X013894Y015030D03*
X014120Y014917D03*
X014360Y015030D03*
X014453Y014917D03*
X012462Y014917D03*
X012249Y014917D03*
X011396Y015030D03*
D127*
X012582Y014917D03*
X012782Y015263D03*
X013108Y015450D03*
X014573Y014917D03*
X012928Y016562D03*
X012962Y016695D03*
X012842Y016748D03*
X012775Y016562D03*
D128*
X011607Y017847D03*
X011753Y018047D03*
X011693Y018227D03*
X011873Y018247D03*
X012193Y018194D03*
X012932Y018393D03*
X013152Y018560D03*
X013918Y018393D03*
X013898Y017994D03*
X014231Y017881D03*
X014524Y015030D03*
X014357Y014917D03*
D129*
X012975Y015556D03*
X012322Y015523D03*
X012269Y015137D03*
X012582Y014923D03*
X011070Y015103D03*
X012955Y016755D03*
D130*
X013185Y017201D03*
X013185Y017208D03*
X013185Y017221D03*
X013285Y017208D03*
X013285Y017201D03*
X013285Y017188D03*
X013545Y018207D03*
X011860Y018067D03*
X011860Y018054D03*
X011500Y018074D03*
X011500Y018087D03*
X011460Y017721D03*
X013245Y015343D03*
X013405Y014923D03*
D131*
X014647Y014923D03*
X011630Y017920D03*
D132*
X011633Y017927D03*
X011633Y017947D03*
X011633Y017960D03*
X011746Y018060D03*
X011726Y018114D03*
X011513Y018147D03*
X011453Y017960D03*
X011946Y018114D03*
X011866Y018280D03*
X011866Y018293D03*
X012958Y018513D03*
X013118Y018460D03*
X013098Y018293D03*
X013098Y018280D03*
X011373Y017414D03*
X011666Y014930D03*
D133*
X012339Y014997D03*
X012479Y014930D03*
X013331Y015416D03*
X014470Y014930D03*
X013118Y016762D03*
X012572Y016762D03*
X012905Y017128D03*
X012419Y017428D03*
X011806Y017980D03*
X011893Y018180D03*
X012179Y018180D03*
X011506Y018160D03*
X011360Y018147D03*
X011340Y018127D03*
X011340Y017947D03*
X011366Y017894D03*
X011426Y017794D03*
X011446Y017761D03*
X011453Y017747D03*
X011553Y017781D03*
X011386Y017381D03*
X013105Y018327D03*
X013111Y018347D03*
X013218Y018460D03*
X013138Y018513D03*
X012965Y018547D03*
X012832Y018626D03*
X013384Y018327D03*
X013398Y018347D03*
X013564Y018460D03*
X013598Y018327D03*
X013731Y018180D03*
X014317Y017361D03*
X014310Y017348D03*
D134*
X013275Y017161D03*
X013095Y018260D03*
X013155Y015396D03*
X013155Y015363D03*
X013155Y015350D03*
X013235Y015363D03*
X013235Y015383D03*
X013235Y015396D03*
X013235Y015130D03*
X013135Y015130D03*
X013015Y014983D03*
X013015Y014950D03*
X013295Y014950D03*
X013295Y014930D03*
X013315Y015017D03*
X013555Y015383D03*
X014640Y014983D03*
X014640Y014963D03*
X014820Y014963D03*
X014820Y014983D03*
X011790Y014963D03*
X011790Y014950D03*
X011530Y014963D03*
X011530Y014983D03*
D135*
X014647Y014930D03*
X011630Y017914D03*
D136*
X011620Y017887D03*
X011460Y017974D03*
X011740Y018067D03*
X011740Y018074D03*
X011720Y018120D03*
X011720Y018134D03*
X011880Y018233D03*
X011940Y018120D03*
X013125Y018473D03*
X013365Y018287D03*
X013545Y018154D03*
X013185Y017254D03*
X013185Y017241D03*
X013185Y017234D03*
X011380Y017401D03*
X013505Y015270D03*
X011660Y014937D03*
D137*
X012319Y015516D03*
X012645Y016029D03*
X013684Y014950D03*
X014550Y014983D03*
X014550Y014997D03*
D138*
X013062Y016295D03*
X012982Y016249D03*
X011557Y015896D03*
X012123Y015017D03*
X011117Y014963D03*
X011477Y017248D03*
X014201Y017181D03*
D139*
X014081Y017008D03*
X012116Y018267D03*
X012096Y018287D03*
X011144Y014977D03*
X011144Y014970D03*
D140*
X012306Y014977D03*
X012306Y015490D03*
D141*
X011144Y014983D03*
X013528Y016429D03*
X014094Y017028D03*
X014001Y017914D03*
X012103Y018280D03*
D142*
X012023Y018313D03*
X011377Y018160D03*
X011317Y017980D03*
X011437Y017781D03*
X011577Y017814D03*
X012809Y018547D03*
X013588Y018313D03*
X013102Y016682D03*
X011943Y016096D03*
X012096Y014997D03*
X012336Y014983D03*
D143*
X013305Y014983D03*
D144*
X011200Y014990D03*
X012532Y018600D03*
D145*
X013318Y015023D03*
X014823Y014990D03*
X014843Y015103D03*
D146*
X011930Y016116D03*
X013095Y016648D03*
X011790Y014997D03*
D147*
X013991Y015729D03*
X014304Y014997D03*
D148*
X014770Y014997D03*
X013565Y015396D03*
X011820Y015097D03*
X011540Y017747D03*
X013365Y018447D03*
D149*
X013511Y015689D03*
X011806Y015003D03*
D150*
X012113Y015003D03*
X012146Y015736D03*
X012093Y015909D03*
X011567Y015856D03*
X011547Y015956D03*
X012446Y016402D03*
X012466Y016389D03*
X012539Y016342D03*
X012566Y016322D03*
X012592Y016309D03*
X012646Y016542D03*
X013152Y016342D03*
X013638Y015942D03*
X014084Y015789D03*
X014244Y017241D03*
X012852Y017274D03*
X012852Y017175D03*
X012852Y017168D03*
X014131Y018034D03*
X012692Y018473D03*
X012546Y018633D03*
X011287Y017987D03*
D151*
X011370Y018154D03*
X011450Y017754D03*
X013115Y018353D03*
X013235Y018473D03*
X013315Y018533D03*
X013035Y018686D03*
X013035Y018740D03*
X013095Y016655D03*
X013095Y016642D03*
X011930Y016122D03*
X014740Y015003D03*
D152*
X013484Y015669D03*
X012279Y015636D03*
X012086Y015936D03*
X012066Y015956D03*
X012672Y016269D03*
X012725Y016242D03*
X012738Y016235D03*
X012765Y016222D03*
X013018Y016275D03*
X012485Y017075D03*
X011493Y017221D03*
X013811Y018307D03*
X013851Y018273D03*
X014017Y017887D03*
X014184Y017155D03*
X012725Y018700D03*
X012119Y015010D03*
X011813Y015010D03*
D153*
X013235Y015310D03*
X013315Y015010D03*
X013415Y015942D03*
X011870Y018100D03*
X011870Y018107D03*
X011870Y018120D03*
X013095Y018267D03*
X013315Y018540D03*
D154*
X012755Y018507D03*
X012109Y018453D03*
X012462Y016102D03*
X012109Y015789D03*
X013714Y016056D03*
X014107Y015909D03*
X014107Y015902D03*
X013894Y015010D03*
D155*
X014104Y015010D03*
X013558Y015756D03*
X013698Y016022D03*
X014084Y015936D03*
X013072Y016568D03*
X012599Y016588D03*
X011913Y016156D03*
X012093Y015869D03*
X012093Y015856D03*
X012093Y015836D03*
X012852Y017208D03*
X012852Y017221D03*
X012852Y017234D03*
X012852Y017241D03*
X012446Y017501D03*
X012459Y017534D03*
X012459Y017541D03*
X012466Y017554D03*
X012479Y017574D03*
X013398Y018207D03*
X013558Y018287D03*
X013971Y018087D03*
X014284Y017301D03*
X013032Y018706D03*
D156*
X012139Y018154D03*
X012099Y018120D03*
X012452Y017521D03*
X012532Y017301D03*
X012592Y016602D03*
X011979Y016036D03*
X013684Y016002D03*
X013704Y016036D03*
X014350Y015010D03*
X014297Y017934D03*
X014390Y018007D03*
D157*
X014287Y017927D03*
X013887Y018347D03*
X013867Y018327D03*
X013568Y018293D03*
X012782Y018527D03*
X013035Y018726D03*
X012116Y018460D03*
X012096Y018114D03*
X011903Y018147D03*
X011410Y017348D03*
X012589Y016615D03*
X012595Y016595D03*
X011916Y016149D03*
X011969Y016049D03*
X013561Y015783D03*
X014107Y015916D03*
X013894Y015017D03*
X012968Y015017D03*
X011396Y015017D03*
X012935Y017081D03*
D158*
X013185Y017081D03*
X011900Y018160D03*
X011560Y017794D03*
X011400Y017361D03*
X013245Y018480D03*
X011960Y016062D03*
X011660Y015017D03*
D159*
X011816Y015017D03*
X011563Y015883D03*
D160*
X012362Y015350D03*
X013754Y015017D03*
X012795Y017128D03*
X014127Y017781D03*
X014167Y018094D03*
X013714Y018160D03*
X013694Y018127D03*
X013694Y018114D03*
X013694Y018094D03*
D161*
X013308Y018507D03*
X012063Y018300D03*
X014194Y017168D03*
X014201Y017175D03*
X012862Y016775D03*
X013049Y016289D03*
X013568Y015876D03*
X013761Y016122D03*
X014101Y015856D03*
X014094Y015836D03*
X012176Y015709D03*
X011557Y015889D03*
X011557Y015902D03*
X011557Y015909D03*
X011823Y015023D03*
D162*
X012129Y015023D03*
X014207Y017188D03*
X013754Y018054D03*
X012562Y017334D03*
D163*
X011583Y017821D03*
X011443Y017767D03*
X011283Y018054D03*
X011503Y018167D03*
X011896Y018167D03*
X011896Y018174D03*
X013108Y018333D03*
X013108Y018340D03*
X013228Y018467D03*
X013581Y018307D03*
X013108Y016708D03*
X011936Y016109D03*
X011936Y016102D03*
X011956Y016069D03*
X013328Y015410D03*
X012968Y015023D03*
D164*
X013894Y015023D03*
X014520Y015023D03*
X012582Y016642D03*
X012582Y016655D03*
X012582Y016668D03*
X012582Y016675D03*
X012522Y017274D03*
X012422Y017434D03*
X012422Y017441D03*
X012089Y018107D03*
X011969Y018087D03*
X013734Y018187D03*
X013754Y018207D03*
X013754Y018333D03*
X013934Y018054D03*
X014127Y017787D03*
X014307Y017341D03*
D165*
X014350Y017421D03*
X012925Y018287D03*
X012412Y017274D03*
X012412Y017254D03*
X012512Y017208D03*
X012512Y017201D03*
X012512Y017188D03*
X012512Y017175D03*
X012512Y017168D03*
X012512Y017155D03*
X012512Y017141D03*
X012179Y015290D03*
X014097Y015023D03*
D166*
X013168Y016162D03*
X013108Y016715D03*
X013108Y016728D03*
X013281Y017281D03*
X011623Y017994D03*
X011283Y018047D03*
X011676Y015030D03*
D167*
X014097Y015030D03*
D168*
X014650Y015030D03*
X012492Y015430D03*
X012279Y015616D03*
X012965Y016715D03*
X012965Y016728D03*
X012965Y016748D03*
X014370Y017461D03*
D169*
X013288Y017268D03*
X013182Y017268D03*
X012509Y017108D03*
X011597Y017834D03*
X011883Y018220D03*
X012036Y018387D03*
X012822Y018566D03*
X012969Y018566D03*
X013628Y018367D03*
X012822Y015436D03*
X011677Y015037D03*
D170*
X011810Y015037D03*
X011810Y015057D03*
X013115Y015057D03*
X013115Y015037D03*
X013215Y015037D03*
X013215Y015057D03*
D171*
X012532Y015037D03*
X012472Y015276D03*
X012412Y017268D03*
X012412Y017288D03*
D172*
X011340Y017508D03*
X013545Y015456D03*
X013385Y015276D03*
X013425Y015037D03*
X014650Y015037D03*
X014750Y015037D03*
D173*
X013758Y015037D03*
X013658Y015037D03*
X013338Y015436D03*
X012832Y015456D03*
X011813Y015989D03*
X012779Y016555D03*
X014224Y017854D03*
D174*
X013098Y018273D03*
X011866Y018307D03*
X011806Y017974D03*
X013238Y015323D03*
X013391Y015290D03*
X011686Y015043D03*
D175*
X014530Y015043D03*
X012432Y017155D03*
X013824Y018087D03*
D176*
X011563Y015083D03*
D177*
X011563Y015103D03*
X013128Y015310D03*
X013501Y015423D03*
X013521Y015356D03*
X013188Y017188D03*
X011543Y017754D03*
D178*
X013448Y015823D03*
X012942Y015256D03*
X012476Y015256D03*
D179*
X013065Y015263D03*
X011340Y017514D03*
D180*
X013108Y016722D03*
X013108Y015436D03*
X013068Y015276D03*
X013421Y018367D03*
D181*
X012542Y017314D03*
X012795Y015283D03*
D182*
X013505Y015283D03*
X013565Y015816D03*
X013125Y018380D03*
D183*
X012582Y018420D03*
X012109Y018134D03*
X012735Y017068D03*
X013734Y016089D03*
X014107Y015889D03*
X012795Y015290D03*
X012129Y015756D03*
D184*
X012179Y015296D03*
X012512Y017148D03*
X012512Y017161D03*
X012512Y017181D03*
X012512Y017195D03*
X012412Y017248D03*
X014350Y017414D03*
X013744Y018347D03*
D185*
X013098Y016662D03*
X011926Y016129D03*
X013491Y015350D03*
D186*
X012442Y015356D03*
X012855Y016042D03*
D187*
X012809Y016062D03*
X012449Y015363D03*
D188*
X012449Y015370D03*
X012749Y016089D03*
X012722Y016102D03*
X011703Y016955D03*
X011683Y016975D03*
X012862Y017321D03*
D189*
X014167Y017135D03*
X013015Y016522D03*
X012482Y015376D03*
D190*
X013108Y015423D03*
X013541Y015723D03*
X013561Y018453D03*
D191*
X013335Y015430D03*
D192*
X013531Y015430D03*
X013118Y018360D03*
D193*
X012965Y016742D03*
X012965Y016722D03*
X012492Y015436D03*
D194*
X013535Y015436D03*
X013115Y016742D03*
D195*
X012409Y017308D03*
X012196Y018200D03*
X012202Y018220D03*
X012549Y018367D03*
X012549Y018387D03*
X012928Y018367D03*
X013155Y018566D03*
X013614Y018407D03*
X013548Y018220D03*
X013541Y018200D03*
X011849Y018040D03*
X012489Y015476D03*
D196*
X013365Y015589D03*
X013565Y015789D03*
X011420Y017334D03*
X013465Y018400D03*
D197*
X013371Y015596D03*
D198*
X013372Y015603D03*
X014151Y017108D03*
X014064Y018000D03*
D199*
X013535Y016435D03*
X013235Y016235D03*
X013215Y016222D03*
X013375Y015609D03*
D200*
X013378Y015616D03*
D201*
X013378Y015623D03*
X011773Y015969D03*
X011713Y016941D03*
X013997Y016901D03*
D202*
X013192Y016362D03*
X012559Y016329D03*
X012526Y016349D03*
X012506Y016362D03*
X012013Y015996D03*
X011547Y015962D03*
X012279Y015629D03*
X011287Y017994D03*
X013758Y018047D03*
D203*
X012965Y015996D03*
X013045Y015962D03*
X013385Y015629D03*
D204*
X013391Y015636D03*
X011826Y015889D03*
X011806Y015936D03*
D205*
X012279Y015643D03*
X012279Y016355D03*
D206*
X013391Y015643D03*
X013837Y015843D03*
D207*
X012499Y016216D03*
X012279Y015649D03*
X011586Y017095D03*
X011553Y018027D03*
X013424Y018247D03*
D208*
X012626Y016948D03*
X013838Y016748D03*
X012273Y016016D03*
X013398Y015649D03*
D209*
X012649Y016136D03*
X012276Y015656D03*
X014041Y016955D03*
D210*
X013821Y016735D03*
X012602Y015976D03*
X013401Y015656D03*
X011909Y016735D03*
X011889Y016755D03*
X012702Y018673D03*
D211*
X011697Y016961D03*
X012269Y015663D03*
D212*
X013405Y015663D03*
D213*
X013871Y015909D03*
X012326Y015889D03*
X012266Y015669D03*
D214*
X012262Y015676D03*
X011829Y015876D03*
X011789Y015956D03*
X011803Y016835D03*
X011796Y016842D03*
X011789Y016855D03*
X011776Y016868D03*
X012642Y016935D03*
X012848Y016402D03*
X013115Y015936D03*
X014067Y018107D03*
D215*
X013811Y018300D03*
X012679Y018467D03*
X012559Y018640D03*
X012852Y017155D03*
X013192Y017068D03*
X014224Y017208D03*
X013112Y016322D03*
X012659Y016275D03*
X012093Y015922D03*
X011547Y015936D03*
X011547Y015942D03*
X013498Y015676D03*
X014091Y015809D03*
X014104Y015869D03*
D216*
X013864Y015896D03*
X012259Y015683D03*
X013944Y016848D03*
D217*
X013505Y015683D03*
D218*
X012252Y015689D03*
X013937Y016842D03*
D219*
X013928Y016828D03*
X013861Y015883D03*
X012249Y015696D03*
X011823Y015896D03*
X011823Y016815D03*
X012709Y018680D03*
D220*
X013248Y016395D03*
X013641Y015949D03*
X013521Y015696D03*
D221*
X013851Y015869D03*
X012246Y015703D03*
D222*
X012096Y015902D03*
X012982Y016242D03*
X013202Y016369D03*
X013242Y016389D03*
X013728Y016076D03*
X013648Y015956D03*
X013528Y015703D03*
X012436Y016409D03*
X012416Y016422D03*
X014254Y017254D03*
X012116Y018140D03*
X011803Y018007D03*
D223*
X012852Y017161D03*
X014211Y017195D03*
X014104Y015863D03*
X012166Y015716D03*
D224*
X012132Y015749D03*
X012126Y015763D03*
X012112Y015783D03*
X012405Y016429D03*
X012379Y016449D03*
X012852Y017181D03*
X012852Y017195D03*
X014337Y017960D03*
X013984Y018094D03*
X012732Y018493D03*
X012106Y018447D03*
X012086Y018427D03*
X012106Y018127D03*
X013717Y016062D03*
X013538Y015716D03*
X014084Y015783D03*
D225*
X014104Y015883D03*
X013738Y016096D03*
X013338Y016449D03*
X012579Y016315D03*
X012153Y015729D03*
X014251Y017248D03*
D226*
X013085Y016595D03*
X013545Y015729D03*
D227*
X013744Y016102D03*
X012492Y016369D03*
X012139Y015743D03*
D228*
X011870Y016249D03*
X013555Y015749D03*
X013035Y018713D03*
D229*
X011660Y015796D03*
D230*
X011996Y016016D03*
X012103Y015796D03*
X012602Y016582D03*
X013668Y015982D03*
X013681Y015996D03*
X013568Y015829D03*
X014281Y017294D03*
D231*
X012855Y017281D03*
X014067Y017994D03*
X011889Y016182D03*
X012029Y015982D03*
X014087Y015796D03*
D232*
X013661Y015969D03*
X013388Y015843D03*
X013062Y016555D03*
X012609Y016575D03*
X012103Y015803D03*
X014274Y017288D03*
X014387Y018000D03*
X011803Y018000D03*
X011284Y018020D03*
D233*
X011803Y018020D03*
X011463Y017268D03*
X012655Y016535D03*
X014087Y015803D03*
X013408Y018220D03*
D234*
X013861Y018253D03*
X014054Y016975D03*
X012635Y016142D03*
X012262Y016002D03*
X013841Y015809D03*
X011656Y017008D03*
X011643Y017021D03*
D235*
X011280Y018027D03*
X012572Y018413D03*
X013904Y018360D03*
X013937Y018047D03*
X014290Y017314D03*
X012099Y015816D03*
D236*
X012995Y015982D03*
X013827Y015816D03*
D237*
X014091Y015816D03*
X013032Y016529D03*
X011467Y017261D03*
D238*
X013125Y018387D03*
X013565Y015823D03*
D239*
X013828Y015823D03*
X012636Y016941D03*
D240*
X013788Y016169D03*
X014094Y015823D03*
D241*
X011573Y015829D03*
X011613Y017861D03*
D242*
X013132Y018393D03*
X012246Y015982D03*
X012093Y015849D03*
X012093Y015829D03*
D243*
X013831Y015829D03*
D244*
X014094Y015829D03*
X014101Y015849D03*
X012669Y016529D03*
X012056Y015962D03*
X012156Y018247D03*
D245*
X011806Y017987D03*
X011573Y017807D03*
X013431Y018373D03*
X013571Y018300D03*
X011573Y015836D03*
D246*
X011920Y016136D03*
X013405Y015836D03*
X011900Y018154D03*
D247*
X012878Y017801D03*
X012858Y016788D03*
X011839Y016802D03*
X013398Y015976D03*
X013837Y015836D03*
X013844Y015856D03*
X013857Y015876D03*
X013897Y016802D03*
X013904Y016808D03*
X013917Y016822D03*
D248*
X013165Y016169D03*
X012625Y016555D03*
X011899Y016169D03*
X011999Y016009D03*
X013564Y015843D03*
X011433Y017308D03*
X013138Y018407D03*
X013478Y018407D03*
D249*
X012792Y016209D03*
X014097Y015843D03*
D250*
X013375Y015849D03*
D251*
X013841Y015849D03*
D252*
X013355Y015856D03*
X011510Y017201D03*
X013555Y018440D03*
D253*
X011460Y017274D03*
X013565Y015856D03*
D254*
X013621Y015929D03*
X012615Y016295D03*
X012089Y015916D03*
X011563Y015863D03*
X011550Y015949D03*
X012489Y017081D03*
X014227Y017215D03*
X014234Y017228D03*
X013847Y018280D03*
X013821Y018293D03*
X013528Y018260D03*
X013561Y018447D03*
X013308Y018513D03*
D255*
X013515Y016415D03*
X013335Y016295D03*
X013335Y015863D03*
D256*
X013565Y015863D03*
D257*
X013851Y015863D03*
X013911Y016815D03*
D258*
X012948Y016002D03*
X012868Y016036D03*
X011836Y015869D03*
X011743Y016908D03*
D259*
X012632Y016289D03*
X012272Y015869D03*
X014217Y017201D03*
D260*
X014078Y017001D03*
X014064Y016988D03*
X013538Y016442D03*
X012612Y016156D03*
X013318Y015869D03*
X012506Y017055D03*
X011633Y017035D03*
X011627Y017041D03*
X011553Y018007D03*
X012619Y018453D03*
D261*
X013085Y016309D03*
X013565Y015869D03*
D262*
X011563Y015876D03*
X011483Y017234D03*
X011483Y017241D03*
X011543Y018054D03*
D263*
X012605Y018440D03*
X014137Y017088D03*
X012685Y016522D03*
X012432Y016255D03*
X012399Y016275D03*
X012379Y016289D03*
X012359Y016302D03*
X012299Y016342D03*
X012945Y016142D03*
X012965Y016136D03*
X012292Y015876D03*
D264*
X013295Y015876D03*
X011690Y016968D03*
D265*
X011826Y015883D03*
D266*
X012096Y015883D03*
X012363Y016462D03*
X013701Y016029D03*
X014314Y017947D03*
X013548Y018280D03*
X012536Y018626D03*
D267*
X012715Y018693D03*
X014087Y017015D03*
X012309Y015883D03*
D268*
X012732Y016096D03*
X012765Y016082D03*
X012838Y016049D03*
X013271Y015883D03*
D269*
X013568Y015883D03*
X012076Y015949D03*
D270*
X013205Y015902D03*
X013245Y015889D03*
X011720Y016935D03*
D271*
X011527Y017175D03*
X012486Y017068D03*
X012859Y017301D03*
X013758Y018067D03*
X013964Y018034D03*
X013418Y018233D03*
X012912Y016156D03*
X012632Y016002D03*
X012086Y015942D03*
X013571Y015889D03*
X013591Y015909D03*
D272*
X013861Y015889D03*
X012423Y016076D03*
D273*
X012096Y015896D03*
X012456Y016395D03*
X013408Y015949D03*
X013728Y016082D03*
X012496Y017594D03*
X012123Y018147D03*
X012709Y018480D03*
D274*
X011783Y016862D03*
X011796Y015949D03*
X012342Y015896D03*
D275*
X013225Y015896D03*
X013205Y017328D03*
D276*
X011453Y018180D03*
X012978Y016129D03*
X013571Y015896D03*
D277*
X014107Y015896D03*
X012422Y016415D03*
X012955Y017061D03*
X014367Y017980D03*
D278*
X013185Y016056D03*
X011820Y015902D03*
X011800Y015942D03*
D279*
X012362Y015902D03*
X013867Y016775D03*
D280*
X013481Y016389D03*
X013408Y016342D03*
X013781Y016136D03*
X013581Y015902D03*
X014127Y017075D03*
X014147Y017101D03*
X012848Y017135D03*
X011550Y017141D03*
X011543Y017155D03*
X011456Y018187D03*
X012595Y018653D03*
X013754Y018074D03*
X013854Y018267D03*
D281*
X013198Y017334D03*
X013964Y016868D03*
X013971Y016875D03*
X013984Y016888D03*
X013152Y015922D03*
X013099Y015942D03*
X013012Y015976D03*
X013871Y015902D03*
D282*
X011816Y015909D03*
X011816Y016822D03*
D283*
X011866Y016775D03*
X011873Y016768D03*
X012379Y015909D03*
X013844Y016755D03*
X013858Y016768D03*
D284*
X013145Y016069D03*
X013185Y015909D03*
X011760Y016888D03*
D285*
X011490Y017228D03*
X013035Y016282D03*
X011550Y015929D03*
X011550Y015916D03*
D286*
X011816Y015916D03*
D287*
X012399Y015916D03*
D288*
X012885Y016029D03*
X013165Y016062D03*
X013165Y015916D03*
D289*
X013604Y015916D03*
X012752Y016229D03*
X012712Y016249D03*
X012685Y016262D03*
X012852Y017148D03*
X014177Y017148D03*
X014190Y017161D03*
X011500Y017215D03*
D290*
X011547Y017148D03*
X012086Y018293D03*
X013751Y018080D03*
X013891Y015916D03*
D291*
X013615Y015922D03*
X013075Y016302D03*
X011870Y016222D03*
X011550Y015922D03*
X013515Y018253D03*
D292*
X011830Y016808D03*
X011810Y015922D03*
D293*
X012279Y016022D03*
X012419Y015922D03*
X011959Y016688D03*
X011939Y016708D03*
X013724Y016655D03*
X013744Y016668D03*
X013751Y016675D03*
D294*
X011810Y015929D03*
D295*
X012089Y015929D03*
X013754Y016116D03*
D296*
X013694Y016628D03*
X012522Y015949D03*
X012442Y015929D03*
X011969Y016682D03*
D297*
X011767Y016882D03*
X013079Y015949D03*
X013132Y015929D03*
X013958Y016862D03*
X013978Y016882D03*
D298*
X012495Y015942D03*
X012469Y015936D03*
X012695Y018666D03*
D299*
X012962Y017055D03*
X013628Y015936D03*
D300*
X014067Y015949D03*
X012582Y016648D03*
X012582Y016662D03*
X011949Y016082D03*
X011330Y017960D03*
X011969Y018094D03*
X014127Y017794D03*
D301*
X012539Y015956D03*
D302*
X013062Y015956D03*
X011770Y016875D03*
D303*
X011517Y017188D03*
X012709Y017055D03*
X012849Y017141D03*
X012902Y017807D03*
X014161Y017121D03*
X014174Y017141D03*
X013788Y016156D03*
X013408Y015956D03*
X012982Y016255D03*
X012869Y016176D03*
X012809Y016202D03*
D304*
X011783Y015962D03*
D305*
X012559Y015962D03*
X011933Y016715D03*
X013798Y016715D03*
D306*
X013168Y016196D03*
X013401Y015962D03*
D307*
X013658Y015962D03*
D308*
X013039Y016535D03*
X012546Y016335D03*
X012519Y016355D03*
X012486Y016375D03*
X012632Y016009D03*
X011547Y015969D03*
X013944Y018040D03*
D309*
X012046Y015969D03*
D310*
X012579Y015969D03*
X013072Y016941D03*
D311*
X013028Y015969D03*
X012269Y016009D03*
D312*
X013401Y015969D03*
D313*
X011870Y016242D03*
X011550Y015976D03*
X013535Y018267D03*
X013315Y018520D03*
D314*
X013211Y017321D03*
X011673Y016988D03*
X011766Y015976D03*
D315*
X011550Y015982D03*
D316*
X011763Y015982D03*
X012243Y016382D03*
X012269Y016362D03*
X012289Y016349D03*
D317*
X012615Y015982D03*
D318*
X013395Y015982D03*
D319*
X011577Y016009D03*
X011557Y015989D03*
D320*
X012020Y015989D03*
D321*
X012252Y015989D03*
D322*
X012622Y015989D03*
D323*
X012932Y016009D03*
X012979Y015989D03*
X011747Y016901D03*
D324*
X013392Y015989D03*
D325*
X013675Y015989D03*
D326*
X012256Y015996D03*
D327*
X012536Y016196D03*
X012629Y015996D03*
X013202Y016216D03*
D328*
X013378Y015996D03*
X013611Y016562D03*
X012126Y016549D03*
X012086Y016582D03*
D329*
X012056Y016608D03*
X012036Y016622D03*
X012602Y016975D03*
X012855Y016802D03*
X013661Y016602D03*
X013361Y016002D03*
D330*
X013325Y016009D03*
D331*
X013691Y016009D03*
X013078Y016575D03*
D332*
X012919Y016016D03*
X011753Y016895D03*
D333*
X013305Y016016D03*
D334*
X013691Y016016D03*
X013078Y016582D03*
X011906Y016162D03*
D335*
X012822Y016056D03*
X012902Y016022D03*
D336*
X013285Y016022D03*
X012845Y016409D03*
X013065Y016935D03*
D337*
X011986Y016029D03*
X013311Y018527D03*
D338*
X012842Y016429D03*
X012396Y016062D03*
X012289Y016029D03*
X012189Y016495D03*
D339*
X011880Y016762D03*
X013265Y016029D03*
D340*
X012296Y016036D03*
D341*
X013225Y016042D03*
X013245Y016036D03*
X011853Y016788D03*
D342*
X012592Y017021D03*
X012592Y017035D03*
X012312Y016042D03*
D343*
X012339Y016049D03*
X013511Y016482D03*
D344*
X013205Y016049D03*
D345*
X013714Y016049D03*
X012482Y017581D03*
D346*
X013534Y016502D03*
X012369Y016056D03*
D347*
X012409Y016069D03*
X013768Y016688D03*
D348*
X014004Y016908D03*
X013125Y016076D03*
X012792Y016069D03*
X012778Y016076D03*
X012712Y018686D03*
D349*
X012625Y018460D03*
X012665Y016129D03*
X012692Y016116D03*
X012432Y016082D03*
D350*
X013108Y016082D03*
D351*
X012446Y016089D03*
X013498Y016402D03*
X014124Y017068D03*
X014011Y017900D03*
X012133Y018253D03*
D352*
X014024Y016935D03*
X013085Y016089D03*
X012705Y016109D03*
D353*
X012645Y016282D03*
X012452Y016096D03*
X012725Y017061D03*
X012592Y018427D03*
D354*
X014047Y016961D03*
X013068Y016096D03*
D355*
X013048Y016102D03*
X013248Y016242D03*
X013268Y016255D03*
X013188Y017055D03*
X013221Y017301D03*
X013541Y018420D03*
X011616Y017055D03*
D356*
X011600Y017075D03*
X011580Y017101D03*
X013305Y016275D03*
X013325Y016289D03*
X013345Y016302D03*
X013032Y016109D03*
D357*
X013012Y016116D03*
D358*
X012679Y016122D03*
X014051Y016968D03*
X014071Y018120D03*
D359*
X011590Y017088D03*
X013355Y016309D03*
X012995Y016122D03*
D360*
X013771Y016129D03*
X013192Y017061D03*
X013811Y018313D03*
D361*
X014074Y018134D03*
X014114Y017055D03*
X013788Y016142D03*
X012489Y016222D03*
X012456Y016242D03*
X012409Y016269D03*
X012349Y016309D03*
X012329Y016322D03*
X012263Y016369D03*
X012236Y016389D03*
X012196Y016422D03*
X012136Y016475D03*
D362*
X012626Y016149D03*
X014071Y016995D03*
X014071Y018127D03*
D363*
X014014Y017894D03*
X014134Y017081D03*
X013488Y016395D03*
X013787Y016149D03*
X012928Y016149D03*
X011536Y017161D03*
X013301Y018493D03*
D364*
X013538Y018413D03*
X012859Y017314D03*
X011553Y018014D03*
X012599Y016162D03*
D365*
X012899Y016162D03*
D366*
X012822Y016196D03*
X013788Y016162D03*
X011457Y018194D03*
D367*
X013218Y017308D03*
X012586Y016169D03*
D368*
X012882Y016169D03*
D369*
X012575Y016176D03*
X014067Y018007D03*
X012109Y018273D03*
D370*
X011473Y017254D03*
X013158Y016176D03*
D371*
X012562Y016182D03*
D372*
X012778Y016216D03*
X012852Y016182D03*
X011873Y016196D03*
X011866Y016216D03*
X012858Y017294D03*
X013411Y018227D03*
D373*
X013158Y016182D03*
D374*
X011880Y016189D03*
D375*
X012549Y016189D03*
D376*
X012835Y016189D03*
D377*
X013155Y016189D03*
D378*
X013451Y016369D03*
X011866Y016202D03*
X011533Y017168D03*
D379*
X011606Y017068D03*
X012146Y016469D03*
X012159Y016455D03*
X012172Y016442D03*
X012179Y016435D03*
X012219Y016402D03*
X012465Y016235D03*
X012525Y016202D03*
X013178Y016202D03*
X013291Y016269D03*
X013518Y016422D03*
X014090Y017021D03*
X014097Y017035D03*
X014104Y017041D03*
X014004Y017907D03*
X011446Y018174D03*
D380*
X011866Y016209D03*
D381*
X012512Y016209D03*
X011553Y018020D03*
D382*
X013188Y016209D03*
D383*
X013098Y016315D03*
X011866Y016229D03*
D384*
X012203Y016415D03*
X012229Y016395D03*
X012369Y016295D03*
X012389Y016282D03*
X012476Y016229D03*
X013368Y016315D03*
X013548Y018427D03*
D385*
X012945Y018460D03*
X012925Y018347D03*
X012925Y018327D03*
X012925Y018313D03*
X012552Y018327D03*
X012412Y017394D03*
X012512Y017228D03*
X012985Y016229D03*
X014330Y017381D03*
X014337Y017394D03*
D386*
X013221Y016229D03*
X011623Y017048D03*
D387*
X012982Y016235D03*
D388*
X012442Y016249D03*
X012422Y016262D03*
X012189Y016429D03*
X012129Y016482D03*
X014107Y017048D03*
D389*
X013311Y016282D03*
X013278Y016262D03*
X013258Y016249D03*
X012852Y016395D03*
X012166Y016449D03*
X012152Y016462D03*
X011593Y017081D03*
X012126Y018260D03*
X012612Y018447D03*
X013857Y018260D03*
D390*
X012599Y018433D03*
X012699Y016255D03*
D391*
X012995Y016262D03*
X014167Y017128D03*
X013754Y018060D03*
X012575Y018646D03*
D392*
X011503Y017208D03*
X013008Y016269D03*
D393*
X012339Y016315D03*
X012492Y017061D03*
X014117Y017061D03*
D394*
X013378Y016322D03*
X011566Y017121D03*
X011553Y017135D03*
X011553Y018034D03*
X013298Y018487D03*
X013551Y018433D03*
D395*
X012319Y016329D03*
D396*
X013125Y016329D03*
X011800Y018027D03*
D397*
X013385Y016329D03*
D398*
X012309Y016335D03*
X012256Y016375D03*
X011577Y017108D03*
D399*
X013138Y016335D03*
X013178Y016355D03*
D400*
X013398Y016335D03*
D401*
X013165Y016349D03*
X011800Y018014D03*
D402*
X014140Y017095D03*
X013468Y016382D03*
X013441Y016362D03*
X013421Y016349D03*
D403*
X013428Y016355D03*
X013461Y016375D03*
X011550Y018040D03*
D404*
X011450Y017288D03*
X013215Y016375D03*
D405*
X012476Y016382D03*
X014021Y017881D03*
D406*
X013401Y018214D03*
X011463Y018214D03*
X011443Y017294D03*
X013228Y016382D03*
D407*
X012209Y016409D03*
X013814Y018320D03*
D408*
X013505Y016409D03*
D409*
X012845Y016415D03*
X012612Y016961D03*
D410*
X013285Y016415D03*
X013305Y016429D03*
D411*
X013648Y016588D03*
X012842Y016422D03*
X012103Y016568D03*
X012063Y016602D03*
X012023Y016635D03*
D412*
X012842Y016435D03*
D413*
X012842Y016442D03*
X013475Y016455D03*
D414*
X013325Y016442D03*
D415*
X012842Y016449D03*
X013102Y017015D03*
X012596Y017048D03*
D416*
X011640Y017028D03*
X013545Y016449D03*
D417*
X012842Y016455D03*
D418*
X012845Y016462D03*
D419*
X013481Y016462D03*
X013095Y016995D03*
D420*
X012845Y016469D03*
D421*
X013491Y016469D03*
D422*
X012845Y016475D03*
D423*
X013498Y016475D03*
X013518Y016489D03*
X013099Y016988D03*
X012592Y017001D03*
X012592Y017008D03*
D424*
X012326Y016482D03*
D425*
X012848Y016482D03*
D426*
X013544Y016509D03*
X013564Y016522D03*
X012199Y016489D03*
D427*
X012849Y016489D03*
D428*
X012845Y016495D03*
D429*
X013528Y016495D03*
D430*
X013588Y016542D03*
X013621Y016568D03*
X013089Y016968D03*
X012596Y016988D03*
X012176Y016509D03*
X012183Y016502D03*
D431*
X012849Y016502D03*
D432*
X012848Y016509D03*
D433*
X012599Y016981D03*
X012166Y016515D03*
D434*
X012849Y016515D03*
D435*
X013551Y016515D03*
D436*
X012159Y016522D03*
X012079Y016588D03*
D437*
X012152Y016529D03*
D438*
X013571Y016529D03*
D439*
X012143Y016535D03*
D440*
X013578Y016535D03*
D441*
X012133Y016542D03*
D442*
X012635Y016549D03*
X013914Y018247D03*
D443*
X013595Y016549D03*
D444*
X013604Y016555D03*
X012119Y016555D03*
D445*
X012925Y016555D03*
D446*
X013638Y016582D03*
X012113Y016562D03*
D447*
X012619Y016562D03*
D448*
X013068Y016562D03*
D449*
X012096Y016575D03*
D450*
X013631Y016575D03*
D451*
X013654Y016595D03*
X012069Y016595D03*
X012029Y016628D03*
D452*
X012013Y016642D03*
X013079Y016955D03*
X013671Y016608D03*
D453*
X012046Y016615D03*
D454*
X012006Y016648D03*
X011993Y016662D03*
X013678Y016615D03*
D455*
X013685Y016622D03*
X012000Y016655D03*
D456*
X011976Y016675D03*
X013701Y016635D03*
D457*
X013708Y016642D03*
X012609Y016968D03*
X011983Y016668D03*
D458*
X013718Y016648D03*
D459*
X013735Y016662D03*
X012855Y016795D03*
D460*
X013761Y016682D03*
D461*
X011953Y016695D03*
D462*
X013775Y016695D03*
D463*
X011946Y016702D03*
D464*
X012576Y016722D03*
X012576Y016742D03*
X013102Y016702D03*
X013748Y018200D03*
X013768Y018220D03*
D465*
X014028Y018020D03*
X013781Y016702D03*
D466*
X013791Y016708D03*
D467*
X011926Y016722D03*
D468*
X013804Y016722D03*
D469*
X011919Y016728D03*
X014024Y018014D03*
D470*
X013814Y016728D03*
X011896Y016748D03*
D471*
X011903Y016742D03*
D472*
X013827Y016742D03*
D473*
X012775Y016748D03*
D474*
X013851Y016762D03*
D475*
X011859Y016782D03*
X011846Y016795D03*
D476*
X012859Y016782D03*
D477*
X013128Y016782D03*
X011383Y017394D03*
X011463Y017980D03*
X013148Y018547D03*
X013361Y018280D03*
D478*
X013887Y016795D03*
X013874Y016782D03*
D479*
X013881Y016788D03*
D480*
X012855Y016808D03*
D481*
X012855Y016815D03*
X013095Y016981D03*
X012595Y016995D03*
D482*
X012852Y016822D03*
D483*
X011813Y016828D03*
X011793Y016848D03*
D484*
X012852Y016828D03*
D485*
X012852Y016835D03*
D486*
X013931Y016835D03*
X013951Y016855D03*
D487*
X012855Y016842D03*
D488*
X012852Y016848D03*
D489*
X012852Y016855D03*
D490*
X012855Y016862D03*
D491*
X012855Y016868D03*
D492*
X012855Y016875D03*
D493*
X012859Y016882D03*
D494*
X012859Y016888D03*
D495*
X012858Y016895D03*
D496*
X013987Y016895D03*
D497*
X012859Y016901D03*
D498*
X012862Y016908D03*
D499*
X011736Y016915D03*
X011723Y016928D03*
D500*
X012862Y016915D03*
D501*
X014008Y016915D03*
X014021Y016928D03*
D502*
X011730Y016921D03*
D503*
X012662Y016921D03*
D504*
X012988Y016921D03*
D505*
X014014Y016921D03*
D506*
X012652Y016928D03*
X011706Y016948D03*
D507*
X013055Y016928D03*
D508*
X014031Y016941D03*
D509*
X013078Y016948D03*
D510*
X014037Y016948D03*
D511*
X012619Y016955D03*
D512*
X013085Y016961D03*
X012865Y017794D03*
D513*
X013092Y016975D03*
D514*
X011680Y016981D03*
D515*
X014061Y016981D03*
D516*
X011666Y016995D03*
D517*
X011660Y017001D03*
D518*
X013098Y017001D03*
D519*
X013102Y017008D03*
X012596Y017041D03*
X012862Y017787D03*
D520*
X011650Y017015D03*
D521*
X012589Y017015D03*
D522*
X013098Y017021D03*
X013098Y017035D03*
X013098Y017041D03*
D523*
X012592Y017028D03*
D524*
X013098Y017028D03*
D525*
X013095Y017048D03*
D526*
X011610Y017061D03*
D527*
X013185Y017108D03*
D528*
X011570Y017115D03*
D529*
X012915Y017115D03*
X014167Y018047D03*
X014400Y018027D03*
X012835Y018593D03*
X012835Y018613D03*
X012542Y018580D03*
X012542Y018560D03*
X012029Y018380D03*
D530*
X014157Y017115D03*
D531*
X011560Y017128D03*
D532*
X011520Y017181D03*
D533*
X011976Y018060D03*
X013361Y018460D03*
X013188Y017195D03*
X013188Y017181D03*
D534*
X011513Y017195D03*
D535*
X011360Y017448D03*
X011500Y018080D03*
X011860Y018060D03*
X013185Y017228D03*
X013185Y017215D03*
X013285Y017195D03*
D536*
X013185Y017248D03*
X013545Y018160D03*
X013365Y018293D03*
X013205Y018447D03*
X013185Y018427D03*
X013125Y018480D03*
X011720Y018127D03*
X011460Y017727D03*
D537*
X012855Y017268D03*
X014260Y017268D03*
D538*
X013285Y017274D03*
X011347Y017934D03*
X011327Y017967D03*
X011347Y018134D03*
D539*
X011453Y017281D03*
D540*
X012855Y017288D03*
D541*
X013178Y017288D03*
X013118Y018367D03*
D542*
X013225Y017294D03*
D543*
X012859Y017308D03*
X013418Y018240D03*
D544*
X013215Y017314D03*
D545*
X014294Y017321D03*
D546*
X011423Y017328D03*
D547*
X012552Y017328D03*
X014077Y018147D03*
D548*
X012862Y017328D03*
D549*
X012862Y017334D03*
D550*
X012905Y017341D03*
X012905Y017354D03*
X012912Y017368D03*
X012912Y017374D03*
D551*
X012912Y017381D03*
X012905Y017361D03*
X012905Y017348D03*
D552*
X012915Y017388D03*
D553*
X012915Y017394D03*
D554*
X012918Y017401D03*
X012918Y017408D03*
D555*
X012922Y017414D03*
D556*
X012925Y017421D03*
D557*
X012925Y017428D03*
D558*
X012928Y017434D03*
X012928Y017441D03*
D559*
X012928Y017448D03*
D560*
X012928Y017454D03*
D561*
X012928Y017461D03*
D562*
X012928Y017468D03*
D563*
X012932Y017474D03*
D564*
X012932Y017481D03*
D565*
X012932Y017488D03*
D566*
X012935Y017494D03*
X012862Y017647D03*
D567*
X012932Y017501D03*
D568*
X012932Y017508D03*
D569*
X012932Y017514D03*
D570*
X012935Y017521D03*
D571*
X012472Y017561D03*
X012452Y017528D03*
X012765Y018513D03*
D572*
X012932Y017528D03*
D573*
X012935Y017534D03*
X012935Y017541D03*
D574*
X012935Y017548D03*
D575*
X012935Y017554D03*
D576*
X012939Y017561D03*
D577*
X012935Y017567D03*
D578*
X012939Y017574D03*
D579*
X012935Y017581D03*
D580*
X012935Y017587D03*
D581*
X012935Y017594D03*
D582*
X012862Y017601D03*
D583*
X012862Y017607D03*
D584*
X012858Y017614D03*
D585*
X012862Y017621D03*
D586*
X012862Y017627D03*
D587*
X012859Y017634D03*
D588*
X012858Y017641D03*
D589*
X012862Y017654D03*
D590*
X012862Y017661D03*
D591*
X012862Y017667D03*
D592*
X012862Y017674D03*
D593*
X012862Y017681D03*
D594*
X012862Y017687D03*
D595*
X012859Y017694D03*
D596*
X012859Y017701D03*
D597*
X012862Y017707D03*
D598*
X012862Y017714D03*
D599*
X012862Y017721D03*
D600*
X012859Y017727D03*
D601*
X012859Y017734D03*
D602*
X012859Y017741D03*
D603*
X012859Y017747D03*
D604*
X012859Y017754D03*
D605*
X012862Y017761D03*
D606*
X012862Y017767D03*
D607*
X012862Y017774D03*
D608*
X012862Y017781D03*
D609*
X013361Y018253D03*
X013381Y018320D03*
X013128Y018487D03*
X013148Y018553D03*
X011603Y017841D03*
X011423Y017801D03*
X011383Y017867D03*
X011363Y017900D03*
D610*
X011403Y017834D03*
X011756Y018040D03*
X011696Y018200D03*
X011876Y018240D03*
D611*
X011607Y017854D03*
X012932Y018387D03*
X012932Y018407D03*
X013898Y018000D03*
D612*
X011620Y017874D03*
D613*
X011620Y017881D03*
X011700Y018194D03*
X011880Y018227D03*
D614*
X011440Y017927D03*
D615*
X011630Y017980D03*
X011310Y018094D03*
X013375Y018313D03*
X013355Y018480D03*
X013615Y018347D03*
D616*
X011890Y018194D03*
X011470Y018227D03*
X011470Y017994D03*
D617*
X011283Y018000D03*
D618*
X012189Y018240D03*
X012562Y018407D03*
X014400Y018020D03*
D619*
X014034Y018027D03*
D620*
X011550Y018047D03*
D621*
X013961Y018080D03*
D622*
X014001Y018100D03*
D623*
X014067Y018114D03*
D624*
X014077Y018140D03*
D625*
X011463Y018200D03*
D626*
X013931Y018240D03*
D627*
X011870Y018327D03*
D628*
X013305Y018500D03*
D629*
X012835Y018586D03*
X012835Y018606D03*
X012542Y018566D03*
D630*
X012968Y018586D03*
D631*
X012689Y018660D03*
D632*
X005531Y017018D02*
X005531Y016671D01*
X005444Y016584D01*
X005184Y016584D01*
X005184Y017104D01*
X005444Y017104D01*
X005531Y017018D01*
X005015Y017104D02*
X005015Y016584D01*
X004669Y017104D01*
X004669Y016584D01*
X004500Y016671D02*
X004500Y016844D01*
X004326Y016844D01*
X004153Y016671D02*
X004153Y017018D01*
X004240Y017104D01*
X004413Y017104D01*
X004500Y017018D01*
X004500Y016671D02*
X004413Y016584D01*
X004240Y016584D01*
X004153Y016671D01*
X004081Y015615D02*
X004081Y015308D01*
X004234Y015154D01*
X004388Y015308D01*
X004388Y015615D01*
X004541Y015615D02*
X004541Y015154D01*
X004848Y015154D01*
X005001Y015154D02*
X005308Y015615D01*
X005462Y015615D02*
X005769Y015615D01*
X005615Y015615D02*
X005615Y015154D01*
X005308Y015154D02*
X005001Y015615D01*
X004848Y015615D02*
X004541Y015615D01*
X004541Y015384D02*
X004694Y015384D01*
X006612Y013993D02*
X006612Y013687D01*
X006612Y013840D02*
X006152Y013840D01*
X006305Y013687D01*
X020194Y016524D02*
X020194Y016644D01*
X020255Y016704D01*
X020375Y016704D01*
X020375Y016584D01*
X020495Y016464D02*
X020255Y016464D01*
X020194Y016524D01*
X020375Y016336D02*
X020375Y016096D01*
X020375Y015968D02*
X020375Y015728D01*
X020495Y016464D02*
X020555Y016524D01*
X020555Y016644D01*
X020495Y016704D01*
X020555Y016832D02*
X020194Y017073D01*
X020555Y017073D01*
X020555Y017201D02*
X020555Y017381D01*
X020495Y017441D01*
X020255Y017441D01*
X020194Y017381D01*
X020194Y017201D01*
X020555Y017201D01*
X020555Y016832D02*
X020194Y016832D01*
X020375Y017569D02*
X020375Y017809D01*
X020375Y017937D02*
X020375Y018178D01*
X006120Y005797D02*
X006120Y005337D01*
X006427Y005337D01*
X005967Y005337D02*
X005967Y005644D01*
X005813Y005797D01*
X005660Y005644D01*
X005660Y005337D01*
X005507Y005337D02*
X005507Y005797D01*
X005353Y005644D01*
X005200Y005797D01*
X005200Y005337D01*
X005046Y005337D02*
X004893Y005490D01*
X004969Y005490D02*
X004739Y005490D01*
X004739Y005337D02*
X004739Y005797D01*
X004969Y005797D01*
X005046Y005721D01*
X005046Y005567D01*
X004969Y005490D01*
X004586Y005414D02*
X004586Y005721D01*
X004509Y005797D01*
X004356Y005797D01*
X004279Y005721D01*
X004279Y005414D01*
X004356Y005337D01*
X004509Y005337D01*
X004586Y005414D01*
X004126Y005337D02*
X004126Y005797D01*
X003819Y005797D02*
X004126Y005337D01*
X003819Y005337D02*
X003819Y005797D01*
X005660Y005567D02*
X005967Y005567D01*
X008089Y004765D02*
X008319Y004765D01*
X008396Y004688D01*
X008396Y004534D01*
X008319Y004458D01*
X008089Y004458D01*
X008242Y004458D02*
X008396Y004304D01*
X008549Y004304D02*
X008856Y004304D01*
X009009Y004381D02*
X009086Y004304D01*
X009240Y004304D01*
X009316Y004381D01*
X009316Y004458D01*
X009240Y004534D01*
X009086Y004534D01*
X009009Y004611D01*
X009009Y004688D01*
X009086Y004765D01*
X009240Y004765D01*
X009316Y004688D01*
X009470Y004765D02*
X009470Y004304D01*
X009777Y004304D01*
X009623Y004534D02*
X009470Y004534D01*
X009470Y004765D02*
X009777Y004765D01*
X009930Y004765D02*
X010237Y004765D01*
X010084Y004765D02*
X010084Y004304D01*
X008856Y004765D02*
X008549Y004765D01*
X008549Y004304D01*
X008549Y004534D02*
X008702Y004534D01*
X008089Y004304D02*
X008089Y004765D01*
X015265Y002962D02*
X015341Y003038D01*
X015495Y003038D01*
X015572Y002962D01*
X015572Y002885D01*
X015265Y002578D01*
X015572Y002578D01*
X015418Y002038D02*
X015418Y001578D01*
X015265Y001578D02*
X015572Y001578D01*
X015265Y001885D02*
X015418Y002038D01*
X019015Y002038D02*
X019015Y001808D01*
X019168Y001885D01*
X019245Y001885D01*
X019322Y001808D01*
X019322Y001655D01*
X019245Y001578D01*
X019091Y001578D01*
X019015Y001655D01*
X019015Y002038D02*
X019322Y002038D01*
X019245Y002578D02*
X019322Y002655D01*
X019322Y002731D01*
X019245Y002808D01*
X019015Y002808D01*
X019015Y002655D01*
X019091Y002578D01*
X019245Y002578D01*
X019015Y002808D02*
X019168Y002962D01*
X019322Y003038D01*
D633*
X020416Y019206D03*
X020416Y019678D03*
X016479Y019678D03*
X016479Y019206D03*
X012542Y019206D03*
X012542Y019678D03*
X008694Y019678D03*
X008694Y019206D03*
D634*
X008694Y019442D03*
X012542Y019442D03*
X016479Y019442D03*
X020416Y019442D03*
D635*
X007278Y015696D03*
D636*
X007419Y016193D02*
X007419Y016439D01*
X007542Y016316D02*
X007295Y016316D01*
X010933Y007439D02*
X010933Y007192D01*
X011056Y007315D02*
X010809Y007315D01*
D637*
X017672Y005669D03*
D638*
X018006Y005344D02*
X016313Y005344D01*
X016313Y007273D01*
X018006Y007273D01*
X018006Y005344D01*
X020111Y002314D02*
X020113Y002364D01*
X020119Y002414D01*
X020129Y002463D01*
X020143Y002511D01*
X020160Y002558D01*
X020181Y002603D01*
X020206Y002647D01*
X020234Y002688D01*
X020266Y002727D01*
X020300Y002764D01*
X020337Y002798D01*
X020377Y002828D01*
X020419Y002855D01*
X020463Y002879D01*
X020509Y002900D01*
X020556Y002916D01*
X020604Y002929D01*
X020654Y002938D01*
X020703Y002943D01*
X020754Y002944D01*
X020804Y002941D01*
X020853Y002934D01*
X020902Y002923D01*
X020950Y002908D01*
X020996Y002890D01*
X021041Y002868D01*
X021084Y002842D01*
X021125Y002813D01*
X021164Y002781D01*
X021200Y002746D01*
X021232Y002708D01*
X021262Y002668D01*
X021289Y002625D01*
X021312Y002581D01*
X021331Y002535D01*
X021347Y002487D01*
X021359Y002438D01*
X021367Y002389D01*
X021371Y002339D01*
X021371Y002289D01*
X021367Y002239D01*
X021359Y002190D01*
X021347Y002141D01*
X021331Y002093D01*
X021312Y002047D01*
X021289Y002003D01*
X021262Y001960D01*
X021232Y001920D01*
X021200Y001882D01*
X021164Y001847D01*
X021125Y001815D01*
X021084Y001786D01*
X021041Y001760D01*
X020996Y001738D01*
X020950Y001720D01*
X020902Y001705D01*
X020853Y001694D01*
X020804Y001687D01*
X020754Y001684D01*
X020703Y001685D01*
X020654Y001690D01*
X020604Y001699D01*
X020556Y001712D01*
X020509Y001728D01*
X020463Y001749D01*
X020419Y001773D01*
X020377Y001800D01*
X020337Y001830D01*
X020300Y001864D01*
X020266Y001901D01*
X020234Y001940D01*
X020206Y001981D01*
X020181Y002025D01*
X020160Y002070D01*
X020143Y002117D01*
X020129Y002165D01*
X020119Y002214D01*
X020113Y002264D01*
X020111Y002314D01*
X015041Y002264D02*
X015041Y001764D01*
X014791Y001514D01*
X014291Y001514D01*
X014041Y001764D01*
X013791Y001514D01*
X013291Y001514D01*
X013041Y001764D01*
X012791Y001514D01*
X012291Y001514D01*
X012041Y001764D01*
X012041Y002264D01*
X012291Y002514D01*
X012791Y002514D01*
X013041Y002264D01*
X013291Y002514D01*
X013791Y002514D01*
X014041Y002264D01*
X014291Y002514D01*
X014791Y002514D01*
X015041Y002264D01*
X003751Y002614D02*
X003753Y002664D01*
X003759Y002714D01*
X003769Y002763D01*
X003783Y002811D01*
X003800Y002858D01*
X003821Y002903D01*
X003846Y002947D01*
X003874Y002988D01*
X003906Y003027D01*
X003940Y003064D01*
X003977Y003098D01*
X004017Y003128D01*
X004059Y003155D01*
X004103Y003179D01*
X004149Y003200D01*
X004196Y003216D01*
X004244Y003229D01*
X004294Y003238D01*
X004343Y003243D01*
X004394Y003244D01*
X004444Y003241D01*
X004493Y003234D01*
X004542Y003223D01*
X004590Y003208D01*
X004636Y003190D01*
X004681Y003168D01*
X004724Y003142D01*
X004765Y003113D01*
X004804Y003081D01*
X004840Y003046D01*
X004872Y003008D01*
X004902Y002968D01*
X004929Y002925D01*
X004952Y002881D01*
X004971Y002835D01*
X004987Y002787D01*
X004999Y002738D01*
X005007Y002689D01*
X005011Y002639D01*
X005011Y002589D01*
X005007Y002539D01*
X004999Y002490D01*
X004987Y002441D01*
X004971Y002393D01*
X004952Y002347D01*
X004929Y002303D01*
X004902Y002260D01*
X004872Y002220D01*
X004840Y002182D01*
X004804Y002147D01*
X004765Y002115D01*
X004724Y002086D01*
X004681Y002060D01*
X004636Y002038D01*
X004590Y002020D01*
X004542Y002005D01*
X004493Y001994D01*
X004444Y001987D01*
X004394Y001984D01*
X004343Y001985D01*
X004294Y001990D01*
X004244Y001999D01*
X004196Y002012D01*
X004149Y002028D01*
X004103Y002049D01*
X004059Y002073D01*
X004017Y002100D01*
X003977Y002130D01*
X003940Y002164D01*
X003906Y002201D01*
X003874Y002240D01*
X003846Y002281D01*
X003821Y002325D01*
X003800Y002370D01*
X003783Y002417D01*
X003769Y002465D01*
X003759Y002514D01*
X003753Y002564D01*
X003751Y002614D01*
X010596Y009469D02*
X010439Y009626D01*
X010439Y013091D01*
X010596Y013248D01*
X014061Y013248D01*
X014218Y013091D01*
X014218Y009626D01*
X014061Y009469D01*
X010596Y009469D01*
X020781Y013884D02*
X020781Y014384D01*
X021031Y014634D01*
X020781Y014884D01*
X020781Y015384D01*
X021031Y015634D01*
X020781Y015884D01*
X020781Y016384D01*
X021031Y016634D01*
X020781Y016884D01*
X020781Y017384D01*
X021031Y017634D01*
X020781Y017884D01*
X020781Y018384D01*
X021031Y018634D01*
X021531Y018634D01*
X021781Y018384D01*
X021781Y017884D01*
X021531Y017634D01*
X021781Y017384D01*
X021781Y016884D01*
X021531Y016634D01*
X021781Y016384D01*
X021781Y015884D01*
X021531Y015634D01*
X021781Y015384D01*
X021781Y014884D01*
X021531Y014634D01*
X021781Y014384D01*
X021781Y013884D01*
X021531Y013634D01*
X021031Y013634D01*
X020781Y013884D01*
X003551Y018644D02*
X003553Y018694D01*
X003559Y018744D01*
X003569Y018793D01*
X003583Y018841D01*
X003600Y018888D01*
X003621Y018933D01*
X003646Y018977D01*
X003674Y019018D01*
X003706Y019057D01*
X003740Y019094D01*
X003777Y019128D01*
X003817Y019158D01*
X003859Y019185D01*
X003903Y019209D01*
X003949Y019230D01*
X003996Y019246D01*
X004044Y019259D01*
X004094Y019268D01*
X004143Y019273D01*
X004194Y019274D01*
X004244Y019271D01*
X004293Y019264D01*
X004342Y019253D01*
X004390Y019238D01*
X004436Y019220D01*
X004481Y019198D01*
X004524Y019172D01*
X004565Y019143D01*
X004604Y019111D01*
X004640Y019076D01*
X004672Y019038D01*
X004702Y018998D01*
X004729Y018955D01*
X004752Y018911D01*
X004771Y018865D01*
X004787Y018817D01*
X004799Y018768D01*
X004807Y018719D01*
X004811Y018669D01*
X004811Y018619D01*
X004807Y018569D01*
X004799Y018520D01*
X004787Y018471D01*
X004771Y018423D01*
X004752Y018377D01*
X004729Y018333D01*
X004702Y018290D01*
X004672Y018250D01*
X004640Y018212D01*
X004604Y018177D01*
X004565Y018145D01*
X004524Y018116D01*
X004481Y018090D01*
X004436Y018068D01*
X004390Y018050D01*
X004342Y018035D01*
X004293Y018024D01*
X004244Y018017D01*
X004194Y018014D01*
X004143Y018015D01*
X004094Y018020D01*
X004044Y018029D01*
X003996Y018042D01*
X003949Y018058D01*
X003903Y018079D01*
X003859Y018103D01*
X003817Y018130D01*
X003777Y018160D01*
X003740Y018194D01*
X003706Y018231D01*
X003674Y018270D01*
X003646Y018311D01*
X003621Y018355D01*
X003600Y018400D01*
X003583Y018447D01*
X003569Y018495D01*
X003559Y018544D01*
X003553Y018594D01*
X003551Y018644D01*
D639*
X013353Y010034D02*
X013355Y010068D01*
X013361Y010102D01*
X013370Y010135D01*
X013384Y010166D01*
X013401Y010196D01*
X013421Y010224D01*
X013444Y010249D01*
X013470Y010272D01*
X013498Y010291D01*
X013528Y010307D01*
X013560Y010319D01*
X013593Y010328D01*
X013627Y010333D01*
X013662Y010334D01*
X013696Y010331D01*
X013729Y010324D01*
X013762Y010314D01*
X013793Y010299D01*
X013822Y010282D01*
X013849Y010261D01*
X013874Y010237D01*
X013896Y010210D01*
X013914Y010182D01*
X013929Y010151D01*
X013941Y010119D01*
X013949Y010085D01*
X013953Y010051D01*
X013953Y010017D01*
X013949Y009983D01*
X013941Y009949D01*
X013929Y009917D01*
X013914Y009886D01*
X013896Y009858D01*
X013874Y009831D01*
X013849Y009807D01*
X013822Y009786D01*
X013793Y009769D01*
X013762Y009754D01*
X013729Y009744D01*
X013696Y009737D01*
X013662Y009734D01*
X013627Y009735D01*
X013593Y009740D01*
X013560Y009749D01*
X013528Y009761D01*
X013498Y009777D01*
X013470Y009796D01*
X013444Y009819D01*
X013421Y009844D01*
X013401Y009872D01*
X013384Y009902D01*
X013370Y009933D01*
X013361Y009966D01*
X013355Y010000D01*
X013353Y010034D01*
D640*
X013071Y006475D03*
D641*
X014586Y006475D03*
D642*
X014547Y006731D03*
X014547Y006219D03*
D643*
X017654Y011425D03*
X017855Y014066D03*
D644*
X017855Y012551D03*
X017654Y009909D03*
D645*
X017910Y009948D03*
X017398Y009948D03*
X017599Y012590D03*
X018111Y012590D03*
D646*
X016245Y001058D02*
X016495Y000808D01*
X015995Y000808D01*
X016245Y001058D01*
X016265Y001038D02*
X016224Y001038D01*
X016201Y001014D02*
X016288Y001014D01*
X016312Y000991D02*
X016177Y000991D01*
X016154Y000967D02*
X016335Y000967D01*
X016359Y000944D02*
X016130Y000944D01*
X016107Y000920D02*
X016382Y000920D01*
X016406Y000897D02*
X016083Y000897D01*
X016060Y000873D02*
X016429Y000873D01*
X016453Y000850D02*
X016036Y000850D01*
X016013Y000826D02*
X016476Y000826D01*
M02*
